%TF.GenerationSoftware,KiCad,Pcbnew,7.0.7*%
%TF.CreationDate,2024-01-16T10:23:13+01:00*%
%TF.ProjectId,board,626f6172-642e-46b6-9963-61645f706362,rev?*%
%TF.SameCoordinates,Original*%
%TF.FileFunction,Profile,NP*%
%FSLAX46Y46*%
G04 Gerber Fmt 4.6, Leading zero omitted, Abs format (unit mm)*
G04 Created by KiCad (PCBNEW 7.0.7) date 2024-01-16 10:23:13*
%MOMM*%
%LPD*%
G01*
G04 APERTURE LIST*
%TA.AperFunction,Profile*%
%ADD10C,0.050000*%
%TD*%
%TA.AperFunction,Profile*%
%ADD11C,0.100000*%
%TD*%
G04 APERTURE END LIST*
D10*
X177299998Y-145399998D02*
X153407106Y-145399999D01*
X181099998Y-135399998D02*
X190099998Y-135399998D01*
X104000000Y-141400000D02*
G75*
G03*
X105000000Y-142400000I1000000J0D01*
G01*
X179299999Y-142399999D02*
X190099998Y-142399998D01*
X116000000Y-92000000D02*
G75*
G03*
X115000000Y-93000000I0J-1000000D01*
G01*
X104000000Y-136400000D02*
X104000000Y-141400000D01*
X177299998Y-145399998D02*
G75*
G03*
X178299998Y-144399998I2J999998D01*
G01*
X105000000Y-135400000D02*
X114000000Y-135400000D01*
X152399999Y-143399999D02*
X152399999Y-144399999D01*
X105000000Y-135400000D02*
G75*
G03*
X104000000Y-136400000I0J-1000000D01*
G01*
X148200000Y-92000000D02*
X179099998Y-91999998D01*
X139600000Y-92000000D02*
X116000000Y-92000000D01*
X114000000Y-135400000D02*
G75*
G03*
X115000000Y-134400000I0J1000000D01*
G01*
X116799999Y-144399999D02*
X116799999Y-143399999D01*
X152400001Y-143399999D02*
G75*
G03*
X151399999Y-142399999I-1000001J-1D01*
G01*
X179299999Y-142399999D02*
G75*
G03*
X178299999Y-143399999I1J-1000001D01*
G01*
X180100002Y-134399998D02*
G75*
G03*
X181099998Y-135399998I999998J-2D01*
G01*
X138592892Y-142399992D02*
G75*
G03*
X137592892Y-143399999I8J-1000008D01*
G01*
X178299999Y-143399999D02*
X178299998Y-144399998D01*
X138592892Y-142399999D02*
X151399999Y-142399999D01*
X191100002Y-136399998D02*
G75*
G03*
X190099998Y-135399998I-1000002J-2D01*
G01*
X180099998Y-134399998D02*
X180099998Y-92999998D01*
X137592892Y-144399999D02*
X137592892Y-143399999D01*
X180100002Y-92999998D02*
G75*
G03*
X179099998Y-91999998I-1000002J-2D01*
G01*
X105000000Y-142400000D02*
X115799999Y-142399999D01*
X116800001Y-143399999D02*
G75*
G03*
X115799999Y-142399999I-1000001J-1D01*
G01*
X136592892Y-145399999D02*
X117799999Y-145399999D01*
X136592892Y-145399992D02*
G75*
G03*
X137592892Y-144399999I8J999992D01*
G01*
X116800001Y-144399999D02*
G75*
G03*
X117799999Y-145399999I999999J-1D01*
G01*
X152407101Y-144399999D02*
G75*
G03*
X153407106Y-145399999I999999J-1D01*
G01*
X190099998Y-142399998D02*
G75*
G03*
X191099998Y-141399998I2J999998D01*
G01*
X115000000Y-134400000D02*
X115000000Y-93000000D01*
X191099998Y-136399998D02*
X191099998Y-141399998D01*
D11*
%TO.C,J6*%
X148200000Y-92000000D02*
X139600000Y-92000000D01*
%TD*%
M02*
