%TF.GenerationSoftware,KiCad,Pcbnew,7.0.7*%
%TF.CreationDate,2024-01-16T10:23:13+01:00*%
%TF.ProjectId,board,626f6172-642e-46b6-9963-61645f706362,rev?*%
%TF.SameCoordinates,Original*%
%TF.FileFunction,Soldermask,Bot*%
%TF.FilePolarity,Negative*%
%FSLAX46Y46*%
G04 Gerber Fmt 4.6, Leading zero omitted, Abs format (unit mm)*
G04 Created by KiCad (PCBNEW 7.0.7) date 2024-01-16 10:23:13*
%MOMM*%
%LPD*%
G01*
G04 APERTURE LIST*
G04 Aperture macros list*
%AMRoundRect*
0 Rectangle with rounded corners*
0 $1 Rounding radius*
0 $2 $3 $4 $5 $6 $7 $8 $9 X,Y pos of 4 corners*
0 Add a 4 corners polygon primitive as box body*
4,1,4,$2,$3,$4,$5,$6,$7,$8,$9,$2,$3,0*
0 Add four circle primitives for the rounded corners*
1,1,$1+$1,$2,$3*
1,1,$1+$1,$4,$5*
1,1,$1+$1,$6,$7*
1,1,$1+$1,$8,$9*
0 Add four rect primitives between the rounded corners*
20,1,$1+$1,$2,$3,$4,$5,0*
20,1,$1+$1,$4,$5,$6,$7,0*
20,1,$1+$1,$6,$7,$8,$9,0*
20,1,$1+$1,$8,$9,$2,$3,0*%
%AMFreePoly0*
4,1,19,0.500000,-0.750000,0.000000,-0.750000,0.000000,-0.744911,-0.071157,-0.744911,-0.207708,-0.704816,-0.327430,-0.627875,-0.420627,-0.520320,-0.479746,-0.390866,-0.500000,-0.250000,-0.500000,0.250000,-0.479746,0.390866,-0.420627,0.520320,-0.327430,0.627875,-0.207708,0.704816,-0.071157,0.744911,0.000000,0.744911,0.000000,0.750000,0.500000,0.750000,0.500000,-0.750000,0.500000,-0.750000,
$1*%
%AMFreePoly1*
4,1,19,0.000000,0.744911,0.071157,0.744911,0.207708,0.704816,0.327430,0.627875,0.420627,0.520320,0.479746,0.390866,0.500000,0.250000,0.500000,-0.250000,0.479746,-0.390866,0.420627,-0.520320,0.327430,-0.627875,0.207708,-0.704816,0.071157,-0.744911,0.000000,-0.744911,0.000000,-0.750000,-0.500000,-0.750000,-0.500000,0.750000,0.000000,0.750000,0.000000,0.744911,0.000000,0.744911,
$1*%
G04 Aperture macros list end*
%ADD10C,3.250000*%
%ADD11C,1.200000*%
%ADD12C,1.300000*%
%ADD13C,2.000000*%
%ADD14RoundRect,0.200100X-0.949900X-0.949900X0.949900X-0.949900X0.949900X0.949900X-0.949900X0.949900X0*%
%ADD15C,2.500000*%
%ADD16C,1.000000*%
%ADD17C,1.650000*%
%ADD18C,6.000000*%
%ADD19O,1.200000X2.900000*%
%ADD20R,1.700000X1.700000*%
%ADD21O,1.700000X1.700000*%
%ADD22FreePoly0,270.000000*%
%ADD23FreePoly1,270.000000*%
%ADD24FreePoly0,0.000000*%
%ADD25FreePoly1,0.000000*%
G04 APERTURE END LIST*
D10*
%TO.C,J8*%
X165285000Y-103200000D03*
X176715000Y-103200000D03*
D11*
X175445000Y-109550000D03*
X174175000Y-112090000D03*
X172905000Y-109550000D03*
X171635000Y-112090000D03*
X170365000Y-109550000D03*
X169095000Y-112090000D03*
X167825000Y-109550000D03*
X166555000Y-112090000D03*
D12*
X177625000Y-98300000D03*
X175085000Y-98300000D03*
X166915000Y-98300000D03*
X164375000Y-98300000D03*
D13*
X178745000Y-106250000D03*
X163255000Y-106250000D03*
%TD*%
D14*
%TO.C,J6*%
X143900000Y-96500000D03*
D15*
X141360000Y-93960000D03*
X141360000Y-99040000D03*
X146440000Y-93960000D03*
X146440000Y-99040000D03*
%TD*%
D16*
%TO.C,J2*%
X161772499Y-128723500D03*
D17*
X141772499Y-128723500D03*
%TD*%
D16*
%TO.C,J1*%
X136612499Y-128723500D03*
D17*
X116612499Y-128723500D03*
%TD*%
D18*
%TO.C,H1*%
X139712500Y-105700000D03*
%TD*%
D19*
%TO.C,J3*%
X129400000Y-101000000D03*
X116600000Y-101000000D03*
%TD*%
D20*
%TO.C,J5*%
X153899999Y-141599999D03*
D21*
X156439999Y-141599999D03*
X158979999Y-141599999D03*
X161519999Y-141599999D03*
X164059999Y-141599999D03*
X166599999Y-141599999D03*
X169139999Y-141599999D03*
X171679999Y-141599999D03*
X174219999Y-141599999D03*
X176759999Y-141599999D03*
%TD*%
D22*
%TO.C,JP3*%
X136100000Y-135850000D03*
D23*
X136100000Y-137150000D03*
%TD*%
D20*
%TO.C,J4*%
X118319999Y-141599999D03*
D21*
X120859999Y-141599999D03*
X123399999Y-141599999D03*
X125939999Y-141599999D03*
X128479999Y-141599999D03*
X131019999Y-141599999D03*
X133559999Y-141599999D03*
X136099999Y-141599999D03*
%TD*%
D24*
%TO.C,JP2*%
X138650000Y-136200000D03*
D25*
X139950000Y-136200000D03*
%TD*%
M02*
