M48
; DRILL file {KiCad 7.0.7} date 2024 January 16, Tuesday 10:23:15
; FORMAT={-:-/ absolute / inch / decimal}
; #@! TF.CreationDate,2024-01-16T10:23:15+01:00
; #@! TF.GenerationSoftware,Kicad,Pcbnew,7.0.7
; #@! TF.FileFunction,Plated,1,4,PTH
FMAT,2
INCH
; #@! TA.AperFunction,Plated,PTH,ViaDrill
T1C0.0079
; #@! TA.AperFunction,Plated,PTH,ViaDrill
T2C0.0197
; #@! TA.AperFunction,Plated,PTH,ComponentDrill
T3C0.0236
; #@! TA.AperFunction,Plated,PTH,ComponentDrill
T4C0.0354
; #@! TA.AperFunction,Plated,PTH,ComponentDrill
T5C0.0394
; #@! TA.AperFunction,Plated,PTH,ComponentDrill
T6C0.0591
; #@! TA.AperFunction,Plated,PTH,ComponentDrill
T7C0.0650
; #@! TA.AperFunction,Plated,PTH,ComponentDrill
T8C0.0669
; #@! TA.AperFunction,Plated,PTH,ComponentDrill
T9C0.1457
%
G90
G05
T1
X5.3583Y-5.345
X5.4587Y-5.345
X5.4606Y-3.9882
X5.4621Y-4.6024
X5.4921Y-4.6693
X5.4921Y-4.7244
X5.5015Y-4.5669
X5.5748Y-4.4409
X5.5748Y-4.6063
X5.6024Y-4.6535
X5.7799Y-4.4079
X5.7835Y-4.4449
X5.7953Y-4.3701
X5.8042Y-4.5157
X5.8122Y-4.3892
X5.8228Y-4.4764
X5.8248Y-4.2205
X5.8504Y-4.5482
X5.8622Y-4.3268
X5.8671Y-4.8661
X5.8976Y-4.3307
X5.9213Y-4.5945
X5.9567Y-4.9173
X5.9715Y-5.0315
X6.0069Y-5.2074
X6.0255Y-5.2283
X6.0443Y-5.2063
X6.063Y-5.2244
X6.0748Y-5.0276
X6.0817Y-5.2008
X6.0827Y-4.4409
X6.1017Y-5.2167
X6.1141Y-4.9173
X6.126Y-5.2087
X6.1349Y-4.8819
X6.1535Y-4.9134
X6.1585Y-5.1496
X6.1654Y-4.3346
X6.1772Y-4.3858
X6.1772Y-4.5157
X6.2165Y-4.8228
X6.2795Y-4.8731
X6.2835Y-3.9646
X6.2835Y-4.0945
X6.3465Y-3.9646
X6.4094Y-4.8268
X6.4488Y-4.8268
X6.5197Y-4.6929
X6.5748Y-4.8976
X6.5787Y-5.2598
X6.5827Y-4.9252
X6.6284Y-5.0409
X6.6693Y-4.5433
X6.6811Y-4.6929
X6.689Y-4.8465
X6.689Y-4.874
X6.7038Y-5.0039
X6.7165Y-4.874
X6.7441Y-4.7953
X6.7638Y-5.252
X6.7717Y-4.7953
X6.7717Y-4.8228
X6.811Y-5.1575
X6.811Y-5.252
X6.8189Y-4.5433
X6.8189Y-4.9291
X6.8268Y-4.7323
X6.8464Y-4.9489
X6.8465Y-4.9213
X6.8622Y-5.1024
X6.8661Y-5.252
X6.8858Y-5.0551
X6.8937Y-4.9084
X6.8976Y-4.5748
X6.9026Y-4.5433
X6.9173Y-4.811
X6.9921Y-4.5748
T2
X4.8425Y-4.2047
X6.3189Y-5.0472
T4
X6.5573Y-4.413
X6.6073Y-4.313
X6.6573Y-4.413
X6.7073Y-4.313
X6.7573Y-4.413
X6.8073Y-4.313
X6.8573Y-4.413
X6.9073Y-4.313
T5
X4.6583Y-5.5748
X4.7583Y-5.5748
X4.8583Y-5.5748
X4.9583Y-5.5748
X5.0583Y-5.5748
X5.1583Y-5.5748
X5.2583Y-5.5748
X5.3583Y-5.5748
X6.0591Y-5.5748
X6.1591Y-5.5748
X6.2591Y-5.5748
X6.3591Y-5.5748
X6.4591Y-5.5748
X6.4715Y-3.8701
X6.5591Y-5.5748
X6.5715Y-3.8701
X6.6591Y-5.5748
X6.7591Y-5.5748
X6.8591Y-5.5748
X6.8931Y-3.8701
X6.9591Y-5.5748
X6.9931Y-3.8701
T6
X5.6654Y-3.7992
T7
X6.4274Y-4.1831
X7.0372Y-4.1831
T8
X5.5654Y-3.6992
X5.5654Y-3.8992
X5.7654Y-3.6992
X5.7654Y-3.8992
T9
X5.5005Y-4.1614
T3
G00X4.5906Y-4.0098
M15
G01X4.5906Y-3.9429
M16
G05
G00X5.0945Y-4.0098
M15
G01X5.0945Y-3.9429
M16
G05
T0
M30
