%TF.GenerationSoftware,KiCad,Pcbnew,7.0.7*%
%TF.CreationDate,2024-01-16T10:23:15+01:00*%
%TF.ProjectId,board,626f6172-642e-46b6-9963-61645f706362,rev?*%
%TF.SameCoordinates,Original*%
%TF.FileFunction,Drillmap*%
%TF.FilePolarity,Positive*%
%FSLAX45Y45*%
G04 Gerber Fmt 4.5, Leading zero omitted, Abs format (unit mm)*
G04 Created by KiCad (PCBNEW 7.0.7) date 2024-01-16 10:23:15*
%MOMM*%
%LPD*%
G01*
G04 APERTURE LIST*
%ADD10C,0.050000*%
%ADD11C,0.200000*%
%ADD12C,0.020000*%
%ADD13C,0.060000*%
%ADD14C,0.090000*%
%ADD15C,0.100000*%
%ADD16C,0.150000*%
%ADD17C,0.165000*%
%ADD18C,0.170000*%
%ADD19C,0.370000*%
G04 APERTURE END LIST*
D10*
X17730000Y-14540000D02*
X15340711Y-14540000D01*
X18110000Y-13540000D02*
X19010000Y-13540000D01*
X10400000Y-14140000D02*
G75*
G03*
X10500000Y-14240000I100000J0D01*
G01*
X17930000Y-14240000D02*
X19010000Y-14240000D01*
X11600000Y-9200000D02*
G75*
G03*
X11500000Y-9300000I0J-100000D01*
G01*
X10400000Y-13640000D02*
X10400000Y-14140000D01*
X17730000Y-14540000D02*
G75*
G03*
X17830000Y-14440000I0J100000D01*
G01*
X10500000Y-13540000D02*
X11400000Y-13540000D01*
X15240000Y-14340000D02*
X15240000Y-14440000D01*
X10500000Y-13540000D02*
G75*
G03*
X10400000Y-13640000I0J-100000D01*
G01*
X14820000Y-9200000D02*
X17910000Y-9200000D01*
X13960000Y-9200000D02*
X11600000Y-9200000D01*
X11400000Y-13540000D02*
G75*
G03*
X11500000Y-13440000I0J100000D01*
G01*
X11680000Y-14440000D02*
X11680000Y-14340000D01*
X15240000Y-14340000D02*
G75*
G03*
X15140000Y-14240000I-100000J0D01*
G01*
X17930000Y-14240000D02*
G75*
G03*
X17830000Y-14340000I0J-100000D01*
G01*
X18010000Y-13440000D02*
G75*
G03*
X18110000Y-13540000I100000J0D01*
G01*
X13859289Y-14239999D02*
G75*
G03*
X13759289Y-14340000I1J-100001D01*
G01*
X17830000Y-14340000D02*
X17830000Y-14440000D01*
X13859289Y-14240000D02*
X15140000Y-14240000D01*
X19110000Y-13640000D02*
G75*
G03*
X19010000Y-13540000I-100000J0D01*
G01*
X18010000Y-13440000D02*
X18010000Y-9300000D01*
X13759289Y-14440000D02*
X13759289Y-14340000D01*
X18010000Y-9300000D02*
G75*
G03*
X17910000Y-9200000I-100000J0D01*
G01*
X10500000Y-14240000D02*
X11580000Y-14240000D01*
X11680000Y-14340000D02*
G75*
G03*
X11580000Y-14240000I-100000J0D01*
G01*
X13659289Y-14540000D02*
X11780000Y-14540000D01*
X13659289Y-14539999D02*
G75*
G03*
X13759289Y-14440000I1J99999D01*
G01*
X11680000Y-14440000D02*
G75*
G03*
X11780000Y-14540000I100000J0D01*
G01*
X15240710Y-14440000D02*
G75*
G03*
X15340711Y-14540000I100000J0D01*
G01*
X19010000Y-14240000D02*
G75*
G03*
X19110000Y-14140000I0J100000D01*
G01*
X11500000Y-13440000D02*
X11500000Y-9300000D01*
X19110000Y-13640000D02*
X19110000Y-14140000D01*
D11*
D12*
X13600000Y-13566387D02*
X13620000Y-13586387D01*
X13620000Y-13566387D02*
X13600000Y-13586387D01*
X13855000Y-13566387D02*
X13875000Y-13586387D01*
X13875000Y-13566387D02*
X13855000Y-13586387D01*
X13860000Y-10120000D02*
X13880000Y-10140000D01*
X13880000Y-10120000D02*
X13860000Y-10140000D01*
X13863800Y-11680000D02*
X13883800Y-11700000D01*
X13883800Y-11680000D02*
X13863800Y-11700000D01*
X13940000Y-11850000D02*
X13960000Y-11870000D01*
X13960000Y-11850000D02*
X13940000Y-11870000D01*
X13940000Y-11990000D02*
X13960000Y-12010000D01*
X13960000Y-11990000D02*
X13940000Y-12010000D01*
X13963750Y-11590000D02*
X13983750Y-11610000D01*
X13983750Y-11590000D02*
X13963750Y-11610000D01*
X14150000Y-11270000D02*
X14170000Y-11290000D01*
X14170000Y-11270000D02*
X14150000Y-11290000D01*
X14150000Y-11690000D02*
X14170000Y-11710000D01*
X14170000Y-11690000D02*
X14150000Y-11710000D01*
X14220000Y-11810000D02*
X14240000Y-11830000D01*
X14240000Y-11810000D02*
X14220000Y-11830000D01*
X14670868Y-11186189D02*
X14690868Y-11206189D01*
X14690868Y-11186189D02*
X14670868Y-11206189D01*
X14680000Y-11280000D02*
X14700000Y-11300000D01*
X14700000Y-11280000D02*
X14680000Y-11300000D01*
X14710000Y-11090000D02*
X14730000Y-11110000D01*
X14730000Y-11090000D02*
X14710000Y-11110000D01*
X14732550Y-11460000D02*
X14752550Y-11480000D01*
X14752550Y-11460000D02*
X14732550Y-11480000D01*
X14753095Y-11138593D02*
X14773095Y-11158593D01*
X14773095Y-11138593D02*
X14753095Y-11158593D01*
X14780000Y-11360000D02*
X14800000Y-11380000D01*
X14800000Y-11360000D02*
X14780000Y-11380000D01*
X14785000Y-10710000D02*
X14805000Y-10730000D01*
X14805000Y-10710000D02*
X14785000Y-10730000D01*
X14850000Y-11542500D02*
X14870000Y-11562500D01*
X14870000Y-11542500D02*
X14850000Y-11562500D01*
X14880000Y-10980000D02*
X14900000Y-11000000D01*
X14900000Y-10980000D02*
X14880000Y-11000000D01*
X14892500Y-12350000D02*
X14912500Y-12370000D01*
X14912500Y-12350000D02*
X14892500Y-12370000D01*
X14970000Y-10990000D02*
X14990000Y-11010000D01*
X14990000Y-10990000D02*
X14970000Y-11010000D01*
X15030000Y-11660000D02*
X15050000Y-11680000D01*
X15050000Y-11660000D02*
X15030000Y-11680000D01*
X15120000Y-12480000D02*
X15140000Y-12500000D01*
X15140000Y-12480000D02*
X15120000Y-12500000D01*
X15157550Y-12770000D02*
X15177550Y-12790000D01*
X15177550Y-12770000D02*
X15157550Y-12790000D01*
X15247600Y-13216691D02*
X15267600Y-13236691D01*
X15267600Y-13216691D02*
X15247600Y-13236691D01*
X15294800Y-13270000D02*
X15314800Y-13290000D01*
X15314800Y-13270000D02*
X15294800Y-13290000D01*
X15342550Y-13214073D02*
X15362550Y-13234073D01*
X15362550Y-13214073D02*
X15342550Y-13234073D01*
X15390000Y-13260000D02*
X15410000Y-13280000D01*
X15410000Y-13260000D02*
X15390000Y-13280000D01*
X15420000Y-12760000D02*
X15440000Y-12780000D01*
X15440000Y-12760000D02*
X15420000Y-12780000D01*
X15437557Y-13200100D02*
X15457557Y-13220100D01*
X15457557Y-13200100D02*
X15437557Y-13220100D01*
X15440000Y-11270000D02*
X15460000Y-11290000D01*
X15460000Y-11270000D02*
X15440000Y-11290000D01*
X15488383Y-13240539D02*
X15508383Y-13260539D01*
X15508383Y-13240539D02*
X15488383Y-13260539D01*
X15519800Y-12480000D02*
X15539800Y-12500000D01*
X15539800Y-12480000D02*
X15519800Y-12500000D01*
X15550000Y-13220000D02*
X15570000Y-13240000D01*
X15570000Y-13220000D02*
X15550000Y-13240000D01*
X15572550Y-12390000D02*
X15592550Y-12410000D01*
X15592550Y-12390000D02*
X15572550Y-12410000D01*
X15620000Y-12470000D02*
X15640000Y-12490000D01*
X15640000Y-12470000D02*
X15620000Y-12490000D01*
X15632550Y-13070000D02*
X15652550Y-13090000D01*
X15652550Y-13070000D02*
X15632550Y-13090000D01*
X15650000Y-11000000D02*
X15670000Y-11020000D01*
X15670000Y-11000000D02*
X15650000Y-11020000D01*
X15680000Y-11130000D02*
X15700000Y-11150000D01*
X15700000Y-11130000D02*
X15680000Y-11150000D01*
X15680000Y-11460000D02*
X15700000Y-11480000D01*
X15700000Y-11460000D02*
X15680000Y-11480000D01*
X15780000Y-12240000D02*
X15800000Y-12260000D01*
X15800000Y-12240000D02*
X15780000Y-12260000D01*
X15940000Y-12367550D02*
X15960000Y-12387550D01*
X15960000Y-12367550D02*
X15940000Y-12387550D01*
X15950000Y-10060000D02*
X15970000Y-10080000D01*
X15970000Y-10060000D02*
X15950000Y-10080000D01*
X15950000Y-10390000D02*
X15970000Y-10410000D01*
X15970000Y-10390000D02*
X15950000Y-10410000D01*
X16110000Y-10060000D02*
X16130000Y-10080000D01*
X16130000Y-10060000D02*
X16110000Y-10080000D01*
X16270000Y-12250000D02*
X16290000Y-12270000D01*
X16290000Y-12250000D02*
X16270000Y-12270000D01*
X16370000Y-12250000D02*
X16390000Y-12270000D01*
X16390000Y-12250000D02*
X16370000Y-12270000D01*
X16550000Y-11910000D02*
X16570000Y-11930000D01*
X16570000Y-11910000D02*
X16550000Y-11930000D01*
X16690000Y-12430000D02*
X16710000Y-12450000D01*
X16710000Y-12430000D02*
X16690000Y-12450000D01*
X16700000Y-13350000D02*
X16720000Y-13370000D01*
X16720000Y-13350000D02*
X16700000Y-13370000D01*
X16710000Y-12500000D02*
X16730000Y-12520000D01*
X16730000Y-12500000D02*
X16710000Y-12520000D01*
X16826197Y-12793803D02*
X16846197Y-12813803D01*
X16846197Y-12793803D02*
X16826197Y-12813803D01*
X16930000Y-11530000D02*
X16950000Y-11550000D01*
X16950000Y-11530000D02*
X16930000Y-11550000D01*
X16960000Y-11910000D02*
X16980000Y-11930000D01*
X16980000Y-11910000D02*
X16960000Y-11930000D01*
X16980000Y-12300000D02*
X17000000Y-12320000D01*
X17000000Y-12300000D02*
X16980000Y-12320000D01*
X16980000Y-12370000D02*
X17000000Y-12390000D01*
X17000000Y-12370000D02*
X16980000Y-12390000D01*
X17017550Y-12700000D02*
X17037550Y-12720000D01*
X17037550Y-12700000D02*
X17017550Y-12720000D01*
X17050000Y-12370000D02*
X17070000Y-12390000D01*
X17070000Y-12370000D02*
X17050000Y-12390000D01*
X17120000Y-12170000D02*
X17140000Y-12190000D01*
X17140000Y-12170000D02*
X17120000Y-12190000D01*
X17170000Y-13330000D02*
X17190000Y-13350000D01*
X17190000Y-13330000D02*
X17170000Y-13350000D01*
X17190000Y-12170000D02*
X17210000Y-12190000D01*
X17210000Y-12170000D02*
X17190000Y-12190000D01*
X17190000Y-12240000D02*
X17210000Y-12260000D01*
X17210000Y-12240000D02*
X17190000Y-12260000D01*
X17290000Y-13090000D02*
X17310000Y-13110000D01*
X17310000Y-13090000D02*
X17290000Y-13110000D01*
X17290000Y-13330000D02*
X17310000Y-13350000D01*
X17310000Y-13330000D02*
X17290000Y-13350000D01*
X17310000Y-11530000D02*
X17330000Y-11550000D01*
X17330000Y-11530000D02*
X17310000Y-11550000D01*
X17310000Y-12510000D02*
X17330000Y-12530000D01*
X17330000Y-12510000D02*
X17310000Y-12530000D01*
X17330000Y-12010000D02*
X17350000Y-12030000D01*
X17350000Y-12010000D02*
X17330000Y-12030000D01*
X17379878Y-12560122D02*
X17399878Y-12580122D01*
X17399878Y-12560122D02*
X17379878Y-12580122D01*
X17380000Y-12490000D02*
X17400000Y-12510000D01*
X17400000Y-12490000D02*
X17380000Y-12510000D01*
X17420000Y-12950000D02*
X17440000Y-12970000D01*
X17440000Y-12950000D02*
X17420000Y-12970000D01*
X17430000Y-13330000D02*
X17450000Y-13350000D01*
X17450000Y-13330000D02*
X17430000Y-13350000D01*
X17480000Y-12830000D02*
X17500000Y-12850000D01*
X17500000Y-12830000D02*
X17480000Y-12850000D01*
X17500000Y-12457450D02*
X17520000Y-12477450D01*
X17520000Y-12457450D02*
X17500000Y-12477450D01*
X17510000Y-11610000D02*
X17530000Y-11630000D01*
X17530000Y-11610000D02*
X17510000Y-11630000D01*
X17522550Y-11530000D02*
X17542550Y-11550000D01*
X17542550Y-11530000D02*
X17522550Y-11550000D01*
X17560000Y-12210000D02*
X17580000Y-12230000D01*
X17580000Y-12210000D02*
X17560000Y-12230000D01*
X17750000Y-11610000D02*
X17770000Y-11630000D01*
X17770000Y-11610000D02*
X17750000Y-11630000D01*
D10*
X12325000Y-10680000D02*
G75*
G03*
X12325000Y-10680000I-25000J0D01*
G01*
X16075000Y-12820000D02*
G75*
G03*
X16075000Y-12820000I-25000J0D01*
G01*
D13*
X11660000Y-10070000D02*
X11660000Y-10130000D01*
X11630000Y-10100000D02*
X11690000Y-10100000D01*
D11*
X11690000Y-10185000D02*
X11690000Y-10015000D01*
X11690000Y-10015000D02*
G75*
G03*
X11630000Y-10015000I-30000J0D01*
G01*
X11630000Y-10015000D02*
X11630000Y-10185000D01*
X11630000Y-10185000D02*
G75*
G03*
X11690000Y-10185000I30000J0D01*
G01*
D13*
X12940000Y-10070000D02*
X12940000Y-10130000D01*
X12910000Y-10100000D02*
X12970000Y-10100000D01*
D11*
X12970000Y-10185000D02*
X12970000Y-10015000D01*
X12970000Y-10015000D02*
G75*
G03*
X12910000Y-10015000I-30000J0D01*
G01*
X12910000Y-10015000D02*
X12910000Y-10185000D01*
X12910000Y-10185000D02*
G75*
G03*
X12970000Y-10185000I30000J0D01*
G01*
D14*
X16687320Y-11240820D02*
X16687320Y-11177180D01*
X16623680Y-11177180D01*
X16623680Y-11240820D01*
X16687320Y-11240820D01*
X16814320Y-10986820D02*
X16814320Y-10923180D01*
X16750680Y-10923180D01*
X16750680Y-10986820D01*
X16814320Y-10986820D01*
X16941320Y-11240820D02*
X16941320Y-11177180D01*
X16877680Y-11177180D01*
X16877680Y-11240820D01*
X16941320Y-11240820D01*
X17068320Y-10986820D02*
X17068320Y-10923180D01*
X17004680Y-10923180D01*
X17004680Y-10986820D01*
X17068320Y-10986820D01*
X17195320Y-11240820D02*
X17195320Y-11177180D01*
X17131680Y-11177180D01*
X17131680Y-11240820D01*
X17195320Y-11240820D01*
X17322320Y-10986820D02*
X17322320Y-10923180D01*
X17258680Y-10923180D01*
X17258680Y-10986820D01*
X17322320Y-10986820D01*
X17449320Y-11240820D02*
X17449320Y-11177180D01*
X17385680Y-11177180D01*
X17385680Y-11240820D01*
X17449320Y-11240820D01*
X17576320Y-10986820D02*
X17576320Y-10923180D01*
X17512680Y-10923180D01*
X17512680Y-10986820D01*
X17576320Y-10986820D01*
D15*
X11832000Y-14210000D02*
X11882000Y-14160000D01*
X11832000Y-14110000D01*
X11782000Y-14160000D01*
X11832000Y-14210000D01*
X12086000Y-14210000D02*
X12136000Y-14160000D01*
X12086000Y-14110000D01*
X12036000Y-14160000D01*
X12086000Y-14210000D01*
X12340000Y-14210000D02*
X12390000Y-14160000D01*
X12340000Y-14110000D01*
X12290000Y-14160000D01*
X12340000Y-14210000D01*
X12594000Y-14210000D02*
X12644000Y-14160000D01*
X12594000Y-14110000D01*
X12544000Y-14160000D01*
X12594000Y-14210000D01*
X12848000Y-14210000D02*
X12898000Y-14160000D01*
X12848000Y-14110000D01*
X12798000Y-14160000D01*
X12848000Y-14210000D01*
X13102000Y-14210000D02*
X13152000Y-14160000D01*
X13102000Y-14110000D01*
X13052000Y-14160000D01*
X13102000Y-14210000D01*
X13356000Y-14210000D02*
X13406000Y-14160000D01*
X13356000Y-14110000D01*
X13306000Y-14160000D01*
X13356000Y-14210000D01*
X13610000Y-14210000D02*
X13660000Y-14160000D01*
X13610000Y-14110000D01*
X13560000Y-14160000D01*
X13610000Y-14210000D01*
X15390000Y-14210000D02*
X15440000Y-14160000D01*
X15390000Y-14110000D01*
X15340000Y-14160000D01*
X15390000Y-14210000D01*
X15644000Y-14210000D02*
X15694000Y-14160000D01*
X15644000Y-14110000D01*
X15594000Y-14160000D01*
X15644000Y-14210000D01*
X15898000Y-14210000D02*
X15948000Y-14160000D01*
X15898000Y-14110000D01*
X15848000Y-14160000D01*
X15898000Y-14210000D01*
X16152000Y-14210000D02*
X16202000Y-14160000D01*
X16152000Y-14110000D01*
X16102000Y-14160000D01*
X16152000Y-14210000D01*
X16406000Y-14210000D02*
X16456000Y-14160000D01*
X16406000Y-14110000D01*
X16356000Y-14160000D01*
X16406000Y-14210000D01*
X16437500Y-9880000D02*
X16487500Y-9830000D01*
X16437500Y-9780000D01*
X16387500Y-9830000D01*
X16437500Y-9880000D01*
X16660000Y-14210000D02*
X16710000Y-14160000D01*
X16660000Y-14110000D01*
X16610000Y-14160000D01*
X16660000Y-14210000D01*
X16691500Y-9880000D02*
X16741500Y-9830000D01*
X16691500Y-9780000D01*
X16641500Y-9830000D01*
X16691500Y-9880000D01*
X16914000Y-14210000D02*
X16964000Y-14160000D01*
X16914000Y-14110000D01*
X16864000Y-14160000D01*
X16914000Y-14210000D01*
X17168000Y-14210000D02*
X17218000Y-14160000D01*
X17168000Y-14110000D01*
X17118000Y-14160000D01*
X17168000Y-14210000D01*
X17422000Y-14210000D02*
X17472000Y-14160000D01*
X17422000Y-14110000D01*
X17372000Y-14160000D01*
X17422000Y-14210000D01*
X17508500Y-9880000D02*
X17558500Y-9830000D01*
X17508500Y-9780000D01*
X17458500Y-9830000D01*
X17508500Y-9880000D01*
X17676000Y-14210000D02*
X17726000Y-14160000D01*
X17676000Y-14110000D01*
X17626000Y-14160000D01*
X17676000Y-14210000D01*
X17762500Y-9880000D02*
X17812500Y-9830000D01*
X17762500Y-9780000D01*
X17712500Y-9830000D01*
X17762500Y-9880000D01*
D16*
X14315000Y-9575000D02*
X14465000Y-9725000D01*
X14465000Y-9575000D02*
X14315000Y-9725000D01*
X14465000Y-9650000D02*
G75*
G03*
X14465000Y-9650000I-75000J0D01*
G01*
D17*
X16243000Y-10542500D02*
X16408000Y-10707500D01*
X16408000Y-10542500D02*
X16243000Y-10707500D01*
X16325500Y-10542500D02*
X16325500Y-10707500D01*
X16243000Y-10625000D02*
X16408000Y-10625000D01*
X17792000Y-10542500D02*
X17957000Y-10707500D01*
X17957000Y-10542500D02*
X17792000Y-10707500D01*
X17874500Y-10542500D02*
X17874500Y-10707500D01*
X17792000Y-10625000D02*
X17957000Y-10625000D01*
D18*
X14051000Y-9311000D02*
X14221000Y-9481000D01*
X14221000Y-9311000D02*
X14051000Y-9481000D01*
X14196105Y-9456105D02*
X14196105Y-9335895D01*
X14075895Y-9335895D01*
X14075895Y-9456105D01*
X14196105Y-9456105D01*
X14051000Y-9819000D02*
X14221000Y-9989000D01*
X14221000Y-9819000D02*
X14051000Y-9989000D01*
X14196105Y-9964105D02*
X14196105Y-9843895D01*
X14075895Y-9843895D01*
X14075895Y-9964105D01*
X14196105Y-9964105D01*
X14559000Y-9311000D02*
X14729000Y-9481000D01*
X14729000Y-9311000D02*
X14559000Y-9481000D01*
X14704105Y-9456105D02*
X14704105Y-9335895D01*
X14583895Y-9335895D01*
X14583895Y-9456105D01*
X14704105Y-9456105D01*
X14559000Y-9819000D02*
X14729000Y-9989000D01*
X14729000Y-9819000D02*
X14559000Y-9989000D01*
X14704105Y-9964105D02*
X14704105Y-9843895D01*
X14583895Y-9843895D01*
X14583895Y-9964105D01*
X14704105Y-9964105D01*
D19*
X13786250Y-10385000D02*
X14156250Y-10755000D01*
X14156250Y-10385000D02*
X13786250Y-10755000D01*
X13971250Y-10755000D02*
X14156250Y-10570000D01*
X13971250Y-10385000D01*
X13786250Y-10570000D01*
X13971250Y-10755000D01*
D11*
X10658277Y-14853984D02*
X10658277Y-14653984D01*
X10658277Y-14653984D02*
X10705896Y-14653984D01*
X10705896Y-14653984D02*
X10734467Y-14663507D01*
X10734467Y-14663507D02*
X10753515Y-14682555D01*
X10753515Y-14682555D02*
X10763039Y-14701603D01*
X10763039Y-14701603D02*
X10772563Y-14739698D01*
X10772563Y-14739698D02*
X10772563Y-14768269D01*
X10772563Y-14768269D02*
X10763039Y-14806365D01*
X10763039Y-14806365D02*
X10753515Y-14825412D01*
X10753515Y-14825412D02*
X10734467Y-14844460D01*
X10734467Y-14844460D02*
X10705896Y-14853984D01*
X10705896Y-14853984D02*
X10658277Y-14853984D01*
X10858277Y-14853984D02*
X10858277Y-14720650D01*
X10858277Y-14758746D02*
X10867801Y-14739698D01*
X10867801Y-14739698D02*
X10877324Y-14730174D01*
X10877324Y-14730174D02*
X10896372Y-14720650D01*
X10896372Y-14720650D02*
X10915420Y-14720650D01*
X10982086Y-14853984D02*
X10982086Y-14720650D01*
X10982086Y-14653984D02*
X10972563Y-14663507D01*
X10972563Y-14663507D02*
X10982086Y-14673031D01*
X10982086Y-14673031D02*
X10991610Y-14663507D01*
X10991610Y-14663507D02*
X10982086Y-14653984D01*
X10982086Y-14653984D02*
X10982086Y-14673031D01*
X11105896Y-14853984D02*
X11086848Y-14844460D01*
X11086848Y-14844460D02*
X11077324Y-14825412D01*
X11077324Y-14825412D02*
X11077324Y-14653984D01*
X11210658Y-14853984D02*
X11191610Y-14844460D01*
X11191610Y-14844460D02*
X11182086Y-14825412D01*
X11182086Y-14825412D02*
X11182086Y-14653984D01*
X11439229Y-14853984D02*
X11439229Y-14653984D01*
X11439229Y-14653984D02*
X11505896Y-14796841D01*
X11505896Y-14796841D02*
X11572562Y-14653984D01*
X11572562Y-14653984D02*
X11572562Y-14853984D01*
X11753515Y-14853984D02*
X11753515Y-14749222D01*
X11753515Y-14749222D02*
X11743991Y-14730174D01*
X11743991Y-14730174D02*
X11724943Y-14720650D01*
X11724943Y-14720650D02*
X11686848Y-14720650D01*
X11686848Y-14720650D02*
X11667801Y-14730174D01*
X11753515Y-14844460D02*
X11734467Y-14853984D01*
X11734467Y-14853984D02*
X11686848Y-14853984D01*
X11686848Y-14853984D02*
X11667801Y-14844460D01*
X11667801Y-14844460D02*
X11658277Y-14825412D01*
X11658277Y-14825412D02*
X11658277Y-14806365D01*
X11658277Y-14806365D02*
X11667801Y-14787317D01*
X11667801Y-14787317D02*
X11686848Y-14777793D01*
X11686848Y-14777793D02*
X11734467Y-14777793D01*
X11734467Y-14777793D02*
X11753515Y-14768269D01*
X11848753Y-14720650D02*
X11848753Y-14920650D01*
X11848753Y-14730174D02*
X11867801Y-14720650D01*
X11867801Y-14720650D02*
X11905896Y-14720650D01*
X11905896Y-14720650D02*
X11924943Y-14730174D01*
X11924943Y-14730174D02*
X11934467Y-14739698D01*
X11934467Y-14739698D02*
X11943991Y-14758746D01*
X11943991Y-14758746D02*
X11943991Y-14815888D01*
X11943991Y-14815888D02*
X11934467Y-14834936D01*
X11934467Y-14834936D02*
X11924943Y-14844460D01*
X11924943Y-14844460D02*
X11905896Y-14853984D01*
X11905896Y-14853984D02*
X11867801Y-14853984D01*
X11867801Y-14853984D02*
X11848753Y-14844460D01*
X12029705Y-14834936D02*
X12039229Y-14844460D01*
X12039229Y-14844460D02*
X12029705Y-14853984D01*
X12029705Y-14853984D02*
X12020182Y-14844460D01*
X12020182Y-14844460D02*
X12029705Y-14834936D01*
X12029705Y-14834936D02*
X12029705Y-14853984D01*
X12029705Y-14730174D02*
X12039229Y-14739698D01*
X12039229Y-14739698D02*
X12029705Y-14749222D01*
X12029705Y-14749222D02*
X12020182Y-14739698D01*
X12020182Y-14739698D02*
X12029705Y-14730174D01*
X12029705Y-14730174D02*
X12029705Y-14749222D01*
D12*
X10377500Y-15172500D02*
X10397500Y-15192500D01*
X10397500Y-15172500D02*
X10377500Y-15192500D01*
D11*
X10696372Y-15073984D02*
X10715420Y-15073984D01*
X10715420Y-15073984D02*
X10734467Y-15083507D01*
X10734467Y-15083507D02*
X10743991Y-15093031D01*
X10743991Y-15093031D02*
X10753515Y-15112079D01*
X10753515Y-15112079D02*
X10763039Y-15150174D01*
X10763039Y-15150174D02*
X10763039Y-15197793D01*
X10763039Y-15197793D02*
X10753515Y-15235888D01*
X10753515Y-15235888D02*
X10743991Y-15254936D01*
X10743991Y-15254936D02*
X10734467Y-15264460D01*
X10734467Y-15264460D02*
X10715420Y-15273984D01*
X10715420Y-15273984D02*
X10696372Y-15273984D01*
X10696372Y-15273984D02*
X10677324Y-15264460D01*
X10677324Y-15264460D02*
X10667801Y-15254936D01*
X10667801Y-15254936D02*
X10658277Y-15235888D01*
X10658277Y-15235888D02*
X10648753Y-15197793D01*
X10648753Y-15197793D02*
X10648753Y-15150174D01*
X10648753Y-15150174D02*
X10658277Y-15112079D01*
X10658277Y-15112079D02*
X10667801Y-15093031D01*
X10667801Y-15093031D02*
X10677324Y-15083507D01*
X10677324Y-15083507D02*
X10696372Y-15073984D01*
X10848753Y-15254936D02*
X10858277Y-15264460D01*
X10858277Y-15264460D02*
X10848753Y-15273984D01*
X10848753Y-15273984D02*
X10839229Y-15264460D01*
X10839229Y-15264460D02*
X10848753Y-15254936D01*
X10848753Y-15254936D02*
X10848753Y-15273984D01*
X10934467Y-15093031D02*
X10943991Y-15083507D01*
X10943991Y-15083507D02*
X10963039Y-15073984D01*
X10963039Y-15073984D02*
X11010658Y-15073984D01*
X11010658Y-15073984D02*
X11029705Y-15083507D01*
X11029705Y-15083507D02*
X11039229Y-15093031D01*
X11039229Y-15093031D02*
X11048753Y-15112079D01*
X11048753Y-15112079D02*
X11048753Y-15131126D01*
X11048753Y-15131126D02*
X11039229Y-15159698D01*
X11039229Y-15159698D02*
X10924944Y-15273984D01*
X10924944Y-15273984D02*
X11048753Y-15273984D01*
X11172563Y-15073984D02*
X11191610Y-15073984D01*
X11191610Y-15073984D02*
X11210658Y-15083507D01*
X11210658Y-15083507D02*
X11220182Y-15093031D01*
X11220182Y-15093031D02*
X11229705Y-15112079D01*
X11229705Y-15112079D02*
X11239229Y-15150174D01*
X11239229Y-15150174D02*
X11239229Y-15197793D01*
X11239229Y-15197793D02*
X11229705Y-15235888D01*
X11229705Y-15235888D02*
X11220182Y-15254936D01*
X11220182Y-15254936D02*
X11210658Y-15264460D01*
X11210658Y-15264460D02*
X11191610Y-15273984D01*
X11191610Y-15273984D02*
X11172563Y-15273984D01*
X11172563Y-15273984D02*
X11153515Y-15264460D01*
X11153515Y-15264460D02*
X11143991Y-15254936D01*
X11143991Y-15254936D02*
X11134467Y-15235888D01*
X11134467Y-15235888D02*
X11124944Y-15197793D01*
X11124944Y-15197793D02*
X11124944Y-15150174D01*
X11124944Y-15150174D02*
X11134467Y-15112079D01*
X11134467Y-15112079D02*
X11143991Y-15093031D01*
X11143991Y-15093031D02*
X11153515Y-15083507D01*
X11153515Y-15083507D02*
X11172563Y-15073984D01*
X11363039Y-15073984D02*
X11382086Y-15073984D01*
X11382086Y-15073984D02*
X11401134Y-15083507D01*
X11401134Y-15083507D02*
X11410658Y-15093031D01*
X11410658Y-15093031D02*
X11420182Y-15112079D01*
X11420182Y-15112079D02*
X11429705Y-15150174D01*
X11429705Y-15150174D02*
X11429705Y-15197793D01*
X11429705Y-15197793D02*
X11420182Y-15235888D01*
X11420182Y-15235888D02*
X11410658Y-15254936D01*
X11410658Y-15254936D02*
X11401134Y-15264460D01*
X11401134Y-15264460D02*
X11382086Y-15273984D01*
X11382086Y-15273984D02*
X11363039Y-15273984D01*
X11363039Y-15273984D02*
X11343991Y-15264460D01*
X11343991Y-15264460D02*
X11334467Y-15254936D01*
X11334467Y-15254936D02*
X11324943Y-15235888D01*
X11324943Y-15235888D02*
X11315420Y-15197793D01*
X11315420Y-15197793D02*
X11315420Y-15150174D01*
X11315420Y-15150174D02*
X11324943Y-15112079D01*
X11324943Y-15112079D02*
X11334467Y-15093031D01*
X11334467Y-15093031D02*
X11343991Y-15083507D01*
X11343991Y-15083507D02*
X11363039Y-15073984D01*
X11515420Y-15273984D02*
X11515420Y-15140650D01*
X11515420Y-15159698D02*
X11524943Y-15150174D01*
X11524943Y-15150174D02*
X11543991Y-15140650D01*
X11543991Y-15140650D02*
X11572563Y-15140650D01*
X11572563Y-15140650D02*
X11591610Y-15150174D01*
X11591610Y-15150174D02*
X11601134Y-15169222D01*
X11601134Y-15169222D02*
X11601134Y-15273984D01*
X11601134Y-15169222D02*
X11610658Y-15150174D01*
X11610658Y-15150174D02*
X11629705Y-15140650D01*
X11629705Y-15140650D02*
X11658277Y-15140650D01*
X11658277Y-15140650D02*
X11677324Y-15150174D01*
X11677324Y-15150174D02*
X11686848Y-15169222D01*
X11686848Y-15169222D02*
X11686848Y-15273984D01*
X11782086Y-15273984D02*
X11782086Y-15140650D01*
X11782086Y-15159698D02*
X11791610Y-15150174D01*
X11791610Y-15150174D02*
X11810658Y-15140650D01*
X11810658Y-15140650D02*
X11839229Y-15140650D01*
X11839229Y-15140650D02*
X11858277Y-15150174D01*
X11858277Y-15150174D02*
X11867801Y-15169222D01*
X11867801Y-15169222D02*
X11867801Y-15273984D01*
X11867801Y-15169222D02*
X11877324Y-15150174D01*
X11877324Y-15150174D02*
X11896372Y-15140650D01*
X11896372Y-15140650D02*
X11924943Y-15140650D01*
X11924943Y-15140650D02*
X11943991Y-15150174D01*
X11943991Y-15150174D02*
X11953515Y-15169222D01*
X11953515Y-15169222D02*
X11953515Y-15273984D01*
X12343991Y-15064460D02*
X12172563Y-15321603D01*
X12601134Y-15073984D02*
X12620182Y-15073984D01*
X12620182Y-15073984D02*
X12639229Y-15083507D01*
X12639229Y-15083507D02*
X12648753Y-15093031D01*
X12648753Y-15093031D02*
X12658277Y-15112079D01*
X12658277Y-15112079D02*
X12667801Y-15150174D01*
X12667801Y-15150174D02*
X12667801Y-15197793D01*
X12667801Y-15197793D02*
X12658277Y-15235888D01*
X12658277Y-15235888D02*
X12648753Y-15254936D01*
X12648753Y-15254936D02*
X12639229Y-15264460D01*
X12639229Y-15264460D02*
X12620182Y-15273984D01*
X12620182Y-15273984D02*
X12601134Y-15273984D01*
X12601134Y-15273984D02*
X12582086Y-15264460D01*
X12582086Y-15264460D02*
X12572563Y-15254936D01*
X12572563Y-15254936D02*
X12563039Y-15235888D01*
X12563039Y-15235888D02*
X12553515Y-15197793D01*
X12553515Y-15197793D02*
X12553515Y-15150174D01*
X12553515Y-15150174D02*
X12563039Y-15112079D01*
X12563039Y-15112079D02*
X12572563Y-15093031D01*
X12572563Y-15093031D02*
X12582086Y-15083507D01*
X12582086Y-15083507D02*
X12601134Y-15073984D01*
X12753515Y-15254936D02*
X12763039Y-15264460D01*
X12763039Y-15264460D02*
X12753515Y-15273984D01*
X12753515Y-15273984D02*
X12743991Y-15264460D01*
X12743991Y-15264460D02*
X12753515Y-15254936D01*
X12753515Y-15254936D02*
X12753515Y-15273984D01*
X12886848Y-15073984D02*
X12905896Y-15073984D01*
X12905896Y-15073984D02*
X12924944Y-15083507D01*
X12924944Y-15083507D02*
X12934467Y-15093031D01*
X12934467Y-15093031D02*
X12943991Y-15112079D01*
X12943991Y-15112079D02*
X12953515Y-15150174D01*
X12953515Y-15150174D02*
X12953515Y-15197793D01*
X12953515Y-15197793D02*
X12943991Y-15235888D01*
X12943991Y-15235888D02*
X12934467Y-15254936D01*
X12934467Y-15254936D02*
X12924944Y-15264460D01*
X12924944Y-15264460D02*
X12905896Y-15273984D01*
X12905896Y-15273984D02*
X12886848Y-15273984D01*
X12886848Y-15273984D02*
X12867801Y-15264460D01*
X12867801Y-15264460D02*
X12858277Y-15254936D01*
X12858277Y-15254936D02*
X12848753Y-15235888D01*
X12848753Y-15235888D02*
X12839229Y-15197793D01*
X12839229Y-15197793D02*
X12839229Y-15150174D01*
X12839229Y-15150174D02*
X12848753Y-15112079D01*
X12848753Y-15112079D02*
X12858277Y-15093031D01*
X12858277Y-15093031D02*
X12867801Y-15083507D01*
X12867801Y-15083507D02*
X12886848Y-15073984D01*
X13077325Y-15073984D02*
X13096372Y-15073984D01*
X13096372Y-15073984D02*
X13115420Y-15083507D01*
X13115420Y-15083507D02*
X13124944Y-15093031D01*
X13124944Y-15093031D02*
X13134467Y-15112079D01*
X13134467Y-15112079D02*
X13143991Y-15150174D01*
X13143991Y-15150174D02*
X13143991Y-15197793D01*
X13143991Y-15197793D02*
X13134467Y-15235888D01*
X13134467Y-15235888D02*
X13124944Y-15254936D01*
X13124944Y-15254936D02*
X13115420Y-15264460D01*
X13115420Y-15264460D02*
X13096372Y-15273984D01*
X13096372Y-15273984D02*
X13077325Y-15273984D01*
X13077325Y-15273984D02*
X13058277Y-15264460D01*
X13058277Y-15264460D02*
X13048753Y-15254936D01*
X13048753Y-15254936D02*
X13039229Y-15235888D01*
X13039229Y-15235888D02*
X13029706Y-15197793D01*
X13029706Y-15197793D02*
X13029706Y-15150174D01*
X13029706Y-15150174D02*
X13039229Y-15112079D01*
X13039229Y-15112079D02*
X13048753Y-15093031D01*
X13048753Y-15093031D02*
X13058277Y-15083507D01*
X13058277Y-15083507D02*
X13077325Y-15073984D01*
X13210658Y-15073984D02*
X13343991Y-15073984D01*
X13343991Y-15073984D02*
X13258277Y-15273984D01*
X13429706Y-15273984D02*
X13467801Y-15273984D01*
X13467801Y-15273984D02*
X13486848Y-15264460D01*
X13486848Y-15264460D02*
X13496372Y-15254936D01*
X13496372Y-15254936D02*
X13515420Y-15226365D01*
X13515420Y-15226365D02*
X13524944Y-15188269D01*
X13524944Y-15188269D02*
X13524944Y-15112079D01*
X13524944Y-15112079D02*
X13515420Y-15093031D01*
X13515420Y-15093031D02*
X13505896Y-15083507D01*
X13505896Y-15083507D02*
X13486848Y-15073984D01*
X13486848Y-15073984D02*
X13448753Y-15073984D01*
X13448753Y-15073984D02*
X13429706Y-15083507D01*
X13429706Y-15083507D02*
X13420182Y-15093031D01*
X13420182Y-15093031D02*
X13410658Y-15112079D01*
X13410658Y-15112079D02*
X13410658Y-15159698D01*
X13410658Y-15159698D02*
X13420182Y-15178746D01*
X13420182Y-15178746D02*
X13429706Y-15188269D01*
X13429706Y-15188269D02*
X13448753Y-15197793D01*
X13448753Y-15197793D02*
X13486848Y-15197793D01*
X13486848Y-15197793D02*
X13505896Y-15188269D01*
X13505896Y-15188269D02*
X13515420Y-15178746D01*
X13515420Y-15178746D02*
X13524944Y-15159698D01*
X13601134Y-15073984D02*
X13601134Y-15112079D01*
X13677325Y-15073984D02*
X13677325Y-15112079D01*
X13972563Y-15350174D02*
X13963039Y-15340650D01*
X13963039Y-15340650D02*
X13943991Y-15312079D01*
X13943991Y-15312079D02*
X13934468Y-15293031D01*
X13934468Y-15293031D02*
X13924944Y-15264460D01*
X13924944Y-15264460D02*
X13915420Y-15216841D01*
X13915420Y-15216841D02*
X13915420Y-15178746D01*
X13915420Y-15178746D02*
X13924944Y-15131126D01*
X13924944Y-15131126D02*
X13934468Y-15102555D01*
X13934468Y-15102555D02*
X13943991Y-15083507D01*
X13943991Y-15083507D02*
X13963039Y-15054936D01*
X13963039Y-15054936D02*
X13972563Y-15045412D01*
X14029706Y-15073984D02*
X14163039Y-15073984D01*
X14163039Y-15073984D02*
X14077325Y-15273984D01*
X14220182Y-15073984D02*
X14353515Y-15073984D01*
X14353515Y-15073984D02*
X14267801Y-15273984D01*
X14582087Y-15273984D02*
X14582087Y-15073984D01*
X14667801Y-15273984D02*
X14667801Y-15169222D01*
X14667801Y-15169222D02*
X14658277Y-15150174D01*
X14658277Y-15150174D02*
X14639230Y-15140650D01*
X14639230Y-15140650D02*
X14610658Y-15140650D01*
X14610658Y-15140650D02*
X14591610Y-15150174D01*
X14591610Y-15150174D02*
X14582087Y-15159698D01*
X14791610Y-15273984D02*
X14772563Y-15264460D01*
X14772563Y-15264460D02*
X14763039Y-15254936D01*
X14763039Y-15254936D02*
X14753515Y-15235888D01*
X14753515Y-15235888D02*
X14753515Y-15178746D01*
X14753515Y-15178746D02*
X14763039Y-15159698D01*
X14763039Y-15159698D02*
X14772563Y-15150174D01*
X14772563Y-15150174D02*
X14791610Y-15140650D01*
X14791610Y-15140650D02*
X14820182Y-15140650D01*
X14820182Y-15140650D02*
X14839230Y-15150174D01*
X14839230Y-15150174D02*
X14848753Y-15159698D01*
X14848753Y-15159698D02*
X14858277Y-15178746D01*
X14858277Y-15178746D02*
X14858277Y-15235888D01*
X14858277Y-15235888D02*
X14848753Y-15254936D01*
X14848753Y-15254936D02*
X14839230Y-15264460D01*
X14839230Y-15264460D02*
X14820182Y-15273984D01*
X14820182Y-15273984D02*
X14791610Y-15273984D01*
X14972563Y-15273984D02*
X14953515Y-15264460D01*
X14953515Y-15264460D02*
X14943991Y-15245412D01*
X14943991Y-15245412D02*
X14943991Y-15073984D01*
X15124944Y-15264460D02*
X15105896Y-15273984D01*
X15105896Y-15273984D02*
X15067801Y-15273984D01*
X15067801Y-15273984D02*
X15048753Y-15264460D01*
X15048753Y-15264460D02*
X15039230Y-15245412D01*
X15039230Y-15245412D02*
X15039230Y-15169222D01*
X15039230Y-15169222D02*
X15048753Y-15150174D01*
X15048753Y-15150174D02*
X15067801Y-15140650D01*
X15067801Y-15140650D02*
X15105896Y-15140650D01*
X15105896Y-15140650D02*
X15124944Y-15150174D01*
X15124944Y-15150174D02*
X15134468Y-15169222D01*
X15134468Y-15169222D02*
X15134468Y-15188269D01*
X15134468Y-15188269D02*
X15039230Y-15207317D01*
X15210658Y-15264460D02*
X15229706Y-15273984D01*
X15229706Y-15273984D02*
X15267801Y-15273984D01*
X15267801Y-15273984D02*
X15286849Y-15264460D01*
X15286849Y-15264460D02*
X15296372Y-15245412D01*
X15296372Y-15245412D02*
X15296372Y-15235888D01*
X15296372Y-15235888D02*
X15286849Y-15216841D01*
X15286849Y-15216841D02*
X15267801Y-15207317D01*
X15267801Y-15207317D02*
X15239230Y-15207317D01*
X15239230Y-15207317D02*
X15220182Y-15197793D01*
X15220182Y-15197793D02*
X15210658Y-15178746D01*
X15210658Y-15178746D02*
X15210658Y-15169222D01*
X15210658Y-15169222D02*
X15220182Y-15150174D01*
X15220182Y-15150174D02*
X15239230Y-15140650D01*
X15239230Y-15140650D02*
X15267801Y-15140650D01*
X15267801Y-15140650D02*
X15286849Y-15150174D01*
X15363039Y-15350174D02*
X15372563Y-15340650D01*
X15372563Y-15340650D02*
X15391611Y-15312079D01*
X15391611Y-15312079D02*
X15401134Y-15293031D01*
X15401134Y-15293031D02*
X15410658Y-15264460D01*
X15410658Y-15264460D02*
X15420182Y-15216841D01*
X15420182Y-15216841D02*
X15420182Y-15178746D01*
X15420182Y-15178746D02*
X15410658Y-15131126D01*
X15410658Y-15131126D02*
X15401134Y-15102555D01*
X15401134Y-15102555D02*
X15391611Y-15083507D01*
X15391611Y-15083507D02*
X15372563Y-15054936D01*
X15372563Y-15054936D02*
X15363039Y-15045412D01*
D10*
X10397500Y-15446500D02*
G75*
G03*
X10397500Y-15446500I-25000J0D01*
G01*
D11*
X10696372Y-15337984D02*
X10715420Y-15337984D01*
X10715420Y-15337984D02*
X10734467Y-15347507D01*
X10734467Y-15347507D02*
X10743991Y-15357031D01*
X10743991Y-15357031D02*
X10753515Y-15376079D01*
X10753515Y-15376079D02*
X10763039Y-15414174D01*
X10763039Y-15414174D02*
X10763039Y-15461793D01*
X10763039Y-15461793D02*
X10753515Y-15499888D01*
X10753515Y-15499888D02*
X10743991Y-15518936D01*
X10743991Y-15518936D02*
X10734467Y-15528460D01*
X10734467Y-15528460D02*
X10715420Y-15537984D01*
X10715420Y-15537984D02*
X10696372Y-15537984D01*
X10696372Y-15537984D02*
X10677324Y-15528460D01*
X10677324Y-15528460D02*
X10667801Y-15518936D01*
X10667801Y-15518936D02*
X10658277Y-15499888D01*
X10658277Y-15499888D02*
X10648753Y-15461793D01*
X10648753Y-15461793D02*
X10648753Y-15414174D01*
X10648753Y-15414174D02*
X10658277Y-15376079D01*
X10658277Y-15376079D02*
X10667801Y-15357031D01*
X10667801Y-15357031D02*
X10677324Y-15347507D01*
X10677324Y-15347507D02*
X10696372Y-15337984D01*
X10848753Y-15518936D02*
X10858277Y-15528460D01*
X10858277Y-15528460D02*
X10848753Y-15537984D01*
X10848753Y-15537984D02*
X10839229Y-15528460D01*
X10839229Y-15528460D02*
X10848753Y-15518936D01*
X10848753Y-15518936D02*
X10848753Y-15537984D01*
X11039229Y-15337984D02*
X10943991Y-15337984D01*
X10943991Y-15337984D02*
X10934467Y-15433222D01*
X10934467Y-15433222D02*
X10943991Y-15423698D01*
X10943991Y-15423698D02*
X10963039Y-15414174D01*
X10963039Y-15414174D02*
X11010658Y-15414174D01*
X11010658Y-15414174D02*
X11029705Y-15423698D01*
X11029705Y-15423698D02*
X11039229Y-15433222D01*
X11039229Y-15433222D02*
X11048753Y-15452269D01*
X11048753Y-15452269D02*
X11048753Y-15499888D01*
X11048753Y-15499888D02*
X11039229Y-15518936D01*
X11039229Y-15518936D02*
X11029705Y-15528460D01*
X11029705Y-15528460D02*
X11010658Y-15537984D01*
X11010658Y-15537984D02*
X10963039Y-15537984D01*
X10963039Y-15537984D02*
X10943991Y-15528460D01*
X10943991Y-15528460D02*
X10934467Y-15518936D01*
X11172563Y-15337984D02*
X11191610Y-15337984D01*
X11191610Y-15337984D02*
X11210658Y-15347507D01*
X11210658Y-15347507D02*
X11220182Y-15357031D01*
X11220182Y-15357031D02*
X11229705Y-15376079D01*
X11229705Y-15376079D02*
X11239229Y-15414174D01*
X11239229Y-15414174D02*
X11239229Y-15461793D01*
X11239229Y-15461793D02*
X11229705Y-15499888D01*
X11229705Y-15499888D02*
X11220182Y-15518936D01*
X11220182Y-15518936D02*
X11210658Y-15528460D01*
X11210658Y-15528460D02*
X11191610Y-15537984D01*
X11191610Y-15537984D02*
X11172563Y-15537984D01*
X11172563Y-15537984D02*
X11153515Y-15528460D01*
X11153515Y-15528460D02*
X11143991Y-15518936D01*
X11143991Y-15518936D02*
X11134467Y-15499888D01*
X11134467Y-15499888D02*
X11124944Y-15461793D01*
X11124944Y-15461793D02*
X11124944Y-15414174D01*
X11124944Y-15414174D02*
X11134467Y-15376079D01*
X11134467Y-15376079D02*
X11143991Y-15357031D01*
X11143991Y-15357031D02*
X11153515Y-15347507D01*
X11153515Y-15347507D02*
X11172563Y-15337984D01*
X11363039Y-15337984D02*
X11382086Y-15337984D01*
X11382086Y-15337984D02*
X11401134Y-15347507D01*
X11401134Y-15347507D02*
X11410658Y-15357031D01*
X11410658Y-15357031D02*
X11420182Y-15376079D01*
X11420182Y-15376079D02*
X11429705Y-15414174D01*
X11429705Y-15414174D02*
X11429705Y-15461793D01*
X11429705Y-15461793D02*
X11420182Y-15499888D01*
X11420182Y-15499888D02*
X11410658Y-15518936D01*
X11410658Y-15518936D02*
X11401134Y-15528460D01*
X11401134Y-15528460D02*
X11382086Y-15537984D01*
X11382086Y-15537984D02*
X11363039Y-15537984D01*
X11363039Y-15537984D02*
X11343991Y-15528460D01*
X11343991Y-15528460D02*
X11334467Y-15518936D01*
X11334467Y-15518936D02*
X11324943Y-15499888D01*
X11324943Y-15499888D02*
X11315420Y-15461793D01*
X11315420Y-15461793D02*
X11315420Y-15414174D01*
X11315420Y-15414174D02*
X11324943Y-15376079D01*
X11324943Y-15376079D02*
X11334467Y-15357031D01*
X11334467Y-15357031D02*
X11343991Y-15347507D01*
X11343991Y-15347507D02*
X11363039Y-15337984D01*
X11515420Y-15537984D02*
X11515420Y-15404650D01*
X11515420Y-15423698D02*
X11524943Y-15414174D01*
X11524943Y-15414174D02*
X11543991Y-15404650D01*
X11543991Y-15404650D02*
X11572563Y-15404650D01*
X11572563Y-15404650D02*
X11591610Y-15414174D01*
X11591610Y-15414174D02*
X11601134Y-15433222D01*
X11601134Y-15433222D02*
X11601134Y-15537984D01*
X11601134Y-15433222D02*
X11610658Y-15414174D01*
X11610658Y-15414174D02*
X11629705Y-15404650D01*
X11629705Y-15404650D02*
X11658277Y-15404650D01*
X11658277Y-15404650D02*
X11677324Y-15414174D01*
X11677324Y-15414174D02*
X11686848Y-15433222D01*
X11686848Y-15433222D02*
X11686848Y-15537984D01*
X11782086Y-15537984D02*
X11782086Y-15404650D01*
X11782086Y-15423698D02*
X11791610Y-15414174D01*
X11791610Y-15414174D02*
X11810658Y-15404650D01*
X11810658Y-15404650D02*
X11839229Y-15404650D01*
X11839229Y-15404650D02*
X11858277Y-15414174D01*
X11858277Y-15414174D02*
X11867801Y-15433222D01*
X11867801Y-15433222D02*
X11867801Y-15537984D01*
X11867801Y-15433222D02*
X11877324Y-15414174D01*
X11877324Y-15414174D02*
X11896372Y-15404650D01*
X11896372Y-15404650D02*
X11924943Y-15404650D01*
X11924943Y-15404650D02*
X11943991Y-15414174D01*
X11943991Y-15414174D02*
X11953515Y-15433222D01*
X11953515Y-15433222D02*
X11953515Y-15537984D01*
X12343991Y-15328460D02*
X12172563Y-15585603D01*
X12601134Y-15337984D02*
X12620182Y-15337984D01*
X12620182Y-15337984D02*
X12639229Y-15347507D01*
X12639229Y-15347507D02*
X12648753Y-15357031D01*
X12648753Y-15357031D02*
X12658277Y-15376079D01*
X12658277Y-15376079D02*
X12667801Y-15414174D01*
X12667801Y-15414174D02*
X12667801Y-15461793D01*
X12667801Y-15461793D02*
X12658277Y-15499888D01*
X12658277Y-15499888D02*
X12648753Y-15518936D01*
X12648753Y-15518936D02*
X12639229Y-15528460D01*
X12639229Y-15528460D02*
X12620182Y-15537984D01*
X12620182Y-15537984D02*
X12601134Y-15537984D01*
X12601134Y-15537984D02*
X12582086Y-15528460D01*
X12582086Y-15528460D02*
X12572563Y-15518936D01*
X12572563Y-15518936D02*
X12563039Y-15499888D01*
X12563039Y-15499888D02*
X12553515Y-15461793D01*
X12553515Y-15461793D02*
X12553515Y-15414174D01*
X12553515Y-15414174D02*
X12563039Y-15376079D01*
X12563039Y-15376079D02*
X12572563Y-15357031D01*
X12572563Y-15357031D02*
X12582086Y-15347507D01*
X12582086Y-15347507D02*
X12601134Y-15337984D01*
X12753515Y-15518936D02*
X12763039Y-15528460D01*
X12763039Y-15528460D02*
X12753515Y-15537984D01*
X12753515Y-15537984D02*
X12743991Y-15528460D01*
X12743991Y-15528460D02*
X12753515Y-15518936D01*
X12753515Y-15518936D02*
X12753515Y-15537984D01*
X12886848Y-15337984D02*
X12905896Y-15337984D01*
X12905896Y-15337984D02*
X12924944Y-15347507D01*
X12924944Y-15347507D02*
X12934467Y-15357031D01*
X12934467Y-15357031D02*
X12943991Y-15376079D01*
X12943991Y-15376079D02*
X12953515Y-15414174D01*
X12953515Y-15414174D02*
X12953515Y-15461793D01*
X12953515Y-15461793D02*
X12943991Y-15499888D01*
X12943991Y-15499888D02*
X12934467Y-15518936D01*
X12934467Y-15518936D02*
X12924944Y-15528460D01*
X12924944Y-15528460D02*
X12905896Y-15537984D01*
X12905896Y-15537984D02*
X12886848Y-15537984D01*
X12886848Y-15537984D02*
X12867801Y-15528460D01*
X12867801Y-15528460D02*
X12858277Y-15518936D01*
X12858277Y-15518936D02*
X12848753Y-15499888D01*
X12848753Y-15499888D02*
X12839229Y-15461793D01*
X12839229Y-15461793D02*
X12839229Y-15414174D01*
X12839229Y-15414174D02*
X12848753Y-15376079D01*
X12848753Y-15376079D02*
X12858277Y-15357031D01*
X12858277Y-15357031D02*
X12867801Y-15347507D01*
X12867801Y-15347507D02*
X12886848Y-15337984D01*
X13143991Y-15537984D02*
X13029706Y-15537984D01*
X13086848Y-15537984D02*
X13086848Y-15337984D01*
X13086848Y-15337984D02*
X13067801Y-15366555D01*
X13067801Y-15366555D02*
X13048753Y-15385603D01*
X13048753Y-15385603D02*
X13029706Y-15395126D01*
X13239229Y-15537984D02*
X13277325Y-15537984D01*
X13277325Y-15537984D02*
X13296372Y-15528460D01*
X13296372Y-15528460D02*
X13305896Y-15518936D01*
X13305896Y-15518936D02*
X13324944Y-15490365D01*
X13324944Y-15490365D02*
X13334467Y-15452269D01*
X13334467Y-15452269D02*
X13334467Y-15376079D01*
X13334467Y-15376079D02*
X13324944Y-15357031D01*
X13324944Y-15357031D02*
X13315420Y-15347507D01*
X13315420Y-15347507D02*
X13296372Y-15337984D01*
X13296372Y-15337984D02*
X13258277Y-15337984D01*
X13258277Y-15337984D02*
X13239229Y-15347507D01*
X13239229Y-15347507D02*
X13229706Y-15357031D01*
X13229706Y-15357031D02*
X13220182Y-15376079D01*
X13220182Y-15376079D02*
X13220182Y-15423698D01*
X13220182Y-15423698D02*
X13229706Y-15442746D01*
X13229706Y-15442746D02*
X13239229Y-15452269D01*
X13239229Y-15452269D02*
X13258277Y-15461793D01*
X13258277Y-15461793D02*
X13296372Y-15461793D01*
X13296372Y-15461793D02*
X13315420Y-15452269D01*
X13315420Y-15452269D02*
X13324944Y-15442746D01*
X13324944Y-15442746D02*
X13334467Y-15423698D01*
X13401134Y-15337984D02*
X13534467Y-15337984D01*
X13534467Y-15337984D02*
X13448753Y-15537984D01*
X13601134Y-15337984D02*
X13601134Y-15376079D01*
X13677325Y-15337984D02*
X13677325Y-15376079D01*
X13972563Y-15614174D02*
X13963039Y-15604650D01*
X13963039Y-15604650D02*
X13943991Y-15576079D01*
X13943991Y-15576079D02*
X13934468Y-15557031D01*
X13934468Y-15557031D02*
X13924944Y-15528460D01*
X13924944Y-15528460D02*
X13915420Y-15480841D01*
X13915420Y-15480841D02*
X13915420Y-15442746D01*
X13915420Y-15442746D02*
X13924944Y-15395126D01*
X13924944Y-15395126D02*
X13934468Y-15366555D01*
X13934468Y-15366555D02*
X13943991Y-15347507D01*
X13943991Y-15347507D02*
X13963039Y-15318936D01*
X13963039Y-15318936D02*
X13972563Y-15309412D01*
X14039229Y-15357031D02*
X14048753Y-15347507D01*
X14048753Y-15347507D02*
X14067801Y-15337984D01*
X14067801Y-15337984D02*
X14115420Y-15337984D01*
X14115420Y-15337984D02*
X14134468Y-15347507D01*
X14134468Y-15347507D02*
X14143991Y-15357031D01*
X14143991Y-15357031D02*
X14153515Y-15376079D01*
X14153515Y-15376079D02*
X14153515Y-15395126D01*
X14153515Y-15395126D02*
X14143991Y-15423698D01*
X14143991Y-15423698D02*
X14029706Y-15537984D01*
X14029706Y-15537984D02*
X14153515Y-15537984D01*
X14391610Y-15537984D02*
X14391610Y-15337984D01*
X14477325Y-15537984D02*
X14477325Y-15433222D01*
X14477325Y-15433222D02*
X14467801Y-15414174D01*
X14467801Y-15414174D02*
X14448753Y-15404650D01*
X14448753Y-15404650D02*
X14420182Y-15404650D01*
X14420182Y-15404650D02*
X14401134Y-15414174D01*
X14401134Y-15414174D02*
X14391610Y-15423698D01*
X14601134Y-15537984D02*
X14582087Y-15528460D01*
X14582087Y-15528460D02*
X14572563Y-15518936D01*
X14572563Y-15518936D02*
X14563039Y-15499888D01*
X14563039Y-15499888D02*
X14563039Y-15442746D01*
X14563039Y-15442746D02*
X14572563Y-15423698D01*
X14572563Y-15423698D02*
X14582087Y-15414174D01*
X14582087Y-15414174D02*
X14601134Y-15404650D01*
X14601134Y-15404650D02*
X14629706Y-15404650D01*
X14629706Y-15404650D02*
X14648753Y-15414174D01*
X14648753Y-15414174D02*
X14658277Y-15423698D01*
X14658277Y-15423698D02*
X14667801Y-15442746D01*
X14667801Y-15442746D02*
X14667801Y-15499888D01*
X14667801Y-15499888D02*
X14658277Y-15518936D01*
X14658277Y-15518936D02*
X14648753Y-15528460D01*
X14648753Y-15528460D02*
X14629706Y-15537984D01*
X14629706Y-15537984D02*
X14601134Y-15537984D01*
X14782087Y-15537984D02*
X14763039Y-15528460D01*
X14763039Y-15528460D02*
X14753515Y-15509412D01*
X14753515Y-15509412D02*
X14753515Y-15337984D01*
X14934468Y-15528460D02*
X14915420Y-15537984D01*
X14915420Y-15537984D02*
X14877325Y-15537984D01*
X14877325Y-15537984D02*
X14858277Y-15528460D01*
X14858277Y-15528460D02*
X14848753Y-15509412D01*
X14848753Y-15509412D02*
X14848753Y-15433222D01*
X14848753Y-15433222D02*
X14858277Y-15414174D01*
X14858277Y-15414174D02*
X14877325Y-15404650D01*
X14877325Y-15404650D02*
X14915420Y-15404650D01*
X14915420Y-15404650D02*
X14934468Y-15414174D01*
X14934468Y-15414174D02*
X14943991Y-15433222D01*
X14943991Y-15433222D02*
X14943991Y-15452269D01*
X14943991Y-15452269D02*
X14848753Y-15471317D01*
X15020182Y-15528460D02*
X15039230Y-15537984D01*
X15039230Y-15537984D02*
X15077325Y-15537984D01*
X15077325Y-15537984D02*
X15096372Y-15528460D01*
X15096372Y-15528460D02*
X15105896Y-15509412D01*
X15105896Y-15509412D02*
X15105896Y-15499888D01*
X15105896Y-15499888D02*
X15096372Y-15480841D01*
X15096372Y-15480841D02*
X15077325Y-15471317D01*
X15077325Y-15471317D02*
X15048753Y-15471317D01*
X15048753Y-15471317D02*
X15029706Y-15461793D01*
X15029706Y-15461793D02*
X15020182Y-15442746D01*
X15020182Y-15442746D02*
X15020182Y-15433222D01*
X15020182Y-15433222D02*
X15029706Y-15414174D01*
X15029706Y-15414174D02*
X15048753Y-15404650D01*
X15048753Y-15404650D02*
X15077325Y-15404650D01*
X15077325Y-15404650D02*
X15096372Y-15414174D01*
X15172563Y-15614174D02*
X15182087Y-15604650D01*
X15182087Y-15604650D02*
X15201134Y-15576079D01*
X15201134Y-15576079D02*
X15210658Y-15557031D01*
X15210658Y-15557031D02*
X15220182Y-15528460D01*
X15220182Y-15528460D02*
X15229706Y-15480841D01*
X15229706Y-15480841D02*
X15229706Y-15442746D01*
X15229706Y-15442746D02*
X15220182Y-15395126D01*
X15220182Y-15395126D02*
X15210658Y-15366555D01*
X15210658Y-15366555D02*
X15201134Y-15347507D01*
X15201134Y-15347507D02*
X15182087Y-15318936D01*
X15182087Y-15318936D02*
X15172563Y-15309412D01*
D13*
X10367500Y-15680500D02*
X10367500Y-15740500D01*
X10337500Y-15710500D02*
X10397500Y-15710500D01*
D11*
X10696372Y-15601984D02*
X10715420Y-15601984D01*
X10715420Y-15601984D02*
X10734467Y-15611507D01*
X10734467Y-15611507D02*
X10743991Y-15621031D01*
X10743991Y-15621031D02*
X10753515Y-15640079D01*
X10753515Y-15640079D02*
X10763039Y-15678174D01*
X10763039Y-15678174D02*
X10763039Y-15725793D01*
X10763039Y-15725793D02*
X10753515Y-15763888D01*
X10753515Y-15763888D02*
X10743991Y-15782936D01*
X10743991Y-15782936D02*
X10734467Y-15792460D01*
X10734467Y-15792460D02*
X10715420Y-15801984D01*
X10715420Y-15801984D02*
X10696372Y-15801984D01*
X10696372Y-15801984D02*
X10677324Y-15792460D01*
X10677324Y-15792460D02*
X10667801Y-15782936D01*
X10667801Y-15782936D02*
X10658277Y-15763888D01*
X10658277Y-15763888D02*
X10648753Y-15725793D01*
X10648753Y-15725793D02*
X10648753Y-15678174D01*
X10648753Y-15678174D02*
X10658277Y-15640079D01*
X10658277Y-15640079D02*
X10667801Y-15621031D01*
X10667801Y-15621031D02*
X10677324Y-15611507D01*
X10677324Y-15611507D02*
X10696372Y-15601984D01*
X10848753Y-15782936D02*
X10858277Y-15792460D01*
X10858277Y-15792460D02*
X10848753Y-15801984D01*
X10848753Y-15801984D02*
X10839229Y-15792460D01*
X10839229Y-15792460D02*
X10848753Y-15782936D01*
X10848753Y-15782936D02*
X10848753Y-15801984D01*
X11029705Y-15601984D02*
X10991610Y-15601984D01*
X10991610Y-15601984D02*
X10972563Y-15611507D01*
X10972563Y-15611507D02*
X10963039Y-15621031D01*
X10963039Y-15621031D02*
X10943991Y-15649603D01*
X10943991Y-15649603D02*
X10934467Y-15687698D01*
X10934467Y-15687698D02*
X10934467Y-15763888D01*
X10934467Y-15763888D02*
X10943991Y-15782936D01*
X10943991Y-15782936D02*
X10953515Y-15792460D01*
X10953515Y-15792460D02*
X10972563Y-15801984D01*
X10972563Y-15801984D02*
X11010658Y-15801984D01*
X11010658Y-15801984D02*
X11029705Y-15792460D01*
X11029705Y-15792460D02*
X11039229Y-15782936D01*
X11039229Y-15782936D02*
X11048753Y-15763888D01*
X11048753Y-15763888D02*
X11048753Y-15716269D01*
X11048753Y-15716269D02*
X11039229Y-15697222D01*
X11039229Y-15697222D02*
X11029705Y-15687698D01*
X11029705Y-15687698D02*
X11010658Y-15678174D01*
X11010658Y-15678174D02*
X10972563Y-15678174D01*
X10972563Y-15678174D02*
X10953515Y-15687698D01*
X10953515Y-15687698D02*
X10943991Y-15697222D01*
X10943991Y-15697222D02*
X10934467Y-15716269D01*
X11172563Y-15601984D02*
X11191610Y-15601984D01*
X11191610Y-15601984D02*
X11210658Y-15611507D01*
X11210658Y-15611507D02*
X11220182Y-15621031D01*
X11220182Y-15621031D02*
X11229705Y-15640079D01*
X11229705Y-15640079D02*
X11239229Y-15678174D01*
X11239229Y-15678174D02*
X11239229Y-15725793D01*
X11239229Y-15725793D02*
X11229705Y-15763888D01*
X11229705Y-15763888D02*
X11220182Y-15782936D01*
X11220182Y-15782936D02*
X11210658Y-15792460D01*
X11210658Y-15792460D02*
X11191610Y-15801984D01*
X11191610Y-15801984D02*
X11172563Y-15801984D01*
X11172563Y-15801984D02*
X11153515Y-15792460D01*
X11153515Y-15792460D02*
X11143991Y-15782936D01*
X11143991Y-15782936D02*
X11134467Y-15763888D01*
X11134467Y-15763888D02*
X11124944Y-15725793D01*
X11124944Y-15725793D02*
X11124944Y-15678174D01*
X11124944Y-15678174D02*
X11134467Y-15640079D01*
X11134467Y-15640079D02*
X11143991Y-15621031D01*
X11143991Y-15621031D02*
X11153515Y-15611507D01*
X11153515Y-15611507D02*
X11172563Y-15601984D01*
X11363039Y-15601984D02*
X11382086Y-15601984D01*
X11382086Y-15601984D02*
X11401134Y-15611507D01*
X11401134Y-15611507D02*
X11410658Y-15621031D01*
X11410658Y-15621031D02*
X11420182Y-15640079D01*
X11420182Y-15640079D02*
X11429705Y-15678174D01*
X11429705Y-15678174D02*
X11429705Y-15725793D01*
X11429705Y-15725793D02*
X11420182Y-15763888D01*
X11420182Y-15763888D02*
X11410658Y-15782936D01*
X11410658Y-15782936D02*
X11401134Y-15792460D01*
X11401134Y-15792460D02*
X11382086Y-15801984D01*
X11382086Y-15801984D02*
X11363039Y-15801984D01*
X11363039Y-15801984D02*
X11343991Y-15792460D01*
X11343991Y-15792460D02*
X11334467Y-15782936D01*
X11334467Y-15782936D02*
X11324943Y-15763888D01*
X11324943Y-15763888D02*
X11315420Y-15725793D01*
X11315420Y-15725793D02*
X11315420Y-15678174D01*
X11315420Y-15678174D02*
X11324943Y-15640079D01*
X11324943Y-15640079D02*
X11334467Y-15621031D01*
X11334467Y-15621031D02*
X11343991Y-15611507D01*
X11343991Y-15611507D02*
X11363039Y-15601984D01*
X11515420Y-15801984D02*
X11515420Y-15668650D01*
X11515420Y-15687698D02*
X11524943Y-15678174D01*
X11524943Y-15678174D02*
X11543991Y-15668650D01*
X11543991Y-15668650D02*
X11572563Y-15668650D01*
X11572563Y-15668650D02*
X11591610Y-15678174D01*
X11591610Y-15678174D02*
X11601134Y-15697222D01*
X11601134Y-15697222D02*
X11601134Y-15801984D01*
X11601134Y-15697222D02*
X11610658Y-15678174D01*
X11610658Y-15678174D02*
X11629705Y-15668650D01*
X11629705Y-15668650D02*
X11658277Y-15668650D01*
X11658277Y-15668650D02*
X11677324Y-15678174D01*
X11677324Y-15678174D02*
X11686848Y-15697222D01*
X11686848Y-15697222D02*
X11686848Y-15801984D01*
X11782086Y-15801984D02*
X11782086Y-15668650D01*
X11782086Y-15687698D02*
X11791610Y-15678174D01*
X11791610Y-15678174D02*
X11810658Y-15668650D01*
X11810658Y-15668650D02*
X11839229Y-15668650D01*
X11839229Y-15668650D02*
X11858277Y-15678174D01*
X11858277Y-15678174D02*
X11867801Y-15697222D01*
X11867801Y-15697222D02*
X11867801Y-15801984D01*
X11867801Y-15697222D02*
X11877324Y-15678174D01*
X11877324Y-15678174D02*
X11896372Y-15668650D01*
X11896372Y-15668650D02*
X11924943Y-15668650D01*
X11924943Y-15668650D02*
X11943991Y-15678174D01*
X11943991Y-15678174D02*
X11953515Y-15697222D01*
X11953515Y-15697222D02*
X11953515Y-15801984D01*
X12343991Y-15592460D02*
X12172563Y-15849603D01*
X12601134Y-15601984D02*
X12620182Y-15601984D01*
X12620182Y-15601984D02*
X12639229Y-15611507D01*
X12639229Y-15611507D02*
X12648753Y-15621031D01*
X12648753Y-15621031D02*
X12658277Y-15640079D01*
X12658277Y-15640079D02*
X12667801Y-15678174D01*
X12667801Y-15678174D02*
X12667801Y-15725793D01*
X12667801Y-15725793D02*
X12658277Y-15763888D01*
X12658277Y-15763888D02*
X12648753Y-15782936D01*
X12648753Y-15782936D02*
X12639229Y-15792460D01*
X12639229Y-15792460D02*
X12620182Y-15801984D01*
X12620182Y-15801984D02*
X12601134Y-15801984D01*
X12601134Y-15801984D02*
X12582086Y-15792460D01*
X12582086Y-15792460D02*
X12572563Y-15782936D01*
X12572563Y-15782936D02*
X12563039Y-15763888D01*
X12563039Y-15763888D02*
X12553515Y-15725793D01*
X12553515Y-15725793D02*
X12553515Y-15678174D01*
X12553515Y-15678174D02*
X12563039Y-15640079D01*
X12563039Y-15640079D02*
X12572563Y-15621031D01*
X12572563Y-15621031D02*
X12582086Y-15611507D01*
X12582086Y-15611507D02*
X12601134Y-15601984D01*
X12753515Y-15782936D02*
X12763039Y-15792460D01*
X12763039Y-15792460D02*
X12753515Y-15801984D01*
X12753515Y-15801984D02*
X12743991Y-15792460D01*
X12743991Y-15792460D02*
X12753515Y-15782936D01*
X12753515Y-15782936D02*
X12753515Y-15801984D01*
X12886848Y-15601984D02*
X12905896Y-15601984D01*
X12905896Y-15601984D02*
X12924944Y-15611507D01*
X12924944Y-15611507D02*
X12934467Y-15621031D01*
X12934467Y-15621031D02*
X12943991Y-15640079D01*
X12943991Y-15640079D02*
X12953515Y-15678174D01*
X12953515Y-15678174D02*
X12953515Y-15725793D01*
X12953515Y-15725793D02*
X12943991Y-15763888D01*
X12943991Y-15763888D02*
X12934467Y-15782936D01*
X12934467Y-15782936D02*
X12924944Y-15792460D01*
X12924944Y-15792460D02*
X12905896Y-15801984D01*
X12905896Y-15801984D02*
X12886848Y-15801984D01*
X12886848Y-15801984D02*
X12867801Y-15792460D01*
X12867801Y-15792460D02*
X12858277Y-15782936D01*
X12858277Y-15782936D02*
X12848753Y-15763888D01*
X12848753Y-15763888D02*
X12839229Y-15725793D01*
X12839229Y-15725793D02*
X12839229Y-15678174D01*
X12839229Y-15678174D02*
X12848753Y-15640079D01*
X12848753Y-15640079D02*
X12858277Y-15621031D01*
X12858277Y-15621031D02*
X12867801Y-15611507D01*
X12867801Y-15611507D02*
X12886848Y-15601984D01*
X13029706Y-15621031D02*
X13039229Y-15611507D01*
X13039229Y-15611507D02*
X13058277Y-15601984D01*
X13058277Y-15601984D02*
X13105896Y-15601984D01*
X13105896Y-15601984D02*
X13124944Y-15611507D01*
X13124944Y-15611507D02*
X13134467Y-15621031D01*
X13134467Y-15621031D02*
X13143991Y-15640079D01*
X13143991Y-15640079D02*
X13143991Y-15659126D01*
X13143991Y-15659126D02*
X13134467Y-15687698D01*
X13134467Y-15687698D02*
X13020182Y-15801984D01*
X13020182Y-15801984D02*
X13143991Y-15801984D01*
X13210658Y-15601984D02*
X13334467Y-15601984D01*
X13334467Y-15601984D02*
X13267801Y-15678174D01*
X13267801Y-15678174D02*
X13296372Y-15678174D01*
X13296372Y-15678174D02*
X13315420Y-15687698D01*
X13315420Y-15687698D02*
X13324944Y-15697222D01*
X13324944Y-15697222D02*
X13334467Y-15716269D01*
X13334467Y-15716269D02*
X13334467Y-15763888D01*
X13334467Y-15763888D02*
X13324944Y-15782936D01*
X13324944Y-15782936D02*
X13315420Y-15792460D01*
X13315420Y-15792460D02*
X13296372Y-15801984D01*
X13296372Y-15801984D02*
X13239229Y-15801984D01*
X13239229Y-15801984D02*
X13220182Y-15792460D01*
X13220182Y-15792460D02*
X13210658Y-15782936D01*
X13505896Y-15601984D02*
X13467801Y-15601984D01*
X13467801Y-15601984D02*
X13448753Y-15611507D01*
X13448753Y-15611507D02*
X13439229Y-15621031D01*
X13439229Y-15621031D02*
X13420182Y-15649603D01*
X13420182Y-15649603D02*
X13410658Y-15687698D01*
X13410658Y-15687698D02*
X13410658Y-15763888D01*
X13410658Y-15763888D02*
X13420182Y-15782936D01*
X13420182Y-15782936D02*
X13429706Y-15792460D01*
X13429706Y-15792460D02*
X13448753Y-15801984D01*
X13448753Y-15801984D02*
X13486848Y-15801984D01*
X13486848Y-15801984D02*
X13505896Y-15792460D01*
X13505896Y-15792460D02*
X13515420Y-15782936D01*
X13515420Y-15782936D02*
X13524944Y-15763888D01*
X13524944Y-15763888D02*
X13524944Y-15716269D01*
X13524944Y-15716269D02*
X13515420Y-15697222D01*
X13515420Y-15697222D02*
X13505896Y-15687698D01*
X13505896Y-15687698D02*
X13486848Y-15678174D01*
X13486848Y-15678174D02*
X13448753Y-15678174D01*
X13448753Y-15678174D02*
X13429706Y-15687698D01*
X13429706Y-15687698D02*
X13420182Y-15697222D01*
X13420182Y-15697222D02*
X13410658Y-15716269D01*
X13601134Y-15601984D02*
X13601134Y-15640079D01*
X13677325Y-15601984D02*
X13677325Y-15640079D01*
X13972563Y-15878174D02*
X13963039Y-15868650D01*
X13963039Y-15868650D02*
X13943991Y-15840079D01*
X13943991Y-15840079D02*
X13934468Y-15821031D01*
X13934468Y-15821031D02*
X13924944Y-15792460D01*
X13924944Y-15792460D02*
X13915420Y-15744841D01*
X13915420Y-15744841D02*
X13915420Y-15706746D01*
X13915420Y-15706746D02*
X13924944Y-15659126D01*
X13924944Y-15659126D02*
X13934468Y-15630555D01*
X13934468Y-15630555D02*
X13943991Y-15611507D01*
X13943991Y-15611507D02*
X13963039Y-15582936D01*
X13963039Y-15582936D02*
X13972563Y-15573412D01*
X14086848Y-15601984D02*
X14105896Y-15601984D01*
X14105896Y-15601984D02*
X14124944Y-15611507D01*
X14124944Y-15611507D02*
X14134468Y-15621031D01*
X14134468Y-15621031D02*
X14143991Y-15640079D01*
X14143991Y-15640079D02*
X14153515Y-15678174D01*
X14153515Y-15678174D02*
X14153515Y-15725793D01*
X14153515Y-15725793D02*
X14143991Y-15763888D01*
X14143991Y-15763888D02*
X14134468Y-15782936D01*
X14134468Y-15782936D02*
X14124944Y-15792460D01*
X14124944Y-15792460D02*
X14105896Y-15801984D01*
X14105896Y-15801984D02*
X14086848Y-15801984D01*
X14086848Y-15801984D02*
X14067801Y-15792460D01*
X14067801Y-15792460D02*
X14058277Y-15782936D01*
X14058277Y-15782936D02*
X14048753Y-15763888D01*
X14048753Y-15763888D02*
X14039229Y-15725793D01*
X14039229Y-15725793D02*
X14039229Y-15678174D01*
X14039229Y-15678174D02*
X14048753Y-15640079D01*
X14048753Y-15640079D02*
X14058277Y-15621031D01*
X14058277Y-15621031D02*
X14067801Y-15611507D01*
X14067801Y-15611507D02*
X14086848Y-15601984D01*
X14391610Y-15801984D02*
X14391610Y-15601984D01*
X14477325Y-15801984D02*
X14477325Y-15697222D01*
X14477325Y-15697222D02*
X14467801Y-15678174D01*
X14467801Y-15678174D02*
X14448753Y-15668650D01*
X14448753Y-15668650D02*
X14420182Y-15668650D01*
X14420182Y-15668650D02*
X14401134Y-15678174D01*
X14401134Y-15678174D02*
X14391610Y-15687698D01*
X14601134Y-15801984D02*
X14582087Y-15792460D01*
X14582087Y-15792460D02*
X14572563Y-15782936D01*
X14572563Y-15782936D02*
X14563039Y-15763888D01*
X14563039Y-15763888D02*
X14563039Y-15706746D01*
X14563039Y-15706746D02*
X14572563Y-15687698D01*
X14572563Y-15687698D02*
X14582087Y-15678174D01*
X14582087Y-15678174D02*
X14601134Y-15668650D01*
X14601134Y-15668650D02*
X14629706Y-15668650D01*
X14629706Y-15668650D02*
X14648753Y-15678174D01*
X14648753Y-15678174D02*
X14658277Y-15687698D01*
X14658277Y-15687698D02*
X14667801Y-15706746D01*
X14667801Y-15706746D02*
X14667801Y-15763888D01*
X14667801Y-15763888D02*
X14658277Y-15782936D01*
X14658277Y-15782936D02*
X14648753Y-15792460D01*
X14648753Y-15792460D02*
X14629706Y-15801984D01*
X14629706Y-15801984D02*
X14601134Y-15801984D01*
X14782087Y-15801984D02*
X14763039Y-15792460D01*
X14763039Y-15792460D02*
X14753515Y-15773412D01*
X14753515Y-15773412D02*
X14753515Y-15601984D01*
X14934468Y-15792460D02*
X14915420Y-15801984D01*
X14915420Y-15801984D02*
X14877325Y-15801984D01*
X14877325Y-15801984D02*
X14858277Y-15792460D01*
X14858277Y-15792460D02*
X14848753Y-15773412D01*
X14848753Y-15773412D02*
X14848753Y-15697222D01*
X14848753Y-15697222D02*
X14858277Y-15678174D01*
X14858277Y-15678174D02*
X14877325Y-15668650D01*
X14877325Y-15668650D02*
X14915420Y-15668650D01*
X14915420Y-15668650D02*
X14934468Y-15678174D01*
X14934468Y-15678174D02*
X14943991Y-15697222D01*
X14943991Y-15697222D02*
X14943991Y-15716269D01*
X14943991Y-15716269D02*
X14848753Y-15735317D01*
X15020182Y-15792460D02*
X15039230Y-15801984D01*
X15039230Y-15801984D02*
X15077325Y-15801984D01*
X15077325Y-15801984D02*
X15096372Y-15792460D01*
X15096372Y-15792460D02*
X15105896Y-15773412D01*
X15105896Y-15773412D02*
X15105896Y-15763888D01*
X15105896Y-15763888D02*
X15096372Y-15744841D01*
X15096372Y-15744841D02*
X15077325Y-15735317D01*
X15077325Y-15735317D02*
X15048753Y-15735317D01*
X15048753Y-15735317D02*
X15029706Y-15725793D01*
X15029706Y-15725793D02*
X15020182Y-15706746D01*
X15020182Y-15706746D02*
X15020182Y-15697222D01*
X15020182Y-15697222D02*
X15029706Y-15678174D01*
X15029706Y-15678174D02*
X15048753Y-15668650D01*
X15048753Y-15668650D02*
X15077325Y-15668650D01*
X15077325Y-15668650D02*
X15096372Y-15678174D01*
X15343992Y-15725793D02*
X15496373Y-15725793D01*
X15420182Y-15801984D02*
X15420182Y-15649603D01*
X15734468Y-15621031D02*
X15743992Y-15611507D01*
X15743992Y-15611507D02*
X15763039Y-15601984D01*
X15763039Y-15601984D02*
X15810658Y-15601984D01*
X15810658Y-15601984D02*
X15829706Y-15611507D01*
X15829706Y-15611507D02*
X15839230Y-15621031D01*
X15839230Y-15621031D02*
X15848753Y-15640079D01*
X15848753Y-15640079D02*
X15848753Y-15659126D01*
X15848753Y-15659126D02*
X15839230Y-15687698D01*
X15839230Y-15687698D02*
X15724944Y-15801984D01*
X15724944Y-15801984D02*
X15848753Y-15801984D01*
X16077325Y-15792460D02*
X16096373Y-15801984D01*
X16096373Y-15801984D02*
X16134468Y-15801984D01*
X16134468Y-15801984D02*
X16153515Y-15792460D01*
X16153515Y-15792460D02*
X16163039Y-15773412D01*
X16163039Y-15773412D02*
X16163039Y-15763888D01*
X16163039Y-15763888D02*
X16153515Y-15744841D01*
X16153515Y-15744841D02*
X16134468Y-15735317D01*
X16134468Y-15735317D02*
X16105896Y-15735317D01*
X16105896Y-15735317D02*
X16086849Y-15725793D01*
X16086849Y-15725793D02*
X16077325Y-15706746D01*
X16077325Y-15706746D02*
X16077325Y-15697222D01*
X16077325Y-15697222D02*
X16086849Y-15678174D01*
X16086849Y-15678174D02*
X16105896Y-15668650D01*
X16105896Y-15668650D02*
X16134468Y-15668650D01*
X16134468Y-15668650D02*
X16153515Y-15678174D01*
X16277325Y-15801984D02*
X16258277Y-15792460D01*
X16258277Y-15792460D02*
X16248754Y-15773412D01*
X16248754Y-15773412D02*
X16248754Y-15601984D01*
X16382087Y-15801984D02*
X16363039Y-15792460D01*
X16363039Y-15792460D02*
X16353515Y-15782936D01*
X16353515Y-15782936D02*
X16343992Y-15763888D01*
X16343992Y-15763888D02*
X16343992Y-15706746D01*
X16343992Y-15706746D02*
X16353515Y-15687698D01*
X16353515Y-15687698D02*
X16363039Y-15678174D01*
X16363039Y-15678174D02*
X16382087Y-15668650D01*
X16382087Y-15668650D02*
X16410658Y-15668650D01*
X16410658Y-15668650D02*
X16429706Y-15678174D01*
X16429706Y-15678174D02*
X16439230Y-15687698D01*
X16439230Y-15687698D02*
X16448754Y-15706746D01*
X16448754Y-15706746D02*
X16448754Y-15763888D01*
X16448754Y-15763888D02*
X16439230Y-15782936D01*
X16439230Y-15782936D02*
X16429706Y-15792460D01*
X16429706Y-15792460D02*
X16410658Y-15801984D01*
X16410658Y-15801984D02*
X16382087Y-15801984D01*
X16505896Y-15668650D02*
X16582087Y-15668650D01*
X16534468Y-15601984D02*
X16534468Y-15773412D01*
X16534468Y-15773412D02*
X16543992Y-15792460D01*
X16543992Y-15792460D02*
X16563039Y-15801984D01*
X16563039Y-15801984D02*
X16582087Y-15801984D01*
X16639230Y-15792460D02*
X16658277Y-15801984D01*
X16658277Y-15801984D02*
X16696373Y-15801984D01*
X16696373Y-15801984D02*
X16715420Y-15792460D01*
X16715420Y-15792460D02*
X16724944Y-15773412D01*
X16724944Y-15773412D02*
X16724944Y-15763888D01*
X16724944Y-15763888D02*
X16715420Y-15744841D01*
X16715420Y-15744841D02*
X16696373Y-15735317D01*
X16696373Y-15735317D02*
X16667801Y-15735317D01*
X16667801Y-15735317D02*
X16648754Y-15725793D01*
X16648754Y-15725793D02*
X16639230Y-15706746D01*
X16639230Y-15706746D02*
X16639230Y-15697222D01*
X16639230Y-15697222D02*
X16648754Y-15678174D01*
X16648754Y-15678174D02*
X16667801Y-15668650D01*
X16667801Y-15668650D02*
X16696373Y-15668650D01*
X16696373Y-15668650D02*
X16715420Y-15678174D01*
X16791611Y-15878174D02*
X16801135Y-15868650D01*
X16801135Y-15868650D02*
X16820182Y-15840079D01*
X16820182Y-15840079D02*
X16829706Y-15821031D01*
X16829706Y-15821031D02*
X16839230Y-15792460D01*
X16839230Y-15792460D02*
X16848754Y-15744841D01*
X16848754Y-15744841D02*
X16848754Y-15706746D01*
X16848754Y-15706746D02*
X16839230Y-15659126D01*
X16839230Y-15659126D02*
X16829706Y-15630555D01*
X16829706Y-15630555D02*
X16820182Y-15611507D01*
X16820182Y-15611507D02*
X16801135Y-15582936D01*
X16801135Y-15582936D02*
X16791611Y-15573412D01*
D14*
X10384320Y-16006320D02*
X10384320Y-15942680D01*
X10320680Y-15942680D01*
X10320680Y-16006320D01*
X10384320Y-16006320D01*
D11*
X10696372Y-15865984D02*
X10715420Y-15865984D01*
X10715420Y-15865984D02*
X10734467Y-15875507D01*
X10734467Y-15875507D02*
X10743991Y-15885031D01*
X10743991Y-15885031D02*
X10753515Y-15904079D01*
X10753515Y-15904079D02*
X10763039Y-15942174D01*
X10763039Y-15942174D02*
X10763039Y-15989793D01*
X10763039Y-15989793D02*
X10753515Y-16027888D01*
X10753515Y-16027888D02*
X10743991Y-16046936D01*
X10743991Y-16046936D02*
X10734467Y-16056460D01*
X10734467Y-16056460D02*
X10715420Y-16065984D01*
X10715420Y-16065984D02*
X10696372Y-16065984D01*
X10696372Y-16065984D02*
X10677324Y-16056460D01*
X10677324Y-16056460D02*
X10667801Y-16046936D01*
X10667801Y-16046936D02*
X10658277Y-16027888D01*
X10658277Y-16027888D02*
X10648753Y-15989793D01*
X10648753Y-15989793D02*
X10648753Y-15942174D01*
X10648753Y-15942174D02*
X10658277Y-15904079D01*
X10658277Y-15904079D02*
X10667801Y-15885031D01*
X10667801Y-15885031D02*
X10677324Y-15875507D01*
X10677324Y-15875507D02*
X10696372Y-15865984D01*
X10848753Y-16046936D02*
X10858277Y-16056460D01*
X10858277Y-16056460D02*
X10848753Y-16065984D01*
X10848753Y-16065984D02*
X10839229Y-16056460D01*
X10839229Y-16056460D02*
X10848753Y-16046936D01*
X10848753Y-16046936D02*
X10848753Y-16065984D01*
X10953515Y-16065984D02*
X10991610Y-16065984D01*
X10991610Y-16065984D02*
X11010658Y-16056460D01*
X11010658Y-16056460D02*
X11020182Y-16046936D01*
X11020182Y-16046936D02*
X11039229Y-16018365D01*
X11039229Y-16018365D02*
X11048753Y-15980269D01*
X11048753Y-15980269D02*
X11048753Y-15904079D01*
X11048753Y-15904079D02*
X11039229Y-15885031D01*
X11039229Y-15885031D02*
X11029705Y-15875507D01*
X11029705Y-15875507D02*
X11010658Y-15865984D01*
X11010658Y-15865984D02*
X10972563Y-15865984D01*
X10972563Y-15865984D02*
X10953515Y-15875507D01*
X10953515Y-15875507D02*
X10943991Y-15885031D01*
X10943991Y-15885031D02*
X10934467Y-15904079D01*
X10934467Y-15904079D02*
X10934467Y-15951698D01*
X10934467Y-15951698D02*
X10943991Y-15970746D01*
X10943991Y-15970746D02*
X10953515Y-15980269D01*
X10953515Y-15980269D02*
X10972563Y-15989793D01*
X10972563Y-15989793D02*
X11010658Y-15989793D01*
X11010658Y-15989793D02*
X11029705Y-15980269D01*
X11029705Y-15980269D02*
X11039229Y-15970746D01*
X11039229Y-15970746D02*
X11048753Y-15951698D01*
X11172563Y-15865984D02*
X11191610Y-15865984D01*
X11191610Y-15865984D02*
X11210658Y-15875507D01*
X11210658Y-15875507D02*
X11220182Y-15885031D01*
X11220182Y-15885031D02*
X11229705Y-15904079D01*
X11229705Y-15904079D02*
X11239229Y-15942174D01*
X11239229Y-15942174D02*
X11239229Y-15989793D01*
X11239229Y-15989793D02*
X11229705Y-16027888D01*
X11229705Y-16027888D02*
X11220182Y-16046936D01*
X11220182Y-16046936D02*
X11210658Y-16056460D01*
X11210658Y-16056460D02*
X11191610Y-16065984D01*
X11191610Y-16065984D02*
X11172563Y-16065984D01*
X11172563Y-16065984D02*
X11153515Y-16056460D01*
X11153515Y-16056460D02*
X11143991Y-16046936D01*
X11143991Y-16046936D02*
X11134467Y-16027888D01*
X11134467Y-16027888D02*
X11124944Y-15989793D01*
X11124944Y-15989793D02*
X11124944Y-15942174D01*
X11124944Y-15942174D02*
X11134467Y-15904079D01*
X11134467Y-15904079D02*
X11143991Y-15885031D01*
X11143991Y-15885031D02*
X11153515Y-15875507D01*
X11153515Y-15875507D02*
X11172563Y-15865984D01*
X11363039Y-15865984D02*
X11382086Y-15865984D01*
X11382086Y-15865984D02*
X11401134Y-15875507D01*
X11401134Y-15875507D02*
X11410658Y-15885031D01*
X11410658Y-15885031D02*
X11420182Y-15904079D01*
X11420182Y-15904079D02*
X11429705Y-15942174D01*
X11429705Y-15942174D02*
X11429705Y-15989793D01*
X11429705Y-15989793D02*
X11420182Y-16027888D01*
X11420182Y-16027888D02*
X11410658Y-16046936D01*
X11410658Y-16046936D02*
X11401134Y-16056460D01*
X11401134Y-16056460D02*
X11382086Y-16065984D01*
X11382086Y-16065984D02*
X11363039Y-16065984D01*
X11363039Y-16065984D02*
X11343991Y-16056460D01*
X11343991Y-16056460D02*
X11334467Y-16046936D01*
X11334467Y-16046936D02*
X11324943Y-16027888D01*
X11324943Y-16027888D02*
X11315420Y-15989793D01*
X11315420Y-15989793D02*
X11315420Y-15942174D01*
X11315420Y-15942174D02*
X11324943Y-15904079D01*
X11324943Y-15904079D02*
X11334467Y-15885031D01*
X11334467Y-15885031D02*
X11343991Y-15875507D01*
X11343991Y-15875507D02*
X11363039Y-15865984D01*
X11515420Y-16065984D02*
X11515420Y-15932650D01*
X11515420Y-15951698D02*
X11524943Y-15942174D01*
X11524943Y-15942174D02*
X11543991Y-15932650D01*
X11543991Y-15932650D02*
X11572563Y-15932650D01*
X11572563Y-15932650D02*
X11591610Y-15942174D01*
X11591610Y-15942174D02*
X11601134Y-15961222D01*
X11601134Y-15961222D02*
X11601134Y-16065984D01*
X11601134Y-15961222D02*
X11610658Y-15942174D01*
X11610658Y-15942174D02*
X11629705Y-15932650D01*
X11629705Y-15932650D02*
X11658277Y-15932650D01*
X11658277Y-15932650D02*
X11677324Y-15942174D01*
X11677324Y-15942174D02*
X11686848Y-15961222D01*
X11686848Y-15961222D02*
X11686848Y-16065984D01*
X11782086Y-16065984D02*
X11782086Y-15932650D01*
X11782086Y-15951698D02*
X11791610Y-15942174D01*
X11791610Y-15942174D02*
X11810658Y-15932650D01*
X11810658Y-15932650D02*
X11839229Y-15932650D01*
X11839229Y-15932650D02*
X11858277Y-15942174D01*
X11858277Y-15942174D02*
X11867801Y-15961222D01*
X11867801Y-15961222D02*
X11867801Y-16065984D01*
X11867801Y-15961222D02*
X11877324Y-15942174D01*
X11877324Y-15942174D02*
X11896372Y-15932650D01*
X11896372Y-15932650D02*
X11924943Y-15932650D01*
X11924943Y-15932650D02*
X11943991Y-15942174D01*
X11943991Y-15942174D02*
X11953515Y-15961222D01*
X11953515Y-15961222D02*
X11953515Y-16065984D01*
X12343991Y-15856460D02*
X12172563Y-16113603D01*
X12601134Y-15865984D02*
X12620182Y-15865984D01*
X12620182Y-15865984D02*
X12639229Y-15875507D01*
X12639229Y-15875507D02*
X12648753Y-15885031D01*
X12648753Y-15885031D02*
X12658277Y-15904079D01*
X12658277Y-15904079D02*
X12667801Y-15942174D01*
X12667801Y-15942174D02*
X12667801Y-15989793D01*
X12667801Y-15989793D02*
X12658277Y-16027888D01*
X12658277Y-16027888D02*
X12648753Y-16046936D01*
X12648753Y-16046936D02*
X12639229Y-16056460D01*
X12639229Y-16056460D02*
X12620182Y-16065984D01*
X12620182Y-16065984D02*
X12601134Y-16065984D01*
X12601134Y-16065984D02*
X12582086Y-16056460D01*
X12582086Y-16056460D02*
X12572563Y-16046936D01*
X12572563Y-16046936D02*
X12563039Y-16027888D01*
X12563039Y-16027888D02*
X12553515Y-15989793D01*
X12553515Y-15989793D02*
X12553515Y-15942174D01*
X12553515Y-15942174D02*
X12563039Y-15904079D01*
X12563039Y-15904079D02*
X12572563Y-15885031D01*
X12572563Y-15885031D02*
X12582086Y-15875507D01*
X12582086Y-15875507D02*
X12601134Y-15865984D01*
X12753515Y-16046936D02*
X12763039Y-16056460D01*
X12763039Y-16056460D02*
X12753515Y-16065984D01*
X12753515Y-16065984D02*
X12743991Y-16056460D01*
X12743991Y-16056460D02*
X12753515Y-16046936D01*
X12753515Y-16046936D02*
X12753515Y-16065984D01*
X12886848Y-15865984D02*
X12905896Y-15865984D01*
X12905896Y-15865984D02*
X12924944Y-15875507D01*
X12924944Y-15875507D02*
X12934467Y-15885031D01*
X12934467Y-15885031D02*
X12943991Y-15904079D01*
X12943991Y-15904079D02*
X12953515Y-15942174D01*
X12953515Y-15942174D02*
X12953515Y-15989793D01*
X12953515Y-15989793D02*
X12943991Y-16027888D01*
X12943991Y-16027888D02*
X12934467Y-16046936D01*
X12934467Y-16046936D02*
X12924944Y-16056460D01*
X12924944Y-16056460D02*
X12905896Y-16065984D01*
X12905896Y-16065984D02*
X12886848Y-16065984D01*
X12886848Y-16065984D02*
X12867801Y-16056460D01*
X12867801Y-16056460D02*
X12858277Y-16046936D01*
X12858277Y-16046936D02*
X12848753Y-16027888D01*
X12848753Y-16027888D02*
X12839229Y-15989793D01*
X12839229Y-15989793D02*
X12839229Y-15942174D01*
X12839229Y-15942174D02*
X12848753Y-15904079D01*
X12848753Y-15904079D02*
X12858277Y-15885031D01*
X12858277Y-15885031D02*
X12867801Y-15875507D01*
X12867801Y-15875507D02*
X12886848Y-15865984D01*
X13020182Y-15865984D02*
X13143991Y-15865984D01*
X13143991Y-15865984D02*
X13077325Y-15942174D01*
X13077325Y-15942174D02*
X13105896Y-15942174D01*
X13105896Y-15942174D02*
X13124944Y-15951698D01*
X13124944Y-15951698D02*
X13134467Y-15961222D01*
X13134467Y-15961222D02*
X13143991Y-15980269D01*
X13143991Y-15980269D02*
X13143991Y-16027888D01*
X13143991Y-16027888D02*
X13134467Y-16046936D01*
X13134467Y-16046936D02*
X13124944Y-16056460D01*
X13124944Y-16056460D02*
X13105896Y-16065984D01*
X13105896Y-16065984D02*
X13048753Y-16065984D01*
X13048753Y-16065984D02*
X13029706Y-16056460D01*
X13029706Y-16056460D02*
X13020182Y-16046936D01*
X13324944Y-15865984D02*
X13229706Y-15865984D01*
X13229706Y-15865984D02*
X13220182Y-15961222D01*
X13220182Y-15961222D02*
X13229706Y-15951698D01*
X13229706Y-15951698D02*
X13248753Y-15942174D01*
X13248753Y-15942174D02*
X13296372Y-15942174D01*
X13296372Y-15942174D02*
X13315420Y-15951698D01*
X13315420Y-15951698D02*
X13324944Y-15961222D01*
X13324944Y-15961222D02*
X13334467Y-15980269D01*
X13334467Y-15980269D02*
X13334467Y-16027888D01*
X13334467Y-16027888D02*
X13324944Y-16046936D01*
X13324944Y-16046936D02*
X13315420Y-16056460D01*
X13315420Y-16056460D02*
X13296372Y-16065984D01*
X13296372Y-16065984D02*
X13248753Y-16065984D01*
X13248753Y-16065984D02*
X13229706Y-16056460D01*
X13229706Y-16056460D02*
X13220182Y-16046936D01*
X13505896Y-15932650D02*
X13505896Y-16065984D01*
X13458277Y-15856460D02*
X13410658Y-15999317D01*
X13410658Y-15999317D02*
X13534467Y-15999317D01*
X13601134Y-15865984D02*
X13601134Y-15904079D01*
X13677325Y-15865984D02*
X13677325Y-15904079D01*
X13972563Y-16142174D02*
X13963039Y-16132650D01*
X13963039Y-16132650D02*
X13943991Y-16104079D01*
X13943991Y-16104079D02*
X13934468Y-16085031D01*
X13934468Y-16085031D02*
X13924944Y-16056460D01*
X13924944Y-16056460D02*
X13915420Y-16008841D01*
X13915420Y-16008841D02*
X13915420Y-15970746D01*
X13915420Y-15970746D02*
X13924944Y-15923126D01*
X13924944Y-15923126D02*
X13934468Y-15894555D01*
X13934468Y-15894555D02*
X13943991Y-15875507D01*
X13943991Y-15875507D02*
X13963039Y-15846936D01*
X13963039Y-15846936D02*
X13972563Y-15837412D01*
X14077325Y-15951698D02*
X14058277Y-15942174D01*
X14058277Y-15942174D02*
X14048753Y-15932650D01*
X14048753Y-15932650D02*
X14039229Y-15913603D01*
X14039229Y-15913603D02*
X14039229Y-15904079D01*
X14039229Y-15904079D02*
X14048753Y-15885031D01*
X14048753Y-15885031D02*
X14058277Y-15875507D01*
X14058277Y-15875507D02*
X14077325Y-15865984D01*
X14077325Y-15865984D02*
X14115420Y-15865984D01*
X14115420Y-15865984D02*
X14134468Y-15875507D01*
X14134468Y-15875507D02*
X14143991Y-15885031D01*
X14143991Y-15885031D02*
X14153515Y-15904079D01*
X14153515Y-15904079D02*
X14153515Y-15913603D01*
X14153515Y-15913603D02*
X14143991Y-15932650D01*
X14143991Y-15932650D02*
X14134468Y-15942174D01*
X14134468Y-15942174D02*
X14115420Y-15951698D01*
X14115420Y-15951698D02*
X14077325Y-15951698D01*
X14077325Y-15951698D02*
X14058277Y-15961222D01*
X14058277Y-15961222D02*
X14048753Y-15970746D01*
X14048753Y-15970746D02*
X14039229Y-15989793D01*
X14039229Y-15989793D02*
X14039229Y-16027888D01*
X14039229Y-16027888D02*
X14048753Y-16046936D01*
X14048753Y-16046936D02*
X14058277Y-16056460D01*
X14058277Y-16056460D02*
X14077325Y-16065984D01*
X14077325Y-16065984D02*
X14115420Y-16065984D01*
X14115420Y-16065984D02*
X14134468Y-16056460D01*
X14134468Y-16056460D02*
X14143991Y-16046936D01*
X14143991Y-16046936D02*
X14153515Y-16027888D01*
X14153515Y-16027888D02*
X14153515Y-15989793D01*
X14153515Y-15989793D02*
X14143991Y-15970746D01*
X14143991Y-15970746D02*
X14134468Y-15961222D01*
X14134468Y-15961222D02*
X14115420Y-15951698D01*
X14391610Y-16065984D02*
X14391610Y-15865984D01*
X14477325Y-16065984D02*
X14477325Y-15961222D01*
X14477325Y-15961222D02*
X14467801Y-15942174D01*
X14467801Y-15942174D02*
X14448753Y-15932650D01*
X14448753Y-15932650D02*
X14420182Y-15932650D01*
X14420182Y-15932650D02*
X14401134Y-15942174D01*
X14401134Y-15942174D02*
X14391610Y-15951698D01*
X14601134Y-16065984D02*
X14582087Y-16056460D01*
X14582087Y-16056460D02*
X14572563Y-16046936D01*
X14572563Y-16046936D02*
X14563039Y-16027888D01*
X14563039Y-16027888D02*
X14563039Y-15970746D01*
X14563039Y-15970746D02*
X14572563Y-15951698D01*
X14572563Y-15951698D02*
X14582087Y-15942174D01*
X14582087Y-15942174D02*
X14601134Y-15932650D01*
X14601134Y-15932650D02*
X14629706Y-15932650D01*
X14629706Y-15932650D02*
X14648753Y-15942174D01*
X14648753Y-15942174D02*
X14658277Y-15951698D01*
X14658277Y-15951698D02*
X14667801Y-15970746D01*
X14667801Y-15970746D02*
X14667801Y-16027888D01*
X14667801Y-16027888D02*
X14658277Y-16046936D01*
X14658277Y-16046936D02*
X14648753Y-16056460D01*
X14648753Y-16056460D02*
X14629706Y-16065984D01*
X14629706Y-16065984D02*
X14601134Y-16065984D01*
X14782087Y-16065984D02*
X14763039Y-16056460D01*
X14763039Y-16056460D02*
X14753515Y-16037412D01*
X14753515Y-16037412D02*
X14753515Y-15865984D01*
X14934468Y-16056460D02*
X14915420Y-16065984D01*
X14915420Y-16065984D02*
X14877325Y-16065984D01*
X14877325Y-16065984D02*
X14858277Y-16056460D01*
X14858277Y-16056460D02*
X14848753Y-16037412D01*
X14848753Y-16037412D02*
X14848753Y-15961222D01*
X14848753Y-15961222D02*
X14858277Y-15942174D01*
X14858277Y-15942174D02*
X14877325Y-15932650D01*
X14877325Y-15932650D02*
X14915420Y-15932650D01*
X14915420Y-15932650D02*
X14934468Y-15942174D01*
X14934468Y-15942174D02*
X14943991Y-15961222D01*
X14943991Y-15961222D02*
X14943991Y-15980269D01*
X14943991Y-15980269D02*
X14848753Y-15999317D01*
X15020182Y-16056460D02*
X15039230Y-16065984D01*
X15039230Y-16065984D02*
X15077325Y-16065984D01*
X15077325Y-16065984D02*
X15096372Y-16056460D01*
X15096372Y-16056460D02*
X15105896Y-16037412D01*
X15105896Y-16037412D02*
X15105896Y-16027888D01*
X15105896Y-16027888D02*
X15096372Y-16008841D01*
X15096372Y-16008841D02*
X15077325Y-15999317D01*
X15077325Y-15999317D02*
X15048753Y-15999317D01*
X15048753Y-15999317D02*
X15029706Y-15989793D01*
X15029706Y-15989793D02*
X15020182Y-15970746D01*
X15020182Y-15970746D02*
X15020182Y-15961222D01*
X15020182Y-15961222D02*
X15029706Y-15942174D01*
X15029706Y-15942174D02*
X15048753Y-15932650D01*
X15048753Y-15932650D02*
X15077325Y-15932650D01*
X15077325Y-15932650D02*
X15096372Y-15942174D01*
X15172563Y-16142174D02*
X15182087Y-16132650D01*
X15182087Y-16132650D02*
X15201134Y-16104079D01*
X15201134Y-16104079D02*
X15210658Y-16085031D01*
X15210658Y-16085031D02*
X15220182Y-16056460D01*
X15220182Y-16056460D02*
X15229706Y-16008841D01*
X15229706Y-16008841D02*
X15229706Y-15970746D01*
X15229706Y-15970746D02*
X15220182Y-15923126D01*
X15220182Y-15923126D02*
X15210658Y-15894555D01*
X15210658Y-15894555D02*
X15201134Y-15875507D01*
X15201134Y-15875507D02*
X15182087Y-15846936D01*
X15182087Y-15846936D02*
X15172563Y-15837412D01*
D15*
X10347500Y-16288500D02*
X10397500Y-16238500D01*
X10347500Y-16188500D01*
X10297500Y-16238500D01*
X10347500Y-16288500D01*
D11*
X10763039Y-16329984D02*
X10648753Y-16329984D01*
X10705896Y-16329984D02*
X10705896Y-16129984D01*
X10705896Y-16129984D02*
X10686848Y-16158555D01*
X10686848Y-16158555D02*
X10667801Y-16177603D01*
X10667801Y-16177603D02*
X10648753Y-16187126D01*
X10848753Y-16310936D02*
X10858277Y-16320460D01*
X10858277Y-16320460D02*
X10848753Y-16329984D01*
X10848753Y-16329984D02*
X10839229Y-16320460D01*
X10839229Y-16320460D02*
X10848753Y-16310936D01*
X10848753Y-16310936D02*
X10848753Y-16329984D01*
X10982086Y-16129984D02*
X11001134Y-16129984D01*
X11001134Y-16129984D02*
X11020182Y-16139507D01*
X11020182Y-16139507D02*
X11029705Y-16149031D01*
X11029705Y-16149031D02*
X11039229Y-16168079D01*
X11039229Y-16168079D02*
X11048753Y-16206174D01*
X11048753Y-16206174D02*
X11048753Y-16253793D01*
X11048753Y-16253793D02*
X11039229Y-16291888D01*
X11039229Y-16291888D02*
X11029705Y-16310936D01*
X11029705Y-16310936D02*
X11020182Y-16320460D01*
X11020182Y-16320460D02*
X11001134Y-16329984D01*
X11001134Y-16329984D02*
X10982086Y-16329984D01*
X10982086Y-16329984D02*
X10963039Y-16320460D01*
X10963039Y-16320460D02*
X10953515Y-16310936D01*
X10953515Y-16310936D02*
X10943991Y-16291888D01*
X10943991Y-16291888D02*
X10934467Y-16253793D01*
X10934467Y-16253793D02*
X10934467Y-16206174D01*
X10934467Y-16206174D02*
X10943991Y-16168079D01*
X10943991Y-16168079D02*
X10953515Y-16149031D01*
X10953515Y-16149031D02*
X10963039Y-16139507D01*
X10963039Y-16139507D02*
X10982086Y-16129984D01*
X11172563Y-16129984D02*
X11191610Y-16129984D01*
X11191610Y-16129984D02*
X11210658Y-16139507D01*
X11210658Y-16139507D02*
X11220182Y-16149031D01*
X11220182Y-16149031D02*
X11229705Y-16168079D01*
X11229705Y-16168079D02*
X11239229Y-16206174D01*
X11239229Y-16206174D02*
X11239229Y-16253793D01*
X11239229Y-16253793D02*
X11229705Y-16291888D01*
X11229705Y-16291888D02*
X11220182Y-16310936D01*
X11220182Y-16310936D02*
X11210658Y-16320460D01*
X11210658Y-16320460D02*
X11191610Y-16329984D01*
X11191610Y-16329984D02*
X11172563Y-16329984D01*
X11172563Y-16329984D02*
X11153515Y-16320460D01*
X11153515Y-16320460D02*
X11143991Y-16310936D01*
X11143991Y-16310936D02*
X11134467Y-16291888D01*
X11134467Y-16291888D02*
X11124944Y-16253793D01*
X11124944Y-16253793D02*
X11124944Y-16206174D01*
X11124944Y-16206174D02*
X11134467Y-16168079D01*
X11134467Y-16168079D02*
X11143991Y-16149031D01*
X11143991Y-16149031D02*
X11153515Y-16139507D01*
X11153515Y-16139507D02*
X11172563Y-16129984D01*
X11363039Y-16129984D02*
X11382086Y-16129984D01*
X11382086Y-16129984D02*
X11401134Y-16139507D01*
X11401134Y-16139507D02*
X11410658Y-16149031D01*
X11410658Y-16149031D02*
X11420182Y-16168079D01*
X11420182Y-16168079D02*
X11429705Y-16206174D01*
X11429705Y-16206174D02*
X11429705Y-16253793D01*
X11429705Y-16253793D02*
X11420182Y-16291888D01*
X11420182Y-16291888D02*
X11410658Y-16310936D01*
X11410658Y-16310936D02*
X11401134Y-16320460D01*
X11401134Y-16320460D02*
X11382086Y-16329984D01*
X11382086Y-16329984D02*
X11363039Y-16329984D01*
X11363039Y-16329984D02*
X11343991Y-16320460D01*
X11343991Y-16320460D02*
X11334467Y-16310936D01*
X11334467Y-16310936D02*
X11324943Y-16291888D01*
X11324943Y-16291888D02*
X11315420Y-16253793D01*
X11315420Y-16253793D02*
X11315420Y-16206174D01*
X11315420Y-16206174D02*
X11324943Y-16168079D01*
X11324943Y-16168079D02*
X11334467Y-16149031D01*
X11334467Y-16149031D02*
X11343991Y-16139507D01*
X11343991Y-16139507D02*
X11363039Y-16129984D01*
X11515420Y-16329984D02*
X11515420Y-16196650D01*
X11515420Y-16215698D02*
X11524943Y-16206174D01*
X11524943Y-16206174D02*
X11543991Y-16196650D01*
X11543991Y-16196650D02*
X11572563Y-16196650D01*
X11572563Y-16196650D02*
X11591610Y-16206174D01*
X11591610Y-16206174D02*
X11601134Y-16225222D01*
X11601134Y-16225222D02*
X11601134Y-16329984D01*
X11601134Y-16225222D02*
X11610658Y-16206174D01*
X11610658Y-16206174D02*
X11629705Y-16196650D01*
X11629705Y-16196650D02*
X11658277Y-16196650D01*
X11658277Y-16196650D02*
X11677324Y-16206174D01*
X11677324Y-16206174D02*
X11686848Y-16225222D01*
X11686848Y-16225222D02*
X11686848Y-16329984D01*
X11782086Y-16329984D02*
X11782086Y-16196650D01*
X11782086Y-16215698D02*
X11791610Y-16206174D01*
X11791610Y-16206174D02*
X11810658Y-16196650D01*
X11810658Y-16196650D02*
X11839229Y-16196650D01*
X11839229Y-16196650D02*
X11858277Y-16206174D01*
X11858277Y-16206174D02*
X11867801Y-16225222D01*
X11867801Y-16225222D02*
X11867801Y-16329984D01*
X11867801Y-16225222D02*
X11877324Y-16206174D01*
X11877324Y-16206174D02*
X11896372Y-16196650D01*
X11896372Y-16196650D02*
X11924943Y-16196650D01*
X11924943Y-16196650D02*
X11943991Y-16206174D01*
X11943991Y-16206174D02*
X11953515Y-16225222D01*
X11953515Y-16225222D02*
X11953515Y-16329984D01*
X12343991Y-16120460D02*
X12172563Y-16377603D01*
X12601134Y-16129984D02*
X12620182Y-16129984D01*
X12620182Y-16129984D02*
X12639229Y-16139507D01*
X12639229Y-16139507D02*
X12648753Y-16149031D01*
X12648753Y-16149031D02*
X12658277Y-16168079D01*
X12658277Y-16168079D02*
X12667801Y-16206174D01*
X12667801Y-16206174D02*
X12667801Y-16253793D01*
X12667801Y-16253793D02*
X12658277Y-16291888D01*
X12658277Y-16291888D02*
X12648753Y-16310936D01*
X12648753Y-16310936D02*
X12639229Y-16320460D01*
X12639229Y-16320460D02*
X12620182Y-16329984D01*
X12620182Y-16329984D02*
X12601134Y-16329984D01*
X12601134Y-16329984D02*
X12582086Y-16320460D01*
X12582086Y-16320460D02*
X12572563Y-16310936D01*
X12572563Y-16310936D02*
X12563039Y-16291888D01*
X12563039Y-16291888D02*
X12553515Y-16253793D01*
X12553515Y-16253793D02*
X12553515Y-16206174D01*
X12553515Y-16206174D02*
X12563039Y-16168079D01*
X12563039Y-16168079D02*
X12572563Y-16149031D01*
X12572563Y-16149031D02*
X12582086Y-16139507D01*
X12582086Y-16139507D02*
X12601134Y-16129984D01*
X12753515Y-16310936D02*
X12763039Y-16320460D01*
X12763039Y-16320460D02*
X12753515Y-16329984D01*
X12753515Y-16329984D02*
X12743991Y-16320460D01*
X12743991Y-16320460D02*
X12753515Y-16310936D01*
X12753515Y-16310936D02*
X12753515Y-16329984D01*
X12886848Y-16129984D02*
X12905896Y-16129984D01*
X12905896Y-16129984D02*
X12924944Y-16139507D01*
X12924944Y-16139507D02*
X12934467Y-16149031D01*
X12934467Y-16149031D02*
X12943991Y-16168079D01*
X12943991Y-16168079D02*
X12953515Y-16206174D01*
X12953515Y-16206174D02*
X12953515Y-16253793D01*
X12953515Y-16253793D02*
X12943991Y-16291888D01*
X12943991Y-16291888D02*
X12934467Y-16310936D01*
X12934467Y-16310936D02*
X12924944Y-16320460D01*
X12924944Y-16320460D02*
X12905896Y-16329984D01*
X12905896Y-16329984D02*
X12886848Y-16329984D01*
X12886848Y-16329984D02*
X12867801Y-16320460D01*
X12867801Y-16320460D02*
X12858277Y-16310936D01*
X12858277Y-16310936D02*
X12848753Y-16291888D01*
X12848753Y-16291888D02*
X12839229Y-16253793D01*
X12839229Y-16253793D02*
X12839229Y-16206174D01*
X12839229Y-16206174D02*
X12848753Y-16168079D01*
X12848753Y-16168079D02*
X12858277Y-16149031D01*
X12858277Y-16149031D02*
X12867801Y-16139507D01*
X12867801Y-16139507D02*
X12886848Y-16129984D01*
X13020182Y-16129984D02*
X13143991Y-16129984D01*
X13143991Y-16129984D02*
X13077325Y-16206174D01*
X13077325Y-16206174D02*
X13105896Y-16206174D01*
X13105896Y-16206174D02*
X13124944Y-16215698D01*
X13124944Y-16215698D02*
X13134467Y-16225222D01*
X13134467Y-16225222D02*
X13143991Y-16244269D01*
X13143991Y-16244269D02*
X13143991Y-16291888D01*
X13143991Y-16291888D02*
X13134467Y-16310936D01*
X13134467Y-16310936D02*
X13124944Y-16320460D01*
X13124944Y-16320460D02*
X13105896Y-16329984D01*
X13105896Y-16329984D02*
X13048753Y-16329984D01*
X13048753Y-16329984D02*
X13029706Y-16320460D01*
X13029706Y-16320460D02*
X13020182Y-16310936D01*
X13239229Y-16329984D02*
X13277325Y-16329984D01*
X13277325Y-16329984D02*
X13296372Y-16320460D01*
X13296372Y-16320460D02*
X13305896Y-16310936D01*
X13305896Y-16310936D02*
X13324944Y-16282365D01*
X13324944Y-16282365D02*
X13334467Y-16244269D01*
X13334467Y-16244269D02*
X13334467Y-16168079D01*
X13334467Y-16168079D02*
X13324944Y-16149031D01*
X13324944Y-16149031D02*
X13315420Y-16139507D01*
X13315420Y-16139507D02*
X13296372Y-16129984D01*
X13296372Y-16129984D02*
X13258277Y-16129984D01*
X13258277Y-16129984D02*
X13239229Y-16139507D01*
X13239229Y-16139507D02*
X13229706Y-16149031D01*
X13229706Y-16149031D02*
X13220182Y-16168079D01*
X13220182Y-16168079D02*
X13220182Y-16215698D01*
X13220182Y-16215698D02*
X13229706Y-16234746D01*
X13229706Y-16234746D02*
X13239229Y-16244269D01*
X13239229Y-16244269D02*
X13258277Y-16253793D01*
X13258277Y-16253793D02*
X13296372Y-16253793D01*
X13296372Y-16253793D02*
X13315420Y-16244269D01*
X13315420Y-16244269D02*
X13324944Y-16234746D01*
X13324944Y-16234746D02*
X13334467Y-16215698D01*
X13505896Y-16196650D02*
X13505896Y-16329984D01*
X13458277Y-16120460D02*
X13410658Y-16263317D01*
X13410658Y-16263317D02*
X13534467Y-16263317D01*
X13601134Y-16129984D02*
X13601134Y-16168079D01*
X13677325Y-16129984D02*
X13677325Y-16168079D01*
X13972563Y-16406174D02*
X13963039Y-16396650D01*
X13963039Y-16396650D02*
X13943991Y-16368079D01*
X13943991Y-16368079D02*
X13934468Y-16349031D01*
X13934468Y-16349031D02*
X13924944Y-16320460D01*
X13924944Y-16320460D02*
X13915420Y-16272841D01*
X13915420Y-16272841D02*
X13915420Y-16234746D01*
X13915420Y-16234746D02*
X13924944Y-16187126D01*
X13924944Y-16187126D02*
X13934468Y-16158555D01*
X13934468Y-16158555D02*
X13943991Y-16139507D01*
X13943991Y-16139507D02*
X13963039Y-16110936D01*
X13963039Y-16110936D02*
X13972563Y-16101412D01*
X14039229Y-16149031D02*
X14048753Y-16139507D01*
X14048753Y-16139507D02*
X14067801Y-16129984D01*
X14067801Y-16129984D02*
X14115420Y-16129984D01*
X14115420Y-16129984D02*
X14134468Y-16139507D01*
X14134468Y-16139507D02*
X14143991Y-16149031D01*
X14143991Y-16149031D02*
X14153515Y-16168079D01*
X14153515Y-16168079D02*
X14153515Y-16187126D01*
X14153515Y-16187126D02*
X14143991Y-16215698D01*
X14143991Y-16215698D02*
X14029706Y-16329984D01*
X14029706Y-16329984D02*
X14153515Y-16329984D01*
X14229706Y-16149031D02*
X14239229Y-16139507D01*
X14239229Y-16139507D02*
X14258277Y-16129984D01*
X14258277Y-16129984D02*
X14305896Y-16129984D01*
X14305896Y-16129984D02*
X14324944Y-16139507D01*
X14324944Y-16139507D02*
X14334468Y-16149031D01*
X14334468Y-16149031D02*
X14343991Y-16168079D01*
X14343991Y-16168079D02*
X14343991Y-16187126D01*
X14343991Y-16187126D02*
X14334468Y-16215698D01*
X14334468Y-16215698D02*
X14220182Y-16329984D01*
X14220182Y-16329984D02*
X14343991Y-16329984D01*
X14582087Y-16329984D02*
X14582087Y-16129984D01*
X14667801Y-16329984D02*
X14667801Y-16225222D01*
X14667801Y-16225222D02*
X14658277Y-16206174D01*
X14658277Y-16206174D02*
X14639230Y-16196650D01*
X14639230Y-16196650D02*
X14610658Y-16196650D01*
X14610658Y-16196650D02*
X14591610Y-16206174D01*
X14591610Y-16206174D02*
X14582087Y-16215698D01*
X14791610Y-16329984D02*
X14772563Y-16320460D01*
X14772563Y-16320460D02*
X14763039Y-16310936D01*
X14763039Y-16310936D02*
X14753515Y-16291888D01*
X14753515Y-16291888D02*
X14753515Y-16234746D01*
X14753515Y-16234746D02*
X14763039Y-16215698D01*
X14763039Y-16215698D02*
X14772563Y-16206174D01*
X14772563Y-16206174D02*
X14791610Y-16196650D01*
X14791610Y-16196650D02*
X14820182Y-16196650D01*
X14820182Y-16196650D02*
X14839230Y-16206174D01*
X14839230Y-16206174D02*
X14848753Y-16215698D01*
X14848753Y-16215698D02*
X14858277Y-16234746D01*
X14858277Y-16234746D02*
X14858277Y-16291888D01*
X14858277Y-16291888D02*
X14848753Y-16310936D01*
X14848753Y-16310936D02*
X14839230Y-16320460D01*
X14839230Y-16320460D02*
X14820182Y-16329984D01*
X14820182Y-16329984D02*
X14791610Y-16329984D01*
X14972563Y-16329984D02*
X14953515Y-16320460D01*
X14953515Y-16320460D02*
X14943991Y-16301412D01*
X14943991Y-16301412D02*
X14943991Y-16129984D01*
X15124944Y-16320460D02*
X15105896Y-16329984D01*
X15105896Y-16329984D02*
X15067801Y-16329984D01*
X15067801Y-16329984D02*
X15048753Y-16320460D01*
X15048753Y-16320460D02*
X15039230Y-16301412D01*
X15039230Y-16301412D02*
X15039230Y-16225222D01*
X15039230Y-16225222D02*
X15048753Y-16206174D01*
X15048753Y-16206174D02*
X15067801Y-16196650D01*
X15067801Y-16196650D02*
X15105896Y-16196650D01*
X15105896Y-16196650D02*
X15124944Y-16206174D01*
X15124944Y-16206174D02*
X15134468Y-16225222D01*
X15134468Y-16225222D02*
X15134468Y-16244269D01*
X15134468Y-16244269D02*
X15039230Y-16263317D01*
X15210658Y-16320460D02*
X15229706Y-16329984D01*
X15229706Y-16329984D02*
X15267801Y-16329984D01*
X15267801Y-16329984D02*
X15286849Y-16320460D01*
X15286849Y-16320460D02*
X15296372Y-16301412D01*
X15296372Y-16301412D02*
X15296372Y-16291888D01*
X15296372Y-16291888D02*
X15286849Y-16272841D01*
X15286849Y-16272841D02*
X15267801Y-16263317D01*
X15267801Y-16263317D02*
X15239230Y-16263317D01*
X15239230Y-16263317D02*
X15220182Y-16253793D01*
X15220182Y-16253793D02*
X15210658Y-16234746D01*
X15210658Y-16234746D02*
X15210658Y-16225222D01*
X15210658Y-16225222D02*
X15220182Y-16206174D01*
X15220182Y-16206174D02*
X15239230Y-16196650D01*
X15239230Y-16196650D02*
X15267801Y-16196650D01*
X15267801Y-16196650D02*
X15286849Y-16206174D01*
X15363039Y-16406174D02*
X15372563Y-16396650D01*
X15372563Y-16396650D02*
X15391611Y-16368079D01*
X15391611Y-16368079D02*
X15401134Y-16349031D01*
X15401134Y-16349031D02*
X15410658Y-16320460D01*
X15410658Y-16320460D02*
X15420182Y-16272841D01*
X15420182Y-16272841D02*
X15420182Y-16234746D01*
X15420182Y-16234746D02*
X15410658Y-16187126D01*
X15410658Y-16187126D02*
X15401134Y-16158555D01*
X15401134Y-16158555D02*
X15391611Y-16139507D01*
X15391611Y-16139507D02*
X15372563Y-16110936D01*
X15372563Y-16110936D02*
X15363039Y-16101412D01*
D16*
X10247500Y-16427500D02*
X10397500Y-16577500D01*
X10397500Y-16427500D02*
X10247500Y-16577500D01*
X10397500Y-16502500D02*
G75*
G03*
X10397500Y-16502500I-75000J0D01*
G01*
D11*
X10763039Y-16593984D02*
X10648753Y-16593984D01*
X10705896Y-16593984D02*
X10705896Y-16393984D01*
X10705896Y-16393984D02*
X10686848Y-16422555D01*
X10686848Y-16422555D02*
X10667801Y-16441603D01*
X10667801Y-16441603D02*
X10648753Y-16451126D01*
X10848753Y-16574936D02*
X10858277Y-16584460D01*
X10858277Y-16584460D02*
X10848753Y-16593984D01*
X10848753Y-16593984D02*
X10839229Y-16584460D01*
X10839229Y-16584460D02*
X10848753Y-16574936D01*
X10848753Y-16574936D02*
X10848753Y-16593984D01*
X11039229Y-16393984D02*
X10943991Y-16393984D01*
X10943991Y-16393984D02*
X10934467Y-16489222D01*
X10934467Y-16489222D02*
X10943991Y-16479698D01*
X10943991Y-16479698D02*
X10963039Y-16470174D01*
X10963039Y-16470174D02*
X11010658Y-16470174D01*
X11010658Y-16470174D02*
X11029705Y-16479698D01*
X11029705Y-16479698D02*
X11039229Y-16489222D01*
X11039229Y-16489222D02*
X11048753Y-16508269D01*
X11048753Y-16508269D02*
X11048753Y-16555888D01*
X11048753Y-16555888D02*
X11039229Y-16574936D01*
X11039229Y-16574936D02*
X11029705Y-16584460D01*
X11029705Y-16584460D02*
X11010658Y-16593984D01*
X11010658Y-16593984D02*
X10963039Y-16593984D01*
X10963039Y-16593984D02*
X10943991Y-16584460D01*
X10943991Y-16584460D02*
X10934467Y-16574936D01*
X11172563Y-16393984D02*
X11191610Y-16393984D01*
X11191610Y-16393984D02*
X11210658Y-16403507D01*
X11210658Y-16403507D02*
X11220182Y-16413031D01*
X11220182Y-16413031D02*
X11229705Y-16432079D01*
X11229705Y-16432079D02*
X11239229Y-16470174D01*
X11239229Y-16470174D02*
X11239229Y-16517793D01*
X11239229Y-16517793D02*
X11229705Y-16555888D01*
X11229705Y-16555888D02*
X11220182Y-16574936D01*
X11220182Y-16574936D02*
X11210658Y-16584460D01*
X11210658Y-16584460D02*
X11191610Y-16593984D01*
X11191610Y-16593984D02*
X11172563Y-16593984D01*
X11172563Y-16593984D02*
X11153515Y-16584460D01*
X11153515Y-16584460D02*
X11143991Y-16574936D01*
X11143991Y-16574936D02*
X11134467Y-16555888D01*
X11134467Y-16555888D02*
X11124944Y-16517793D01*
X11124944Y-16517793D02*
X11124944Y-16470174D01*
X11124944Y-16470174D02*
X11134467Y-16432079D01*
X11134467Y-16432079D02*
X11143991Y-16413031D01*
X11143991Y-16413031D02*
X11153515Y-16403507D01*
X11153515Y-16403507D02*
X11172563Y-16393984D01*
X11363039Y-16393984D02*
X11382086Y-16393984D01*
X11382086Y-16393984D02*
X11401134Y-16403507D01*
X11401134Y-16403507D02*
X11410658Y-16413031D01*
X11410658Y-16413031D02*
X11420182Y-16432079D01*
X11420182Y-16432079D02*
X11429705Y-16470174D01*
X11429705Y-16470174D02*
X11429705Y-16517793D01*
X11429705Y-16517793D02*
X11420182Y-16555888D01*
X11420182Y-16555888D02*
X11410658Y-16574936D01*
X11410658Y-16574936D02*
X11401134Y-16584460D01*
X11401134Y-16584460D02*
X11382086Y-16593984D01*
X11382086Y-16593984D02*
X11363039Y-16593984D01*
X11363039Y-16593984D02*
X11343991Y-16584460D01*
X11343991Y-16584460D02*
X11334467Y-16574936D01*
X11334467Y-16574936D02*
X11324943Y-16555888D01*
X11324943Y-16555888D02*
X11315420Y-16517793D01*
X11315420Y-16517793D02*
X11315420Y-16470174D01*
X11315420Y-16470174D02*
X11324943Y-16432079D01*
X11324943Y-16432079D02*
X11334467Y-16413031D01*
X11334467Y-16413031D02*
X11343991Y-16403507D01*
X11343991Y-16403507D02*
X11363039Y-16393984D01*
X11515420Y-16593984D02*
X11515420Y-16460650D01*
X11515420Y-16479698D02*
X11524943Y-16470174D01*
X11524943Y-16470174D02*
X11543991Y-16460650D01*
X11543991Y-16460650D02*
X11572563Y-16460650D01*
X11572563Y-16460650D02*
X11591610Y-16470174D01*
X11591610Y-16470174D02*
X11601134Y-16489222D01*
X11601134Y-16489222D02*
X11601134Y-16593984D01*
X11601134Y-16489222D02*
X11610658Y-16470174D01*
X11610658Y-16470174D02*
X11629705Y-16460650D01*
X11629705Y-16460650D02*
X11658277Y-16460650D01*
X11658277Y-16460650D02*
X11677324Y-16470174D01*
X11677324Y-16470174D02*
X11686848Y-16489222D01*
X11686848Y-16489222D02*
X11686848Y-16593984D01*
X11782086Y-16593984D02*
X11782086Y-16460650D01*
X11782086Y-16479698D02*
X11791610Y-16470174D01*
X11791610Y-16470174D02*
X11810658Y-16460650D01*
X11810658Y-16460650D02*
X11839229Y-16460650D01*
X11839229Y-16460650D02*
X11858277Y-16470174D01*
X11858277Y-16470174D02*
X11867801Y-16489222D01*
X11867801Y-16489222D02*
X11867801Y-16593984D01*
X11867801Y-16489222D02*
X11877324Y-16470174D01*
X11877324Y-16470174D02*
X11896372Y-16460650D01*
X11896372Y-16460650D02*
X11924943Y-16460650D01*
X11924943Y-16460650D02*
X11943991Y-16470174D01*
X11943991Y-16470174D02*
X11953515Y-16489222D01*
X11953515Y-16489222D02*
X11953515Y-16593984D01*
X12343991Y-16384460D02*
X12172563Y-16641603D01*
X12601134Y-16393984D02*
X12620182Y-16393984D01*
X12620182Y-16393984D02*
X12639229Y-16403507D01*
X12639229Y-16403507D02*
X12648753Y-16413031D01*
X12648753Y-16413031D02*
X12658277Y-16432079D01*
X12658277Y-16432079D02*
X12667801Y-16470174D01*
X12667801Y-16470174D02*
X12667801Y-16517793D01*
X12667801Y-16517793D02*
X12658277Y-16555888D01*
X12658277Y-16555888D02*
X12648753Y-16574936D01*
X12648753Y-16574936D02*
X12639229Y-16584460D01*
X12639229Y-16584460D02*
X12620182Y-16593984D01*
X12620182Y-16593984D02*
X12601134Y-16593984D01*
X12601134Y-16593984D02*
X12582086Y-16584460D01*
X12582086Y-16584460D02*
X12572563Y-16574936D01*
X12572563Y-16574936D02*
X12563039Y-16555888D01*
X12563039Y-16555888D02*
X12553515Y-16517793D01*
X12553515Y-16517793D02*
X12553515Y-16470174D01*
X12553515Y-16470174D02*
X12563039Y-16432079D01*
X12563039Y-16432079D02*
X12572563Y-16413031D01*
X12572563Y-16413031D02*
X12582086Y-16403507D01*
X12582086Y-16403507D02*
X12601134Y-16393984D01*
X12753515Y-16574936D02*
X12763039Y-16584460D01*
X12763039Y-16584460D02*
X12753515Y-16593984D01*
X12753515Y-16593984D02*
X12743991Y-16584460D01*
X12743991Y-16584460D02*
X12753515Y-16574936D01*
X12753515Y-16574936D02*
X12753515Y-16593984D01*
X12886848Y-16393984D02*
X12905896Y-16393984D01*
X12905896Y-16393984D02*
X12924944Y-16403507D01*
X12924944Y-16403507D02*
X12934467Y-16413031D01*
X12934467Y-16413031D02*
X12943991Y-16432079D01*
X12943991Y-16432079D02*
X12953515Y-16470174D01*
X12953515Y-16470174D02*
X12953515Y-16517793D01*
X12953515Y-16517793D02*
X12943991Y-16555888D01*
X12943991Y-16555888D02*
X12934467Y-16574936D01*
X12934467Y-16574936D02*
X12924944Y-16584460D01*
X12924944Y-16584460D02*
X12905896Y-16593984D01*
X12905896Y-16593984D02*
X12886848Y-16593984D01*
X12886848Y-16593984D02*
X12867801Y-16584460D01*
X12867801Y-16584460D02*
X12858277Y-16574936D01*
X12858277Y-16574936D02*
X12848753Y-16555888D01*
X12848753Y-16555888D02*
X12839229Y-16517793D01*
X12839229Y-16517793D02*
X12839229Y-16470174D01*
X12839229Y-16470174D02*
X12848753Y-16432079D01*
X12848753Y-16432079D02*
X12858277Y-16413031D01*
X12858277Y-16413031D02*
X12867801Y-16403507D01*
X12867801Y-16403507D02*
X12886848Y-16393984D01*
X13134467Y-16393984D02*
X13039229Y-16393984D01*
X13039229Y-16393984D02*
X13029706Y-16489222D01*
X13029706Y-16489222D02*
X13039229Y-16479698D01*
X13039229Y-16479698D02*
X13058277Y-16470174D01*
X13058277Y-16470174D02*
X13105896Y-16470174D01*
X13105896Y-16470174D02*
X13124944Y-16479698D01*
X13124944Y-16479698D02*
X13134467Y-16489222D01*
X13134467Y-16489222D02*
X13143991Y-16508269D01*
X13143991Y-16508269D02*
X13143991Y-16555888D01*
X13143991Y-16555888D02*
X13134467Y-16574936D01*
X13134467Y-16574936D02*
X13124944Y-16584460D01*
X13124944Y-16584460D02*
X13105896Y-16593984D01*
X13105896Y-16593984D02*
X13058277Y-16593984D01*
X13058277Y-16593984D02*
X13039229Y-16584460D01*
X13039229Y-16584460D02*
X13029706Y-16574936D01*
X13239229Y-16593984D02*
X13277325Y-16593984D01*
X13277325Y-16593984D02*
X13296372Y-16584460D01*
X13296372Y-16584460D02*
X13305896Y-16574936D01*
X13305896Y-16574936D02*
X13324944Y-16546365D01*
X13324944Y-16546365D02*
X13334467Y-16508269D01*
X13334467Y-16508269D02*
X13334467Y-16432079D01*
X13334467Y-16432079D02*
X13324944Y-16413031D01*
X13324944Y-16413031D02*
X13315420Y-16403507D01*
X13315420Y-16403507D02*
X13296372Y-16393984D01*
X13296372Y-16393984D02*
X13258277Y-16393984D01*
X13258277Y-16393984D02*
X13239229Y-16403507D01*
X13239229Y-16403507D02*
X13229706Y-16413031D01*
X13229706Y-16413031D02*
X13220182Y-16432079D01*
X13220182Y-16432079D02*
X13220182Y-16479698D01*
X13220182Y-16479698D02*
X13229706Y-16498746D01*
X13229706Y-16498746D02*
X13239229Y-16508269D01*
X13239229Y-16508269D02*
X13258277Y-16517793D01*
X13258277Y-16517793D02*
X13296372Y-16517793D01*
X13296372Y-16517793D02*
X13315420Y-16508269D01*
X13315420Y-16508269D02*
X13324944Y-16498746D01*
X13324944Y-16498746D02*
X13334467Y-16479698D01*
X13524944Y-16593984D02*
X13410658Y-16593984D01*
X13467801Y-16593984D02*
X13467801Y-16393984D01*
X13467801Y-16393984D02*
X13448753Y-16422555D01*
X13448753Y-16422555D02*
X13429706Y-16441603D01*
X13429706Y-16441603D02*
X13410658Y-16451126D01*
X13601134Y-16393984D02*
X13601134Y-16432079D01*
X13677325Y-16393984D02*
X13677325Y-16432079D01*
X13972563Y-16670174D02*
X13963039Y-16660650D01*
X13963039Y-16660650D02*
X13943991Y-16632079D01*
X13943991Y-16632079D02*
X13934468Y-16613031D01*
X13934468Y-16613031D02*
X13924944Y-16584460D01*
X13924944Y-16584460D02*
X13915420Y-16536841D01*
X13915420Y-16536841D02*
X13915420Y-16498746D01*
X13915420Y-16498746D02*
X13924944Y-16451126D01*
X13924944Y-16451126D02*
X13934468Y-16422555D01*
X13934468Y-16422555D02*
X13943991Y-16403507D01*
X13943991Y-16403507D02*
X13963039Y-16374936D01*
X13963039Y-16374936D02*
X13972563Y-16365412D01*
X14153515Y-16593984D02*
X14039229Y-16593984D01*
X14096372Y-16593984D02*
X14096372Y-16393984D01*
X14096372Y-16393984D02*
X14077325Y-16422555D01*
X14077325Y-16422555D02*
X14058277Y-16441603D01*
X14058277Y-16441603D02*
X14039229Y-16451126D01*
X14391610Y-16593984D02*
X14391610Y-16393984D01*
X14477325Y-16593984D02*
X14477325Y-16489222D01*
X14477325Y-16489222D02*
X14467801Y-16470174D01*
X14467801Y-16470174D02*
X14448753Y-16460650D01*
X14448753Y-16460650D02*
X14420182Y-16460650D01*
X14420182Y-16460650D02*
X14401134Y-16470174D01*
X14401134Y-16470174D02*
X14391610Y-16479698D01*
X14601134Y-16593984D02*
X14582087Y-16584460D01*
X14582087Y-16584460D02*
X14572563Y-16574936D01*
X14572563Y-16574936D02*
X14563039Y-16555888D01*
X14563039Y-16555888D02*
X14563039Y-16498746D01*
X14563039Y-16498746D02*
X14572563Y-16479698D01*
X14572563Y-16479698D02*
X14582087Y-16470174D01*
X14582087Y-16470174D02*
X14601134Y-16460650D01*
X14601134Y-16460650D02*
X14629706Y-16460650D01*
X14629706Y-16460650D02*
X14648753Y-16470174D01*
X14648753Y-16470174D02*
X14658277Y-16479698D01*
X14658277Y-16479698D02*
X14667801Y-16498746D01*
X14667801Y-16498746D02*
X14667801Y-16555888D01*
X14667801Y-16555888D02*
X14658277Y-16574936D01*
X14658277Y-16574936D02*
X14648753Y-16584460D01*
X14648753Y-16584460D02*
X14629706Y-16593984D01*
X14629706Y-16593984D02*
X14601134Y-16593984D01*
X14782087Y-16593984D02*
X14763039Y-16584460D01*
X14763039Y-16584460D02*
X14753515Y-16565412D01*
X14753515Y-16565412D02*
X14753515Y-16393984D01*
X14934468Y-16584460D02*
X14915420Y-16593984D01*
X14915420Y-16593984D02*
X14877325Y-16593984D01*
X14877325Y-16593984D02*
X14858277Y-16584460D01*
X14858277Y-16584460D02*
X14848753Y-16565412D01*
X14848753Y-16565412D02*
X14848753Y-16489222D01*
X14848753Y-16489222D02*
X14858277Y-16470174D01*
X14858277Y-16470174D02*
X14877325Y-16460650D01*
X14877325Y-16460650D02*
X14915420Y-16460650D01*
X14915420Y-16460650D02*
X14934468Y-16470174D01*
X14934468Y-16470174D02*
X14943991Y-16489222D01*
X14943991Y-16489222D02*
X14943991Y-16508269D01*
X14943991Y-16508269D02*
X14848753Y-16527317D01*
X15010658Y-16670174D02*
X15020182Y-16660650D01*
X15020182Y-16660650D02*
X15039230Y-16632079D01*
X15039230Y-16632079D02*
X15048753Y-16613031D01*
X15048753Y-16613031D02*
X15058277Y-16584460D01*
X15058277Y-16584460D02*
X15067801Y-16536841D01*
X15067801Y-16536841D02*
X15067801Y-16498746D01*
X15067801Y-16498746D02*
X15058277Y-16451126D01*
X15058277Y-16451126D02*
X15048753Y-16422555D01*
X15048753Y-16422555D02*
X15039230Y-16403507D01*
X15039230Y-16403507D02*
X15020182Y-16374936D01*
X15020182Y-16374936D02*
X15010658Y-16365412D01*
D17*
X10232500Y-16690000D02*
X10397500Y-16855000D01*
X10397500Y-16690000D02*
X10232500Y-16855000D01*
X10315000Y-16690000D02*
X10315000Y-16855000D01*
X10232500Y-16772500D02*
X10397500Y-16772500D01*
D11*
X10763039Y-16863984D02*
X10648753Y-16863984D01*
X10705896Y-16863984D02*
X10705896Y-16663984D01*
X10705896Y-16663984D02*
X10686848Y-16692555D01*
X10686848Y-16692555D02*
X10667801Y-16711603D01*
X10667801Y-16711603D02*
X10648753Y-16721126D01*
X10848753Y-16844936D02*
X10858277Y-16854460D01*
X10858277Y-16854460D02*
X10848753Y-16863984D01*
X10848753Y-16863984D02*
X10839229Y-16854460D01*
X10839229Y-16854460D02*
X10848753Y-16844936D01*
X10848753Y-16844936D02*
X10848753Y-16863984D01*
X11029705Y-16663984D02*
X10991610Y-16663984D01*
X10991610Y-16663984D02*
X10972563Y-16673507D01*
X10972563Y-16673507D02*
X10963039Y-16683031D01*
X10963039Y-16683031D02*
X10943991Y-16711603D01*
X10943991Y-16711603D02*
X10934467Y-16749698D01*
X10934467Y-16749698D02*
X10934467Y-16825888D01*
X10934467Y-16825888D02*
X10943991Y-16844936D01*
X10943991Y-16844936D02*
X10953515Y-16854460D01*
X10953515Y-16854460D02*
X10972563Y-16863984D01*
X10972563Y-16863984D02*
X11010658Y-16863984D01*
X11010658Y-16863984D02*
X11029705Y-16854460D01*
X11029705Y-16854460D02*
X11039229Y-16844936D01*
X11039229Y-16844936D02*
X11048753Y-16825888D01*
X11048753Y-16825888D02*
X11048753Y-16778269D01*
X11048753Y-16778269D02*
X11039229Y-16759222D01*
X11039229Y-16759222D02*
X11029705Y-16749698D01*
X11029705Y-16749698D02*
X11010658Y-16740174D01*
X11010658Y-16740174D02*
X10972563Y-16740174D01*
X10972563Y-16740174D02*
X10953515Y-16749698D01*
X10953515Y-16749698D02*
X10943991Y-16759222D01*
X10943991Y-16759222D02*
X10934467Y-16778269D01*
X11229705Y-16663984D02*
X11134467Y-16663984D01*
X11134467Y-16663984D02*
X11124944Y-16759222D01*
X11124944Y-16759222D02*
X11134467Y-16749698D01*
X11134467Y-16749698D02*
X11153515Y-16740174D01*
X11153515Y-16740174D02*
X11201134Y-16740174D01*
X11201134Y-16740174D02*
X11220182Y-16749698D01*
X11220182Y-16749698D02*
X11229705Y-16759222D01*
X11229705Y-16759222D02*
X11239229Y-16778269D01*
X11239229Y-16778269D02*
X11239229Y-16825888D01*
X11239229Y-16825888D02*
X11229705Y-16844936D01*
X11229705Y-16844936D02*
X11220182Y-16854460D01*
X11220182Y-16854460D02*
X11201134Y-16863984D01*
X11201134Y-16863984D02*
X11153515Y-16863984D01*
X11153515Y-16863984D02*
X11134467Y-16854460D01*
X11134467Y-16854460D02*
X11124944Y-16844936D01*
X11363039Y-16663984D02*
X11382086Y-16663984D01*
X11382086Y-16663984D02*
X11401134Y-16673507D01*
X11401134Y-16673507D02*
X11410658Y-16683031D01*
X11410658Y-16683031D02*
X11420182Y-16702079D01*
X11420182Y-16702079D02*
X11429705Y-16740174D01*
X11429705Y-16740174D02*
X11429705Y-16787793D01*
X11429705Y-16787793D02*
X11420182Y-16825888D01*
X11420182Y-16825888D02*
X11410658Y-16844936D01*
X11410658Y-16844936D02*
X11401134Y-16854460D01*
X11401134Y-16854460D02*
X11382086Y-16863984D01*
X11382086Y-16863984D02*
X11363039Y-16863984D01*
X11363039Y-16863984D02*
X11343991Y-16854460D01*
X11343991Y-16854460D02*
X11334467Y-16844936D01*
X11334467Y-16844936D02*
X11324943Y-16825888D01*
X11324943Y-16825888D02*
X11315420Y-16787793D01*
X11315420Y-16787793D02*
X11315420Y-16740174D01*
X11315420Y-16740174D02*
X11324943Y-16702079D01*
X11324943Y-16702079D02*
X11334467Y-16683031D01*
X11334467Y-16683031D02*
X11343991Y-16673507D01*
X11343991Y-16673507D02*
X11363039Y-16663984D01*
X11515420Y-16863984D02*
X11515420Y-16730650D01*
X11515420Y-16749698D02*
X11524943Y-16740174D01*
X11524943Y-16740174D02*
X11543991Y-16730650D01*
X11543991Y-16730650D02*
X11572563Y-16730650D01*
X11572563Y-16730650D02*
X11591610Y-16740174D01*
X11591610Y-16740174D02*
X11601134Y-16759222D01*
X11601134Y-16759222D02*
X11601134Y-16863984D01*
X11601134Y-16759222D02*
X11610658Y-16740174D01*
X11610658Y-16740174D02*
X11629705Y-16730650D01*
X11629705Y-16730650D02*
X11658277Y-16730650D01*
X11658277Y-16730650D02*
X11677324Y-16740174D01*
X11677324Y-16740174D02*
X11686848Y-16759222D01*
X11686848Y-16759222D02*
X11686848Y-16863984D01*
X11782086Y-16863984D02*
X11782086Y-16730650D01*
X11782086Y-16749698D02*
X11791610Y-16740174D01*
X11791610Y-16740174D02*
X11810658Y-16730650D01*
X11810658Y-16730650D02*
X11839229Y-16730650D01*
X11839229Y-16730650D02*
X11858277Y-16740174D01*
X11858277Y-16740174D02*
X11867801Y-16759222D01*
X11867801Y-16759222D02*
X11867801Y-16863984D01*
X11867801Y-16759222D02*
X11877324Y-16740174D01*
X11877324Y-16740174D02*
X11896372Y-16730650D01*
X11896372Y-16730650D02*
X11924943Y-16730650D01*
X11924943Y-16730650D02*
X11943991Y-16740174D01*
X11943991Y-16740174D02*
X11953515Y-16759222D01*
X11953515Y-16759222D02*
X11953515Y-16863984D01*
X12343991Y-16654460D02*
X12172563Y-16911603D01*
X12601134Y-16663984D02*
X12620182Y-16663984D01*
X12620182Y-16663984D02*
X12639229Y-16673507D01*
X12639229Y-16673507D02*
X12648753Y-16683031D01*
X12648753Y-16683031D02*
X12658277Y-16702079D01*
X12658277Y-16702079D02*
X12667801Y-16740174D01*
X12667801Y-16740174D02*
X12667801Y-16787793D01*
X12667801Y-16787793D02*
X12658277Y-16825888D01*
X12658277Y-16825888D02*
X12648753Y-16844936D01*
X12648753Y-16844936D02*
X12639229Y-16854460D01*
X12639229Y-16854460D02*
X12620182Y-16863984D01*
X12620182Y-16863984D02*
X12601134Y-16863984D01*
X12601134Y-16863984D02*
X12582086Y-16854460D01*
X12582086Y-16854460D02*
X12572563Y-16844936D01*
X12572563Y-16844936D02*
X12563039Y-16825888D01*
X12563039Y-16825888D02*
X12553515Y-16787793D01*
X12553515Y-16787793D02*
X12553515Y-16740174D01*
X12553515Y-16740174D02*
X12563039Y-16702079D01*
X12563039Y-16702079D02*
X12572563Y-16683031D01*
X12572563Y-16683031D02*
X12582086Y-16673507D01*
X12582086Y-16673507D02*
X12601134Y-16663984D01*
X12753515Y-16844936D02*
X12763039Y-16854460D01*
X12763039Y-16854460D02*
X12753515Y-16863984D01*
X12753515Y-16863984D02*
X12743991Y-16854460D01*
X12743991Y-16854460D02*
X12753515Y-16844936D01*
X12753515Y-16844936D02*
X12753515Y-16863984D01*
X12886848Y-16663984D02*
X12905896Y-16663984D01*
X12905896Y-16663984D02*
X12924944Y-16673507D01*
X12924944Y-16673507D02*
X12934467Y-16683031D01*
X12934467Y-16683031D02*
X12943991Y-16702079D01*
X12943991Y-16702079D02*
X12953515Y-16740174D01*
X12953515Y-16740174D02*
X12953515Y-16787793D01*
X12953515Y-16787793D02*
X12943991Y-16825888D01*
X12943991Y-16825888D02*
X12934467Y-16844936D01*
X12934467Y-16844936D02*
X12924944Y-16854460D01*
X12924944Y-16854460D02*
X12905896Y-16863984D01*
X12905896Y-16863984D02*
X12886848Y-16863984D01*
X12886848Y-16863984D02*
X12867801Y-16854460D01*
X12867801Y-16854460D02*
X12858277Y-16844936D01*
X12858277Y-16844936D02*
X12848753Y-16825888D01*
X12848753Y-16825888D02*
X12839229Y-16787793D01*
X12839229Y-16787793D02*
X12839229Y-16740174D01*
X12839229Y-16740174D02*
X12848753Y-16702079D01*
X12848753Y-16702079D02*
X12858277Y-16683031D01*
X12858277Y-16683031D02*
X12867801Y-16673507D01*
X12867801Y-16673507D02*
X12886848Y-16663984D01*
X13124944Y-16663984D02*
X13086848Y-16663984D01*
X13086848Y-16663984D02*
X13067801Y-16673507D01*
X13067801Y-16673507D02*
X13058277Y-16683031D01*
X13058277Y-16683031D02*
X13039229Y-16711603D01*
X13039229Y-16711603D02*
X13029706Y-16749698D01*
X13029706Y-16749698D02*
X13029706Y-16825888D01*
X13029706Y-16825888D02*
X13039229Y-16844936D01*
X13039229Y-16844936D02*
X13048753Y-16854460D01*
X13048753Y-16854460D02*
X13067801Y-16863984D01*
X13067801Y-16863984D02*
X13105896Y-16863984D01*
X13105896Y-16863984D02*
X13124944Y-16854460D01*
X13124944Y-16854460D02*
X13134467Y-16844936D01*
X13134467Y-16844936D02*
X13143991Y-16825888D01*
X13143991Y-16825888D02*
X13143991Y-16778269D01*
X13143991Y-16778269D02*
X13134467Y-16759222D01*
X13134467Y-16759222D02*
X13124944Y-16749698D01*
X13124944Y-16749698D02*
X13105896Y-16740174D01*
X13105896Y-16740174D02*
X13067801Y-16740174D01*
X13067801Y-16740174D02*
X13048753Y-16749698D01*
X13048753Y-16749698D02*
X13039229Y-16759222D01*
X13039229Y-16759222D02*
X13029706Y-16778269D01*
X13324944Y-16663984D02*
X13229706Y-16663984D01*
X13229706Y-16663984D02*
X13220182Y-16759222D01*
X13220182Y-16759222D02*
X13229706Y-16749698D01*
X13229706Y-16749698D02*
X13248753Y-16740174D01*
X13248753Y-16740174D02*
X13296372Y-16740174D01*
X13296372Y-16740174D02*
X13315420Y-16749698D01*
X13315420Y-16749698D02*
X13324944Y-16759222D01*
X13324944Y-16759222D02*
X13334467Y-16778269D01*
X13334467Y-16778269D02*
X13334467Y-16825888D01*
X13334467Y-16825888D02*
X13324944Y-16844936D01*
X13324944Y-16844936D02*
X13315420Y-16854460D01*
X13315420Y-16854460D02*
X13296372Y-16863984D01*
X13296372Y-16863984D02*
X13248753Y-16863984D01*
X13248753Y-16863984D02*
X13229706Y-16854460D01*
X13229706Y-16854460D02*
X13220182Y-16844936D01*
X13458277Y-16663984D02*
X13477325Y-16663984D01*
X13477325Y-16663984D02*
X13496372Y-16673507D01*
X13496372Y-16673507D02*
X13505896Y-16683031D01*
X13505896Y-16683031D02*
X13515420Y-16702079D01*
X13515420Y-16702079D02*
X13524944Y-16740174D01*
X13524944Y-16740174D02*
X13524944Y-16787793D01*
X13524944Y-16787793D02*
X13515420Y-16825888D01*
X13515420Y-16825888D02*
X13505896Y-16844936D01*
X13505896Y-16844936D02*
X13496372Y-16854460D01*
X13496372Y-16854460D02*
X13477325Y-16863984D01*
X13477325Y-16863984D02*
X13458277Y-16863984D01*
X13458277Y-16863984D02*
X13439229Y-16854460D01*
X13439229Y-16854460D02*
X13429706Y-16844936D01*
X13429706Y-16844936D02*
X13420182Y-16825888D01*
X13420182Y-16825888D02*
X13410658Y-16787793D01*
X13410658Y-16787793D02*
X13410658Y-16740174D01*
X13410658Y-16740174D02*
X13420182Y-16702079D01*
X13420182Y-16702079D02*
X13429706Y-16683031D01*
X13429706Y-16683031D02*
X13439229Y-16673507D01*
X13439229Y-16673507D02*
X13458277Y-16663984D01*
X13601134Y-16663984D02*
X13601134Y-16702079D01*
X13677325Y-16663984D02*
X13677325Y-16702079D01*
X13972563Y-16940174D02*
X13963039Y-16930650D01*
X13963039Y-16930650D02*
X13943991Y-16902079D01*
X13943991Y-16902079D02*
X13934468Y-16883031D01*
X13934468Y-16883031D02*
X13924944Y-16854460D01*
X13924944Y-16854460D02*
X13915420Y-16806841D01*
X13915420Y-16806841D02*
X13915420Y-16768746D01*
X13915420Y-16768746D02*
X13924944Y-16721126D01*
X13924944Y-16721126D02*
X13934468Y-16692555D01*
X13934468Y-16692555D02*
X13943991Y-16673507D01*
X13943991Y-16673507D02*
X13963039Y-16644936D01*
X13963039Y-16644936D02*
X13972563Y-16635412D01*
X14039229Y-16683031D02*
X14048753Y-16673507D01*
X14048753Y-16673507D02*
X14067801Y-16663984D01*
X14067801Y-16663984D02*
X14115420Y-16663984D01*
X14115420Y-16663984D02*
X14134468Y-16673507D01*
X14134468Y-16673507D02*
X14143991Y-16683031D01*
X14143991Y-16683031D02*
X14153515Y-16702079D01*
X14153515Y-16702079D02*
X14153515Y-16721126D01*
X14153515Y-16721126D02*
X14143991Y-16749698D01*
X14143991Y-16749698D02*
X14029706Y-16863984D01*
X14029706Y-16863984D02*
X14153515Y-16863984D01*
X14391610Y-16863984D02*
X14391610Y-16663984D01*
X14477325Y-16863984D02*
X14477325Y-16759222D01*
X14477325Y-16759222D02*
X14467801Y-16740174D01*
X14467801Y-16740174D02*
X14448753Y-16730650D01*
X14448753Y-16730650D02*
X14420182Y-16730650D01*
X14420182Y-16730650D02*
X14401134Y-16740174D01*
X14401134Y-16740174D02*
X14391610Y-16749698D01*
X14601134Y-16863984D02*
X14582087Y-16854460D01*
X14582087Y-16854460D02*
X14572563Y-16844936D01*
X14572563Y-16844936D02*
X14563039Y-16825888D01*
X14563039Y-16825888D02*
X14563039Y-16768746D01*
X14563039Y-16768746D02*
X14572563Y-16749698D01*
X14572563Y-16749698D02*
X14582087Y-16740174D01*
X14582087Y-16740174D02*
X14601134Y-16730650D01*
X14601134Y-16730650D02*
X14629706Y-16730650D01*
X14629706Y-16730650D02*
X14648753Y-16740174D01*
X14648753Y-16740174D02*
X14658277Y-16749698D01*
X14658277Y-16749698D02*
X14667801Y-16768746D01*
X14667801Y-16768746D02*
X14667801Y-16825888D01*
X14667801Y-16825888D02*
X14658277Y-16844936D01*
X14658277Y-16844936D02*
X14648753Y-16854460D01*
X14648753Y-16854460D02*
X14629706Y-16863984D01*
X14629706Y-16863984D02*
X14601134Y-16863984D01*
X14782087Y-16863984D02*
X14763039Y-16854460D01*
X14763039Y-16854460D02*
X14753515Y-16835412D01*
X14753515Y-16835412D02*
X14753515Y-16663984D01*
X14934468Y-16854460D02*
X14915420Y-16863984D01*
X14915420Y-16863984D02*
X14877325Y-16863984D01*
X14877325Y-16863984D02*
X14858277Y-16854460D01*
X14858277Y-16854460D02*
X14848753Y-16835412D01*
X14848753Y-16835412D02*
X14848753Y-16759222D01*
X14848753Y-16759222D02*
X14858277Y-16740174D01*
X14858277Y-16740174D02*
X14877325Y-16730650D01*
X14877325Y-16730650D02*
X14915420Y-16730650D01*
X14915420Y-16730650D02*
X14934468Y-16740174D01*
X14934468Y-16740174D02*
X14943991Y-16759222D01*
X14943991Y-16759222D02*
X14943991Y-16778269D01*
X14943991Y-16778269D02*
X14848753Y-16797317D01*
X15020182Y-16854460D02*
X15039230Y-16863984D01*
X15039230Y-16863984D02*
X15077325Y-16863984D01*
X15077325Y-16863984D02*
X15096372Y-16854460D01*
X15096372Y-16854460D02*
X15105896Y-16835412D01*
X15105896Y-16835412D02*
X15105896Y-16825888D01*
X15105896Y-16825888D02*
X15096372Y-16806841D01*
X15096372Y-16806841D02*
X15077325Y-16797317D01*
X15077325Y-16797317D02*
X15048753Y-16797317D01*
X15048753Y-16797317D02*
X15029706Y-16787793D01*
X15029706Y-16787793D02*
X15020182Y-16768746D01*
X15020182Y-16768746D02*
X15020182Y-16759222D01*
X15020182Y-16759222D02*
X15029706Y-16740174D01*
X15029706Y-16740174D02*
X15048753Y-16730650D01*
X15048753Y-16730650D02*
X15077325Y-16730650D01*
X15077325Y-16730650D02*
X15096372Y-16740174D01*
X15172563Y-16940174D02*
X15182087Y-16930650D01*
X15182087Y-16930650D02*
X15201134Y-16902079D01*
X15201134Y-16902079D02*
X15210658Y-16883031D01*
X15210658Y-16883031D02*
X15220182Y-16854460D01*
X15220182Y-16854460D02*
X15229706Y-16806841D01*
X15229706Y-16806841D02*
X15229706Y-16768746D01*
X15229706Y-16768746D02*
X15220182Y-16721126D01*
X15220182Y-16721126D02*
X15210658Y-16692555D01*
X15210658Y-16692555D02*
X15201134Y-16673507D01*
X15201134Y-16673507D02*
X15182087Y-16644936D01*
X15182087Y-16644936D02*
X15172563Y-16635412D01*
D18*
X10227500Y-16972500D02*
X10397500Y-17142500D01*
X10397500Y-16972500D02*
X10227500Y-17142500D01*
X10372605Y-17117605D02*
X10372605Y-16997395D01*
X10252395Y-16997395D01*
X10252395Y-17117605D01*
X10372605Y-17117605D01*
D11*
X10763039Y-17148984D02*
X10648753Y-17148984D01*
X10705896Y-17148984D02*
X10705896Y-16948984D01*
X10705896Y-16948984D02*
X10686848Y-16977555D01*
X10686848Y-16977555D02*
X10667801Y-16996603D01*
X10667801Y-16996603D02*
X10648753Y-17006127D01*
X10848753Y-17129936D02*
X10858277Y-17139460D01*
X10858277Y-17139460D02*
X10848753Y-17148984D01*
X10848753Y-17148984D02*
X10839229Y-17139460D01*
X10839229Y-17139460D02*
X10848753Y-17129936D01*
X10848753Y-17129936D02*
X10848753Y-17148984D01*
X10924944Y-16948984D02*
X11058277Y-16948984D01*
X11058277Y-16948984D02*
X10972563Y-17148984D01*
X11172563Y-16948984D02*
X11191610Y-16948984D01*
X11191610Y-16948984D02*
X11210658Y-16958508D01*
X11210658Y-16958508D02*
X11220182Y-16968031D01*
X11220182Y-16968031D02*
X11229705Y-16987079D01*
X11229705Y-16987079D02*
X11239229Y-17025174D01*
X11239229Y-17025174D02*
X11239229Y-17072793D01*
X11239229Y-17072793D02*
X11229705Y-17110888D01*
X11229705Y-17110888D02*
X11220182Y-17129936D01*
X11220182Y-17129936D02*
X11210658Y-17139460D01*
X11210658Y-17139460D02*
X11191610Y-17148984D01*
X11191610Y-17148984D02*
X11172563Y-17148984D01*
X11172563Y-17148984D02*
X11153515Y-17139460D01*
X11153515Y-17139460D02*
X11143991Y-17129936D01*
X11143991Y-17129936D02*
X11134467Y-17110888D01*
X11134467Y-17110888D02*
X11124944Y-17072793D01*
X11124944Y-17072793D02*
X11124944Y-17025174D01*
X11124944Y-17025174D02*
X11134467Y-16987079D01*
X11134467Y-16987079D02*
X11143991Y-16968031D01*
X11143991Y-16968031D02*
X11153515Y-16958508D01*
X11153515Y-16958508D02*
X11172563Y-16948984D01*
X11363039Y-16948984D02*
X11382086Y-16948984D01*
X11382086Y-16948984D02*
X11401134Y-16958508D01*
X11401134Y-16958508D02*
X11410658Y-16968031D01*
X11410658Y-16968031D02*
X11420182Y-16987079D01*
X11420182Y-16987079D02*
X11429705Y-17025174D01*
X11429705Y-17025174D02*
X11429705Y-17072793D01*
X11429705Y-17072793D02*
X11420182Y-17110888D01*
X11420182Y-17110888D02*
X11410658Y-17129936D01*
X11410658Y-17129936D02*
X11401134Y-17139460D01*
X11401134Y-17139460D02*
X11382086Y-17148984D01*
X11382086Y-17148984D02*
X11363039Y-17148984D01*
X11363039Y-17148984D02*
X11343991Y-17139460D01*
X11343991Y-17139460D02*
X11334467Y-17129936D01*
X11334467Y-17129936D02*
X11324943Y-17110888D01*
X11324943Y-17110888D02*
X11315420Y-17072793D01*
X11315420Y-17072793D02*
X11315420Y-17025174D01*
X11315420Y-17025174D02*
X11324943Y-16987079D01*
X11324943Y-16987079D02*
X11334467Y-16968031D01*
X11334467Y-16968031D02*
X11343991Y-16958508D01*
X11343991Y-16958508D02*
X11363039Y-16948984D01*
X11515420Y-17148984D02*
X11515420Y-17015650D01*
X11515420Y-17034698D02*
X11524943Y-17025174D01*
X11524943Y-17025174D02*
X11543991Y-17015650D01*
X11543991Y-17015650D02*
X11572563Y-17015650D01*
X11572563Y-17015650D02*
X11591610Y-17025174D01*
X11591610Y-17025174D02*
X11601134Y-17044222D01*
X11601134Y-17044222D02*
X11601134Y-17148984D01*
X11601134Y-17044222D02*
X11610658Y-17025174D01*
X11610658Y-17025174D02*
X11629705Y-17015650D01*
X11629705Y-17015650D02*
X11658277Y-17015650D01*
X11658277Y-17015650D02*
X11677324Y-17025174D01*
X11677324Y-17025174D02*
X11686848Y-17044222D01*
X11686848Y-17044222D02*
X11686848Y-17148984D01*
X11782086Y-17148984D02*
X11782086Y-17015650D01*
X11782086Y-17034698D02*
X11791610Y-17025174D01*
X11791610Y-17025174D02*
X11810658Y-17015650D01*
X11810658Y-17015650D02*
X11839229Y-17015650D01*
X11839229Y-17015650D02*
X11858277Y-17025174D01*
X11858277Y-17025174D02*
X11867801Y-17044222D01*
X11867801Y-17044222D02*
X11867801Y-17148984D01*
X11867801Y-17044222D02*
X11877324Y-17025174D01*
X11877324Y-17025174D02*
X11896372Y-17015650D01*
X11896372Y-17015650D02*
X11924943Y-17015650D01*
X11924943Y-17015650D02*
X11943991Y-17025174D01*
X11943991Y-17025174D02*
X11953515Y-17044222D01*
X11953515Y-17044222D02*
X11953515Y-17148984D01*
X12343991Y-16939460D02*
X12172563Y-17196603D01*
X12601134Y-16948984D02*
X12620182Y-16948984D01*
X12620182Y-16948984D02*
X12639229Y-16958508D01*
X12639229Y-16958508D02*
X12648753Y-16968031D01*
X12648753Y-16968031D02*
X12658277Y-16987079D01*
X12658277Y-16987079D02*
X12667801Y-17025174D01*
X12667801Y-17025174D02*
X12667801Y-17072793D01*
X12667801Y-17072793D02*
X12658277Y-17110888D01*
X12658277Y-17110888D02*
X12648753Y-17129936D01*
X12648753Y-17129936D02*
X12639229Y-17139460D01*
X12639229Y-17139460D02*
X12620182Y-17148984D01*
X12620182Y-17148984D02*
X12601134Y-17148984D01*
X12601134Y-17148984D02*
X12582086Y-17139460D01*
X12582086Y-17139460D02*
X12572563Y-17129936D01*
X12572563Y-17129936D02*
X12563039Y-17110888D01*
X12563039Y-17110888D02*
X12553515Y-17072793D01*
X12553515Y-17072793D02*
X12553515Y-17025174D01*
X12553515Y-17025174D02*
X12563039Y-16987079D01*
X12563039Y-16987079D02*
X12572563Y-16968031D01*
X12572563Y-16968031D02*
X12582086Y-16958508D01*
X12582086Y-16958508D02*
X12601134Y-16948984D01*
X12753515Y-17129936D02*
X12763039Y-17139460D01*
X12763039Y-17139460D02*
X12753515Y-17148984D01*
X12753515Y-17148984D02*
X12743991Y-17139460D01*
X12743991Y-17139460D02*
X12753515Y-17129936D01*
X12753515Y-17129936D02*
X12753515Y-17148984D01*
X12886848Y-16948984D02*
X12905896Y-16948984D01*
X12905896Y-16948984D02*
X12924944Y-16958508D01*
X12924944Y-16958508D02*
X12934467Y-16968031D01*
X12934467Y-16968031D02*
X12943991Y-16987079D01*
X12943991Y-16987079D02*
X12953515Y-17025174D01*
X12953515Y-17025174D02*
X12953515Y-17072793D01*
X12953515Y-17072793D02*
X12943991Y-17110888D01*
X12943991Y-17110888D02*
X12934467Y-17129936D01*
X12934467Y-17129936D02*
X12924944Y-17139460D01*
X12924944Y-17139460D02*
X12905896Y-17148984D01*
X12905896Y-17148984D02*
X12886848Y-17148984D01*
X12886848Y-17148984D02*
X12867801Y-17139460D01*
X12867801Y-17139460D02*
X12858277Y-17129936D01*
X12858277Y-17129936D02*
X12848753Y-17110888D01*
X12848753Y-17110888D02*
X12839229Y-17072793D01*
X12839229Y-17072793D02*
X12839229Y-17025174D01*
X12839229Y-17025174D02*
X12848753Y-16987079D01*
X12848753Y-16987079D02*
X12858277Y-16968031D01*
X12858277Y-16968031D02*
X12867801Y-16958508D01*
X12867801Y-16958508D02*
X12886848Y-16948984D01*
X13124944Y-16948984D02*
X13086848Y-16948984D01*
X13086848Y-16948984D02*
X13067801Y-16958508D01*
X13067801Y-16958508D02*
X13058277Y-16968031D01*
X13058277Y-16968031D02*
X13039229Y-16996603D01*
X13039229Y-16996603D02*
X13029706Y-17034698D01*
X13029706Y-17034698D02*
X13029706Y-17110888D01*
X13029706Y-17110888D02*
X13039229Y-17129936D01*
X13039229Y-17129936D02*
X13048753Y-17139460D01*
X13048753Y-17139460D02*
X13067801Y-17148984D01*
X13067801Y-17148984D02*
X13105896Y-17148984D01*
X13105896Y-17148984D02*
X13124944Y-17139460D01*
X13124944Y-17139460D02*
X13134467Y-17129936D01*
X13134467Y-17129936D02*
X13143991Y-17110888D01*
X13143991Y-17110888D02*
X13143991Y-17063269D01*
X13143991Y-17063269D02*
X13134467Y-17044222D01*
X13134467Y-17044222D02*
X13124944Y-17034698D01*
X13124944Y-17034698D02*
X13105896Y-17025174D01*
X13105896Y-17025174D02*
X13067801Y-17025174D01*
X13067801Y-17025174D02*
X13048753Y-17034698D01*
X13048753Y-17034698D02*
X13039229Y-17044222D01*
X13039229Y-17044222D02*
X13029706Y-17063269D01*
X13315420Y-16948984D02*
X13277325Y-16948984D01*
X13277325Y-16948984D02*
X13258277Y-16958508D01*
X13258277Y-16958508D02*
X13248753Y-16968031D01*
X13248753Y-16968031D02*
X13229706Y-16996603D01*
X13229706Y-16996603D02*
X13220182Y-17034698D01*
X13220182Y-17034698D02*
X13220182Y-17110888D01*
X13220182Y-17110888D02*
X13229706Y-17129936D01*
X13229706Y-17129936D02*
X13239229Y-17139460D01*
X13239229Y-17139460D02*
X13258277Y-17148984D01*
X13258277Y-17148984D02*
X13296372Y-17148984D01*
X13296372Y-17148984D02*
X13315420Y-17139460D01*
X13315420Y-17139460D02*
X13324944Y-17129936D01*
X13324944Y-17129936D02*
X13334467Y-17110888D01*
X13334467Y-17110888D02*
X13334467Y-17063269D01*
X13334467Y-17063269D02*
X13324944Y-17044222D01*
X13324944Y-17044222D02*
X13315420Y-17034698D01*
X13315420Y-17034698D02*
X13296372Y-17025174D01*
X13296372Y-17025174D02*
X13258277Y-17025174D01*
X13258277Y-17025174D02*
X13239229Y-17034698D01*
X13239229Y-17034698D02*
X13229706Y-17044222D01*
X13229706Y-17044222D02*
X13220182Y-17063269D01*
X13429706Y-17148984D02*
X13467801Y-17148984D01*
X13467801Y-17148984D02*
X13486848Y-17139460D01*
X13486848Y-17139460D02*
X13496372Y-17129936D01*
X13496372Y-17129936D02*
X13515420Y-17101365D01*
X13515420Y-17101365D02*
X13524944Y-17063269D01*
X13524944Y-17063269D02*
X13524944Y-16987079D01*
X13524944Y-16987079D02*
X13515420Y-16968031D01*
X13515420Y-16968031D02*
X13505896Y-16958508D01*
X13505896Y-16958508D02*
X13486848Y-16948984D01*
X13486848Y-16948984D02*
X13448753Y-16948984D01*
X13448753Y-16948984D02*
X13429706Y-16958508D01*
X13429706Y-16958508D02*
X13420182Y-16968031D01*
X13420182Y-16968031D02*
X13410658Y-16987079D01*
X13410658Y-16987079D02*
X13410658Y-17034698D01*
X13410658Y-17034698D02*
X13420182Y-17053746D01*
X13420182Y-17053746D02*
X13429706Y-17063269D01*
X13429706Y-17063269D02*
X13448753Y-17072793D01*
X13448753Y-17072793D02*
X13486848Y-17072793D01*
X13486848Y-17072793D02*
X13505896Y-17063269D01*
X13505896Y-17063269D02*
X13515420Y-17053746D01*
X13515420Y-17053746D02*
X13524944Y-17034698D01*
X13601134Y-16948984D02*
X13601134Y-16987079D01*
X13677325Y-16948984D02*
X13677325Y-16987079D01*
X13972563Y-17225174D02*
X13963039Y-17215650D01*
X13963039Y-17215650D02*
X13943991Y-17187079D01*
X13943991Y-17187079D02*
X13934468Y-17168031D01*
X13934468Y-17168031D02*
X13924944Y-17139460D01*
X13924944Y-17139460D02*
X13915420Y-17091841D01*
X13915420Y-17091841D02*
X13915420Y-17053746D01*
X13915420Y-17053746D02*
X13924944Y-17006127D01*
X13924944Y-17006127D02*
X13934468Y-16977555D01*
X13934468Y-16977555D02*
X13943991Y-16958508D01*
X13943991Y-16958508D02*
X13963039Y-16929936D01*
X13963039Y-16929936D02*
X13972563Y-16920412D01*
X14134468Y-17015650D02*
X14134468Y-17148984D01*
X14086848Y-16939460D02*
X14039229Y-17082317D01*
X14039229Y-17082317D02*
X14163039Y-17082317D01*
X14391610Y-17148984D02*
X14391610Y-16948984D01*
X14477325Y-17148984D02*
X14477325Y-17044222D01*
X14477325Y-17044222D02*
X14467801Y-17025174D01*
X14467801Y-17025174D02*
X14448753Y-17015650D01*
X14448753Y-17015650D02*
X14420182Y-17015650D01*
X14420182Y-17015650D02*
X14401134Y-17025174D01*
X14401134Y-17025174D02*
X14391610Y-17034698D01*
X14601134Y-17148984D02*
X14582087Y-17139460D01*
X14582087Y-17139460D02*
X14572563Y-17129936D01*
X14572563Y-17129936D02*
X14563039Y-17110888D01*
X14563039Y-17110888D02*
X14563039Y-17053746D01*
X14563039Y-17053746D02*
X14572563Y-17034698D01*
X14572563Y-17034698D02*
X14582087Y-17025174D01*
X14582087Y-17025174D02*
X14601134Y-17015650D01*
X14601134Y-17015650D02*
X14629706Y-17015650D01*
X14629706Y-17015650D02*
X14648753Y-17025174D01*
X14648753Y-17025174D02*
X14658277Y-17034698D01*
X14658277Y-17034698D02*
X14667801Y-17053746D01*
X14667801Y-17053746D02*
X14667801Y-17110888D01*
X14667801Y-17110888D02*
X14658277Y-17129936D01*
X14658277Y-17129936D02*
X14648753Y-17139460D01*
X14648753Y-17139460D02*
X14629706Y-17148984D01*
X14629706Y-17148984D02*
X14601134Y-17148984D01*
X14782087Y-17148984D02*
X14763039Y-17139460D01*
X14763039Y-17139460D02*
X14753515Y-17120412D01*
X14753515Y-17120412D02*
X14753515Y-16948984D01*
X14934468Y-17139460D02*
X14915420Y-17148984D01*
X14915420Y-17148984D02*
X14877325Y-17148984D01*
X14877325Y-17148984D02*
X14858277Y-17139460D01*
X14858277Y-17139460D02*
X14848753Y-17120412D01*
X14848753Y-17120412D02*
X14848753Y-17044222D01*
X14848753Y-17044222D02*
X14858277Y-17025174D01*
X14858277Y-17025174D02*
X14877325Y-17015650D01*
X14877325Y-17015650D02*
X14915420Y-17015650D01*
X14915420Y-17015650D02*
X14934468Y-17025174D01*
X14934468Y-17025174D02*
X14943991Y-17044222D01*
X14943991Y-17044222D02*
X14943991Y-17063269D01*
X14943991Y-17063269D02*
X14848753Y-17082317D01*
X15020182Y-17139460D02*
X15039230Y-17148984D01*
X15039230Y-17148984D02*
X15077325Y-17148984D01*
X15077325Y-17148984D02*
X15096372Y-17139460D01*
X15096372Y-17139460D02*
X15105896Y-17120412D01*
X15105896Y-17120412D02*
X15105896Y-17110888D01*
X15105896Y-17110888D02*
X15096372Y-17091841D01*
X15096372Y-17091841D02*
X15077325Y-17082317D01*
X15077325Y-17082317D02*
X15048753Y-17082317D01*
X15048753Y-17082317D02*
X15029706Y-17072793D01*
X15029706Y-17072793D02*
X15020182Y-17053746D01*
X15020182Y-17053746D02*
X15020182Y-17044222D01*
X15020182Y-17044222D02*
X15029706Y-17025174D01*
X15029706Y-17025174D02*
X15048753Y-17015650D01*
X15048753Y-17015650D02*
X15077325Y-17015650D01*
X15077325Y-17015650D02*
X15096372Y-17025174D01*
X15172563Y-17225174D02*
X15182087Y-17215650D01*
X15182087Y-17215650D02*
X15201134Y-17187079D01*
X15201134Y-17187079D02*
X15210658Y-17168031D01*
X15210658Y-17168031D02*
X15220182Y-17139460D01*
X15220182Y-17139460D02*
X15229706Y-17091841D01*
X15229706Y-17091841D02*
X15229706Y-17053746D01*
X15229706Y-17053746D02*
X15220182Y-17006127D01*
X15220182Y-17006127D02*
X15210658Y-16977555D01*
X15210658Y-16977555D02*
X15201134Y-16958508D01*
X15201134Y-16958508D02*
X15182087Y-16929936D01*
X15182087Y-16929936D02*
X15172563Y-16920412D01*
X10197500Y-17247500D02*
X10397500Y-17447500D01*
X10397500Y-17247500D02*
X10197500Y-17447500D01*
X10297500Y-17447500D02*
X10397500Y-17347500D01*
X10297500Y-17247500D01*
X10197500Y-17347500D01*
X10297500Y-17447500D01*
X10639229Y-17238984D02*
X10763039Y-17238984D01*
X10763039Y-17238984D02*
X10696372Y-17315174D01*
X10696372Y-17315174D02*
X10724944Y-17315174D01*
X10724944Y-17315174D02*
X10743991Y-17324698D01*
X10743991Y-17324698D02*
X10753515Y-17334222D01*
X10753515Y-17334222D02*
X10763039Y-17353269D01*
X10763039Y-17353269D02*
X10763039Y-17400888D01*
X10763039Y-17400888D02*
X10753515Y-17419936D01*
X10753515Y-17419936D02*
X10743991Y-17429460D01*
X10743991Y-17429460D02*
X10724944Y-17438984D01*
X10724944Y-17438984D02*
X10667801Y-17438984D01*
X10667801Y-17438984D02*
X10648753Y-17429460D01*
X10648753Y-17429460D02*
X10639229Y-17419936D01*
X10848753Y-17419936D02*
X10858277Y-17429460D01*
X10858277Y-17429460D02*
X10848753Y-17438984D01*
X10848753Y-17438984D02*
X10839229Y-17429460D01*
X10839229Y-17429460D02*
X10848753Y-17419936D01*
X10848753Y-17419936D02*
X10848753Y-17438984D01*
X10924944Y-17238984D02*
X11058277Y-17238984D01*
X11058277Y-17238984D02*
X10972563Y-17438984D01*
X11172563Y-17238984D02*
X11191610Y-17238984D01*
X11191610Y-17238984D02*
X11210658Y-17248508D01*
X11210658Y-17248508D02*
X11220182Y-17258031D01*
X11220182Y-17258031D02*
X11229705Y-17277079D01*
X11229705Y-17277079D02*
X11239229Y-17315174D01*
X11239229Y-17315174D02*
X11239229Y-17362793D01*
X11239229Y-17362793D02*
X11229705Y-17400888D01*
X11229705Y-17400888D02*
X11220182Y-17419936D01*
X11220182Y-17419936D02*
X11210658Y-17429460D01*
X11210658Y-17429460D02*
X11191610Y-17438984D01*
X11191610Y-17438984D02*
X11172563Y-17438984D01*
X11172563Y-17438984D02*
X11153515Y-17429460D01*
X11153515Y-17429460D02*
X11143991Y-17419936D01*
X11143991Y-17419936D02*
X11134467Y-17400888D01*
X11134467Y-17400888D02*
X11124944Y-17362793D01*
X11124944Y-17362793D02*
X11124944Y-17315174D01*
X11124944Y-17315174D02*
X11134467Y-17277079D01*
X11134467Y-17277079D02*
X11143991Y-17258031D01*
X11143991Y-17258031D02*
X11153515Y-17248508D01*
X11153515Y-17248508D02*
X11172563Y-17238984D01*
X11363039Y-17238984D02*
X11382086Y-17238984D01*
X11382086Y-17238984D02*
X11401134Y-17248508D01*
X11401134Y-17248508D02*
X11410658Y-17258031D01*
X11410658Y-17258031D02*
X11420182Y-17277079D01*
X11420182Y-17277079D02*
X11429705Y-17315174D01*
X11429705Y-17315174D02*
X11429705Y-17362793D01*
X11429705Y-17362793D02*
X11420182Y-17400888D01*
X11420182Y-17400888D02*
X11410658Y-17419936D01*
X11410658Y-17419936D02*
X11401134Y-17429460D01*
X11401134Y-17429460D02*
X11382086Y-17438984D01*
X11382086Y-17438984D02*
X11363039Y-17438984D01*
X11363039Y-17438984D02*
X11343991Y-17429460D01*
X11343991Y-17429460D02*
X11334467Y-17419936D01*
X11334467Y-17419936D02*
X11324943Y-17400888D01*
X11324943Y-17400888D02*
X11315420Y-17362793D01*
X11315420Y-17362793D02*
X11315420Y-17315174D01*
X11315420Y-17315174D02*
X11324943Y-17277079D01*
X11324943Y-17277079D02*
X11334467Y-17258031D01*
X11334467Y-17258031D02*
X11343991Y-17248508D01*
X11343991Y-17248508D02*
X11363039Y-17238984D01*
X11515420Y-17438984D02*
X11515420Y-17305650D01*
X11515420Y-17324698D02*
X11524943Y-17315174D01*
X11524943Y-17315174D02*
X11543991Y-17305650D01*
X11543991Y-17305650D02*
X11572563Y-17305650D01*
X11572563Y-17305650D02*
X11591610Y-17315174D01*
X11591610Y-17315174D02*
X11601134Y-17334222D01*
X11601134Y-17334222D02*
X11601134Y-17438984D01*
X11601134Y-17334222D02*
X11610658Y-17315174D01*
X11610658Y-17315174D02*
X11629705Y-17305650D01*
X11629705Y-17305650D02*
X11658277Y-17305650D01*
X11658277Y-17305650D02*
X11677324Y-17315174D01*
X11677324Y-17315174D02*
X11686848Y-17334222D01*
X11686848Y-17334222D02*
X11686848Y-17438984D01*
X11782086Y-17438984D02*
X11782086Y-17305650D01*
X11782086Y-17324698D02*
X11791610Y-17315174D01*
X11791610Y-17315174D02*
X11810658Y-17305650D01*
X11810658Y-17305650D02*
X11839229Y-17305650D01*
X11839229Y-17305650D02*
X11858277Y-17315174D01*
X11858277Y-17315174D02*
X11867801Y-17334222D01*
X11867801Y-17334222D02*
X11867801Y-17438984D01*
X11867801Y-17334222D02*
X11877324Y-17315174D01*
X11877324Y-17315174D02*
X11896372Y-17305650D01*
X11896372Y-17305650D02*
X11924943Y-17305650D01*
X11924943Y-17305650D02*
X11943991Y-17315174D01*
X11943991Y-17315174D02*
X11953515Y-17334222D01*
X11953515Y-17334222D02*
X11953515Y-17438984D01*
X12343991Y-17229460D02*
X12172563Y-17486603D01*
X12601134Y-17238984D02*
X12620182Y-17238984D01*
X12620182Y-17238984D02*
X12639229Y-17248508D01*
X12639229Y-17248508D02*
X12648753Y-17258031D01*
X12648753Y-17258031D02*
X12658277Y-17277079D01*
X12658277Y-17277079D02*
X12667801Y-17315174D01*
X12667801Y-17315174D02*
X12667801Y-17362793D01*
X12667801Y-17362793D02*
X12658277Y-17400888D01*
X12658277Y-17400888D02*
X12648753Y-17419936D01*
X12648753Y-17419936D02*
X12639229Y-17429460D01*
X12639229Y-17429460D02*
X12620182Y-17438984D01*
X12620182Y-17438984D02*
X12601134Y-17438984D01*
X12601134Y-17438984D02*
X12582086Y-17429460D01*
X12582086Y-17429460D02*
X12572563Y-17419936D01*
X12572563Y-17419936D02*
X12563039Y-17400888D01*
X12563039Y-17400888D02*
X12553515Y-17362793D01*
X12553515Y-17362793D02*
X12553515Y-17315174D01*
X12553515Y-17315174D02*
X12563039Y-17277079D01*
X12563039Y-17277079D02*
X12572563Y-17258031D01*
X12572563Y-17258031D02*
X12582086Y-17248508D01*
X12582086Y-17248508D02*
X12601134Y-17238984D01*
X12753515Y-17419936D02*
X12763039Y-17429460D01*
X12763039Y-17429460D02*
X12753515Y-17438984D01*
X12753515Y-17438984D02*
X12743991Y-17429460D01*
X12743991Y-17429460D02*
X12753515Y-17419936D01*
X12753515Y-17419936D02*
X12753515Y-17438984D01*
X12953515Y-17438984D02*
X12839229Y-17438984D01*
X12896372Y-17438984D02*
X12896372Y-17238984D01*
X12896372Y-17238984D02*
X12877325Y-17267555D01*
X12877325Y-17267555D02*
X12858277Y-17286603D01*
X12858277Y-17286603D02*
X12839229Y-17296127D01*
X13124944Y-17305650D02*
X13124944Y-17438984D01*
X13077325Y-17229460D02*
X13029706Y-17372317D01*
X13029706Y-17372317D02*
X13153515Y-17372317D01*
X13324944Y-17238984D02*
X13229706Y-17238984D01*
X13229706Y-17238984D02*
X13220182Y-17334222D01*
X13220182Y-17334222D02*
X13229706Y-17324698D01*
X13229706Y-17324698D02*
X13248753Y-17315174D01*
X13248753Y-17315174D02*
X13296372Y-17315174D01*
X13296372Y-17315174D02*
X13315420Y-17324698D01*
X13315420Y-17324698D02*
X13324944Y-17334222D01*
X13324944Y-17334222D02*
X13334467Y-17353269D01*
X13334467Y-17353269D02*
X13334467Y-17400888D01*
X13334467Y-17400888D02*
X13324944Y-17419936D01*
X13324944Y-17419936D02*
X13315420Y-17429460D01*
X13315420Y-17429460D02*
X13296372Y-17438984D01*
X13296372Y-17438984D02*
X13248753Y-17438984D01*
X13248753Y-17438984D02*
X13229706Y-17429460D01*
X13229706Y-17429460D02*
X13220182Y-17419936D01*
X13401134Y-17238984D02*
X13534467Y-17238984D01*
X13534467Y-17238984D02*
X13448753Y-17438984D01*
X13601134Y-17238984D02*
X13601134Y-17277079D01*
X13677325Y-17238984D02*
X13677325Y-17277079D01*
X13972563Y-17515174D02*
X13963039Y-17505650D01*
X13963039Y-17505650D02*
X13943991Y-17477079D01*
X13943991Y-17477079D02*
X13934468Y-17458031D01*
X13934468Y-17458031D02*
X13924944Y-17429460D01*
X13924944Y-17429460D02*
X13915420Y-17381841D01*
X13915420Y-17381841D02*
X13915420Y-17343746D01*
X13915420Y-17343746D02*
X13924944Y-17296127D01*
X13924944Y-17296127D02*
X13934468Y-17267555D01*
X13934468Y-17267555D02*
X13943991Y-17248508D01*
X13943991Y-17248508D02*
X13963039Y-17219936D01*
X13963039Y-17219936D02*
X13972563Y-17210412D01*
X14153515Y-17438984D02*
X14039229Y-17438984D01*
X14096372Y-17438984D02*
X14096372Y-17238984D01*
X14096372Y-17238984D02*
X14077325Y-17267555D01*
X14077325Y-17267555D02*
X14058277Y-17286603D01*
X14058277Y-17286603D02*
X14039229Y-17296127D01*
X14391610Y-17438984D02*
X14391610Y-17238984D01*
X14477325Y-17438984D02*
X14477325Y-17334222D01*
X14477325Y-17334222D02*
X14467801Y-17315174D01*
X14467801Y-17315174D02*
X14448753Y-17305650D01*
X14448753Y-17305650D02*
X14420182Y-17305650D01*
X14420182Y-17305650D02*
X14401134Y-17315174D01*
X14401134Y-17315174D02*
X14391610Y-17324698D01*
X14601134Y-17438984D02*
X14582087Y-17429460D01*
X14582087Y-17429460D02*
X14572563Y-17419936D01*
X14572563Y-17419936D02*
X14563039Y-17400888D01*
X14563039Y-17400888D02*
X14563039Y-17343746D01*
X14563039Y-17343746D02*
X14572563Y-17324698D01*
X14572563Y-17324698D02*
X14582087Y-17315174D01*
X14582087Y-17315174D02*
X14601134Y-17305650D01*
X14601134Y-17305650D02*
X14629706Y-17305650D01*
X14629706Y-17305650D02*
X14648753Y-17315174D01*
X14648753Y-17315174D02*
X14658277Y-17324698D01*
X14658277Y-17324698D02*
X14667801Y-17343746D01*
X14667801Y-17343746D02*
X14667801Y-17400888D01*
X14667801Y-17400888D02*
X14658277Y-17419936D01*
X14658277Y-17419936D02*
X14648753Y-17429460D01*
X14648753Y-17429460D02*
X14629706Y-17438984D01*
X14629706Y-17438984D02*
X14601134Y-17438984D01*
X14782087Y-17438984D02*
X14763039Y-17429460D01*
X14763039Y-17429460D02*
X14753515Y-17410412D01*
X14753515Y-17410412D02*
X14753515Y-17238984D01*
X14934468Y-17429460D02*
X14915420Y-17438984D01*
X14915420Y-17438984D02*
X14877325Y-17438984D01*
X14877325Y-17438984D02*
X14858277Y-17429460D01*
X14858277Y-17429460D02*
X14848753Y-17410412D01*
X14848753Y-17410412D02*
X14848753Y-17334222D01*
X14848753Y-17334222D02*
X14858277Y-17315174D01*
X14858277Y-17315174D02*
X14877325Y-17305650D01*
X14877325Y-17305650D02*
X14915420Y-17305650D01*
X14915420Y-17305650D02*
X14934468Y-17315174D01*
X14934468Y-17315174D02*
X14943991Y-17334222D01*
X14943991Y-17334222D02*
X14943991Y-17353269D01*
X14943991Y-17353269D02*
X14848753Y-17372317D01*
X15010658Y-17515174D02*
X15020182Y-17505650D01*
X15020182Y-17505650D02*
X15039230Y-17477079D01*
X15039230Y-17477079D02*
X15048753Y-17458031D01*
X15048753Y-17458031D02*
X15058277Y-17429460D01*
X15058277Y-17429460D02*
X15067801Y-17381841D01*
X15067801Y-17381841D02*
X15067801Y-17343746D01*
X15067801Y-17343746D02*
X15058277Y-17296127D01*
X15058277Y-17296127D02*
X15048753Y-17267555D01*
X15048753Y-17267555D02*
X15039230Y-17248508D01*
X15039230Y-17248508D02*
X15020182Y-17219936D01*
X15020182Y-17219936D02*
X15010658Y-17210412D01*
M02*
