%TF.GenerationSoftware,KiCad,Pcbnew,7.0.7*%
%TF.CreationDate,2024-01-16T10:23:13+01:00*%
%TF.ProjectId,board,626f6172-642e-46b6-9963-61645f706362,rev?*%
%TF.SameCoordinates,Original*%
%TF.FileFunction,Copper,L3,Inr*%
%TF.FilePolarity,Positive*%
%FSLAX46Y46*%
G04 Gerber Fmt 4.6, Leading zero omitted, Abs format (unit mm)*
G04 Created by KiCad (PCBNEW 7.0.7) date 2024-01-16 10:23:13*
%MOMM*%
%LPD*%
G01*
G04 APERTURE LIST*
%TA.AperFunction,ComponentPad*%
%ADD10C,1.200000*%
%TD*%
%TA.AperFunction,ComponentPad*%
%ADD11C,1.300000*%
%TD*%
%TA.AperFunction,ComponentPad*%
%ADD12C,2.000000*%
%TD*%
%TA.AperFunction,ComponentPad*%
%ADD13C,6.000000*%
%TD*%
%TA.AperFunction,ComponentPad*%
%ADD14O,1.200000X2.900000*%
%TD*%
%TA.AperFunction,ComponentPad*%
%ADD15R,1.700000X1.700000*%
%TD*%
%TA.AperFunction,ComponentPad*%
%ADD16O,1.700000X1.700000*%
%TD*%
%TA.AperFunction,ViaPad*%
%ADD17C,0.500000*%
%TD*%
%TA.AperFunction,ViaPad*%
%ADD18C,1.000000*%
%TD*%
%TA.AperFunction,Conductor*%
%ADD19C,0.500000*%
%TD*%
G04 APERTURE END LIST*
D10*
%TO.N,/Ethernet/TD_P*%
%TO.C,J8*%
X175445000Y-109550000D03*
%TO.N,/Ethernet/TD_N*%
X174175000Y-112090000D03*
%TO.N,/Ethernet/RD_P*%
X172905000Y-109550000D03*
%TO.N,Net-(C13-Pad1)*%
X171635000Y-112090000D03*
%TO.N,Net-(C18-Pad1)*%
X170365000Y-109550000D03*
%TO.N,/Ethernet/RD_N*%
X169095000Y-112090000D03*
%TO.N,N/C*%
X167825000Y-109550000D03*
%TO.N,GND*%
X166555000Y-112090000D03*
D11*
%TO.N,+3V3*%
X177625000Y-98300000D03*
%TO.N,Net-(J8-Pad10)*%
X175085000Y-98300000D03*
%TO.N,Net-(J8-Pad11)*%
X166915000Y-98300000D03*
%TO.N,+3V3*%
X164375000Y-98300000D03*
D12*
%TO.N,GND*%
X178745000Y-106250000D03*
X163255000Y-106250000D03*
%TD*%
D13*
%TO.N,N/C*%
%TO.C,H1*%
X139712500Y-105700000D03*
%TD*%
D14*
%TO.N,GND*%
%TO.C,J3*%
X129400000Y-101000000D03*
X116600000Y-101000000D03*
%TD*%
D15*
%TO.N,+3V3*%
%TO.C,J5*%
X153899999Y-141599999D03*
D16*
%TO.N,/SWC*%
X156439999Y-141599999D03*
%TO.N,GND*%
X158979999Y-141599999D03*
%TO.N,/SIO*%
X161519999Y-141599999D03*
%TO.N,/UART_TXD*%
X164059999Y-141599999D03*
%TO.N,/UART_RXD*%
X166599999Y-141599999D03*
%TO.N,/C1*%
X169139999Y-141599999D03*
%TO.N,/C0*%
X171679999Y-141599999D03*
%TO.N,/1W*%
X174219999Y-141599999D03*
%TO.N,GND*%
X176759999Y-141599999D03*
%TD*%
D15*
%TO.N,+5V*%
%TO.C,J4*%
X118319999Y-141599999D03*
D16*
%TO.N,/A7*%
X120859999Y-141599999D03*
%TO.N,/A6*%
X123399999Y-141599999D03*
%TO.N,/A4*%
X125939999Y-141599999D03*
%TO.N,/B3*%
X128479999Y-141599999D03*
%TO.N,/B2*%
X131019999Y-141599999D03*
%TO.N,/C3*%
X133559999Y-141599999D03*
%TO.N,GND*%
X136099999Y-141599999D03*
%TD*%
D17*
%TO.N,+3V3*%
X138738000Y-116900000D03*
%TO.N,GND*%
X139500000Y-120000000D03*
X167100000Y-133600000D03*
X167200000Y-125100000D03*
X169900000Y-123100000D03*
X170600000Y-123800000D03*
X169400000Y-115400000D03*
X177600000Y-116200000D03*
X174300000Y-129600000D03*
X171300000Y-121800000D03*
X139500000Y-118600000D03*
X171800000Y-133400000D03*
X173400000Y-120200000D03*
X172000000Y-122500000D03*
X172000000Y-121800000D03*
X175200000Y-116200000D03*
X162800000Y-122600000D03*
X173000000Y-133400000D03*
X163800000Y-122600000D03*
X174400000Y-133400000D03*
X169900000Y-123800000D03*
X173200000Y-115400000D03*
%TO.N,+3V3*%
X159600000Y-104000000D03*
X167000000Y-124400000D03*
X173000000Y-131000000D03*
X174900000Y-128400000D03*
X169700000Y-119200000D03*
X175700000Y-122200000D03*
X165600000Y-119200000D03*
D18*
%TO.N,+5V*%
X123000000Y-106800000D03*
X160500000Y-128200000D03*
D17*
%TO.N,Net-(J1-PB8)*%
X138650000Y-135763868D03*
%TO.N,Net-(J1-PB9)*%
X136100000Y-135763868D03*
%TO.N,/PG8_AP_UART1_RTS*%
X156300000Y-124800000D03*
X156600000Y-110100000D03*
%TO.N,/PG9_AP_UART1_CTS*%
X155825500Y-124000000D03*
X154500000Y-112800000D03*
%TO.N,/PG7_AP_UART1_RX*%
X156900000Y-114700000D03*
X155600000Y-132300000D03*
%TO.N,Net-(R19-Pad2)*%
X159500000Y-123775500D03*
X138700000Y-101300000D03*
%TO.N,/PG17_BT_WAKE_AP*%
X148900000Y-109900000D03*
X151675500Y-127800000D03*
%TO.N,/PG6_AP_UART1_TX*%
X156900000Y-111400000D03*
X156425500Y-130800000D03*
%TO.N,/PG16_AP_WAKE_BT*%
X151300000Y-124900000D03*
X149800000Y-110000000D03*
%TO.N,/PG12_WL_REG_ON*%
X154300000Y-127700000D03*
X147630955Y-111485933D03*
%TO.N,+3.3VA*%
X139737500Y-116000000D03*
X141600000Y-112800000D03*
X157900000Y-122500000D03*
X142300000Y-118200000D03*
X147950000Y-107200000D03*
X149025000Y-123600000D03*
X141600000Y-117000000D03*
%TO.N,/PG10_WL_WAKE_AP*%
X155297999Y-124900000D03*
X147200000Y-111000000D03*
%TO.N,/PG4_SDIO1_D2*%
X146808679Y-111961887D03*
X154475574Y-132101001D03*
%TO.N,/PG5_SDIO1_D3*%
X152576000Y-132266907D03*
X146900000Y-112900000D03*
%TO.N,/PG1_SDIO1_CMD*%
X147900000Y-113700000D03*
X153525500Y-132240733D03*
%TO.N,/PG0_SDIO1_CLK*%
X153048001Y-132800000D03*
X147425500Y-114700000D03*
%TO.N,/PG2_SDIO1_D0*%
X148600000Y-115525000D03*
X154000000Y-132700000D03*
%TO.N,/PG3_SDIO1_D1*%
X150400000Y-116700000D03*
X154983828Y-132505391D03*
%TO.N,Net-(C13-Pad1)*%
X175325500Y-115400000D03*
%TO.N,/Ethernet/RMII_RXER*%
X170275500Y-127100000D03*
X175100000Y-124674500D03*
%TO.N,/Ethernet/LED1*%
X159600000Y-100700000D03*
X173200000Y-125200000D03*
%TO.N,/Ethernet/LED2*%
X161200000Y-100700000D03*
X173900000Y-125000000D03*
%TO.N,/Ethernet/RMII_CRS_DV*%
X173898776Y-125701224D03*
X168361965Y-128038035D03*
%TD*%
D19*
%TO.N,+5V*%
X160500000Y-133800000D02*
X154400000Y-139900000D01*
X117937499Y-111862501D02*
X123000000Y-106800000D01*
X117937499Y-127300000D02*
X117937499Y-111862501D01*
X160500000Y-128200000D02*
X160500000Y-133800000D01*
X137250001Y-142849999D02*
X119569999Y-142849999D01*
X140200000Y-139900000D02*
X137250001Y-142849999D01*
X117937499Y-127300000D02*
X118319999Y-127682500D01*
X119569999Y-142849999D02*
X118319999Y-141599999D01*
X118319999Y-127682500D02*
X118319999Y-141599999D01*
X154400000Y-139900000D02*
X140200000Y-139900000D01*
%TD*%
%TA.AperFunction,Conductor*%
%TO.N,+3.3VA*%
G36*
X159993358Y-105404096D02*
G01*
X160018668Y-105447933D01*
X160019792Y-105460990D01*
X159969311Y-123506374D01*
X159951865Y-123553892D01*
X159907957Y-123579078D01*
X159858132Y-123570149D01*
X159829376Y-123539761D01*
X159828049Y-123537157D01*
X159738343Y-123447451D01*
X159738342Y-123447450D01*
X159625304Y-123389854D01*
X159625302Y-123389853D01*
X159625301Y-123389853D01*
X159500000Y-123370008D01*
X159374698Y-123389853D01*
X159261656Y-123447451D01*
X159171951Y-123537156D01*
X159171949Y-123537158D01*
X159171950Y-123537158D01*
X159132617Y-123614354D01*
X159114353Y-123650198D01*
X159094508Y-123775500D01*
X159114353Y-123900801D01*
X159114353Y-123900802D01*
X159114354Y-123900804D01*
X159171950Y-124013842D01*
X159171951Y-124013843D01*
X159207007Y-124048899D01*
X159228399Y-124094775D01*
X159215298Y-124143670D01*
X159173834Y-124172704D01*
X159154539Y-124175225D01*
X156290610Y-124169732D01*
X156243077Y-124152328D01*
X156217852Y-124108442D01*
X156217663Y-124084156D01*
X156223247Y-124048899D01*
X156230992Y-124000000D01*
X156211146Y-123874696D01*
X156153550Y-123761658D01*
X156063842Y-123671950D01*
X155950804Y-123614354D01*
X155950802Y-123614353D01*
X155950801Y-123614353D01*
X155825500Y-123594508D01*
X155700198Y-123614353D01*
X155587156Y-123671951D01*
X155497451Y-123761656D01*
X155439853Y-123874698D01*
X155420008Y-124000000D01*
X155433054Y-124082371D01*
X155423395Y-124132060D01*
X155384057Y-124163915D01*
X155359823Y-124167947D01*
X139180314Y-124136922D01*
X139132781Y-124119518D01*
X139107556Y-124075632D01*
X139106463Y-124063909D01*
X139106263Y-124048899D01*
X139056308Y-120302329D01*
X139072985Y-120254539D01*
X139116481Y-120228647D01*
X139166443Y-120236772D01*
X139182627Y-120249018D01*
X139261658Y-120328050D01*
X139374696Y-120385646D01*
X139500000Y-120405492D01*
X139625304Y-120385646D01*
X139738342Y-120328050D01*
X139828050Y-120238342D01*
X139885646Y-120125304D01*
X139905492Y-120000000D01*
X139885646Y-119874696D01*
X139828050Y-119761658D01*
X139738342Y-119671950D01*
X139625304Y-119614354D01*
X139625302Y-119614353D01*
X139625301Y-119614353D01*
X139500000Y-119594508D01*
X139374698Y-119614353D01*
X139261656Y-119671951D01*
X139174697Y-119758910D01*
X139128820Y-119780302D01*
X139079926Y-119767201D01*
X139050892Y-119725736D01*
X139048378Y-119707577D01*
X139037368Y-118881829D01*
X139054045Y-118834039D01*
X139097541Y-118808147D01*
X139147503Y-118816272D01*
X139167775Y-118834280D01*
X139167832Y-118834224D01*
X139168791Y-118835183D01*
X139171228Y-118837348D01*
X139171950Y-118838342D01*
X139261658Y-118928050D01*
X139374696Y-118985646D01*
X139500000Y-119005492D01*
X139625304Y-118985646D01*
X139738342Y-118928050D01*
X139828050Y-118838342D01*
X139885646Y-118725304D01*
X139905492Y-118600000D01*
X139885646Y-118474696D01*
X139828050Y-118361658D01*
X139738342Y-118271950D01*
X139625304Y-118214354D01*
X139625302Y-118214353D01*
X139625301Y-118214353D01*
X139500000Y-118194508D01*
X139374698Y-118214353D01*
X139261656Y-118271951D01*
X139171949Y-118361658D01*
X139171947Y-118361661D01*
X139169974Y-118365534D01*
X139132952Y-118400054D01*
X139082402Y-118402700D01*
X139041978Y-118372235D01*
X139030050Y-118332926D01*
X139015222Y-117220811D01*
X139031898Y-117173022D01*
X139036880Y-117167511D01*
X139066050Y-117138342D01*
X139123646Y-117025304D01*
X139143492Y-116900000D01*
X139123646Y-116774696D01*
X139085586Y-116700000D01*
X149994508Y-116700000D01*
X150014353Y-116825301D01*
X150014353Y-116825302D01*
X150014354Y-116825304D01*
X150071950Y-116938342D01*
X150161658Y-117028050D01*
X150274696Y-117085646D01*
X150400000Y-117105492D01*
X150525304Y-117085646D01*
X150638342Y-117028050D01*
X150728050Y-116938342D01*
X150785646Y-116825304D01*
X150805492Y-116700000D01*
X150785646Y-116574696D01*
X150728050Y-116461658D01*
X150638342Y-116371950D01*
X150525304Y-116314354D01*
X150525302Y-116314353D01*
X150525301Y-116314353D01*
X150400000Y-116294508D01*
X150274698Y-116314353D01*
X150161656Y-116371951D01*
X150071951Y-116461656D01*
X150014353Y-116574698D01*
X149994508Y-116700000D01*
X139085586Y-116700000D01*
X139066050Y-116661658D01*
X139028245Y-116623853D01*
X139006853Y-116577977D01*
X139006578Y-116572514D01*
X138992611Y-115525000D01*
X148194508Y-115525000D01*
X148214353Y-115650301D01*
X148214353Y-115650302D01*
X148214354Y-115650304D01*
X148271950Y-115763342D01*
X148361658Y-115853050D01*
X148474696Y-115910646D01*
X148600000Y-115930492D01*
X148725304Y-115910646D01*
X148838342Y-115853050D01*
X148928050Y-115763342D01*
X148985646Y-115650304D01*
X149005492Y-115525000D01*
X148985646Y-115399696D01*
X148928050Y-115286658D01*
X148838342Y-115196950D01*
X148725304Y-115139354D01*
X148725302Y-115139353D01*
X148725301Y-115139353D01*
X148600000Y-115119508D01*
X148474698Y-115139353D01*
X148361656Y-115196951D01*
X148271951Y-115286656D01*
X148214353Y-115399698D01*
X148194508Y-115525000D01*
X138992611Y-115525000D01*
X138981611Y-114700000D01*
X147020008Y-114700000D01*
X147039853Y-114825301D01*
X147039853Y-114825302D01*
X147039854Y-114825304D01*
X147097450Y-114938342D01*
X147187158Y-115028050D01*
X147300196Y-115085646D01*
X147425500Y-115105492D01*
X147550804Y-115085646D01*
X147663842Y-115028050D01*
X147753550Y-114938342D01*
X147811146Y-114825304D01*
X147830992Y-114700000D01*
X156494508Y-114700000D01*
X156514353Y-114825301D01*
X156514353Y-114825302D01*
X156514354Y-114825304D01*
X156571950Y-114938342D01*
X156661658Y-115028050D01*
X156774696Y-115085646D01*
X156900000Y-115105492D01*
X157025304Y-115085646D01*
X157138342Y-115028050D01*
X157228050Y-114938342D01*
X157285646Y-114825304D01*
X157305492Y-114700000D01*
X157285646Y-114574696D01*
X157228050Y-114461658D01*
X157138342Y-114371950D01*
X157025304Y-114314354D01*
X157025302Y-114314353D01*
X157025301Y-114314353D01*
X156900000Y-114294508D01*
X156774698Y-114314353D01*
X156661656Y-114371951D01*
X156571951Y-114461656D01*
X156514353Y-114574698D01*
X156494508Y-114700000D01*
X147830992Y-114700000D01*
X147811146Y-114574696D01*
X147753550Y-114461658D01*
X147663842Y-114371950D01*
X147550804Y-114314354D01*
X147550802Y-114314353D01*
X147550801Y-114314353D01*
X147425500Y-114294508D01*
X147300198Y-114314353D01*
X147187156Y-114371951D01*
X147097451Y-114461656D01*
X147039853Y-114574698D01*
X147020008Y-114700000D01*
X138981611Y-114700000D01*
X138968278Y-113700000D01*
X147494508Y-113700000D01*
X147514353Y-113825301D01*
X147514353Y-113825302D01*
X147514354Y-113825304D01*
X147571950Y-113938342D01*
X147661658Y-114028050D01*
X147774696Y-114085646D01*
X147900000Y-114105492D01*
X148025304Y-114085646D01*
X148138342Y-114028050D01*
X148228050Y-113938342D01*
X148285646Y-113825304D01*
X148305492Y-113700000D01*
X148285646Y-113574696D01*
X148228050Y-113461658D01*
X148138342Y-113371950D01*
X148025304Y-113314354D01*
X148025302Y-113314353D01*
X148025301Y-113314353D01*
X147900000Y-113294508D01*
X147774698Y-113314353D01*
X147661656Y-113371951D01*
X147571951Y-113461656D01*
X147514353Y-113574698D01*
X147494508Y-113700000D01*
X138968278Y-113700000D01*
X138945103Y-111961887D01*
X146403187Y-111961887D01*
X146423032Y-112087188D01*
X146423032Y-112087189D01*
X146423033Y-112087191D01*
X146480629Y-112200229D01*
X146570337Y-112289937D01*
X146683375Y-112347533D01*
X146794203Y-112365086D01*
X146838475Y-112389626D01*
X146856616Y-112436883D01*
X146840136Y-112484744D01*
X146796747Y-112510815D01*
X146794204Y-112511264D01*
X146774698Y-112514353D01*
X146661656Y-112571951D01*
X146571951Y-112661656D01*
X146514353Y-112774698D01*
X146494508Y-112900000D01*
X146514353Y-113025301D01*
X146514353Y-113025302D01*
X146514354Y-113025304D01*
X146571950Y-113138342D01*
X146661658Y-113228050D01*
X146774696Y-113285646D01*
X146900000Y-113305492D01*
X147025304Y-113285646D01*
X147138342Y-113228050D01*
X147228050Y-113138342D01*
X147285646Y-113025304D01*
X147305492Y-112900000D01*
X147289654Y-112800000D01*
X154094508Y-112800000D01*
X154114353Y-112925301D01*
X154114353Y-112925302D01*
X154114354Y-112925304D01*
X154171950Y-113038342D01*
X154261658Y-113128050D01*
X154374696Y-113185646D01*
X154500000Y-113205492D01*
X154625304Y-113185646D01*
X154738342Y-113128050D01*
X154828050Y-113038342D01*
X154885646Y-112925304D01*
X154905492Y-112800000D01*
X154885646Y-112674696D01*
X154828050Y-112561658D01*
X154738342Y-112471950D01*
X154625304Y-112414354D01*
X154625302Y-112414353D01*
X154625301Y-112414353D01*
X154500000Y-112394508D01*
X154374698Y-112414353D01*
X154261656Y-112471951D01*
X154171951Y-112561656D01*
X154114353Y-112674698D01*
X154094508Y-112800000D01*
X147289654Y-112800000D01*
X147285646Y-112774696D01*
X147228050Y-112661658D01*
X147138342Y-112571950D01*
X147025304Y-112514354D01*
X147025302Y-112514353D01*
X147025301Y-112514353D01*
X146914475Y-112496800D01*
X146870202Y-112472259D01*
X146852062Y-112425002D01*
X146868542Y-112377141D01*
X146911931Y-112351071D01*
X146914453Y-112350626D01*
X146933983Y-112347533D01*
X147047021Y-112289937D01*
X147136729Y-112200229D01*
X147194325Y-112087191D01*
X147214171Y-111961887D01*
X147194325Y-111836583D01*
X147174683Y-111798035D01*
X147168514Y-111747795D01*
X147169441Y-111746367D01*
X147148547Y-111737498D01*
X147139147Y-111726873D01*
X147136729Y-111723545D01*
X147047022Y-111633838D01*
X147047021Y-111633837D01*
X146933983Y-111576241D01*
X146933981Y-111576240D01*
X146933980Y-111576240D01*
X146808679Y-111556395D01*
X146683377Y-111576240D01*
X146570335Y-111633838D01*
X146480630Y-111723543D01*
X146423032Y-111836585D01*
X146403187Y-111961887D01*
X138945103Y-111961887D01*
X138932278Y-111000000D01*
X146794508Y-111000000D01*
X146814353Y-111125301D01*
X146814353Y-111125302D01*
X146814354Y-111125304D01*
X146871950Y-111238342D01*
X146961658Y-111328050D01*
X147074696Y-111385646D01*
X147164180Y-111399818D01*
X147208451Y-111424358D01*
X147226592Y-111471615D01*
X147225693Y-111484476D01*
X147225463Y-111485929D01*
X147225463Y-111485932D01*
X147245308Y-111611234D01*
X147245308Y-111611235D01*
X147245309Y-111611237D01*
X147264950Y-111649784D01*
X147271118Y-111700025D01*
X147270191Y-111701451D01*
X147291085Y-111710320D01*
X147300485Y-111720944D01*
X147302905Y-111724275D01*
X147392613Y-111813983D01*
X147505651Y-111871579D01*
X147630955Y-111891425D01*
X147756259Y-111871579D01*
X147869297Y-111813983D01*
X147959005Y-111724275D01*
X148016601Y-111611237D01*
X148036447Y-111485933D01*
X148022837Y-111400000D01*
X156494508Y-111400000D01*
X156514353Y-111525301D01*
X156514353Y-111525302D01*
X156514354Y-111525304D01*
X156571950Y-111638342D01*
X156661658Y-111728050D01*
X156774696Y-111785646D01*
X156900000Y-111805492D01*
X157025304Y-111785646D01*
X157138342Y-111728050D01*
X157228050Y-111638342D01*
X157285646Y-111525304D01*
X157305492Y-111400000D01*
X157285646Y-111274696D01*
X157228050Y-111161658D01*
X157138342Y-111071950D01*
X157025304Y-111014354D01*
X157025302Y-111014353D01*
X157025301Y-111014353D01*
X156900000Y-110994508D01*
X156774698Y-111014353D01*
X156661656Y-111071951D01*
X156571951Y-111161656D01*
X156514353Y-111274698D01*
X156494508Y-111400000D01*
X148022837Y-111400000D01*
X148016601Y-111360629D01*
X147959005Y-111247591D01*
X147869297Y-111157883D01*
X147756259Y-111100287D01*
X147756257Y-111100286D01*
X147756256Y-111100286D01*
X147666775Y-111086114D01*
X147622502Y-111061573D01*
X147604362Y-111014316D01*
X147605263Y-111001444D01*
X147605492Y-111000000D01*
X147585646Y-110874696D01*
X147528050Y-110761658D01*
X147438342Y-110671950D01*
X147325304Y-110614354D01*
X147325302Y-110614353D01*
X147325301Y-110614353D01*
X147200000Y-110594508D01*
X147074698Y-110614353D01*
X146961656Y-110671951D01*
X146871951Y-110761656D01*
X146814353Y-110874698D01*
X146794508Y-111000000D01*
X138932278Y-111000000D01*
X138917611Y-109900000D01*
X148494508Y-109900000D01*
X148514353Y-110025301D01*
X148514353Y-110025302D01*
X148514354Y-110025304D01*
X148571950Y-110138342D01*
X148661658Y-110228050D01*
X148774696Y-110285646D01*
X148900000Y-110305492D01*
X149025304Y-110285646D01*
X149138342Y-110228050D01*
X149228050Y-110138342D01*
X149268356Y-110059237D01*
X149305373Y-110024717D01*
X149355923Y-110022067D01*
X149396349Y-110052530D01*
X149407377Y-110081257D01*
X149414353Y-110125301D01*
X149414353Y-110125302D01*
X149414354Y-110125304D01*
X149471950Y-110238342D01*
X149561658Y-110328050D01*
X149674696Y-110385646D01*
X149800000Y-110405492D01*
X149925304Y-110385646D01*
X150038342Y-110328050D01*
X150128050Y-110238342D01*
X150185646Y-110125304D01*
X150189654Y-110100000D01*
X156194508Y-110100000D01*
X156214353Y-110225301D01*
X156214353Y-110225302D01*
X156214354Y-110225304D01*
X156271950Y-110338342D01*
X156361658Y-110428050D01*
X156474696Y-110485646D01*
X156600000Y-110505492D01*
X156725304Y-110485646D01*
X156838342Y-110428050D01*
X156928050Y-110338342D01*
X156985646Y-110225304D01*
X157005492Y-110100000D01*
X156985646Y-109974696D01*
X156928050Y-109861658D01*
X156838342Y-109771950D01*
X156725304Y-109714354D01*
X156725302Y-109714353D01*
X156725301Y-109714353D01*
X156600000Y-109694508D01*
X156474698Y-109714353D01*
X156361656Y-109771951D01*
X156271951Y-109861656D01*
X156214353Y-109974698D01*
X156194508Y-110100000D01*
X150189654Y-110100000D01*
X150205492Y-110000000D01*
X150185646Y-109874696D01*
X150128050Y-109761658D01*
X150038342Y-109671950D01*
X149925304Y-109614354D01*
X149925302Y-109614353D01*
X149925301Y-109614353D01*
X149800000Y-109594508D01*
X149674698Y-109614353D01*
X149561656Y-109671951D01*
X149471948Y-109761659D01*
X149431645Y-109840760D01*
X149394625Y-109875282D01*
X149344075Y-109877932D01*
X149303649Y-109847468D01*
X149292622Y-109818741D01*
X149285646Y-109774698D01*
X149285646Y-109774696D01*
X149228050Y-109661658D01*
X149138342Y-109571950D01*
X149025304Y-109514354D01*
X149025302Y-109514353D01*
X149025301Y-109514353D01*
X148900000Y-109494508D01*
X148774698Y-109514353D01*
X148661656Y-109571951D01*
X148571951Y-109661656D01*
X148514353Y-109774698D01*
X148494508Y-109900000D01*
X138917611Y-109900000D01*
X138903543Y-108844891D01*
X138920219Y-108797102D01*
X138963715Y-108771210D01*
X138998022Y-108772801D01*
X139010337Y-108776349D01*
X139010346Y-108776351D01*
X139191966Y-108807208D01*
X139359200Y-108835623D01*
X139712500Y-108855464D01*
X140065800Y-108835623D01*
X140346641Y-108787906D01*
X140414652Y-108776351D01*
X140414653Y-108776350D01*
X140414657Y-108776350D01*
X140754684Y-108678390D01*
X140791719Y-108663049D01*
X141081590Y-108542982D01*
X141081597Y-108542978D01*
X141081605Y-108542975D01*
X141391308Y-108371808D01*
X141679900Y-108167041D01*
X141943750Y-107931250D01*
X142179541Y-107667400D01*
X142384308Y-107378808D01*
X142555475Y-107069105D01*
X142555478Y-107069097D01*
X142555482Y-107069090D01*
X142690887Y-106742191D01*
X142690888Y-106742189D01*
X142690888Y-106742188D01*
X142690890Y-106742184D01*
X142788850Y-106402157D01*
X142848123Y-106053300D01*
X142867964Y-105700000D01*
X142854762Y-105464932D01*
X142869382Y-105416470D01*
X142911731Y-105388742D01*
X142928647Y-105386783D01*
X159945792Y-105386783D01*
X159993358Y-105404096D01*
G37*
%TD.AperFunction*%
%TD*%
%TA.AperFunction,Conductor*%
%TO.N,+3V3*%
G36*
X179101607Y-92025638D02*
G01*
X179262768Y-92039738D01*
X179275461Y-92041975D01*
X179427045Y-92082592D01*
X179439164Y-92087003D01*
X179581386Y-92153322D01*
X179592556Y-92159772D01*
X179721089Y-92249771D01*
X179730971Y-92258062D01*
X179841933Y-92369023D01*
X179850224Y-92378904D01*
X179940228Y-92507441D01*
X179946678Y-92518612D01*
X180012997Y-92660834D01*
X180017408Y-92672955D01*
X180058021Y-92824523D01*
X180060261Y-92837226D01*
X180074058Y-92994928D01*
X180074357Y-92998337D01*
X180074498Y-93001563D01*
X180074498Y-134412816D01*
X180074502Y-134412853D01*
X180074502Y-134489720D01*
X180105660Y-134666429D01*
X180167031Y-134835046D01*
X180256748Y-134990443D01*
X180256750Y-134990446D01*
X180256751Y-134990447D01*
X180372092Y-135127905D01*
X180509550Y-135243246D01*
X180664949Y-135332966D01*
X180833566Y-135394338D01*
X181010279Y-135425498D01*
X181094926Y-135425498D01*
X190091713Y-135425498D01*
X190098386Y-135425498D01*
X190101607Y-135425638D01*
X190262768Y-135439738D01*
X190275461Y-135441975D01*
X190427045Y-135482592D01*
X190439164Y-135487003D01*
X190581386Y-135553322D01*
X190592556Y-135559772D01*
X190721089Y-135649771D01*
X190730971Y-135658062D01*
X190841933Y-135769023D01*
X190850224Y-135778904D01*
X190940228Y-135907442D01*
X190946678Y-135918613D01*
X190968284Y-135964947D01*
X190985660Y-136002210D01*
X190993067Y-136018093D01*
X191000000Y-136049367D01*
X191000000Y-141750620D01*
X190993067Y-141781894D01*
X190946673Y-141881385D01*
X190940223Y-141892555D01*
X190850224Y-142021088D01*
X190841933Y-142030970D01*
X190730970Y-142141933D01*
X190721088Y-142150224D01*
X190592555Y-142240223D01*
X190581385Y-142246673D01*
X190439164Y-142312992D01*
X190427042Y-142317404D01*
X190275467Y-142358018D01*
X190262765Y-142360257D01*
X190149398Y-142370176D01*
X190101607Y-142374357D01*
X190098386Y-142374498D01*
X190091712Y-142374498D01*
X179294927Y-142374499D01*
X179210275Y-142374499D01*
X179033566Y-142405658D01*
X178864951Y-142467030D01*
X178864949Y-142467030D01*
X178864949Y-142467031D01*
X178709550Y-142556750D01*
X178572092Y-142672092D01*
X178456750Y-142809550D01*
X178397169Y-142912749D01*
X178367030Y-142964951D01*
X178305658Y-143133566D01*
X178274499Y-143310275D01*
X178274499Y-143394927D01*
X178274498Y-144391712D01*
X178274498Y-144391720D01*
X178274497Y-144398397D01*
X178274356Y-144401616D01*
X178260257Y-144562764D01*
X178258018Y-144575467D01*
X178217404Y-144727042D01*
X178212992Y-144739164D01*
X178146673Y-144881385D01*
X178140223Y-144892555D01*
X178050224Y-145021088D01*
X178041933Y-145030970D01*
X177930970Y-145141933D01*
X177921088Y-145150224D01*
X177792555Y-145240223D01*
X177781385Y-145246673D01*
X177639164Y-145312992D01*
X177627042Y-145317404D01*
X177475467Y-145358018D01*
X177462765Y-145360257D01*
X177344701Y-145370586D01*
X177301607Y-145374357D01*
X177298386Y-145374498D01*
X153408715Y-145374498D01*
X153405497Y-145374357D01*
X153337141Y-145368377D01*
X153244338Y-145360259D01*
X153231635Y-145358020D01*
X153080057Y-145317406D01*
X153067941Y-145312996D01*
X152925719Y-145246677D01*
X152914550Y-145240229D01*
X152786009Y-145150224D01*
X152776128Y-145141933D01*
X152665169Y-145030974D01*
X152656878Y-145021093D01*
X152656876Y-145021090D01*
X152566871Y-144892550D01*
X152560427Y-144881390D01*
X152494103Y-144739158D01*
X152489695Y-144727046D01*
X152449079Y-144575465D01*
X152446842Y-144562777D01*
X152432746Y-144401665D01*
X152432606Y-144398444D01*
X152432606Y-144391713D01*
X152429121Y-144380988D01*
X152425499Y-144358121D01*
X152425499Y-143430652D01*
X152425501Y-143430646D01*
X152425501Y-143310283D01*
X152425500Y-143310275D01*
X152416270Y-143257932D01*
X152394341Y-143133566D01*
X152332969Y-142964948D01*
X152243249Y-142809549D01*
X152156743Y-142706455D01*
X152127909Y-142672092D01*
X152127906Y-142672089D01*
X152089801Y-142640116D01*
X151990449Y-142556750D01*
X151835050Y-142467030D01*
X151835048Y-142467029D01*
X151835046Y-142467028D01*
X151666431Y-142405657D01*
X151489722Y-142374499D01*
X151489719Y-142374499D01*
X151405071Y-142374499D01*
X138623550Y-142374499D01*
X138623530Y-142374492D01*
X138503175Y-142374492D01*
X138503167Y-142374493D01*
X138477803Y-142378966D01*
X138427953Y-142370176D01*
X138395416Y-142331399D01*
X138395416Y-142280780D01*
X138412625Y-142253766D01*
X140344218Y-140322174D01*
X140390096Y-140300782D01*
X140396545Y-140300500D01*
X152604086Y-140300500D01*
X152651652Y-140317813D01*
X152676962Y-140361650D01*
X152668172Y-140411500D01*
X152663326Y-140418847D01*
X152599552Y-140504037D01*
X152599551Y-140504038D01*
X152548505Y-140640900D01*
X152548504Y-140640905D01*
X152541999Y-140701408D01*
X152541999Y-141345999D01*
X153354619Y-141345999D01*
X153402185Y-141363312D01*
X153427495Y-141407149D01*
X153425621Y-141440847D01*
X153399999Y-141528106D01*
X153399999Y-141671891D01*
X153425621Y-141759151D01*
X153422411Y-141809668D01*
X153387480Y-141846302D01*
X153354619Y-141853999D01*
X152541999Y-141853999D01*
X152541999Y-142498589D01*
X152548504Y-142559092D01*
X152548505Y-142559097D01*
X152599551Y-142695959D01*
X152599552Y-142695960D01*
X152687095Y-142812902D01*
X152804037Y-142900445D01*
X152804038Y-142900446D01*
X152940900Y-142951492D01*
X152940905Y-142951493D01*
X153001408Y-142957999D01*
X153645999Y-142957999D01*
X153645999Y-142148820D01*
X153663312Y-142101254D01*
X153707149Y-142075944D01*
X153750740Y-142081507D01*
X153757684Y-142084679D01*
X153864236Y-142099999D01*
X153864242Y-142099999D01*
X153935756Y-142099999D01*
X153935762Y-142099999D01*
X154042314Y-142084679D01*
X154049257Y-142081507D01*
X154099717Y-142077495D01*
X154140950Y-142106856D01*
X154153999Y-142148820D01*
X154153999Y-142957999D01*
X154798590Y-142957999D01*
X154859092Y-142951493D01*
X154859097Y-142951492D01*
X154995959Y-142900446D01*
X154995960Y-142900445D01*
X155112902Y-142812902D01*
X155200445Y-142695960D01*
X155200446Y-142695959D01*
X155251492Y-142559097D01*
X155251493Y-142559092D01*
X155257999Y-142498589D01*
X155257999Y-141853999D01*
X154445379Y-141853999D01*
X154397813Y-141836686D01*
X154372503Y-141792849D01*
X154374377Y-141759151D01*
X154399998Y-141671891D01*
X154399999Y-141671890D01*
X154399999Y-141599999D01*
X155434658Y-141599999D01*
X155453975Y-141796132D01*
X155511186Y-141984730D01*
X155576465Y-142106856D01*
X155604089Y-142158537D01*
X155729116Y-142310882D01*
X155881461Y-142435909D01*
X155935546Y-142464818D01*
X156055267Y-142528811D01*
X156055269Y-142528811D01*
X156055272Y-142528813D01*
X156243867Y-142586023D01*
X156439999Y-142605340D01*
X156636131Y-142586023D01*
X156824726Y-142528813D01*
X156998537Y-142435909D01*
X157150882Y-142310882D01*
X157275909Y-142158537D01*
X157368813Y-141984726D01*
X157426023Y-141796131D01*
X157445340Y-141599999D01*
X157974658Y-141599999D01*
X157993975Y-141796132D01*
X158051186Y-141984730D01*
X158116465Y-142106856D01*
X158144089Y-142158537D01*
X158269116Y-142310882D01*
X158421461Y-142435909D01*
X158475546Y-142464818D01*
X158595267Y-142528811D01*
X158595269Y-142528811D01*
X158595272Y-142528813D01*
X158783867Y-142586023D01*
X158979999Y-142605340D01*
X159176131Y-142586023D01*
X159364726Y-142528813D01*
X159538537Y-142435909D01*
X159690882Y-142310882D01*
X159815909Y-142158537D01*
X159908813Y-141984726D01*
X159966023Y-141796131D01*
X159985340Y-141599999D01*
X160514658Y-141599999D01*
X160533975Y-141796132D01*
X160591186Y-141984730D01*
X160656465Y-142106856D01*
X160684089Y-142158537D01*
X160809116Y-142310882D01*
X160961461Y-142435909D01*
X161015546Y-142464818D01*
X161135267Y-142528811D01*
X161135269Y-142528811D01*
X161135272Y-142528813D01*
X161323867Y-142586023D01*
X161519999Y-142605340D01*
X161716131Y-142586023D01*
X161904726Y-142528813D01*
X162078537Y-142435909D01*
X162230882Y-142310882D01*
X162355909Y-142158537D01*
X162448813Y-141984726D01*
X162506023Y-141796131D01*
X162525340Y-141599999D01*
X163054658Y-141599999D01*
X163073975Y-141796132D01*
X163131186Y-141984730D01*
X163196465Y-142106856D01*
X163224089Y-142158537D01*
X163349116Y-142310882D01*
X163501461Y-142435909D01*
X163555546Y-142464818D01*
X163675267Y-142528811D01*
X163675269Y-142528811D01*
X163675272Y-142528813D01*
X163863867Y-142586023D01*
X164059999Y-142605340D01*
X164256131Y-142586023D01*
X164444726Y-142528813D01*
X164618537Y-142435909D01*
X164770882Y-142310882D01*
X164895909Y-142158537D01*
X164988813Y-141984726D01*
X165046023Y-141796131D01*
X165065340Y-141599999D01*
X165594658Y-141599999D01*
X165613975Y-141796132D01*
X165671186Y-141984730D01*
X165736465Y-142106856D01*
X165764089Y-142158537D01*
X165889116Y-142310882D01*
X166041461Y-142435909D01*
X166095546Y-142464818D01*
X166215267Y-142528811D01*
X166215269Y-142528811D01*
X166215272Y-142528813D01*
X166403867Y-142586023D01*
X166599999Y-142605340D01*
X166796131Y-142586023D01*
X166984726Y-142528813D01*
X167158537Y-142435909D01*
X167310882Y-142310882D01*
X167435909Y-142158537D01*
X167528813Y-141984726D01*
X167586023Y-141796131D01*
X167605340Y-141599999D01*
X168134658Y-141599999D01*
X168153975Y-141796132D01*
X168211186Y-141984730D01*
X168276465Y-142106856D01*
X168304089Y-142158537D01*
X168429116Y-142310882D01*
X168581461Y-142435909D01*
X168635546Y-142464818D01*
X168755267Y-142528811D01*
X168755269Y-142528811D01*
X168755272Y-142528813D01*
X168943867Y-142586023D01*
X169139999Y-142605340D01*
X169336131Y-142586023D01*
X169524726Y-142528813D01*
X169698537Y-142435909D01*
X169850882Y-142310882D01*
X169975909Y-142158537D01*
X170068813Y-141984726D01*
X170126023Y-141796131D01*
X170145340Y-141599999D01*
X170674658Y-141599999D01*
X170693975Y-141796132D01*
X170751186Y-141984730D01*
X170816465Y-142106856D01*
X170844089Y-142158537D01*
X170969116Y-142310882D01*
X171121461Y-142435909D01*
X171175546Y-142464818D01*
X171295267Y-142528811D01*
X171295269Y-142528811D01*
X171295272Y-142528813D01*
X171483867Y-142586023D01*
X171679999Y-142605340D01*
X171876131Y-142586023D01*
X172064726Y-142528813D01*
X172238537Y-142435909D01*
X172390882Y-142310882D01*
X172515909Y-142158537D01*
X172608813Y-141984726D01*
X172666023Y-141796131D01*
X172685340Y-141599999D01*
X173214658Y-141599999D01*
X173233975Y-141796132D01*
X173291186Y-141984730D01*
X173356465Y-142106856D01*
X173384089Y-142158537D01*
X173509116Y-142310882D01*
X173661461Y-142435909D01*
X173715546Y-142464818D01*
X173835267Y-142528811D01*
X173835269Y-142528811D01*
X173835272Y-142528813D01*
X174023867Y-142586023D01*
X174219999Y-142605340D01*
X174416131Y-142586023D01*
X174604726Y-142528813D01*
X174778537Y-142435909D01*
X174930882Y-142310882D01*
X175055909Y-142158537D01*
X175148813Y-141984726D01*
X175206023Y-141796131D01*
X175225340Y-141599999D01*
X175754658Y-141599999D01*
X175773975Y-141796132D01*
X175831186Y-141984730D01*
X175896465Y-142106856D01*
X175924089Y-142158537D01*
X176049116Y-142310882D01*
X176201461Y-142435909D01*
X176255546Y-142464818D01*
X176375267Y-142528811D01*
X176375269Y-142528811D01*
X176375272Y-142528813D01*
X176563867Y-142586023D01*
X176759999Y-142605340D01*
X176956131Y-142586023D01*
X177144726Y-142528813D01*
X177318537Y-142435909D01*
X177470882Y-142310882D01*
X177595909Y-142158537D01*
X177688813Y-141984726D01*
X177746023Y-141796131D01*
X177765340Y-141599999D01*
X177746023Y-141403867D01*
X177688813Y-141215272D01*
X177688811Y-141215269D01*
X177688811Y-141215267D01*
X177627198Y-141099999D01*
X177595909Y-141041461D01*
X177470882Y-140889116D01*
X177318537Y-140764089D01*
X177308596Y-140758775D01*
X177144730Y-140671186D01*
X176956132Y-140613975D01*
X176759999Y-140594658D01*
X176563865Y-140613975D01*
X176375267Y-140671186D01*
X176201462Y-140764088D01*
X176049116Y-140889116D01*
X175924088Y-141041462D01*
X175831186Y-141215267D01*
X175773975Y-141403865D01*
X175754658Y-141599999D01*
X175225340Y-141599999D01*
X175206023Y-141403867D01*
X175148813Y-141215272D01*
X175148811Y-141215269D01*
X175148811Y-141215267D01*
X175087198Y-141099999D01*
X175055909Y-141041461D01*
X174930882Y-140889116D01*
X174778537Y-140764089D01*
X174768596Y-140758775D01*
X174604730Y-140671186D01*
X174416132Y-140613975D01*
X174269151Y-140599499D01*
X174219999Y-140594658D01*
X174219998Y-140594658D01*
X174023865Y-140613975D01*
X173835267Y-140671186D01*
X173661462Y-140764088D01*
X173509116Y-140889116D01*
X173384088Y-141041462D01*
X173291186Y-141215267D01*
X173233975Y-141403865D01*
X173214658Y-141599999D01*
X172685340Y-141599999D01*
X172666023Y-141403867D01*
X172608813Y-141215272D01*
X172608811Y-141215269D01*
X172608811Y-141215267D01*
X172547198Y-141099999D01*
X172515909Y-141041461D01*
X172390882Y-140889116D01*
X172238537Y-140764089D01*
X172228596Y-140758775D01*
X172064730Y-140671186D01*
X171876132Y-140613975D01*
X171679999Y-140594658D01*
X171483865Y-140613975D01*
X171295267Y-140671186D01*
X171121462Y-140764088D01*
X170969116Y-140889116D01*
X170844088Y-141041462D01*
X170751186Y-141215267D01*
X170693975Y-141403865D01*
X170674658Y-141599999D01*
X170145340Y-141599999D01*
X170126023Y-141403867D01*
X170068813Y-141215272D01*
X170068811Y-141215269D01*
X170068811Y-141215267D01*
X170007198Y-141099999D01*
X169975909Y-141041461D01*
X169850882Y-140889116D01*
X169698537Y-140764089D01*
X169688596Y-140758775D01*
X169524730Y-140671186D01*
X169336132Y-140613975D01*
X169189151Y-140599499D01*
X169139999Y-140594658D01*
X169139998Y-140594658D01*
X168943865Y-140613975D01*
X168755267Y-140671186D01*
X168581462Y-140764088D01*
X168429116Y-140889116D01*
X168304088Y-141041462D01*
X168211186Y-141215267D01*
X168153975Y-141403865D01*
X168134658Y-141599999D01*
X167605340Y-141599999D01*
X167586023Y-141403867D01*
X167528813Y-141215272D01*
X167528811Y-141215269D01*
X167528811Y-141215267D01*
X167467198Y-141099999D01*
X167435909Y-141041461D01*
X167310882Y-140889116D01*
X167158537Y-140764089D01*
X167148596Y-140758775D01*
X166984730Y-140671186D01*
X166796132Y-140613975D01*
X166599999Y-140594658D01*
X166403865Y-140613975D01*
X166215267Y-140671186D01*
X166041462Y-140764088D01*
X165889116Y-140889116D01*
X165764088Y-141041462D01*
X165671186Y-141215267D01*
X165613975Y-141403865D01*
X165594658Y-141599999D01*
X165065340Y-141599999D01*
X165046023Y-141403867D01*
X164988813Y-141215272D01*
X164988811Y-141215269D01*
X164988811Y-141215267D01*
X164927198Y-141099999D01*
X164895909Y-141041461D01*
X164770882Y-140889116D01*
X164618537Y-140764089D01*
X164608596Y-140758775D01*
X164444730Y-140671186D01*
X164256132Y-140613975D01*
X164109151Y-140599499D01*
X164059999Y-140594658D01*
X164059998Y-140594658D01*
X163863865Y-140613975D01*
X163675267Y-140671186D01*
X163501462Y-140764088D01*
X163349116Y-140889116D01*
X163224088Y-141041462D01*
X163131186Y-141215267D01*
X163073975Y-141403865D01*
X163054658Y-141599999D01*
X162525340Y-141599999D01*
X162506023Y-141403867D01*
X162448813Y-141215272D01*
X162448811Y-141215269D01*
X162448811Y-141215267D01*
X162387198Y-141099999D01*
X162355909Y-141041461D01*
X162230882Y-140889116D01*
X162078537Y-140764089D01*
X162068596Y-140758775D01*
X161904730Y-140671186D01*
X161716132Y-140613975D01*
X161519999Y-140594658D01*
X161323865Y-140613975D01*
X161135267Y-140671186D01*
X160961462Y-140764088D01*
X160809116Y-140889116D01*
X160684088Y-141041462D01*
X160591186Y-141215267D01*
X160533975Y-141403865D01*
X160514658Y-141599999D01*
X159985340Y-141599999D01*
X159966023Y-141403867D01*
X159908813Y-141215272D01*
X159908811Y-141215269D01*
X159908811Y-141215267D01*
X159847198Y-141099999D01*
X159815909Y-141041461D01*
X159690882Y-140889116D01*
X159538537Y-140764089D01*
X159528596Y-140758775D01*
X159364730Y-140671186D01*
X159176132Y-140613975D01*
X159029151Y-140599499D01*
X158979999Y-140594658D01*
X158979998Y-140594658D01*
X158783865Y-140613975D01*
X158595267Y-140671186D01*
X158421462Y-140764088D01*
X158269116Y-140889116D01*
X158144088Y-141041462D01*
X158051186Y-141215267D01*
X157993975Y-141403865D01*
X157974658Y-141599999D01*
X157445340Y-141599999D01*
X157426023Y-141403867D01*
X157368813Y-141215272D01*
X157368811Y-141215269D01*
X157368811Y-141215267D01*
X157307198Y-141099999D01*
X157275909Y-141041461D01*
X157150882Y-140889116D01*
X156998537Y-140764089D01*
X156988596Y-140758775D01*
X156824730Y-140671186D01*
X156636132Y-140613975D01*
X156439999Y-140594658D01*
X156243865Y-140613975D01*
X156055267Y-140671186D01*
X155881462Y-140764088D01*
X155729116Y-140889116D01*
X155604088Y-141041462D01*
X155511186Y-141215267D01*
X155453975Y-141403865D01*
X155434658Y-141599999D01*
X154399999Y-141599999D01*
X154399999Y-141528107D01*
X154399998Y-141528106D01*
X154374377Y-141440847D01*
X154377587Y-141390330D01*
X154412518Y-141353696D01*
X154445379Y-141345999D01*
X155257999Y-141345999D01*
X155257999Y-140701408D01*
X155251493Y-140640905D01*
X155251492Y-140640900D01*
X155200446Y-140504038D01*
X155200445Y-140504037D01*
X155112902Y-140387095D01*
X154995960Y-140299552D01*
X154995959Y-140299551D01*
X154859097Y-140248505D01*
X154859092Y-140248504D01*
X154796618Y-140241787D01*
X154796695Y-140241065D01*
X154752362Y-140222160D01*
X154729457Y-140177021D01*
X154740925Y-140127718D01*
X154750589Y-140115803D01*
X160805484Y-134060909D01*
X160805485Y-134060907D01*
X160809698Y-134056694D01*
X160809702Y-134056689D01*
X160828050Y-134038342D01*
X160839900Y-134015082D01*
X160845954Y-134005205D01*
X160861296Y-133984089D01*
X160869359Y-133959272D01*
X160873802Y-133948548D01*
X160885646Y-133925304D01*
X160889726Y-133899536D01*
X160892438Y-133888245D01*
X160900499Y-133863436D01*
X160900500Y-133863434D01*
X160900500Y-133600000D01*
X166694508Y-133600000D01*
X166714353Y-133725301D01*
X166714353Y-133725302D01*
X166714354Y-133725304D01*
X166771950Y-133838342D01*
X166861658Y-133928050D01*
X166974696Y-133985646D01*
X167100000Y-134005492D01*
X167225304Y-133985646D01*
X167338342Y-133928050D01*
X167428050Y-133838342D01*
X167485646Y-133725304D01*
X167505492Y-133600000D01*
X167485646Y-133474696D01*
X167447586Y-133400000D01*
X171394508Y-133400000D01*
X171414353Y-133525301D01*
X171414353Y-133525302D01*
X171414354Y-133525304D01*
X171471950Y-133638342D01*
X171561658Y-133728050D01*
X171674696Y-133785646D01*
X171800000Y-133805492D01*
X171925304Y-133785646D01*
X172038342Y-133728050D01*
X172128050Y-133638342D01*
X172185646Y-133525304D01*
X172205492Y-133400000D01*
X172594508Y-133400000D01*
X172614353Y-133525301D01*
X172614353Y-133525302D01*
X172614354Y-133525304D01*
X172671950Y-133638342D01*
X172761658Y-133728050D01*
X172874696Y-133785646D01*
X173000000Y-133805492D01*
X173125304Y-133785646D01*
X173238342Y-133728050D01*
X173328050Y-133638342D01*
X173385646Y-133525304D01*
X173405492Y-133400000D01*
X173994508Y-133400000D01*
X174014353Y-133525301D01*
X174014353Y-133525302D01*
X174014354Y-133525304D01*
X174071950Y-133638342D01*
X174161658Y-133728050D01*
X174274696Y-133785646D01*
X174400000Y-133805492D01*
X174525304Y-133785646D01*
X174638342Y-133728050D01*
X174728050Y-133638342D01*
X174785646Y-133525304D01*
X174805492Y-133400000D01*
X174785646Y-133274696D01*
X174728050Y-133161658D01*
X174638342Y-133071950D01*
X174525304Y-133014354D01*
X174525302Y-133014353D01*
X174525301Y-133014353D01*
X174400000Y-132994508D01*
X174274698Y-133014353D01*
X174161656Y-133071951D01*
X174071951Y-133161656D01*
X174014353Y-133274698D01*
X173994508Y-133400000D01*
X173405492Y-133400000D01*
X173385646Y-133274696D01*
X173328050Y-133161658D01*
X173238342Y-133071950D01*
X173125304Y-133014354D01*
X173125302Y-133014353D01*
X173125301Y-133014353D01*
X173000000Y-132994508D01*
X172874698Y-133014353D01*
X172761656Y-133071951D01*
X172671951Y-133161656D01*
X172614353Y-133274698D01*
X172594508Y-133400000D01*
X172205492Y-133400000D01*
X172185646Y-133274696D01*
X172128050Y-133161658D01*
X172038342Y-133071950D01*
X171925304Y-133014354D01*
X171925302Y-133014353D01*
X171925301Y-133014353D01*
X171800000Y-132994508D01*
X171674698Y-133014353D01*
X171561656Y-133071951D01*
X171471951Y-133161656D01*
X171414353Y-133274698D01*
X171394508Y-133400000D01*
X167447586Y-133400000D01*
X167428050Y-133361658D01*
X167338342Y-133271950D01*
X167225304Y-133214354D01*
X167225302Y-133214353D01*
X167225301Y-133214353D01*
X167100000Y-133194508D01*
X166974698Y-133214353D01*
X166861656Y-133271951D01*
X166771951Y-133361656D01*
X166714353Y-133474698D01*
X166694508Y-133600000D01*
X160900500Y-133600000D01*
X160900500Y-129600000D01*
X173894508Y-129600000D01*
X173914353Y-129725301D01*
X173914353Y-129725302D01*
X173914354Y-129725304D01*
X173971950Y-129838342D01*
X174061658Y-129928050D01*
X174174696Y-129985646D01*
X174300000Y-130005492D01*
X174425304Y-129985646D01*
X174538342Y-129928050D01*
X174628050Y-129838342D01*
X174685646Y-129725304D01*
X174705492Y-129600000D01*
X174685646Y-129474696D01*
X174628050Y-129361658D01*
X174538342Y-129271950D01*
X174425304Y-129214354D01*
X174425302Y-129214353D01*
X174425301Y-129214353D01*
X174300000Y-129194508D01*
X174174698Y-129214353D01*
X174061656Y-129271951D01*
X173971951Y-129361656D01*
X173914353Y-129474698D01*
X173894508Y-129600000D01*
X160900500Y-129600000D01*
X160900500Y-128945924D01*
X160917813Y-128898358D01*
X160961650Y-128873048D01*
X161011500Y-128881838D01*
X161044037Y-128920615D01*
X161047376Y-128933074D01*
X161048634Y-128940211D01*
X161118121Y-129101303D01*
X161118122Y-129101304D01*
X161222889Y-129242030D01*
X161222895Y-129242035D01*
X161357283Y-129354801D01*
X161357282Y-129354801D01*
X161370936Y-129361658D01*
X161514066Y-129433540D01*
X161684778Y-129474000D01*
X161816208Y-129474000D01*
X161946754Y-129458741D01*
X162111616Y-129398737D01*
X162258195Y-129302330D01*
X162378591Y-129174718D01*
X162466311Y-129022781D01*
X162516629Y-128854710D01*
X162526830Y-128679565D01*
X162496364Y-128506789D01*
X162426876Y-128345696D01*
X162322109Y-128204970D01*
X162295271Y-128182450D01*
X162187714Y-128092198D01*
X162187715Y-128092198D01*
X162079866Y-128038035D01*
X167956473Y-128038035D01*
X167976318Y-128163336D01*
X167976318Y-128163337D01*
X167976319Y-128163339D01*
X168033915Y-128276377D01*
X168123623Y-128366085D01*
X168236661Y-128423681D01*
X168361965Y-128443527D01*
X168487269Y-128423681D01*
X168600307Y-128366085D01*
X168690015Y-128276377D01*
X168747611Y-128163339D01*
X168767457Y-128038035D01*
X168747611Y-127912731D01*
X168690015Y-127799693D01*
X168600307Y-127709985D01*
X168487269Y-127652389D01*
X168487267Y-127652388D01*
X168487266Y-127652388D01*
X168361965Y-127632543D01*
X168236663Y-127652388D01*
X168123621Y-127709986D01*
X168033916Y-127799691D01*
X167976318Y-127912733D01*
X167956473Y-128038035D01*
X162079866Y-128038035D01*
X162030933Y-128013460D01*
X162030929Y-128013459D01*
X161860220Y-127973000D01*
X161728790Y-127973000D01*
X161598244Y-127988259D01*
X161598239Y-127988260D01*
X161433383Y-128048262D01*
X161286801Y-128144670D01*
X161272590Y-128159733D01*
X161227355Y-128182450D01*
X161178101Y-128170775D01*
X161147874Y-128130171D01*
X161145306Y-128117869D01*
X161136238Y-128043192D01*
X161136238Y-128043191D01*
X161136237Y-128043182D01*
X161115408Y-127988260D01*
X161080221Y-127895478D01*
X160990483Y-127765470D01*
X160939724Y-127720502D01*
X160872240Y-127660717D01*
X160792880Y-127619065D01*
X160732366Y-127587304D01*
X160578987Y-127549500D01*
X160578985Y-127549500D01*
X160421015Y-127549500D01*
X160421012Y-127549500D01*
X160267633Y-127587304D01*
X160127761Y-127660716D01*
X160009516Y-127765470D01*
X159919779Y-127895478D01*
X159919778Y-127895478D01*
X159863764Y-128043177D01*
X159863761Y-128043191D01*
X159844722Y-128199996D01*
X159844722Y-128200003D01*
X159863761Y-128356808D01*
X159863764Y-128356822D01*
X159919778Y-128504521D01*
X160009516Y-128634529D01*
X160009517Y-128634530D01*
X160051922Y-128672097D01*
X160074571Y-128692162D01*
X160098694Y-128736663D01*
X160099500Y-128747552D01*
X160099500Y-133603454D01*
X160082187Y-133651020D01*
X160077826Y-133655780D01*
X154255781Y-139477826D01*
X154209905Y-139499218D01*
X154203455Y-139499500D01*
X140136565Y-139499500D01*
X140111749Y-139507562D01*
X140100467Y-139510270D01*
X140074700Y-139514352D01*
X140074695Y-139514353D01*
X140051445Y-139526200D01*
X140040728Y-139530639D01*
X140027344Y-139534988D01*
X140015909Y-139538704D01*
X139994797Y-139554042D01*
X139984905Y-139560103D01*
X139975183Y-139565057D01*
X139961659Y-139571949D01*
X139961657Y-139571950D01*
X139961658Y-139571950D01*
X139939094Y-139594513D01*
X139939091Y-139594516D01*
X139939086Y-139594520D01*
X137105782Y-142427825D01*
X137059906Y-142449217D01*
X137053456Y-142449499D01*
X136848792Y-142449499D01*
X136801226Y-142432186D01*
X136775916Y-142388349D01*
X136784706Y-142338499D01*
X136801844Y-142318298D01*
X136810882Y-142310882D01*
X136935909Y-142158537D01*
X137028813Y-141984726D01*
X137086023Y-141796131D01*
X137105340Y-141599999D01*
X137086023Y-141403867D01*
X137028813Y-141215272D01*
X137028811Y-141215269D01*
X137028811Y-141215267D01*
X136967198Y-141099999D01*
X136935909Y-141041461D01*
X136810882Y-140889116D01*
X136658537Y-140764089D01*
X136648596Y-140758775D01*
X136484730Y-140671186D01*
X136296132Y-140613975D01*
X136149151Y-140599499D01*
X136099999Y-140594658D01*
X136099998Y-140594658D01*
X135903865Y-140613975D01*
X135715267Y-140671186D01*
X135541462Y-140764088D01*
X135389116Y-140889116D01*
X135264088Y-141041462D01*
X135171186Y-141215267D01*
X135113975Y-141403865D01*
X135094658Y-141599999D01*
X135113975Y-141796132D01*
X135171186Y-141984730D01*
X135236465Y-142106856D01*
X135264089Y-142158537D01*
X135389116Y-142310882D01*
X135398152Y-142318297D01*
X135423937Y-142361855D01*
X135415692Y-142411798D01*
X135377272Y-142444756D01*
X135351206Y-142449499D01*
X134308792Y-142449499D01*
X134261226Y-142432186D01*
X134235916Y-142388349D01*
X134244706Y-142338499D01*
X134261844Y-142318298D01*
X134270882Y-142310882D01*
X134395909Y-142158537D01*
X134488813Y-141984726D01*
X134546023Y-141796131D01*
X134565340Y-141599999D01*
X134546023Y-141403867D01*
X134488813Y-141215272D01*
X134488811Y-141215269D01*
X134488811Y-141215267D01*
X134427198Y-141099999D01*
X134395909Y-141041461D01*
X134270882Y-140889116D01*
X134118537Y-140764089D01*
X134108596Y-140758775D01*
X133944730Y-140671186D01*
X133756132Y-140613975D01*
X133559999Y-140594658D01*
X133363865Y-140613975D01*
X133175267Y-140671186D01*
X133001462Y-140764088D01*
X132849116Y-140889116D01*
X132724088Y-141041462D01*
X132631186Y-141215267D01*
X132573975Y-141403865D01*
X132554658Y-141599999D01*
X132573975Y-141796132D01*
X132631186Y-141984730D01*
X132696465Y-142106856D01*
X132724089Y-142158537D01*
X132849116Y-142310882D01*
X132858152Y-142318297D01*
X132883937Y-142361855D01*
X132875692Y-142411798D01*
X132837272Y-142444756D01*
X132811206Y-142449499D01*
X131768792Y-142449499D01*
X131721226Y-142432186D01*
X131695916Y-142388349D01*
X131704706Y-142338499D01*
X131721844Y-142318298D01*
X131730882Y-142310882D01*
X131855909Y-142158537D01*
X131948813Y-141984726D01*
X132006023Y-141796131D01*
X132025340Y-141599999D01*
X132006023Y-141403867D01*
X131948813Y-141215272D01*
X131948811Y-141215269D01*
X131948811Y-141215267D01*
X131887198Y-141099999D01*
X131855909Y-141041461D01*
X131730882Y-140889116D01*
X131578537Y-140764089D01*
X131568596Y-140758775D01*
X131404730Y-140671186D01*
X131216132Y-140613975D01*
X131069151Y-140599499D01*
X131019999Y-140594658D01*
X131019998Y-140594658D01*
X130823865Y-140613975D01*
X130635267Y-140671186D01*
X130461462Y-140764088D01*
X130309116Y-140889116D01*
X130184088Y-141041462D01*
X130091186Y-141215267D01*
X130033975Y-141403865D01*
X130014658Y-141599999D01*
X130033975Y-141796132D01*
X130091186Y-141984730D01*
X130156465Y-142106856D01*
X130184089Y-142158537D01*
X130309116Y-142310882D01*
X130318152Y-142318297D01*
X130343937Y-142361855D01*
X130335692Y-142411798D01*
X130297272Y-142444756D01*
X130271206Y-142449499D01*
X129228792Y-142449499D01*
X129181226Y-142432186D01*
X129155916Y-142388349D01*
X129164706Y-142338499D01*
X129181844Y-142318298D01*
X129190882Y-142310882D01*
X129315909Y-142158537D01*
X129408813Y-141984726D01*
X129466023Y-141796131D01*
X129485340Y-141599999D01*
X129466023Y-141403867D01*
X129408813Y-141215272D01*
X129408811Y-141215269D01*
X129408811Y-141215267D01*
X129347198Y-141099999D01*
X129315909Y-141041461D01*
X129190882Y-140889116D01*
X129038537Y-140764089D01*
X129028596Y-140758775D01*
X128864730Y-140671186D01*
X128676132Y-140613975D01*
X128479999Y-140594658D01*
X128283865Y-140613975D01*
X128095267Y-140671186D01*
X127921462Y-140764088D01*
X127769116Y-140889116D01*
X127644088Y-141041462D01*
X127551186Y-141215267D01*
X127493975Y-141403865D01*
X127474658Y-141599999D01*
X127493975Y-141796132D01*
X127551186Y-141984730D01*
X127616465Y-142106856D01*
X127644089Y-142158537D01*
X127769116Y-142310882D01*
X127778152Y-142318297D01*
X127803937Y-142361855D01*
X127795692Y-142411798D01*
X127757272Y-142444756D01*
X127731206Y-142449499D01*
X126688792Y-142449499D01*
X126641226Y-142432186D01*
X126615916Y-142388349D01*
X126624706Y-142338499D01*
X126641844Y-142318298D01*
X126650882Y-142310882D01*
X126775909Y-142158537D01*
X126868813Y-141984726D01*
X126926023Y-141796131D01*
X126945340Y-141599999D01*
X126926023Y-141403867D01*
X126868813Y-141215272D01*
X126868811Y-141215269D01*
X126868811Y-141215267D01*
X126807198Y-141099999D01*
X126775909Y-141041461D01*
X126650882Y-140889116D01*
X126498537Y-140764089D01*
X126488596Y-140758775D01*
X126324730Y-140671186D01*
X126136132Y-140613975D01*
X125989151Y-140599499D01*
X125939999Y-140594658D01*
X125939998Y-140594658D01*
X125743865Y-140613975D01*
X125555267Y-140671186D01*
X125381462Y-140764088D01*
X125229116Y-140889116D01*
X125104088Y-141041462D01*
X125011186Y-141215267D01*
X124953975Y-141403865D01*
X124934658Y-141599999D01*
X124953975Y-141796132D01*
X125011186Y-141984730D01*
X125076465Y-142106856D01*
X125104089Y-142158537D01*
X125229116Y-142310882D01*
X125238152Y-142318297D01*
X125263937Y-142361855D01*
X125255692Y-142411798D01*
X125217272Y-142444756D01*
X125191206Y-142449499D01*
X124148792Y-142449499D01*
X124101226Y-142432186D01*
X124075916Y-142388349D01*
X124084706Y-142338499D01*
X124101844Y-142318298D01*
X124110882Y-142310882D01*
X124235909Y-142158537D01*
X124328813Y-141984726D01*
X124386023Y-141796131D01*
X124405340Y-141599999D01*
X124386023Y-141403867D01*
X124328813Y-141215272D01*
X124328811Y-141215269D01*
X124328811Y-141215267D01*
X124267198Y-141099999D01*
X124235909Y-141041461D01*
X124110882Y-140889116D01*
X123958537Y-140764089D01*
X123948596Y-140758775D01*
X123784730Y-140671186D01*
X123596132Y-140613975D01*
X123399999Y-140594658D01*
X123203865Y-140613975D01*
X123015267Y-140671186D01*
X122841462Y-140764088D01*
X122689116Y-140889116D01*
X122564088Y-141041462D01*
X122471186Y-141215267D01*
X122413975Y-141403865D01*
X122394658Y-141599999D01*
X122413975Y-141796132D01*
X122471186Y-141984730D01*
X122536465Y-142106856D01*
X122564089Y-142158537D01*
X122689116Y-142310882D01*
X122698152Y-142318297D01*
X122723937Y-142361855D01*
X122715692Y-142411798D01*
X122677272Y-142444756D01*
X122651206Y-142449499D01*
X121608792Y-142449499D01*
X121561226Y-142432186D01*
X121535916Y-142388349D01*
X121544706Y-142338499D01*
X121561844Y-142318298D01*
X121570882Y-142310882D01*
X121695909Y-142158537D01*
X121788813Y-141984726D01*
X121846023Y-141796131D01*
X121865340Y-141599999D01*
X121846023Y-141403867D01*
X121788813Y-141215272D01*
X121788811Y-141215269D01*
X121788811Y-141215267D01*
X121727198Y-141099999D01*
X121695909Y-141041461D01*
X121570882Y-140889116D01*
X121418537Y-140764089D01*
X121408596Y-140758775D01*
X121244730Y-140671186D01*
X121056132Y-140613975D01*
X120909151Y-140599499D01*
X120859999Y-140594658D01*
X120859998Y-140594658D01*
X120663865Y-140613975D01*
X120475267Y-140671186D01*
X120301462Y-140764088D01*
X120149116Y-140889116D01*
X120024088Y-141041462D01*
X119931186Y-141215267D01*
X119873975Y-141403865D01*
X119854658Y-141599999D01*
X119873975Y-141796132D01*
X119931186Y-141984730D01*
X119996465Y-142106856D01*
X120024089Y-142158537D01*
X120149116Y-142310882D01*
X120158152Y-142318297D01*
X120183937Y-142361855D01*
X120175692Y-142411798D01*
X120137272Y-142444756D01*
X120111206Y-142449499D01*
X119766544Y-142449499D01*
X119718978Y-142432186D01*
X119714218Y-142427825D01*
X119342173Y-142055780D01*
X119320781Y-142009904D01*
X119320499Y-142003454D01*
X119320499Y-140735179D01*
X119313781Y-140701408D01*
X119311766Y-140691277D01*
X119278503Y-140641495D01*
X119228721Y-140608232D01*
X119184819Y-140599499D01*
X119184818Y-140599499D01*
X118794499Y-140599499D01*
X118746933Y-140582186D01*
X118721623Y-140538349D01*
X118720499Y-140525499D01*
X118720499Y-135763868D01*
X135694508Y-135763868D01*
X135714353Y-135889169D01*
X135714353Y-135889170D01*
X135714354Y-135889172D01*
X135771950Y-136002210D01*
X135861658Y-136091918D01*
X135974696Y-136149514D01*
X136100000Y-136169360D01*
X136225304Y-136149514D01*
X136338342Y-136091918D01*
X136428050Y-136002210D01*
X136485646Y-135889172D01*
X136505492Y-135763868D01*
X138244508Y-135763868D01*
X138264353Y-135889169D01*
X138264353Y-135889170D01*
X138264354Y-135889172D01*
X138321950Y-136002210D01*
X138411658Y-136091918D01*
X138524696Y-136149514D01*
X138650000Y-136169360D01*
X138775304Y-136149514D01*
X138888342Y-136091918D01*
X138978050Y-136002210D01*
X139035646Y-135889172D01*
X139055492Y-135763868D01*
X139035646Y-135638564D01*
X138978050Y-135525526D01*
X138888342Y-135435818D01*
X138775304Y-135378222D01*
X138775302Y-135378221D01*
X138775301Y-135378221D01*
X138650000Y-135358376D01*
X138524698Y-135378221D01*
X138411656Y-135435819D01*
X138321951Y-135525524D01*
X138264353Y-135638566D01*
X138244508Y-135763868D01*
X136505492Y-135763868D01*
X136485646Y-135638564D01*
X136428050Y-135525526D01*
X136338342Y-135435818D01*
X136225304Y-135378222D01*
X136225302Y-135378221D01*
X136225301Y-135378221D01*
X136100000Y-135358376D01*
X135974698Y-135378221D01*
X135861656Y-135435819D01*
X135771951Y-135525524D01*
X135714353Y-135638566D01*
X135694508Y-135763868D01*
X118720499Y-135763868D01*
X118720499Y-132266907D01*
X152170508Y-132266907D01*
X152190353Y-132392208D01*
X152190353Y-132392209D01*
X152190354Y-132392211D01*
X152247950Y-132505249D01*
X152337658Y-132594957D01*
X152450696Y-132652553D01*
X152576000Y-132672399D01*
X152576076Y-132672399D01*
X152576134Y-132672420D01*
X152581752Y-132673310D01*
X152581579Y-132674401D01*
X152623642Y-132689712D01*
X152648952Y-132733549D01*
X152649165Y-132757975D01*
X152642509Y-132799999D01*
X152662354Y-132925301D01*
X152662354Y-132925302D01*
X152662355Y-132925304D01*
X152719951Y-133038342D01*
X152809659Y-133128050D01*
X152922697Y-133185646D01*
X153048001Y-133205492D01*
X153173305Y-133185646D01*
X153286343Y-133128050D01*
X153376051Y-133038342D01*
X153433647Y-132925304D01*
X153453493Y-132800000D01*
X153442591Y-132731167D01*
X153452250Y-132681479D01*
X153491588Y-132649624D01*
X153519676Y-132647166D01*
X153519676Y-132646225D01*
X153522789Y-132646225D01*
X153524270Y-132646764D01*
X153527258Y-132646503D01*
X153531254Y-132647136D01*
X153530928Y-132649187D01*
X153570355Y-132663538D01*
X153595665Y-132707375D01*
X153595878Y-132708649D01*
X153614353Y-132825301D01*
X153614353Y-132825302D01*
X153614354Y-132825304D01*
X153671950Y-132938342D01*
X153761658Y-133028050D01*
X153874696Y-133085646D01*
X154000000Y-133105492D01*
X154125304Y-133085646D01*
X154238342Y-133028050D01*
X154328050Y-132938342D01*
X154385646Y-132825304D01*
X154405492Y-132700000D01*
X154388184Y-132590724D01*
X154397842Y-132541038D01*
X154437181Y-132509182D01*
X154472852Y-132506062D01*
X154473351Y-132506140D01*
X154475574Y-132506493D01*
X154502902Y-132502164D01*
X154552590Y-132511822D01*
X154584446Y-132551160D01*
X154587567Y-132563676D01*
X154598181Y-132630692D01*
X154598181Y-132630693D01*
X154598182Y-132630695D01*
X154655778Y-132743733D01*
X154745486Y-132833441D01*
X154858524Y-132891037D01*
X154983828Y-132910883D01*
X155109132Y-132891037D01*
X155222170Y-132833441D01*
X155311878Y-132743733D01*
X155335337Y-132697690D01*
X155372355Y-132663169D01*
X155422905Y-132660519D01*
X155434862Y-132665349D01*
X155474696Y-132685646D01*
X155600000Y-132705492D01*
X155725304Y-132685646D01*
X155838342Y-132628050D01*
X155928050Y-132538342D01*
X155985646Y-132425304D01*
X156005492Y-132300000D01*
X155985646Y-132174696D01*
X155928050Y-132061658D01*
X155838342Y-131971950D01*
X155725304Y-131914354D01*
X155725302Y-131914353D01*
X155725301Y-131914353D01*
X155600000Y-131894508D01*
X155474698Y-131914353D01*
X155361656Y-131971951D01*
X155271950Y-132061657D01*
X155248490Y-132107700D01*
X155211470Y-132142222D01*
X155160920Y-132144870D01*
X155148962Y-132140039D01*
X155109130Y-132119744D01*
X155109132Y-132119744D01*
X154983828Y-132099899D01*
X154983827Y-132099899D01*
X154956498Y-132104227D01*
X154906809Y-132094568D01*
X154874954Y-132055229D01*
X154871834Y-132042714D01*
X154865447Y-132002389D01*
X154861220Y-131975697D01*
X154803624Y-131862659D01*
X154713916Y-131772951D01*
X154600878Y-131715355D01*
X154600876Y-131715354D01*
X154600875Y-131715354D01*
X154475574Y-131695509D01*
X154350272Y-131715354D01*
X154237230Y-131772952D01*
X154147525Y-131862657D01*
X154147523Y-131862659D01*
X154147524Y-131862659D01*
X154108699Y-131938858D01*
X154089927Y-131975699D01*
X154070082Y-132101000D01*
X154070082Y-132101001D01*
X154072547Y-132116565D01*
X154087389Y-132210274D01*
X154077730Y-132259963D01*
X154038392Y-132291818D01*
X154002728Y-132294940D01*
X154000000Y-132294508D01*
X153994252Y-132293598D01*
X153994576Y-132291547D01*
X153955145Y-132277195D01*
X153929835Y-132233358D01*
X153929622Y-132232084D01*
X153911146Y-132115429D01*
X153853550Y-132002391D01*
X153763842Y-131912683D01*
X153650804Y-131855087D01*
X153650802Y-131855086D01*
X153650801Y-131855086D01*
X153525500Y-131835241D01*
X153400198Y-131855086D01*
X153287156Y-131912684D01*
X153197451Y-132002389D01*
X153139853Y-132115431D01*
X153121766Y-132229631D01*
X153097225Y-132273904D01*
X153049968Y-132292044D01*
X153002107Y-132275564D01*
X152976037Y-132232175D01*
X152975588Y-132229631D01*
X152972522Y-132210274D01*
X152961646Y-132141603D01*
X152904050Y-132028565D01*
X152814342Y-131938857D01*
X152701304Y-131881261D01*
X152701302Y-131881260D01*
X152701301Y-131881260D01*
X152576000Y-131861415D01*
X152450698Y-131881260D01*
X152337656Y-131938858D01*
X152247951Y-132028563D01*
X152190353Y-132141605D01*
X152170508Y-132266907D01*
X118720499Y-132266907D01*
X118720499Y-130800000D01*
X156020008Y-130800000D01*
X156039853Y-130925301D01*
X156039853Y-130925302D01*
X156039854Y-130925304D01*
X156097450Y-131038342D01*
X156187158Y-131128050D01*
X156300196Y-131185646D01*
X156425500Y-131205492D01*
X156550804Y-131185646D01*
X156663842Y-131128050D01*
X156753550Y-131038342D01*
X156811146Y-130925304D01*
X156830992Y-130800000D01*
X156811146Y-130674696D01*
X156753550Y-130561658D01*
X156663842Y-130471950D01*
X156550804Y-130414354D01*
X156550802Y-130414353D01*
X156550801Y-130414353D01*
X156425500Y-130394508D01*
X156300198Y-130414353D01*
X156187156Y-130471951D01*
X156097451Y-130561656D01*
X156039853Y-130674698D01*
X156020008Y-130800000D01*
X118720499Y-130800000D01*
X118720499Y-128767436D01*
X135858168Y-128767436D01*
X135888634Y-128940211D01*
X135958121Y-129101303D01*
X135958122Y-129101304D01*
X136062889Y-129242030D01*
X136062895Y-129242035D01*
X136197283Y-129354801D01*
X136197282Y-129354801D01*
X136210936Y-129361658D01*
X136354066Y-129433540D01*
X136524778Y-129474000D01*
X136656208Y-129474000D01*
X136786754Y-129458741D01*
X136951616Y-129398737D01*
X137098195Y-129302330D01*
X137218591Y-129174718D01*
X137306311Y-129022781D01*
X137356629Y-128854710D01*
X137366830Y-128679565D01*
X137365513Y-128672097D01*
X140693330Y-128672097D01*
X140702030Y-128854708D01*
X140703104Y-128877256D01*
X140751528Y-129076862D01*
X140836852Y-129263696D01*
X140933014Y-129398737D01*
X140955993Y-129431006D01*
X141104643Y-129572744D01*
X141104645Y-129572745D01*
X141277435Y-129683791D01*
X141468117Y-129760129D01*
X141669801Y-129799000D01*
X141823724Y-129799000D01*
X141823731Y-129799000D01*
X141976965Y-129784368D01*
X142174040Y-129726501D01*
X142312472Y-129655134D01*
X142356600Y-129632386D01*
X142397782Y-129600000D01*
X142518055Y-129505416D01*
X142652560Y-129350189D01*
X142755258Y-129172311D01*
X142822436Y-128978212D01*
X142851667Y-128774907D01*
X142841894Y-128569744D01*
X142793470Y-128370138D01*
X142708146Y-128183304D01*
X142589005Y-128015994D01*
X142586346Y-128013459D01*
X142440354Y-127874255D01*
X142347549Y-127814613D01*
X142324811Y-127800000D01*
X151270008Y-127800000D01*
X151289853Y-127925301D01*
X151289853Y-127925302D01*
X151289854Y-127925304D01*
X151347450Y-128038342D01*
X151437158Y-128128050D01*
X151550196Y-128185646D01*
X151675500Y-128205492D01*
X151800804Y-128185646D01*
X151913842Y-128128050D01*
X152003550Y-128038342D01*
X152061146Y-127925304D01*
X152080992Y-127800000D01*
X152065154Y-127700000D01*
X153894508Y-127700000D01*
X153914353Y-127825301D01*
X153914353Y-127825302D01*
X153914354Y-127825304D01*
X153971950Y-127938342D01*
X154061658Y-128028050D01*
X154174696Y-128085646D01*
X154300000Y-128105492D01*
X154425304Y-128085646D01*
X154538342Y-128028050D01*
X154628050Y-127938342D01*
X154685646Y-127825304D01*
X154705492Y-127700000D01*
X154685646Y-127574696D01*
X154628050Y-127461658D01*
X154538342Y-127371950D01*
X154425304Y-127314354D01*
X154425302Y-127314353D01*
X154425301Y-127314353D01*
X154300000Y-127294508D01*
X154174698Y-127314353D01*
X154061656Y-127371951D01*
X153971951Y-127461656D01*
X153914353Y-127574698D01*
X153894508Y-127700000D01*
X152065154Y-127700000D01*
X152061146Y-127674696D01*
X152003550Y-127561658D01*
X151913842Y-127471950D01*
X151800804Y-127414354D01*
X151800802Y-127414353D01*
X151800801Y-127414353D01*
X151675500Y-127394508D01*
X151550198Y-127414353D01*
X151437156Y-127471951D01*
X151347451Y-127561656D01*
X151289853Y-127674698D01*
X151270008Y-127800000D01*
X142324811Y-127800000D01*
X142267563Y-127763209D01*
X142267560Y-127763208D01*
X142267559Y-127763207D01*
X142076882Y-127686871D01*
X142076877Y-127686870D01*
X141875197Y-127648000D01*
X141721267Y-127648000D01*
X141568030Y-127662632D01*
X141370966Y-127720496D01*
X141370961Y-127720498D01*
X141370958Y-127720499D01*
X141370953Y-127720501D01*
X141370952Y-127720502D01*
X141188397Y-127814613D01*
X141026942Y-127941584D01*
X140892440Y-128096807D01*
X140789740Y-128274689D01*
X140789738Y-128274693D01*
X140722563Y-128468784D01*
X140722562Y-128468787D01*
X140693330Y-128672097D01*
X137365513Y-128672097D01*
X137336364Y-128506789D01*
X137266876Y-128345696D01*
X137162109Y-128204970D01*
X137135271Y-128182450D01*
X137027714Y-128092198D01*
X137027715Y-128092198D01*
X136870933Y-128013460D01*
X136870929Y-128013459D01*
X136700220Y-127973000D01*
X136568790Y-127973000D01*
X136438244Y-127988259D01*
X136438239Y-127988260D01*
X136273383Y-128048262D01*
X136126804Y-128144668D01*
X136006406Y-128272283D01*
X135918686Y-128424220D01*
X135868370Y-128592286D01*
X135868369Y-128592291D01*
X135858168Y-128767436D01*
X118720499Y-128767436D01*
X118720499Y-127619065D01*
X118712437Y-127594257D01*
X118709726Y-127582967D01*
X118705645Y-127557196D01*
X118693797Y-127533943D01*
X118689357Y-127523225D01*
X118681295Y-127498411D01*
X118665955Y-127477297D01*
X118659893Y-127467403D01*
X118656965Y-127461656D01*
X118648049Y-127444158D01*
X118626623Y-127422732D01*
X118626614Y-127422722D01*
X118359673Y-127155781D01*
X118338281Y-127109905D01*
X118337999Y-127103455D01*
X118337999Y-127100000D01*
X169870008Y-127100000D01*
X169889853Y-127225301D01*
X169889853Y-127225302D01*
X169889854Y-127225304D01*
X169947450Y-127338342D01*
X170037158Y-127428050D01*
X170150196Y-127485646D01*
X170275500Y-127505492D01*
X170400804Y-127485646D01*
X170513842Y-127428050D01*
X170603550Y-127338342D01*
X170661146Y-127225304D01*
X170680992Y-127100000D01*
X170661146Y-126974696D01*
X170603550Y-126861658D01*
X170513842Y-126771950D01*
X170400804Y-126714354D01*
X170400802Y-126714353D01*
X170400801Y-126714353D01*
X170275500Y-126694508D01*
X170150198Y-126714353D01*
X170037156Y-126771951D01*
X169947451Y-126861656D01*
X169889853Y-126974698D01*
X169870008Y-127100000D01*
X118337999Y-127100000D01*
X118337999Y-124900000D01*
X150894508Y-124900000D01*
X150914353Y-125025301D01*
X150914353Y-125025302D01*
X150914354Y-125025304D01*
X150971950Y-125138342D01*
X151061658Y-125228050D01*
X151174696Y-125285646D01*
X151300000Y-125305492D01*
X151425304Y-125285646D01*
X151538342Y-125228050D01*
X151628050Y-125138342D01*
X151685646Y-125025304D01*
X151705492Y-124900000D01*
X154892507Y-124900000D01*
X154912352Y-125025301D01*
X154912352Y-125025302D01*
X154912353Y-125025304D01*
X154969949Y-125138342D01*
X155059657Y-125228050D01*
X155172695Y-125285646D01*
X155297999Y-125305492D01*
X155423303Y-125285646D01*
X155536341Y-125228050D01*
X155626049Y-125138342D01*
X155683645Y-125025304D01*
X155703491Y-124900000D01*
X155683645Y-124774696D01*
X155626049Y-124661658D01*
X155536341Y-124571950D01*
X155423303Y-124514354D01*
X155423301Y-124514353D01*
X155423300Y-124514353D01*
X155297999Y-124494508D01*
X155172697Y-124514353D01*
X155059655Y-124571951D01*
X154969950Y-124661656D01*
X154912352Y-124774698D01*
X154892507Y-124900000D01*
X151705492Y-124900000D01*
X151685646Y-124774696D01*
X151628050Y-124661658D01*
X151538342Y-124571950D01*
X151425304Y-124514354D01*
X151425302Y-124514353D01*
X151425301Y-124514353D01*
X151300000Y-124494508D01*
X151174698Y-124514353D01*
X151061656Y-124571951D01*
X150971951Y-124661656D01*
X150914353Y-124774698D01*
X150894508Y-124900000D01*
X118337999Y-124900000D01*
X118337999Y-112059045D01*
X118355312Y-112011479D01*
X118359673Y-112006719D01*
X122894218Y-107472174D01*
X122940094Y-107450782D01*
X122946544Y-107450500D01*
X123078981Y-107450500D01*
X123078985Y-107450500D01*
X123232365Y-107412696D01*
X123372240Y-107339283D01*
X123490483Y-107234530D01*
X123580220Y-107104523D01*
X123636237Y-106956818D01*
X123655278Y-106800000D01*
X123636237Y-106643182D01*
X123628213Y-106622025D01*
X123580221Y-106495478D01*
X123490483Y-106365470D01*
X123490483Y-106365469D01*
X123372240Y-106260717D01*
X123360139Y-106254366D01*
X123232366Y-106187304D01*
X123078987Y-106149500D01*
X123078985Y-106149500D01*
X122921015Y-106149500D01*
X122921012Y-106149500D01*
X122767633Y-106187304D01*
X122627761Y-106260716D01*
X122509516Y-106365470D01*
X122419779Y-106495478D01*
X122419778Y-106495478D01*
X122363764Y-106643177D01*
X122363761Y-106643191D01*
X122351741Y-106742189D01*
X122344722Y-106800000D01*
X122346103Y-106811379D01*
X122350002Y-106843495D01*
X122338547Y-106892801D01*
X122328867Y-106904738D01*
X117632019Y-111601587D01*
X117632016Y-111601590D01*
X117632015Y-111601592D01*
X117632012Y-111601595D01*
X117614498Y-111619110D01*
X117609448Y-111624160D01*
X117597606Y-111647401D01*
X117591542Y-111657297D01*
X117576202Y-111678412D01*
X117576201Y-111678413D01*
X117568140Y-111703223D01*
X117563699Y-111713947D01*
X117551851Y-111737200D01*
X117551850Y-111737203D01*
X117547769Y-111762968D01*
X117545061Y-111774252D01*
X117536999Y-111799069D01*
X117536999Y-127363432D01*
X117545061Y-127388249D01*
X117547769Y-127399533D01*
X117551850Y-127425296D01*
X117551852Y-127425302D01*
X117563697Y-127448549D01*
X117568140Y-127459277D01*
X117576201Y-127484088D01*
X117576202Y-127484089D01*
X117591537Y-127505197D01*
X117597602Y-127515094D01*
X117609448Y-127538341D01*
X117631022Y-127559915D01*
X117631036Y-127559930D01*
X117632014Y-127560908D01*
X117632015Y-127560909D01*
X117897825Y-127826719D01*
X117919217Y-127872594D01*
X117919499Y-127879044D01*
X117919499Y-140525499D01*
X117902186Y-140573065D01*
X117858349Y-140598375D01*
X117845499Y-140599499D01*
X117455179Y-140599499D01*
X117433228Y-140603865D01*
X117411276Y-140608232D01*
X117361495Y-140641494D01*
X117361494Y-140641495D01*
X117328232Y-140691276D01*
X117328231Y-140691277D01*
X117328232Y-140691277D01*
X117319499Y-140735179D01*
X117319499Y-142464819D01*
X117319939Y-142467030D01*
X117328232Y-142508721D01*
X117360323Y-142556750D01*
X117361495Y-142558503D01*
X117411277Y-142591766D01*
X117455179Y-142600499D01*
X118723454Y-142600499D01*
X118771020Y-142617812D01*
X118775780Y-142622173D01*
X119310221Y-143156614D01*
X119310231Y-143156623D01*
X119331657Y-143178049D01*
X119354905Y-143189894D01*
X119364792Y-143195953D01*
X119385909Y-143211295D01*
X119410725Y-143219357D01*
X119421453Y-143223802D01*
X119444695Y-143235645D01*
X119444694Y-143235645D01*
X119470462Y-143239726D01*
X119481750Y-143242435D01*
X119506566Y-143250499D01*
X137313434Y-143250499D01*
X137338254Y-143242433D01*
X137349533Y-143239726D01*
X137375305Y-143235645D01*
X137398554Y-143223797D01*
X137409273Y-143219358D01*
X137434091Y-143211295D01*
X137455199Y-143195958D01*
X137465093Y-143189894D01*
X137468569Y-143188123D01*
X137518810Y-143181956D01*
X137561262Y-143209525D01*
X137576062Y-143257932D01*
X137575039Y-143266908D01*
X137567392Y-143310273D01*
X137567392Y-144398387D01*
X137567251Y-144401608D01*
X137565644Y-144419979D01*
X137553151Y-144562766D01*
X137550912Y-144575469D01*
X137510298Y-144727043D01*
X137505886Y-144739164D01*
X137439569Y-144881381D01*
X137433119Y-144892552D01*
X137343115Y-145021090D01*
X137334824Y-145030971D01*
X137223863Y-145141931D01*
X137213982Y-145150222D01*
X137085448Y-145240222D01*
X137074276Y-145246672D01*
X136932059Y-145312987D01*
X136919938Y-145317399D01*
X136768361Y-145358013D01*
X136755658Y-145360252D01*
X136655189Y-145369041D01*
X136594419Y-145374358D01*
X136591202Y-145374499D01*
X117801611Y-145374499D01*
X117798389Y-145374358D01*
X117700117Y-145365760D01*
X117637227Y-145360258D01*
X117624524Y-145358018D01*
X117472958Y-145317405D01*
X117460837Y-145312994D01*
X117318612Y-145246673D01*
X117307444Y-145240224D01*
X117178909Y-145150224D01*
X117169028Y-145141933D01*
X117058067Y-145030972D01*
X117049776Y-145021091D01*
X117028321Y-144990450D01*
X116959770Y-144892549D01*
X116953323Y-144881382D01*
X116887006Y-144739163D01*
X116882594Y-144727043D01*
X116866354Y-144666433D01*
X116841978Y-144575461D01*
X116839741Y-144562765D01*
X116833350Y-144489719D01*
X116825639Y-144401586D01*
X116825499Y-144398363D01*
X116825499Y-144391714D01*
X116825499Y-144358121D01*
X116825499Y-143430650D01*
X116825501Y-143430644D01*
X116825501Y-143310283D01*
X116825500Y-143310275D01*
X116816270Y-143257932D01*
X116794341Y-143133566D01*
X116732969Y-142964948D01*
X116643249Y-142809549D01*
X116556743Y-142706455D01*
X116527909Y-142672092D01*
X116527906Y-142672089D01*
X116489801Y-142640116D01*
X116390449Y-142556750D01*
X116235050Y-142467030D01*
X116235048Y-142467029D01*
X116235046Y-142467028D01*
X116066431Y-142405657D01*
X115889722Y-142374499D01*
X115889719Y-142374499D01*
X115799999Y-142374499D01*
X115791714Y-142374499D01*
X115791713Y-142374499D01*
X105001610Y-142374499D01*
X104998390Y-142374358D01*
X104915855Y-142367137D01*
X104837230Y-142360259D01*
X104824526Y-142358019D01*
X104672957Y-142317406D01*
X104660837Y-142312995D01*
X104518616Y-142246677D01*
X104507444Y-142240227D01*
X104507438Y-142240223D01*
X104430706Y-142186494D01*
X104378906Y-142150223D01*
X104369025Y-142141932D01*
X104258067Y-142030974D01*
X104249776Y-142021093D01*
X104159769Y-141892550D01*
X104153322Y-141881383D01*
X104087004Y-141739162D01*
X104082593Y-141727042D01*
X104041978Y-141575465D01*
X104039741Y-141562777D01*
X104025640Y-141401609D01*
X104025500Y-141398388D01*
X104025500Y-136401609D01*
X104025641Y-136398383D01*
X104039741Y-136237220D01*
X104041978Y-136224536D01*
X104082595Y-136072949D01*
X104087004Y-136060837D01*
X104153325Y-135918610D01*
X104159765Y-135907454D01*
X104249780Y-135778900D01*
X104258061Y-135769031D01*
X104369031Y-135658061D01*
X104378900Y-135649780D01*
X104507454Y-135559765D01*
X104518610Y-135553325D01*
X104660840Y-135487002D01*
X104672949Y-135482595D01*
X104824536Y-135441978D01*
X104837220Y-135439741D01*
X104998390Y-135425640D01*
X105001612Y-135425500D01*
X114089716Y-135425500D01*
X114089720Y-135425500D01*
X114266433Y-135394340D01*
X114435050Y-135332969D01*
X114590449Y-135243249D01*
X114727908Y-135127908D01*
X114843249Y-134990449D01*
X114932969Y-134835050D01*
X114994340Y-134666433D01*
X115025500Y-134489720D01*
X115025500Y-134400000D01*
X115025500Y-134391715D01*
X115025500Y-128672097D01*
X115533330Y-128672097D01*
X115542030Y-128854708D01*
X115543104Y-128877256D01*
X115591528Y-129076862D01*
X115676852Y-129263696D01*
X115773014Y-129398737D01*
X115795993Y-129431006D01*
X115944643Y-129572744D01*
X115944645Y-129572745D01*
X116117435Y-129683791D01*
X116308117Y-129760129D01*
X116509801Y-129799000D01*
X116663724Y-129799000D01*
X116663731Y-129799000D01*
X116816965Y-129784368D01*
X117014040Y-129726501D01*
X117152472Y-129655134D01*
X117196600Y-129632386D01*
X117237782Y-129600000D01*
X117358055Y-129505416D01*
X117492560Y-129350189D01*
X117595258Y-129172311D01*
X117662436Y-128978212D01*
X117691667Y-128774907D01*
X117681894Y-128569744D01*
X117633470Y-128370138D01*
X117548146Y-128183304D01*
X117429005Y-128015994D01*
X117426346Y-128013459D01*
X117280354Y-127874255D01*
X117187549Y-127814613D01*
X117107563Y-127763209D01*
X117107560Y-127763208D01*
X117107559Y-127763207D01*
X116916882Y-127686871D01*
X116916877Y-127686870D01*
X116715197Y-127648000D01*
X116561267Y-127648000D01*
X116408030Y-127662632D01*
X116210966Y-127720496D01*
X116210961Y-127720498D01*
X116210958Y-127720499D01*
X116210953Y-127720501D01*
X116210952Y-127720502D01*
X116028397Y-127814613D01*
X115866942Y-127941584D01*
X115732440Y-128096807D01*
X115629740Y-128274689D01*
X115629738Y-128274693D01*
X115562563Y-128468784D01*
X115562562Y-128468787D01*
X115533330Y-128672097D01*
X115025500Y-128672097D01*
X115025500Y-105699999D01*
X136557036Y-105699999D01*
X136576877Y-106053302D01*
X136576879Y-106053314D01*
X136636148Y-106402152D01*
X136734111Y-106742189D01*
X136734112Y-106742191D01*
X136869517Y-107069090D01*
X136869531Y-107069117D01*
X137018847Y-107339283D01*
X137040692Y-107378808D01*
X137245459Y-107667400D01*
X137481250Y-107931250D01*
X137745100Y-108167041D01*
X138033692Y-108371808D01*
X138033697Y-108371810D01*
X138033696Y-108371810D01*
X138033703Y-108371814D01*
X138343382Y-108542968D01*
X138343409Y-108542982D01*
X138670308Y-108678387D01*
X138670310Y-108678387D01*
X138670316Y-108678390D01*
X138710231Y-108689889D01*
X138751146Y-108719693D01*
X138763331Y-108768823D01*
X138759615Y-108785376D01*
X138756725Y-108793655D01*
X138748057Y-108846966D01*
X138762097Y-109899999D01*
X138762125Y-109902073D01*
X138776764Y-110999999D01*
X138776792Y-111002073D01*
X138789589Y-111961886D01*
X138789617Y-111963960D01*
X138802098Y-112899999D01*
X138812764Y-113699999D01*
X138812792Y-113702073D01*
X138826097Y-114699999D01*
X138826125Y-114702073D01*
X138837097Y-115524999D01*
X138837125Y-115527073D01*
X138851130Y-116577460D01*
X138851550Y-116585797D01*
X138865921Y-116643690D01*
X138865924Y-116643697D01*
X138887311Y-116689565D01*
X138894617Y-116699999D01*
X138918290Y-116733808D01*
X138930392Y-116745910D01*
X138943999Y-116764638D01*
X138947035Y-116770596D01*
X138968590Y-116812901D01*
X138975745Y-116834919D01*
X138984219Y-116888423D01*
X138984219Y-116911575D01*
X138975745Y-116965077D01*
X138968590Y-116987097D01*
X138943999Y-117035359D01*
X138930400Y-117054079D01*
X138925542Y-117058939D01*
X138922839Y-117061780D01*
X138916550Y-117068737D01*
X138916546Y-117068743D01*
X138885080Y-117121790D01*
X138885078Y-117121793D01*
X138885077Y-117121797D01*
X138868405Y-117169574D01*
X138859736Y-117222886D01*
X138874563Y-118334996D01*
X138874563Y-118335000D01*
X138881249Y-118378074D01*
X138893180Y-118417394D01*
X138893180Y-118417393D01*
X138898834Y-118432984D01*
X138898836Y-118432987D01*
X138948390Y-118496419D01*
X138948391Y-118496420D01*
X138988807Y-118526879D01*
X138988808Y-118526880D01*
X139017289Y-118544679D01*
X139016434Y-118546046D01*
X139048158Y-118574609D01*
X139055204Y-118624735D01*
X139028381Y-118667663D01*
X139020674Y-118672937D01*
X138991190Y-118690489D01*
X138974506Y-118700421D01*
X138974503Y-118700423D01*
X138952513Y-118716260D01*
X138952510Y-118716264D01*
X138907229Y-118782802D01*
X138907228Y-118782802D01*
X138890552Y-118830591D01*
X138881882Y-118883904D01*
X138892956Y-119714484D01*
X138892956Y-119714486D01*
X138893683Y-119724101D01*
X138893684Y-119724114D01*
X138893685Y-119724116D01*
X138896861Y-119747061D01*
X138923514Y-119814927D01*
X138952548Y-119856392D01*
X138965603Y-119871951D01*
X138969971Y-119877156D01*
X139039680Y-119917403D01*
X139039681Y-119917403D01*
X139039683Y-119917404D01*
X139040466Y-119917614D01*
X139040865Y-119917894D01*
X139044159Y-119919258D01*
X139043856Y-119919988D01*
X139081931Y-119946648D01*
X139095031Y-119995542D01*
X139094508Y-119999806D01*
X139094508Y-119999999D01*
X139096167Y-120010478D01*
X139086505Y-120060166D01*
X139047165Y-120092020D01*
X139043186Y-120093265D01*
X139036947Y-120095026D01*
X139036938Y-120095030D01*
X138993443Y-120120923D01*
X138971453Y-120136760D01*
X138971450Y-120136764D01*
X138926169Y-120203302D01*
X138926168Y-120203302D01*
X138909492Y-120251091D01*
X138900821Y-120304410D01*
X138951018Y-124069076D01*
X138951347Y-124075261D01*
X138952727Y-124090068D01*
X138972740Y-124153123D01*
X138997963Y-124197005D01*
X138997962Y-124197004D01*
X139013468Y-124219242D01*
X139013471Y-124219245D01*
X139046392Y-124242390D01*
X139079316Y-124265538D01*
X139126849Y-124282942D01*
X139180016Y-124292422D01*
X144573186Y-124302764D01*
X155359523Y-124323447D01*
X155359523Y-124323446D01*
X155359525Y-124323447D01*
X155385344Y-124321338D01*
X155409578Y-124317306D01*
X155478073Y-124286490D01*
X155528552Y-124282764D01*
X155560758Y-124301650D01*
X155587158Y-124328050D01*
X155700196Y-124385646D01*
X155825500Y-124405492D01*
X155950804Y-124385646D01*
X155950804Y-124385645D01*
X155956556Y-124384735D01*
X155956796Y-124386252D01*
X156000282Y-124387761D01*
X156037907Y-124421624D01*
X156044962Y-124471749D01*
X156024902Y-124508704D01*
X155971952Y-124561654D01*
X155914353Y-124674698D01*
X155894508Y-124800000D01*
X155914353Y-124925301D01*
X155914353Y-124925302D01*
X155914354Y-124925304D01*
X155971950Y-125038342D01*
X156061658Y-125128050D01*
X156174696Y-125185646D01*
X156300000Y-125205492D01*
X156425304Y-125185646D01*
X156538342Y-125128050D01*
X156566392Y-125100000D01*
X166794508Y-125100000D01*
X166814353Y-125225301D01*
X166814353Y-125225302D01*
X166814354Y-125225304D01*
X166871950Y-125338342D01*
X166961658Y-125428050D01*
X167074696Y-125485646D01*
X167200000Y-125505492D01*
X167325304Y-125485646D01*
X167438342Y-125428050D01*
X167528050Y-125338342D01*
X167585646Y-125225304D01*
X167589654Y-125200000D01*
X172794508Y-125200000D01*
X172814353Y-125325301D01*
X172814353Y-125325302D01*
X172814354Y-125325304D01*
X172871950Y-125438342D01*
X172961658Y-125528050D01*
X173074696Y-125585646D01*
X173200000Y-125605492D01*
X173325304Y-125585646D01*
X173398541Y-125548329D01*
X173448780Y-125542160D01*
X173491233Y-125569729D01*
X173506033Y-125618136D01*
X173505223Y-125625840D01*
X173493284Y-125701223D01*
X173513129Y-125826525D01*
X173513129Y-125826526D01*
X173513130Y-125826528D01*
X173570726Y-125939566D01*
X173660434Y-126029274D01*
X173773472Y-126086870D01*
X173898776Y-126106716D01*
X174024080Y-126086870D01*
X174137118Y-126029274D01*
X174226826Y-125939566D01*
X174284422Y-125826528D01*
X174304268Y-125701224D01*
X174284422Y-125575920D01*
X174226826Y-125462882D01*
X174226824Y-125462880D01*
X174226823Y-125462878D01*
X174167494Y-125403550D01*
X174146101Y-125357674D01*
X174159201Y-125308780D01*
X174167494Y-125298898D01*
X174228047Y-125238345D01*
X174228047Y-125238344D01*
X174228050Y-125238342D01*
X174285646Y-125125304D01*
X174305492Y-125000000D01*
X174285646Y-124874696D01*
X174228050Y-124761658D01*
X174140892Y-124674500D01*
X174694508Y-124674500D01*
X174697677Y-124694508D01*
X174714353Y-124799801D01*
X174714353Y-124799802D01*
X174714354Y-124799804D01*
X174771950Y-124912842D01*
X174861658Y-125002550D01*
X174974696Y-125060146D01*
X175100000Y-125079992D01*
X175225304Y-125060146D01*
X175338342Y-125002550D01*
X175428050Y-124912842D01*
X175485646Y-124799804D01*
X175505492Y-124674500D01*
X175485646Y-124549196D01*
X175428050Y-124436158D01*
X175338342Y-124346450D01*
X175225304Y-124288854D01*
X175225302Y-124288853D01*
X175225301Y-124288853D01*
X175100000Y-124269008D01*
X174974698Y-124288853D01*
X174861656Y-124346451D01*
X174771951Y-124436156D01*
X174714353Y-124549198D01*
X174707177Y-124594508D01*
X174694508Y-124674500D01*
X174140892Y-124674500D01*
X174138342Y-124671950D01*
X174025304Y-124614354D01*
X174025302Y-124614353D01*
X174025301Y-124614353D01*
X173900000Y-124594508D01*
X173774698Y-124614353D01*
X173661656Y-124671951D01*
X173571948Y-124761659D01*
X173533393Y-124837329D01*
X173496373Y-124871851D01*
X173445823Y-124874500D01*
X173433864Y-124869668D01*
X173325304Y-124814354D01*
X173325304Y-124814353D01*
X173200000Y-124794508D01*
X173074698Y-124814353D01*
X172961656Y-124871951D01*
X172871951Y-124961656D01*
X172814353Y-125074698D01*
X172794508Y-125200000D01*
X167589654Y-125200000D01*
X167605492Y-125100000D01*
X167585646Y-124974696D01*
X167528050Y-124861658D01*
X167438342Y-124771950D01*
X167325304Y-124714354D01*
X167325302Y-124714353D01*
X167325301Y-124714353D01*
X167200000Y-124694508D01*
X167074698Y-124714353D01*
X166961656Y-124771951D01*
X166871951Y-124861656D01*
X166814353Y-124974698D01*
X166794508Y-125100000D01*
X156566392Y-125100000D01*
X156628050Y-125038342D01*
X156685646Y-124925304D01*
X156705492Y-124800000D01*
X156685646Y-124674696D01*
X156628050Y-124561658D01*
X156538342Y-124471950D01*
X156526041Y-124465682D01*
X156491521Y-124428663D01*
X156488871Y-124378114D01*
X156519334Y-124337688D01*
X156559780Y-124325749D01*
X159159364Y-124330735D01*
X159159365Y-124330735D01*
X159159365Y-124330734D01*
X159159368Y-124330735D01*
X159169601Y-124330079D01*
X159193980Y-124326893D01*
X159263026Y-124300081D01*
X159282434Y-124286491D01*
X159304484Y-124271052D01*
X159304484Y-124271051D01*
X159304490Y-124271047D01*
X159325254Y-124253624D01*
X159352885Y-124205764D01*
X159391660Y-124173227D01*
X159428547Y-124169675D01*
X159500000Y-124180992D01*
X159625304Y-124161146D01*
X159738342Y-124103550D01*
X159828050Y-124013842D01*
X159885646Y-123900804D01*
X159901611Y-123800000D01*
X169494508Y-123800000D01*
X169514353Y-123925301D01*
X169514353Y-123925302D01*
X169514354Y-123925304D01*
X169571950Y-124038342D01*
X169661658Y-124128050D01*
X169774696Y-124185646D01*
X169900000Y-124205492D01*
X170025304Y-124185646D01*
X170138342Y-124128050D01*
X170197675Y-124068716D01*
X170243548Y-124047325D01*
X170292443Y-124060425D01*
X170302325Y-124068717D01*
X170361658Y-124128050D01*
X170474696Y-124185646D01*
X170600000Y-124205492D01*
X170725304Y-124185646D01*
X170838342Y-124128050D01*
X170928050Y-124038342D01*
X170985646Y-123925304D01*
X171005492Y-123800000D01*
X170985646Y-123674696D01*
X170928050Y-123561658D01*
X170838342Y-123471950D01*
X170725304Y-123414354D01*
X170725302Y-123414353D01*
X170725301Y-123414353D01*
X170600000Y-123394508D01*
X170474698Y-123414353D01*
X170361656Y-123471951D01*
X170302326Y-123531282D01*
X170256450Y-123552674D01*
X170207555Y-123539573D01*
X170197674Y-123531282D01*
X170168717Y-123502325D01*
X170147325Y-123456449D01*
X170160426Y-123407554D01*
X170168707Y-123397684D01*
X170228050Y-123338342D01*
X170285646Y-123225304D01*
X170305492Y-123100000D01*
X170285646Y-122974696D01*
X170228050Y-122861658D01*
X170138342Y-122771950D01*
X170025304Y-122714354D01*
X170025302Y-122714353D01*
X170025301Y-122714353D01*
X169900000Y-122694508D01*
X169774698Y-122714353D01*
X169661656Y-122771951D01*
X169571951Y-122861656D01*
X169514353Y-122974698D01*
X169494508Y-123100000D01*
X169514353Y-123225301D01*
X169514353Y-123225302D01*
X169514354Y-123225304D01*
X169571950Y-123338342D01*
X169571951Y-123338343D01*
X169631282Y-123397674D01*
X169652674Y-123443550D01*
X169639573Y-123492445D01*
X169631282Y-123502326D01*
X169571951Y-123561656D01*
X169514353Y-123674698D01*
X169494508Y-123800000D01*
X159901611Y-123800000D01*
X159904628Y-123780953D01*
X159929167Y-123736684D01*
X159958761Y-123721001D01*
X159985328Y-123713963D01*
X160007281Y-123701369D01*
X160029235Y-123688778D01*
X160038949Y-123682016D01*
X160051484Y-123673291D01*
X160097838Y-123607485D01*
X160115284Y-123559967D01*
X160124810Y-123506809D01*
X160127347Y-122600000D01*
X162394508Y-122600000D01*
X162414353Y-122725301D01*
X162414353Y-122725302D01*
X162414354Y-122725304D01*
X162471950Y-122838342D01*
X162561658Y-122928050D01*
X162674696Y-122985646D01*
X162800000Y-123005492D01*
X162925304Y-122985646D01*
X163038342Y-122928050D01*
X163128050Y-122838342D01*
X163185646Y-122725304D01*
X163205492Y-122600000D01*
X163394508Y-122600000D01*
X163414353Y-122725301D01*
X163414353Y-122725302D01*
X163414354Y-122725304D01*
X163471950Y-122838342D01*
X163561658Y-122928050D01*
X163674696Y-122985646D01*
X163800000Y-123005492D01*
X163925304Y-122985646D01*
X164038342Y-122928050D01*
X164128050Y-122838342D01*
X164185646Y-122725304D01*
X164205492Y-122600000D01*
X164185646Y-122474696D01*
X164128050Y-122361658D01*
X164038342Y-122271950D01*
X163925304Y-122214354D01*
X163925302Y-122214353D01*
X163925301Y-122214353D01*
X163800000Y-122194508D01*
X163674698Y-122214353D01*
X163561656Y-122271951D01*
X163471951Y-122361656D01*
X163414353Y-122474698D01*
X163394508Y-122600000D01*
X163205492Y-122600000D01*
X163185646Y-122474696D01*
X163128050Y-122361658D01*
X163038342Y-122271950D01*
X162925304Y-122214354D01*
X162925302Y-122214353D01*
X162925301Y-122214353D01*
X162800000Y-122194508D01*
X162674698Y-122214353D01*
X162561656Y-122271951D01*
X162471951Y-122361656D01*
X162414353Y-122474698D01*
X162394508Y-122600000D01*
X160127347Y-122600000D01*
X160129585Y-121800000D01*
X170894508Y-121800000D01*
X170914353Y-121925301D01*
X170914353Y-121925302D01*
X170914354Y-121925304D01*
X170971950Y-122038342D01*
X171061658Y-122128050D01*
X171174696Y-122185646D01*
X171300000Y-122205492D01*
X171425304Y-122185646D01*
X171538342Y-122128050D01*
X171597675Y-122068716D01*
X171643548Y-122047325D01*
X171692443Y-122060425D01*
X171702325Y-122068717D01*
X171731282Y-122097674D01*
X171752674Y-122143550D01*
X171739573Y-122192445D01*
X171731282Y-122202326D01*
X171671951Y-122261656D01*
X171614353Y-122374698D01*
X171594508Y-122500000D01*
X171614353Y-122625301D01*
X171614353Y-122625302D01*
X171614354Y-122625304D01*
X171671950Y-122738342D01*
X171761658Y-122828050D01*
X171874696Y-122885646D01*
X172000000Y-122905492D01*
X172125304Y-122885646D01*
X172238342Y-122828050D01*
X172328050Y-122738342D01*
X172385646Y-122625304D01*
X172405492Y-122500000D01*
X172385646Y-122374696D01*
X172328050Y-122261658D01*
X172268717Y-122202325D01*
X172247325Y-122156449D01*
X172260426Y-122107554D01*
X172268707Y-122097684D01*
X172328050Y-122038342D01*
X172385646Y-121925304D01*
X172405492Y-121800000D01*
X172385646Y-121674696D01*
X172328050Y-121561658D01*
X172238342Y-121471950D01*
X172125304Y-121414354D01*
X172125302Y-121414353D01*
X172125301Y-121414353D01*
X172000000Y-121394508D01*
X171874698Y-121414353D01*
X171761656Y-121471951D01*
X171702326Y-121531282D01*
X171656450Y-121552674D01*
X171607555Y-121539573D01*
X171597674Y-121531282D01*
X171538343Y-121471951D01*
X171538342Y-121471950D01*
X171425304Y-121414354D01*
X171425302Y-121414353D01*
X171425301Y-121414353D01*
X171300000Y-121394508D01*
X171174698Y-121414353D01*
X171061656Y-121471951D01*
X170971951Y-121561656D01*
X170914353Y-121674698D01*
X170894508Y-121800000D01*
X160129585Y-121800000D01*
X160134061Y-120200000D01*
X172994508Y-120200000D01*
X173014353Y-120325301D01*
X173014353Y-120325302D01*
X173014354Y-120325304D01*
X173071950Y-120438342D01*
X173161658Y-120528050D01*
X173274696Y-120585646D01*
X173400000Y-120605492D01*
X173525304Y-120585646D01*
X173638342Y-120528050D01*
X173728050Y-120438342D01*
X173785646Y-120325304D01*
X173805492Y-120200000D01*
X173785646Y-120074696D01*
X173728050Y-119961658D01*
X173638342Y-119871950D01*
X173525304Y-119814354D01*
X173525302Y-119814353D01*
X173525301Y-119814353D01*
X173400000Y-119794508D01*
X173274698Y-119814353D01*
X173161656Y-119871951D01*
X173071951Y-119961656D01*
X173014353Y-120074698D01*
X172994508Y-120200000D01*
X160134061Y-120200000D01*
X160145251Y-116200000D01*
X174794508Y-116200000D01*
X174814353Y-116325301D01*
X174814353Y-116325302D01*
X174814354Y-116325304D01*
X174871950Y-116438342D01*
X174961658Y-116528050D01*
X175074696Y-116585646D01*
X175200000Y-116605492D01*
X175325304Y-116585646D01*
X175438342Y-116528050D01*
X175528050Y-116438342D01*
X175585646Y-116325304D01*
X175605492Y-116200000D01*
X177194508Y-116200000D01*
X177214353Y-116325301D01*
X177214353Y-116325302D01*
X177214354Y-116325304D01*
X177271950Y-116438342D01*
X177361658Y-116528050D01*
X177474696Y-116585646D01*
X177600000Y-116605492D01*
X177725304Y-116585646D01*
X177838342Y-116528050D01*
X177928050Y-116438342D01*
X177985646Y-116325304D01*
X178005492Y-116200000D01*
X177985646Y-116074696D01*
X177928050Y-115961658D01*
X177838342Y-115871950D01*
X177725304Y-115814354D01*
X177725302Y-115814353D01*
X177725301Y-115814353D01*
X177600000Y-115794508D01*
X177474698Y-115814353D01*
X177361656Y-115871951D01*
X177271951Y-115961656D01*
X177214353Y-116074698D01*
X177194508Y-116200000D01*
X175605492Y-116200000D01*
X175585646Y-116074696D01*
X175528050Y-115961658D01*
X175457395Y-115891003D01*
X175436003Y-115845127D01*
X175449104Y-115796232D01*
X175476121Y-115772746D01*
X175563842Y-115728050D01*
X175653550Y-115638342D01*
X175711146Y-115525304D01*
X175730992Y-115400000D01*
X175711146Y-115274696D01*
X175653550Y-115161658D01*
X175563842Y-115071950D01*
X175450804Y-115014354D01*
X175450802Y-115014353D01*
X175450801Y-115014353D01*
X175325500Y-114994508D01*
X175200198Y-115014353D01*
X175087156Y-115071951D01*
X174997451Y-115161656D01*
X174939853Y-115274698D01*
X174920008Y-115400000D01*
X174939853Y-115525301D01*
X174939853Y-115525302D01*
X174939854Y-115525304D01*
X174997450Y-115638342D01*
X174997451Y-115638343D01*
X175068104Y-115708996D01*
X175089496Y-115754872D01*
X175076395Y-115803767D01*
X175049374Y-115827256D01*
X174961657Y-115871950D01*
X174871951Y-115961656D01*
X174814353Y-116074698D01*
X174794508Y-116200000D01*
X160145251Y-116200000D01*
X160147489Y-115400000D01*
X168994508Y-115400000D01*
X169014353Y-115525301D01*
X169014353Y-115525302D01*
X169014354Y-115525304D01*
X169071950Y-115638342D01*
X169161658Y-115728050D01*
X169274696Y-115785646D01*
X169400000Y-115805492D01*
X169525304Y-115785646D01*
X169638342Y-115728050D01*
X169728050Y-115638342D01*
X169785646Y-115525304D01*
X169805492Y-115400000D01*
X172794508Y-115400000D01*
X172814353Y-115525301D01*
X172814353Y-115525302D01*
X172814354Y-115525304D01*
X172871950Y-115638342D01*
X172961658Y-115728050D01*
X173074696Y-115785646D01*
X173200000Y-115805492D01*
X173325304Y-115785646D01*
X173438342Y-115728050D01*
X173528050Y-115638342D01*
X173585646Y-115525304D01*
X173605492Y-115400000D01*
X173585646Y-115274696D01*
X173528050Y-115161658D01*
X173438342Y-115071950D01*
X173325304Y-115014354D01*
X173325302Y-115014353D01*
X173325301Y-115014353D01*
X173200000Y-114994508D01*
X173074698Y-115014353D01*
X172961656Y-115071951D01*
X172871951Y-115161656D01*
X172814353Y-115274698D01*
X172794508Y-115400000D01*
X169805492Y-115400000D01*
X169785646Y-115274696D01*
X169728050Y-115161658D01*
X169638342Y-115071950D01*
X169525304Y-115014354D01*
X169525302Y-115014353D01*
X169525301Y-115014353D01*
X169400000Y-114994508D01*
X169274698Y-115014353D01*
X169161656Y-115071951D01*
X169071951Y-115161656D01*
X169014353Y-115274698D01*
X168994508Y-115400000D01*
X160147489Y-115400000D01*
X160156748Y-112090000D01*
X165799751Y-112090000D01*
X165818687Y-112258059D01*
X165818689Y-112258067D01*
X165874544Y-112417691D01*
X165964519Y-112560885D01*
X165964521Y-112560887D01*
X165964523Y-112560890D01*
X166084110Y-112680477D01*
X166084112Y-112680478D01*
X166084114Y-112680480D01*
X166227308Y-112770455D01*
X166227310Y-112770456D01*
X166386941Y-112826313D01*
X166555000Y-112845249D01*
X166723059Y-112826313D01*
X166882690Y-112770456D01*
X167025890Y-112680477D01*
X167145477Y-112560890D01*
X167235456Y-112417690D01*
X167291313Y-112258059D01*
X167310249Y-112090000D01*
X168339751Y-112090000D01*
X168358687Y-112258059D01*
X168358689Y-112258067D01*
X168414544Y-112417691D01*
X168504519Y-112560885D01*
X168504521Y-112560887D01*
X168504523Y-112560890D01*
X168624110Y-112680477D01*
X168624112Y-112680478D01*
X168624114Y-112680480D01*
X168767308Y-112770455D01*
X168767310Y-112770456D01*
X168926941Y-112826313D01*
X169095000Y-112845249D01*
X169263059Y-112826313D01*
X169422690Y-112770456D01*
X169565890Y-112680477D01*
X169685477Y-112560890D01*
X169775456Y-112417690D01*
X169831313Y-112258059D01*
X169850249Y-112090000D01*
X169850249Y-112089999D01*
X170879751Y-112089999D01*
X170898687Y-112258059D01*
X170898689Y-112258067D01*
X170954544Y-112417691D01*
X171044519Y-112560885D01*
X171044521Y-112560887D01*
X171044523Y-112560890D01*
X171164110Y-112680477D01*
X171164112Y-112680478D01*
X171164114Y-112680480D01*
X171307308Y-112770455D01*
X171307310Y-112770456D01*
X171466941Y-112826313D01*
X171635000Y-112845249D01*
X171803059Y-112826313D01*
X171962690Y-112770456D01*
X172105890Y-112680477D01*
X172225477Y-112560890D01*
X172315456Y-112417690D01*
X172371313Y-112258059D01*
X172390249Y-112090000D01*
X172390249Y-112089999D01*
X173419751Y-112089999D01*
X173438687Y-112258059D01*
X173438689Y-112258067D01*
X173494544Y-112417691D01*
X173584519Y-112560885D01*
X173584521Y-112560887D01*
X173584523Y-112560890D01*
X173704110Y-112680477D01*
X173704112Y-112680478D01*
X173704114Y-112680480D01*
X173847308Y-112770455D01*
X173847310Y-112770456D01*
X174006941Y-112826313D01*
X174175000Y-112845249D01*
X174343059Y-112826313D01*
X174502690Y-112770456D01*
X174645890Y-112680477D01*
X174765477Y-112560890D01*
X174855456Y-112417690D01*
X174911313Y-112258059D01*
X174930249Y-112090000D01*
X174911313Y-111921941D01*
X174855456Y-111762310D01*
X174839680Y-111737203D01*
X174765480Y-111619114D01*
X174765478Y-111619112D01*
X174765477Y-111619110D01*
X174645890Y-111499523D01*
X174645887Y-111499521D01*
X174645885Y-111499519D01*
X174502691Y-111409544D01*
X174343067Y-111353689D01*
X174343059Y-111353687D01*
X174175000Y-111334751D01*
X174006940Y-111353687D01*
X174006932Y-111353689D01*
X173847308Y-111409544D01*
X173704114Y-111499519D01*
X173584519Y-111619114D01*
X173494544Y-111762308D01*
X173438689Y-111921932D01*
X173438687Y-111921940D01*
X173419751Y-112089999D01*
X172390249Y-112089999D01*
X172371313Y-111921941D01*
X172315456Y-111762310D01*
X172299680Y-111737203D01*
X172225480Y-111619114D01*
X172225478Y-111619112D01*
X172225477Y-111619110D01*
X172105890Y-111499523D01*
X172105887Y-111499521D01*
X172105885Y-111499519D01*
X171962691Y-111409544D01*
X171803067Y-111353689D01*
X171803059Y-111353687D01*
X171635000Y-111334751D01*
X171466940Y-111353687D01*
X171466932Y-111353689D01*
X171307308Y-111409544D01*
X171164114Y-111499519D01*
X171044519Y-111619114D01*
X170954544Y-111762308D01*
X170898689Y-111921932D01*
X170898687Y-111921940D01*
X170879751Y-112089999D01*
X169850249Y-112089999D01*
X169831313Y-111921941D01*
X169775456Y-111762310D01*
X169759680Y-111737203D01*
X169685480Y-111619114D01*
X169685478Y-111619112D01*
X169685477Y-111619110D01*
X169565890Y-111499523D01*
X169565887Y-111499521D01*
X169565885Y-111499519D01*
X169422691Y-111409544D01*
X169263067Y-111353689D01*
X169263059Y-111353687D01*
X169263059Y-111353686D01*
X169095000Y-111334751D01*
X169094999Y-111334751D01*
X168926940Y-111353687D01*
X168926932Y-111353689D01*
X168767308Y-111409544D01*
X168624114Y-111499519D01*
X168504519Y-111619114D01*
X168414544Y-111762308D01*
X168358689Y-111921932D01*
X168358687Y-111921940D01*
X168339751Y-112090000D01*
X167310249Y-112090000D01*
X167291313Y-111921941D01*
X167235456Y-111762310D01*
X167219680Y-111737203D01*
X167145480Y-111619114D01*
X167145478Y-111619112D01*
X167145477Y-111619110D01*
X167025890Y-111499523D01*
X167025887Y-111499521D01*
X167025885Y-111499519D01*
X166882691Y-111409544D01*
X166723067Y-111353689D01*
X166723059Y-111353687D01*
X166555000Y-111334751D01*
X166386940Y-111353687D01*
X166386932Y-111353689D01*
X166227308Y-111409544D01*
X166084114Y-111499519D01*
X165964519Y-111619114D01*
X165874544Y-111762308D01*
X165818689Y-111921932D01*
X165818687Y-111921940D01*
X165799751Y-112090000D01*
X160156748Y-112090000D01*
X160163853Y-109549999D01*
X167069751Y-109549999D01*
X167088687Y-109718059D01*
X167088689Y-109718067D01*
X167144544Y-109877691D01*
X167234519Y-110020885D01*
X167234521Y-110020887D01*
X167234523Y-110020890D01*
X167354110Y-110140477D01*
X167354112Y-110140478D01*
X167354114Y-110140480D01*
X167497308Y-110230455D01*
X167497310Y-110230456D01*
X167656941Y-110286313D01*
X167825000Y-110305249D01*
X167993059Y-110286313D01*
X168152690Y-110230456D01*
X168295890Y-110140477D01*
X168415477Y-110020890D01*
X168505456Y-109877690D01*
X168561313Y-109718059D01*
X168580249Y-109550000D01*
X169609751Y-109550000D01*
X169628687Y-109718059D01*
X169628689Y-109718067D01*
X169684544Y-109877691D01*
X169774519Y-110020885D01*
X169774521Y-110020887D01*
X169774523Y-110020890D01*
X169894110Y-110140477D01*
X169894112Y-110140478D01*
X169894114Y-110140480D01*
X170037308Y-110230455D01*
X170037310Y-110230456D01*
X170196941Y-110286313D01*
X170365000Y-110305249D01*
X170533059Y-110286313D01*
X170692690Y-110230456D01*
X170835890Y-110140477D01*
X170955477Y-110020890D01*
X171045456Y-109877690D01*
X171101313Y-109718059D01*
X171120249Y-109550000D01*
X172149751Y-109550000D01*
X172168687Y-109718059D01*
X172168689Y-109718067D01*
X172224544Y-109877691D01*
X172314519Y-110020885D01*
X172314521Y-110020887D01*
X172314523Y-110020890D01*
X172434110Y-110140477D01*
X172434112Y-110140478D01*
X172434114Y-110140480D01*
X172577308Y-110230455D01*
X172577310Y-110230456D01*
X172736941Y-110286313D01*
X172905000Y-110305249D01*
X173073059Y-110286313D01*
X173232690Y-110230456D01*
X173375890Y-110140477D01*
X173495477Y-110020890D01*
X173585456Y-109877690D01*
X173641313Y-109718059D01*
X173660249Y-109550000D01*
X174689751Y-109550000D01*
X174708687Y-109718059D01*
X174708689Y-109718067D01*
X174764544Y-109877691D01*
X174854519Y-110020885D01*
X174854521Y-110020887D01*
X174854523Y-110020890D01*
X174974110Y-110140477D01*
X174974112Y-110140478D01*
X174974114Y-110140480D01*
X175117308Y-110230455D01*
X175117310Y-110230456D01*
X175276941Y-110286313D01*
X175445000Y-110305249D01*
X175613059Y-110286313D01*
X175772690Y-110230456D01*
X175915890Y-110140477D01*
X176035477Y-110020890D01*
X176125456Y-109877690D01*
X176181313Y-109718059D01*
X176200249Y-109550000D01*
X176181313Y-109381941D01*
X176125456Y-109222310D01*
X176035477Y-109079110D01*
X175915890Y-108959523D01*
X175915887Y-108959521D01*
X175915885Y-108959519D01*
X175772691Y-108869544D01*
X175613067Y-108813689D01*
X175613059Y-108813687D01*
X175613059Y-108813686D01*
X175445000Y-108794751D01*
X175444999Y-108794751D01*
X175276940Y-108813687D01*
X175276932Y-108813689D01*
X175117308Y-108869544D01*
X174974114Y-108959519D01*
X174854519Y-109079114D01*
X174764544Y-109222308D01*
X174708689Y-109381932D01*
X174708687Y-109381940D01*
X174689751Y-109550000D01*
X173660249Y-109550000D01*
X173641313Y-109381941D01*
X173585456Y-109222310D01*
X173495477Y-109079110D01*
X173375890Y-108959523D01*
X173375887Y-108959521D01*
X173375885Y-108959519D01*
X173232691Y-108869544D01*
X173073067Y-108813689D01*
X173073059Y-108813687D01*
X172905000Y-108794751D01*
X172736940Y-108813687D01*
X172736932Y-108813689D01*
X172577308Y-108869544D01*
X172434114Y-108959519D01*
X172314519Y-109079114D01*
X172224544Y-109222308D01*
X172168689Y-109381932D01*
X172168687Y-109381940D01*
X172149751Y-109550000D01*
X171120249Y-109550000D01*
X171101313Y-109381941D01*
X171045456Y-109222310D01*
X170955477Y-109079110D01*
X170835890Y-108959523D01*
X170835887Y-108959521D01*
X170835885Y-108959519D01*
X170692691Y-108869544D01*
X170533067Y-108813689D01*
X170533059Y-108813687D01*
X170533059Y-108813686D01*
X170365000Y-108794751D01*
X170364999Y-108794751D01*
X170196940Y-108813687D01*
X170196932Y-108813689D01*
X170037308Y-108869544D01*
X169894114Y-108959519D01*
X169774519Y-109079114D01*
X169684544Y-109222308D01*
X169628689Y-109381932D01*
X169628687Y-109381940D01*
X169609751Y-109550000D01*
X168580249Y-109550000D01*
X168561313Y-109381941D01*
X168505456Y-109222310D01*
X168415477Y-109079110D01*
X168295890Y-108959523D01*
X168295887Y-108959521D01*
X168295885Y-108959519D01*
X168152691Y-108869544D01*
X167993067Y-108813689D01*
X167993059Y-108813687D01*
X167825000Y-108794751D01*
X167656940Y-108813687D01*
X167656932Y-108813689D01*
X167497308Y-108869544D01*
X167354114Y-108959519D01*
X167234519Y-109079114D01*
X167144544Y-109222308D01*
X167088689Y-109381932D01*
X167088687Y-109381940D01*
X167069751Y-109549999D01*
X160163853Y-109549999D01*
X160173085Y-106250003D01*
X162099571Y-106250003D01*
X162119242Y-106462303D01*
X162119243Y-106462309D01*
X162177593Y-106667383D01*
X162177596Y-106667393D01*
X162272632Y-106858252D01*
X162272634Y-106858255D01*
X162401128Y-107028407D01*
X162558698Y-107172052D01*
X162739981Y-107284298D01*
X162938802Y-107361321D01*
X163148390Y-107400500D01*
X163361610Y-107400500D01*
X163571198Y-107361321D01*
X163770019Y-107284298D01*
X163951302Y-107172052D01*
X164108872Y-107028407D01*
X164237366Y-106858255D01*
X164332405Y-106667389D01*
X164390756Y-106462310D01*
X164396331Y-106402152D01*
X164410429Y-106250003D01*
X177589571Y-106250003D01*
X177609242Y-106462303D01*
X177609243Y-106462309D01*
X177667593Y-106667383D01*
X177667596Y-106667393D01*
X177762632Y-106858252D01*
X177762634Y-106858255D01*
X177891128Y-107028407D01*
X178048698Y-107172052D01*
X178229981Y-107284298D01*
X178428802Y-107361321D01*
X178638390Y-107400500D01*
X178851610Y-107400500D01*
X179061198Y-107361321D01*
X179260019Y-107284298D01*
X179441302Y-107172052D01*
X179598872Y-107028407D01*
X179727366Y-106858255D01*
X179822405Y-106667389D01*
X179880756Y-106462310D01*
X179886331Y-106402152D01*
X179900429Y-106250003D01*
X179900429Y-106249996D01*
X179880757Y-106037696D01*
X179880756Y-106037690D01*
X179822406Y-105832616D01*
X179822405Y-105832611D01*
X179727366Y-105641745D01*
X179598872Y-105471593D01*
X179558288Y-105434596D01*
X179487629Y-105370181D01*
X179441302Y-105327948D01*
X179438711Y-105326344D01*
X179402506Y-105303926D01*
X179260019Y-105215702D01*
X179061198Y-105138679D01*
X178969150Y-105121472D01*
X178851613Y-105099500D01*
X178851610Y-105099500D01*
X178638390Y-105099500D01*
X178638386Y-105099500D01*
X178481669Y-105128796D01*
X178428802Y-105138679D01*
X178428800Y-105138679D01*
X178428798Y-105138680D01*
X178229986Y-105215700D01*
X178229981Y-105215702D01*
X178229976Y-105215704D01*
X178229976Y-105215705D01*
X178048700Y-105327946D01*
X177891130Y-105471590D01*
X177762636Y-105641741D01*
X177762632Y-105641747D01*
X177667596Y-105832606D01*
X177667593Y-105832616D01*
X177609243Y-106037690D01*
X177609242Y-106037696D01*
X177589571Y-106249996D01*
X177589571Y-106250003D01*
X164410429Y-106250003D01*
X164410429Y-106249996D01*
X164390757Y-106037696D01*
X164390756Y-106037690D01*
X164332406Y-105832616D01*
X164332405Y-105832611D01*
X164237366Y-105641745D01*
X164108872Y-105471593D01*
X164068288Y-105434596D01*
X163997629Y-105370181D01*
X163951302Y-105327948D01*
X163948711Y-105326344D01*
X163912506Y-105303926D01*
X163770019Y-105215702D01*
X163571198Y-105138679D01*
X163479149Y-105121472D01*
X163361613Y-105099500D01*
X163361610Y-105099500D01*
X163148390Y-105099500D01*
X163148386Y-105099500D01*
X162991670Y-105128796D01*
X162938802Y-105138679D01*
X162938800Y-105138679D01*
X162938798Y-105138680D01*
X162739986Y-105215700D01*
X162739981Y-105215702D01*
X162739976Y-105215704D01*
X162739976Y-105215705D01*
X162558700Y-105327946D01*
X162401130Y-105471590D01*
X162272636Y-105641741D01*
X162272632Y-105641747D01*
X162177596Y-105832606D01*
X162177593Y-105832616D01*
X162119243Y-106037690D01*
X162119242Y-106037696D01*
X162099571Y-106249996D01*
X162099571Y-106250003D01*
X160173085Y-106250003D01*
X160175301Y-105457977D01*
X160175015Y-105451088D01*
X160173595Y-105434596D01*
X160153334Y-105370181D01*
X160153333Y-105370179D01*
X160153332Y-105370176D01*
X160128950Y-105327948D01*
X160128024Y-105326344D01*
X160128020Y-105326338D01*
X160128021Y-105326338D01*
X160112480Y-105304144D01*
X160112478Y-105304142D01*
X160046546Y-105257976D01*
X160046545Y-105257975D01*
X160046543Y-105257974D01*
X160046541Y-105257973D01*
X160046539Y-105257972D01*
X159998976Y-105240660D01*
X159945795Y-105231283D01*
X159945792Y-105231283D01*
X142924164Y-105231283D01*
X142915212Y-105231800D01*
X142915210Y-105231800D01*
X142915196Y-105231801D01*
X142899982Y-105233563D01*
X142850740Y-105221836D01*
X142820557Y-105181201D01*
X142818517Y-105172449D01*
X142788851Y-104997847D01*
X142776920Y-104956433D01*
X142690890Y-104657816D01*
X142667173Y-104600557D01*
X142555482Y-104330909D01*
X142555468Y-104330882D01*
X142384314Y-104021203D01*
X142384310Y-104021196D01*
X142384308Y-104021192D01*
X142179541Y-103732600D01*
X141943750Y-103468750D01*
X141873172Y-103405678D01*
X141719879Y-103268686D01*
X163405738Y-103268686D01*
X163435764Y-103541572D01*
X163485705Y-103732600D01*
X163505204Y-103807182D01*
X163612577Y-104059852D01*
X163755595Y-104294196D01*
X163786136Y-104330895D01*
X163931206Y-104505215D01*
X163931207Y-104505216D01*
X163931209Y-104505218D01*
X164135677Y-104688423D01*
X164364641Y-104839904D01*
X164613221Y-104956433D01*
X164876110Y-105035525D01*
X164876123Y-105035528D01*
X165147729Y-105075500D01*
X165147731Y-105075500D01*
X165353544Y-105075500D01*
X165353547Y-105075500D01*
X165558805Y-105060477D01*
X165826775Y-105000784D01*
X166083198Y-104902711D01*
X166322609Y-104768347D01*
X166539904Y-104600557D01*
X166730454Y-104402916D01*
X166890196Y-104179637D01*
X167015727Y-103935479D01*
X167104370Y-103675646D01*
X167154236Y-103405674D01*
X167159242Y-103268686D01*
X174835738Y-103268686D01*
X174865764Y-103541572D01*
X174915705Y-103732600D01*
X174935204Y-103807182D01*
X175042577Y-104059852D01*
X175185595Y-104294196D01*
X175216136Y-104330895D01*
X175361206Y-104505215D01*
X175361207Y-104505216D01*
X175361209Y-104505218D01*
X175565677Y-104688423D01*
X175794641Y-104839904D01*
X176043221Y-104956433D01*
X176306110Y-105035525D01*
X176306123Y-105035528D01*
X176577729Y-105075500D01*
X176577731Y-105075500D01*
X176783544Y-105075500D01*
X176783547Y-105075500D01*
X176988805Y-105060477D01*
X177256775Y-105000784D01*
X177513198Y-104902711D01*
X177752609Y-104768347D01*
X177969904Y-104600557D01*
X178160454Y-104402916D01*
X178320196Y-104179637D01*
X178445727Y-103935479D01*
X178534370Y-103675646D01*
X178584236Y-103405674D01*
X178594262Y-103131320D01*
X178564236Y-102858429D01*
X178494796Y-102592818D01*
X178387423Y-102340148D01*
X178244405Y-102105804D01*
X178068791Y-101894782D01*
X177864323Y-101711577D01*
X177635359Y-101560096D01*
X177386779Y-101443567D01*
X177386776Y-101443566D01*
X177386778Y-101443566D01*
X177123889Y-101364474D01*
X177123876Y-101364471D01*
X176852271Y-101324500D01*
X176852269Y-101324500D01*
X176646453Y-101324500D01*
X176558485Y-101330938D01*
X176441191Y-101339523D01*
X176173226Y-101399215D01*
X175916807Y-101497286D01*
X175677391Y-101631653D01*
X175677386Y-101631656D01*
X175460097Y-101799442D01*
X175269545Y-101997084D01*
X175109801Y-102220366D01*
X174984277Y-102464511D01*
X174984269Y-102464529D01*
X174895631Y-102724346D01*
X174895629Y-102724353D01*
X174870865Y-102858429D01*
X174845764Y-102994326D01*
X174837044Y-103232959D01*
X174835738Y-103268686D01*
X167159242Y-103268686D01*
X167164262Y-103131320D01*
X167134236Y-102858429D01*
X167064796Y-102592818D01*
X166957423Y-102340148D01*
X166814405Y-102105804D01*
X166638791Y-101894782D01*
X166434323Y-101711577D01*
X166205359Y-101560096D01*
X165956779Y-101443567D01*
X165956776Y-101443566D01*
X165956778Y-101443566D01*
X165693889Y-101364474D01*
X165693876Y-101364471D01*
X165422271Y-101324500D01*
X165422269Y-101324500D01*
X165216453Y-101324500D01*
X165128485Y-101330938D01*
X165011191Y-101339523D01*
X164743226Y-101399215D01*
X164486807Y-101497286D01*
X164247391Y-101631653D01*
X164247386Y-101631656D01*
X164030097Y-101799442D01*
X163839545Y-101997084D01*
X163679801Y-102220366D01*
X163554277Y-102464511D01*
X163554269Y-102464529D01*
X163465631Y-102724346D01*
X163465629Y-102724353D01*
X163440865Y-102858429D01*
X163415764Y-102994326D01*
X163407044Y-103232959D01*
X163405738Y-103268686D01*
X141719879Y-103268686D01*
X141679907Y-103232965D01*
X141679905Y-103232964D01*
X141679900Y-103232959D01*
X141391308Y-103028192D01*
X141391303Y-103028189D01*
X141391296Y-103028185D01*
X141081617Y-102857031D01*
X141081590Y-102857017D01*
X140754691Y-102721612D01*
X140754689Y-102721611D01*
X140414651Y-102623648D01*
X140414653Y-102623648D01*
X140065814Y-102564379D01*
X140065802Y-102564377D01*
X139712500Y-102544536D01*
X139359197Y-102564377D01*
X139359185Y-102564379D01*
X139010347Y-102623648D01*
X138670310Y-102721611D01*
X138670308Y-102721612D01*
X138343409Y-102857017D01*
X138343382Y-102857031D01*
X138033703Y-103028185D01*
X138033696Y-103028189D01*
X137745092Y-103232965D01*
X137481253Y-103468746D01*
X137481246Y-103468753D01*
X137245465Y-103732592D01*
X137245460Y-103732598D01*
X137245459Y-103732600D01*
X137192540Y-103807182D01*
X137040689Y-104021196D01*
X137040685Y-104021203D01*
X136869531Y-104330882D01*
X136869517Y-104330909D01*
X136734112Y-104657808D01*
X136734111Y-104657810D01*
X136636148Y-104997847D01*
X136576879Y-105346685D01*
X136576877Y-105346697D01*
X136557036Y-105699999D01*
X115025500Y-105699999D01*
X115025500Y-101893709D01*
X115849500Y-101893709D01*
X115854645Y-101937721D01*
X115864759Y-102024254D01*
X115864760Y-102024259D01*
X115924762Y-102189115D01*
X116021168Y-102335694D01*
X116021169Y-102335695D01*
X116021170Y-102335696D01*
X116148782Y-102456092D01*
X116300719Y-102543812D01*
X116468790Y-102594130D01*
X116643935Y-102604331D01*
X116816711Y-102573865D01*
X116977804Y-102504377D01*
X117118530Y-102399610D01*
X117231302Y-102265214D01*
X117310040Y-102108433D01*
X117350500Y-101937721D01*
X117350500Y-101893709D01*
X128649500Y-101893709D01*
X128654645Y-101937721D01*
X128664759Y-102024254D01*
X128664760Y-102024259D01*
X128724762Y-102189115D01*
X128821168Y-102335694D01*
X128821169Y-102335695D01*
X128821170Y-102335696D01*
X128948782Y-102456092D01*
X129100719Y-102543812D01*
X129268790Y-102594130D01*
X129443935Y-102604331D01*
X129616711Y-102573865D01*
X129777804Y-102504377D01*
X129918530Y-102399610D01*
X130031302Y-102265214D01*
X130110040Y-102108433D01*
X130150500Y-101937721D01*
X130150500Y-101300000D01*
X138294508Y-101300000D01*
X138314353Y-101425301D01*
X138314353Y-101425302D01*
X138314354Y-101425304D01*
X138371950Y-101538342D01*
X138461658Y-101628050D01*
X138574696Y-101685646D01*
X138700000Y-101705492D01*
X138825304Y-101685646D01*
X138938342Y-101628050D01*
X139028050Y-101538342D01*
X139085646Y-101425304D01*
X139105492Y-101300000D01*
X139085646Y-101174696D01*
X139028050Y-101061658D01*
X138938342Y-100971950D01*
X138825304Y-100914354D01*
X138825302Y-100914353D01*
X138825301Y-100914353D01*
X138700000Y-100894508D01*
X138574698Y-100914353D01*
X138461656Y-100971951D01*
X138371951Y-101061656D01*
X138314353Y-101174698D01*
X138294508Y-101300000D01*
X130150500Y-101300000D01*
X130150500Y-100700000D01*
X159194508Y-100700000D01*
X159214353Y-100825301D01*
X159214353Y-100825302D01*
X159214354Y-100825304D01*
X159271950Y-100938342D01*
X159361658Y-101028050D01*
X159474696Y-101085646D01*
X159600000Y-101105492D01*
X159725304Y-101085646D01*
X159838342Y-101028050D01*
X159928050Y-100938342D01*
X159985646Y-100825304D01*
X160005492Y-100700000D01*
X160794508Y-100700000D01*
X160814353Y-100825301D01*
X160814353Y-100825302D01*
X160814354Y-100825304D01*
X160871950Y-100938342D01*
X160961658Y-101028050D01*
X161074696Y-101085646D01*
X161200000Y-101105492D01*
X161325304Y-101085646D01*
X161438342Y-101028050D01*
X161528050Y-100938342D01*
X161585646Y-100825304D01*
X161605492Y-100700000D01*
X161585646Y-100574696D01*
X161528050Y-100461658D01*
X161438342Y-100371950D01*
X161325304Y-100314354D01*
X161325302Y-100314353D01*
X161325301Y-100314353D01*
X161200000Y-100294508D01*
X161074698Y-100314353D01*
X160961656Y-100371951D01*
X160871951Y-100461656D01*
X160814353Y-100574698D01*
X160794508Y-100700000D01*
X160005492Y-100700000D01*
X159985646Y-100574696D01*
X159928050Y-100461658D01*
X159838342Y-100371950D01*
X159725304Y-100314354D01*
X159725302Y-100314353D01*
X159725301Y-100314353D01*
X159600000Y-100294508D01*
X159474698Y-100314353D01*
X159361656Y-100371951D01*
X159271951Y-100461656D01*
X159214353Y-100574698D01*
X159194508Y-100700000D01*
X130150500Y-100700000D01*
X130150500Y-100106291D01*
X130135241Y-99975745D01*
X130075237Y-99810883D01*
X129978830Y-99664304D01*
X129851218Y-99543908D01*
X129699281Y-99456188D01*
X129699280Y-99456187D01*
X129699279Y-99456187D01*
X129531213Y-99405871D01*
X129531214Y-99405871D01*
X129531210Y-99405870D01*
X129356065Y-99395669D01*
X129356064Y-99395669D01*
X129356063Y-99395669D01*
X129183288Y-99426135D01*
X129022196Y-99495622D01*
X129022192Y-99495625D01*
X128881471Y-99600389D01*
X128881464Y-99600396D01*
X128768698Y-99734784D01*
X128689960Y-99891565D01*
X128689959Y-99891569D01*
X128670010Y-99975740D01*
X128649500Y-100062279D01*
X128649500Y-101893709D01*
X117350500Y-101893709D01*
X117350500Y-100106291D01*
X117335241Y-99975745D01*
X117275237Y-99810883D01*
X117178830Y-99664304D01*
X117051218Y-99543908D01*
X116899281Y-99456188D01*
X116899280Y-99456187D01*
X116899279Y-99456187D01*
X116731213Y-99405871D01*
X116731214Y-99405871D01*
X116731210Y-99405870D01*
X116556065Y-99395669D01*
X116556064Y-99395669D01*
X116556063Y-99395669D01*
X116383288Y-99426135D01*
X116222196Y-99495622D01*
X116222192Y-99495625D01*
X116081471Y-99600389D01*
X116081464Y-99600396D01*
X115968698Y-99734784D01*
X115889960Y-99891565D01*
X115889959Y-99891569D01*
X115870010Y-99975740D01*
X115849500Y-100062279D01*
X115849500Y-101893709D01*
X115025500Y-101893709D01*
X115025500Y-98987402D01*
X140255745Y-98987402D01*
X140265746Y-99197330D01*
X140315296Y-99401576D01*
X140402604Y-99592753D01*
X140408047Y-99600396D01*
X140524514Y-99763952D01*
X140676620Y-99908985D01*
X140676622Y-99908986D01*
X140853428Y-100022613D01*
X141048543Y-100100725D01*
X141254915Y-100140500D01*
X141254916Y-100140500D01*
X141412418Y-100140500D01*
X141412425Y-100140500D01*
X141569218Y-100125528D01*
X141770875Y-100066316D01*
X141957682Y-99970011D01*
X142122886Y-99840092D01*
X142260519Y-99681256D01*
X142365604Y-99499244D01*
X142434344Y-99300633D01*
X142464254Y-99092602D01*
X142459243Y-98987402D01*
X145335745Y-98987402D01*
X145345746Y-99197330D01*
X145395296Y-99401576D01*
X145482604Y-99592753D01*
X145488047Y-99600396D01*
X145604514Y-99763952D01*
X145756620Y-99908985D01*
X145756622Y-99908986D01*
X145933428Y-100022613D01*
X146128543Y-100100725D01*
X146334915Y-100140500D01*
X146334916Y-100140500D01*
X146492418Y-100140500D01*
X146492425Y-100140500D01*
X146649218Y-100125528D01*
X146850875Y-100066316D01*
X147037682Y-99970011D01*
X147202886Y-99840092D01*
X147340519Y-99681256D01*
X147445604Y-99499244D01*
X147514344Y-99300633D01*
X147544254Y-99092602D01*
X147534254Y-98882670D01*
X147484704Y-98678424D01*
X147397396Y-98487247D01*
X147275486Y-98316048D01*
X147275485Y-98316047D01*
X147258659Y-98300003D01*
X163212039Y-98300003D01*
X163231839Y-98513688D01*
X163290569Y-98720104D01*
X163290571Y-98720109D01*
X163386229Y-98912217D01*
X163393690Y-98922097D01*
X163807710Y-98508078D01*
X163853586Y-98486686D01*
X163902481Y-98499787D01*
X163922288Y-98520396D01*
X163993239Y-98630798D01*
X164048203Y-98678424D01*
X164101898Y-98724951D01*
X164147299Y-98745685D01*
X164183375Y-98781194D01*
X164188186Y-98831584D01*
X164168884Y-98865324D01*
X163755673Y-99278535D01*
X163856619Y-99341036D01*
X163856629Y-99341041D01*
X164056737Y-99418564D01*
X164267691Y-99457999D01*
X164267697Y-99458000D01*
X164482303Y-99458000D01*
X164482308Y-99457999D01*
X164693262Y-99418564D01*
X164893370Y-99341041D01*
X164893380Y-99341036D01*
X164994325Y-99278535D01*
X164581114Y-98865324D01*
X164559722Y-98819448D01*
X164572823Y-98770553D01*
X164602698Y-98745686D01*
X164648100Y-98724952D01*
X164756761Y-98630798D01*
X164827710Y-98520397D01*
X164867991Y-98489742D01*
X164918552Y-98492151D01*
X164942289Y-98508079D01*
X165356308Y-98922097D01*
X165363769Y-98912219D01*
X165459428Y-98720109D01*
X165459430Y-98720104D01*
X165518160Y-98513688D01*
X165537961Y-98300003D01*
X165537961Y-98300000D01*
X166109435Y-98300000D01*
X166129632Y-98479254D01*
X166129634Y-98479263D01*
X166189209Y-98649520D01*
X166233564Y-98720109D01*
X166285184Y-98802262D01*
X166412738Y-98929816D01*
X166504379Y-98987398D01*
X166565479Y-99025790D01*
X166735736Y-99085365D01*
X166735745Y-99085368D01*
X166915000Y-99105565D01*
X167094255Y-99085368D01*
X167162481Y-99061494D01*
X167264520Y-99025790D01*
X167264522Y-99025789D01*
X167417262Y-98929816D01*
X167544816Y-98802262D01*
X167640789Y-98649522D01*
X167700368Y-98479255D01*
X167720565Y-98300000D01*
X174279435Y-98300000D01*
X174299632Y-98479254D01*
X174299634Y-98479263D01*
X174359209Y-98649520D01*
X174403564Y-98720109D01*
X174455184Y-98802262D01*
X174582738Y-98929816D01*
X174674379Y-98987398D01*
X174735479Y-99025790D01*
X174905736Y-99085365D01*
X174905745Y-99085368D01*
X175085000Y-99105565D01*
X175264255Y-99085368D01*
X175332481Y-99061494D01*
X175434520Y-99025790D01*
X175434522Y-99025789D01*
X175587262Y-98929816D01*
X175714816Y-98802262D01*
X175810789Y-98649522D01*
X175870368Y-98479255D01*
X175890565Y-98300003D01*
X176462039Y-98300003D01*
X176481839Y-98513688D01*
X176540569Y-98720104D01*
X176540571Y-98720109D01*
X176636229Y-98912217D01*
X176643690Y-98922097D01*
X177057710Y-98508078D01*
X177103586Y-98486686D01*
X177152481Y-98499787D01*
X177172288Y-98520396D01*
X177243239Y-98630798D01*
X177298203Y-98678424D01*
X177351898Y-98724951D01*
X177397299Y-98745685D01*
X177433375Y-98781194D01*
X177438186Y-98831584D01*
X177418884Y-98865324D01*
X177005673Y-99278535D01*
X177106619Y-99341036D01*
X177106629Y-99341041D01*
X177306737Y-99418564D01*
X177517691Y-99457999D01*
X177517697Y-99458000D01*
X177732303Y-99458000D01*
X177732308Y-99457999D01*
X177943262Y-99418564D01*
X178143370Y-99341041D01*
X178143380Y-99341036D01*
X178244325Y-99278535D01*
X177831114Y-98865324D01*
X177809722Y-98819448D01*
X177822823Y-98770553D01*
X177852698Y-98745686D01*
X177898100Y-98724952D01*
X178006761Y-98630798D01*
X178077710Y-98520397D01*
X178117991Y-98489742D01*
X178168552Y-98492151D01*
X178192289Y-98508079D01*
X178606308Y-98922097D01*
X178613769Y-98912219D01*
X178709428Y-98720109D01*
X178709430Y-98720104D01*
X178768160Y-98513688D01*
X178787961Y-98300003D01*
X178787961Y-98299996D01*
X178768160Y-98086311D01*
X178709430Y-97879895D01*
X178709428Y-97879890D01*
X178613768Y-97687779D01*
X178606308Y-97677901D01*
X178606307Y-97677901D01*
X178192288Y-98091920D01*
X178146411Y-98113312D01*
X178097517Y-98100211D01*
X178077710Y-98079602D01*
X178006761Y-97969202D01*
X177898100Y-97875048D01*
X177852696Y-97854312D01*
X177816622Y-97818806D01*
X177811811Y-97768416D01*
X177831113Y-97734675D01*
X178244325Y-97321463D01*
X178143386Y-97258965D01*
X178143370Y-97258958D01*
X177943262Y-97181435D01*
X177732308Y-97142000D01*
X177517691Y-97142000D01*
X177306737Y-97181435D01*
X177106629Y-97258958D01*
X177106613Y-97258965D01*
X177005674Y-97321463D01*
X177418885Y-97734675D01*
X177440277Y-97780552D01*
X177427176Y-97829446D01*
X177397301Y-97854313D01*
X177351901Y-97875047D01*
X177351899Y-97875048D01*
X177243240Y-97969201D01*
X177243235Y-97969207D01*
X177172288Y-98079602D01*
X177132008Y-98110257D01*
X177081446Y-98107848D01*
X177057710Y-98091920D01*
X176643691Y-97677901D01*
X176643690Y-97677901D01*
X176636234Y-97687774D01*
X176636232Y-97687778D01*
X176540571Y-97879890D01*
X176540569Y-97879895D01*
X176481839Y-98086311D01*
X176462039Y-98299996D01*
X176462039Y-98300003D01*
X175890565Y-98300003D01*
X175890565Y-98300000D01*
X175870368Y-98120745D01*
X175860282Y-98091920D01*
X175810790Y-97950479D01*
X175766439Y-97879895D01*
X175714816Y-97797738D01*
X175587262Y-97670184D01*
X175548054Y-97645547D01*
X175434520Y-97574209D01*
X175264263Y-97514634D01*
X175264256Y-97514632D01*
X175264255Y-97514632D01*
X175085000Y-97494435D01*
X175084999Y-97494435D01*
X174905745Y-97514632D01*
X174905736Y-97514634D01*
X174735479Y-97574209D01*
X174582739Y-97670183D01*
X174455183Y-97797739D01*
X174359209Y-97950479D01*
X174299634Y-98120736D01*
X174299632Y-98120745D01*
X174279435Y-98300000D01*
X167720565Y-98300000D01*
X167700368Y-98120745D01*
X167690282Y-98091920D01*
X167640790Y-97950479D01*
X167596439Y-97879895D01*
X167544816Y-97797738D01*
X167417262Y-97670184D01*
X167378054Y-97645547D01*
X167264520Y-97574209D01*
X167094263Y-97514634D01*
X167094256Y-97514632D01*
X167094255Y-97514632D01*
X166915000Y-97494435D01*
X166735745Y-97514632D01*
X166735736Y-97514634D01*
X166565479Y-97574209D01*
X166412739Y-97670183D01*
X166285183Y-97797739D01*
X166189209Y-97950479D01*
X166129634Y-98120736D01*
X166129632Y-98120745D01*
X166109435Y-98300000D01*
X165537961Y-98300000D01*
X165537961Y-98299996D01*
X165518160Y-98086311D01*
X165459430Y-97879895D01*
X165459428Y-97879890D01*
X165363768Y-97687779D01*
X165356308Y-97677901D01*
X165356307Y-97677901D01*
X164942288Y-98091920D01*
X164896411Y-98113312D01*
X164847517Y-98100211D01*
X164827710Y-98079602D01*
X164756761Y-97969202D01*
X164648100Y-97875048D01*
X164602696Y-97854312D01*
X164566622Y-97818806D01*
X164561811Y-97768416D01*
X164581113Y-97734675D01*
X164994325Y-97321463D01*
X164893386Y-97258965D01*
X164893370Y-97258958D01*
X164693262Y-97181435D01*
X164482308Y-97142000D01*
X164267691Y-97142000D01*
X164056737Y-97181435D01*
X163856629Y-97258958D01*
X163856613Y-97258965D01*
X163755674Y-97321463D01*
X164168885Y-97734675D01*
X164190277Y-97780552D01*
X164177176Y-97829446D01*
X164147301Y-97854313D01*
X164101901Y-97875047D01*
X164101899Y-97875048D01*
X163993240Y-97969201D01*
X163993235Y-97969207D01*
X163922288Y-98079602D01*
X163882008Y-98110257D01*
X163831446Y-98107848D01*
X163807710Y-98091920D01*
X163393691Y-97677901D01*
X163393690Y-97677901D01*
X163386234Y-97687774D01*
X163386232Y-97687778D01*
X163290571Y-97879890D01*
X163290569Y-97879895D01*
X163231839Y-98086311D01*
X163212039Y-98299996D01*
X163212039Y-98300003D01*
X147258659Y-98300003D01*
X147123379Y-98171014D01*
X146991578Y-98086311D01*
X146946572Y-98057387D01*
X146946569Y-98057386D01*
X146946568Y-98057385D01*
X146751455Y-97979274D01*
X146594355Y-97948996D01*
X146545085Y-97939500D01*
X146387575Y-97939500D01*
X146230779Y-97954472D01*
X146029126Y-98013683D01*
X146029122Y-98013685D01*
X145842321Y-98109986D01*
X145677113Y-98239908D01*
X145539483Y-98398740D01*
X145434396Y-98580756D01*
X145434394Y-98580760D01*
X145365657Y-98779363D01*
X145365656Y-98779366D01*
X145335745Y-98987402D01*
X142459243Y-98987402D01*
X142454254Y-98882670D01*
X142404704Y-98678424D01*
X142317396Y-98487247D01*
X142195486Y-98316048D01*
X142195485Y-98316047D01*
X142043379Y-98171014D01*
X141911578Y-98086311D01*
X141866572Y-98057387D01*
X141866569Y-98057386D01*
X141866568Y-98057385D01*
X141671455Y-97979274D01*
X141514355Y-97948996D01*
X141465085Y-97939500D01*
X141307575Y-97939500D01*
X141150779Y-97954472D01*
X140949126Y-98013683D01*
X140949122Y-98013685D01*
X140762321Y-98109986D01*
X140597113Y-98239908D01*
X140459483Y-98398740D01*
X140354396Y-98580756D01*
X140354394Y-98580760D01*
X140285657Y-98779363D01*
X140285656Y-98779366D01*
X140255745Y-98987402D01*
X115025500Y-98987402D01*
X115025500Y-96550936D01*
X142895631Y-96550936D01*
X142926444Y-96752071D01*
X142997114Y-96942887D01*
X143104748Y-97115571D01*
X143244941Y-97263053D01*
X143411951Y-97379295D01*
X143598942Y-97459540D01*
X143598947Y-97459541D01*
X143798252Y-97500499D01*
X143798257Y-97500499D01*
X143798259Y-97500500D01*
X143798260Y-97500500D01*
X143950741Y-97500500D01*
X143950742Y-97500500D01*
X144010384Y-97494435D01*
X144102434Y-97485075D01*
X144102435Y-97485074D01*
X144102438Y-97485074D01*
X144296588Y-97424159D01*
X144474502Y-97325409D01*
X144628895Y-97192866D01*
X144753448Y-97031958D01*
X144843060Y-96849271D01*
X144894063Y-96652285D01*
X144904369Y-96449064D01*
X144873556Y-96247929D01*
X144802886Y-96057113D01*
X144695252Y-95884429D01*
X144555059Y-95736947D01*
X144388049Y-95620705D01*
X144201058Y-95540460D01*
X144201052Y-95540458D01*
X144001747Y-95499500D01*
X144001741Y-95499500D01*
X143849258Y-95499500D01*
X143849250Y-95499500D01*
X143697565Y-95514924D01*
X143697560Y-95514926D01*
X143503417Y-95575838D01*
X143503412Y-95575840D01*
X143325498Y-95674591D01*
X143325495Y-95674593D01*
X143171104Y-95807135D01*
X143171099Y-95807140D01*
X143046551Y-95968043D01*
X142956941Y-96150727D01*
X142956939Y-96150731D01*
X142905936Y-96347718D01*
X142900797Y-96449064D01*
X142895631Y-96550936D01*
X115025500Y-96550936D01*
X115025500Y-93907402D01*
X140255745Y-93907402D01*
X140260757Y-94012598D01*
X140265746Y-94117330D01*
X140315296Y-94321576D01*
X140402604Y-94512753D01*
X140402605Y-94512754D01*
X140524514Y-94683952D01*
X140676620Y-94828985D01*
X140676622Y-94828986D01*
X140853428Y-94942613D01*
X141048543Y-95020725D01*
X141254915Y-95060500D01*
X141254916Y-95060500D01*
X141412418Y-95060500D01*
X141412425Y-95060500D01*
X141569218Y-95045528D01*
X141770875Y-94986316D01*
X141957682Y-94890011D01*
X142122886Y-94760092D01*
X142260519Y-94601256D01*
X142365604Y-94419244D01*
X142434344Y-94220633D01*
X142464254Y-94012602D01*
X142459243Y-93907402D01*
X145335745Y-93907402D01*
X145340757Y-94012598D01*
X145345746Y-94117330D01*
X145395296Y-94321576D01*
X145482604Y-94512753D01*
X145482605Y-94512754D01*
X145604514Y-94683952D01*
X145756620Y-94828985D01*
X145756622Y-94828986D01*
X145933428Y-94942613D01*
X146128543Y-95020725D01*
X146334915Y-95060500D01*
X146334916Y-95060500D01*
X146492418Y-95060500D01*
X146492425Y-95060500D01*
X146649218Y-95045528D01*
X146850875Y-94986316D01*
X147037682Y-94890011D01*
X147202886Y-94760092D01*
X147340519Y-94601256D01*
X147445604Y-94419244D01*
X147514344Y-94220633D01*
X147544254Y-94012602D01*
X147534254Y-93802670D01*
X147484704Y-93598424D01*
X147397396Y-93407247D01*
X147275486Y-93236048D01*
X147275485Y-93236047D01*
X147123379Y-93091014D01*
X147028417Y-93029986D01*
X146946572Y-92977387D01*
X146946569Y-92977386D01*
X146946568Y-92977385D01*
X146751455Y-92899274D01*
X146594355Y-92868996D01*
X146545085Y-92859500D01*
X146387575Y-92859500D01*
X146230779Y-92874472D01*
X146029126Y-92933683D01*
X146029122Y-92933685D01*
X145842321Y-93029986D01*
X145677113Y-93159908D01*
X145539483Y-93318740D01*
X145434396Y-93500756D01*
X145434394Y-93500760D01*
X145365657Y-93699363D01*
X145365656Y-93699366D01*
X145335745Y-93907402D01*
X142459243Y-93907402D01*
X142454254Y-93802670D01*
X142404704Y-93598424D01*
X142317396Y-93407247D01*
X142195486Y-93236048D01*
X142195485Y-93236047D01*
X142043379Y-93091014D01*
X141948417Y-93029986D01*
X141866572Y-92977387D01*
X141866569Y-92977386D01*
X141866568Y-92977385D01*
X141671455Y-92899274D01*
X141514355Y-92868996D01*
X141465085Y-92859500D01*
X141307575Y-92859500D01*
X141150779Y-92874472D01*
X140949126Y-92933683D01*
X140949122Y-92933685D01*
X140762321Y-93029986D01*
X140597113Y-93159908D01*
X140459483Y-93318740D01*
X140354396Y-93500756D01*
X140354394Y-93500760D01*
X140285657Y-93699363D01*
X140285656Y-93699366D01*
X140255745Y-93907402D01*
X115025500Y-93907402D01*
X115025500Y-93001608D01*
X115025641Y-92998383D01*
X115025645Y-92998337D01*
X115039741Y-92837220D01*
X115041978Y-92824536D01*
X115082595Y-92672949D01*
X115087004Y-92660837D01*
X115153325Y-92518610D01*
X115159765Y-92507454D01*
X115249780Y-92378900D01*
X115258061Y-92369031D01*
X115369031Y-92258061D01*
X115378900Y-92249780D01*
X115507454Y-92159765D01*
X115518610Y-92153325D01*
X115660840Y-92087002D01*
X115672949Y-92082595D01*
X115824536Y-92041978D01*
X115837220Y-92039741D01*
X115998390Y-92025640D01*
X116001612Y-92025500D01*
X148235715Y-92025500D01*
X148235720Y-92025498D01*
X179098386Y-92025498D01*
X179101607Y-92025638D01*
G37*
%TD.AperFunction*%
%TD*%
M02*
