%TF.GenerationSoftware,KiCad,Pcbnew,7.0.7*%
%TF.CreationDate,2024-01-16T10:23:13+01:00*%
%TF.ProjectId,board,626f6172-642e-46b6-9963-61645f706362,rev?*%
%TF.SameCoordinates,Original*%
%TF.FileFunction,Legend,Bot*%
%TF.FilePolarity,Positive*%
%FSLAX46Y46*%
G04 Gerber Fmt 4.6, Leading zero omitted, Abs format (unit mm)*
G04 Created by KiCad (PCBNEW 7.0.7) date 2024-01-16 10:23:13*
%MOMM*%
%LPD*%
G01*
G04 APERTURE LIST*
%ADD10C,0.500000*%
%ADD11C,0.150000*%
%ADD12C,0.120000*%
G04 APERTURE END LIST*
D10*
X124600000Y-121300000D02*
X133600000Y-121300000D01*
X124600000Y-119300000D02*
X124600000Y-121300000D01*
X133600000Y-119300000D02*
X131600000Y-119300000D01*
X126600000Y-119300000D02*
X124600000Y-119300000D01*
X133600000Y-121300000D02*
X133600000Y-119300000D01*
X131600000Y-114300000D02*
X126600000Y-114300000D01*
X126600000Y-114300000D02*
X126600000Y-119300000D01*
X131600000Y-119300000D02*
X131600000Y-114300000D01*
D11*
X151084818Y-140956665D02*
X151799103Y-140956665D01*
X151799103Y-140956665D02*
X151941960Y-140909046D01*
X151941960Y-140909046D02*
X152037199Y-140813808D01*
X152037199Y-140813808D02*
X152084818Y-140670951D01*
X152084818Y-140670951D02*
X152084818Y-140575713D01*
X151084818Y-141909046D02*
X151084818Y-141432856D01*
X151084818Y-141432856D02*
X151561008Y-141385237D01*
X151561008Y-141385237D02*
X151513389Y-141432856D01*
X151513389Y-141432856D02*
X151465770Y-141528094D01*
X151465770Y-141528094D02*
X151465770Y-141766189D01*
X151465770Y-141766189D02*
X151513389Y-141861427D01*
X151513389Y-141861427D02*
X151561008Y-141909046D01*
X151561008Y-141909046D02*
X151656246Y-141956665D01*
X151656246Y-141956665D02*
X151894341Y-141956665D01*
X151894341Y-141956665D02*
X151989579Y-141909046D01*
X151989579Y-141909046D02*
X152037199Y-141861427D01*
X152037199Y-141861427D02*
X152084818Y-141766189D01*
X152084818Y-141766189D02*
X152084818Y-141528094D01*
X152084818Y-141528094D02*
X152037199Y-141432856D01*
X152037199Y-141432856D02*
X151989579Y-141385237D01*
X133754819Y-135666666D02*
X134469104Y-135666666D01*
X134469104Y-135666666D02*
X134611961Y-135619047D01*
X134611961Y-135619047D02*
X134707200Y-135523809D01*
X134707200Y-135523809D02*
X134754819Y-135380952D01*
X134754819Y-135380952D02*
X134754819Y-135285714D01*
X134754819Y-136142857D02*
X133754819Y-136142857D01*
X133754819Y-136142857D02*
X133754819Y-136523809D01*
X133754819Y-136523809D02*
X133802438Y-136619047D01*
X133802438Y-136619047D02*
X133850057Y-136666666D01*
X133850057Y-136666666D02*
X133945295Y-136714285D01*
X133945295Y-136714285D02*
X134088152Y-136714285D01*
X134088152Y-136714285D02*
X134183390Y-136666666D01*
X134183390Y-136666666D02*
X134231009Y-136619047D01*
X134231009Y-136619047D02*
X134278628Y-136523809D01*
X134278628Y-136523809D02*
X134278628Y-136142857D01*
X133754819Y-137047619D02*
X133754819Y-137666666D01*
X133754819Y-137666666D02*
X134135771Y-137333333D01*
X134135771Y-137333333D02*
X134135771Y-137476190D01*
X134135771Y-137476190D02*
X134183390Y-137571428D01*
X134183390Y-137571428D02*
X134231009Y-137619047D01*
X134231009Y-137619047D02*
X134326247Y-137666666D01*
X134326247Y-137666666D02*
X134564342Y-137666666D01*
X134564342Y-137666666D02*
X134659580Y-137619047D01*
X134659580Y-137619047D02*
X134707200Y-137571428D01*
X134707200Y-137571428D02*
X134754819Y-137476190D01*
X134754819Y-137476190D02*
X134754819Y-137190476D01*
X134754819Y-137190476D02*
X134707200Y-137095238D01*
X134707200Y-137095238D02*
X134659580Y-137047619D01*
X115504818Y-141066665D02*
X116219103Y-141066665D01*
X116219103Y-141066665D02*
X116361960Y-141019046D01*
X116361960Y-141019046D02*
X116457199Y-140923808D01*
X116457199Y-140923808D02*
X116504818Y-140780951D01*
X116504818Y-140780951D02*
X116504818Y-140685713D01*
X115838151Y-141971427D02*
X116504818Y-141971427D01*
X115457199Y-141733332D02*
X116171484Y-141495237D01*
X116171484Y-141495237D02*
X116171484Y-142114284D01*
X140133333Y-137454819D02*
X140133333Y-138169104D01*
X140133333Y-138169104D02*
X140180952Y-138311961D01*
X140180952Y-138311961D02*
X140276190Y-138407200D01*
X140276190Y-138407200D02*
X140419047Y-138454819D01*
X140419047Y-138454819D02*
X140514285Y-138454819D01*
X139657142Y-138454819D02*
X139657142Y-137454819D01*
X139657142Y-137454819D02*
X139276190Y-137454819D01*
X139276190Y-137454819D02*
X139180952Y-137502438D01*
X139180952Y-137502438D02*
X139133333Y-137550057D01*
X139133333Y-137550057D02*
X139085714Y-137645295D01*
X139085714Y-137645295D02*
X139085714Y-137788152D01*
X139085714Y-137788152D02*
X139133333Y-137883390D01*
X139133333Y-137883390D02*
X139180952Y-137931009D01*
X139180952Y-137931009D02*
X139276190Y-137978628D01*
X139276190Y-137978628D02*
X139657142Y-137978628D01*
X138704761Y-137550057D02*
X138657142Y-137502438D01*
X138657142Y-137502438D02*
X138561904Y-137454819D01*
X138561904Y-137454819D02*
X138323809Y-137454819D01*
X138323809Y-137454819D02*
X138228571Y-137502438D01*
X138228571Y-137502438D02*
X138180952Y-137550057D01*
X138180952Y-137550057D02*
X138133333Y-137645295D01*
X138133333Y-137645295D02*
X138133333Y-137740533D01*
X138133333Y-137740533D02*
X138180952Y-137883390D01*
X138180952Y-137883390D02*
X138752380Y-138454819D01*
X138752380Y-138454819D02*
X138133333Y-138454819D01*
D12*
%TO.C,J5*%
X153899999Y-140329999D02*
X152629999Y-140329999D01*
X152629999Y-140329999D02*
X152629999Y-141599999D01*
X177139999Y-142642928D02*
X177139999Y-143039999D01*
X176379999Y-142642928D02*
X176379999Y-143039999D01*
X174599999Y-142642928D02*
X174599999Y-143039999D01*
X173839999Y-142642928D02*
X173839999Y-143039999D01*
X172059999Y-142642928D02*
X172059999Y-143039999D01*
X171299999Y-142642928D02*
X171299999Y-143039999D01*
X169519999Y-142642928D02*
X169519999Y-143039999D01*
X168759999Y-142642928D02*
X168759999Y-143039999D01*
X166979999Y-142642928D02*
X166979999Y-143039999D01*
X166219999Y-142642928D02*
X166219999Y-143039999D01*
X164439999Y-142642928D02*
X164439999Y-143039999D01*
X163679999Y-142642928D02*
X163679999Y-143039999D01*
X161899999Y-142642928D02*
X161899999Y-143039999D01*
X161139999Y-142642928D02*
X161139999Y-143039999D01*
X159359999Y-142642928D02*
X159359999Y-143039999D01*
X158599999Y-142642928D02*
X158599999Y-143039999D01*
X156819999Y-142642928D02*
X156819999Y-143039999D01*
X156059999Y-142642928D02*
X156059999Y-143039999D01*
X154279999Y-142709999D02*
X154279999Y-143039999D01*
X153519999Y-142709999D02*
X153519999Y-143039999D01*
X152569999Y-143039999D02*
X178089999Y-143039999D01*
%TO.C,JP3*%
X136400000Y-135100000D02*
X135800000Y-135100000D01*
X135100000Y-135800000D02*
X135100000Y-137200000D01*
X137100000Y-137200000D02*
X137100000Y-135800000D01*
X135800000Y-137900000D02*
X136400000Y-137900000D01*
X137100000Y-135800000D02*
G75*
G03*
X136400000Y-135100000I-699999J1D01*
G01*
X135800000Y-135100000D02*
G75*
G03*
X135100000Y-135800000I-1J-699999D01*
G01*
X136400000Y-137900000D02*
G75*
G03*
X137100000Y-137200000I0J700000D01*
G01*
X135100000Y-137200000D02*
G75*
G03*
X135800000Y-137900000I700000J0D01*
G01*
%TO.C,J4*%
X118319999Y-140329999D02*
X117049999Y-140329999D01*
X117049999Y-140329999D02*
X117049999Y-141599999D01*
X136479999Y-142642928D02*
X136479999Y-143039999D01*
X135719999Y-142642928D02*
X135719999Y-143039999D01*
X133939999Y-142642928D02*
X133939999Y-143039999D01*
X133179999Y-142642928D02*
X133179999Y-143039999D01*
X131399999Y-142642928D02*
X131399999Y-143039999D01*
X130639999Y-142642928D02*
X130639999Y-143039999D01*
X128859999Y-142642928D02*
X128859999Y-143039999D01*
X128099999Y-142642928D02*
X128099999Y-143039999D01*
X126319999Y-142642928D02*
X126319999Y-143039999D01*
X125559999Y-142642928D02*
X125559999Y-143039999D01*
X123779999Y-142642928D02*
X123779999Y-143039999D01*
X123019999Y-142642928D02*
X123019999Y-143039999D01*
X121239999Y-142642928D02*
X121239999Y-143039999D01*
X120479999Y-142642928D02*
X120479999Y-143039999D01*
X118699999Y-142709999D02*
X118699999Y-143039999D01*
X117939999Y-142709999D02*
X117939999Y-143039999D01*
X116989999Y-143039999D02*
X137429999Y-143039999D01*
%TO.C,JP2*%
X137900000Y-135900000D02*
X137900000Y-136500000D01*
X138600000Y-137200000D02*
X140000000Y-137200000D01*
X140000000Y-135200000D02*
X138600000Y-135200000D01*
X140700000Y-136500000D02*
X140700000Y-135900000D01*
X138600000Y-135200000D02*
G75*
G03*
X137900000Y-135900000I-1J-699999D01*
G01*
X137900000Y-136500000D02*
G75*
G03*
X138600000Y-137200000I699999J-1D01*
G01*
X140700000Y-135900000D02*
G75*
G03*
X140000000Y-135200000I-700000J0D01*
G01*
X140000000Y-137200000D02*
G75*
G03*
X140700000Y-136500000I0J700000D01*
G01*
%TD*%
M02*
