%TF.GenerationSoftware,KiCad,Pcbnew,7.0.7*%
%TF.CreationDate,2024-01-16T10:23:13+01:00*%
%TF.ProjectId,board,626f6172-642e-46b6-9963-61645f706362,rev?*%
%TF.SameCoordinates,Original*%
%TF.FileFunction,Copper,L4,Bot*%
%TF.FilePolarity,Positive*%
%FSLAX46Y46*%
G04 Gerber Fmt 4.6, Leading zero omitted, Abs format (unit mm)*
G04 Created by KiCad (PCBNEW 7.0.7) date 2024-01-16 10:23:13*
%MOMM*%
%LPD*%
G01*
G04 APERTURE LIST*
G04 Aperture macros list*
%AMRoundRect*
0 Rectangle with rounded corners*
0 $1 Rounding radius*
0 $2 $3 $4 $5 $6 $7 $8 $9 X,Y pos of 4 corners*
0 Add a 4 corners polygon primitive as box body*
4,1,4,$2,$3,$4,$5,$6,$7,$8,$9,$2,$3,0*
0 Add four circle primitives for the rounded corners*
1,1,$1+$1,$2,$3*
1,1,$1+$1,$4,$5*
1,1,$1+$1,$6,$7*
1,1,$1+$1,$8,$9*
0 Add four rect primitives between the rounded corners*
20,1,$1+$1,$2,$3,$4,$5,0*
20,1,$1+$1,$4,$5,$6,$7,0*
20,1,$1+$1,$6,$7,$8,$9,0*
20,1,$1+$1,$8,$9,$2,$3,0*%
%AMFreePoly0*
4,1,19,0.500000,-0.750000,0.000000,-0.750000,0.000000,-0.744911,-0.071157,-0.744911,-0.207708,-0.704816,-0.327430,-0.627875,-0.420627,-0.520320,-0.479746,-0.390866,-0.500000,-0.250000,-0.500000,0.250000,-0.479746,0.390866,-0.420627,0.520320,-0.327430,0.627875,-0.207708,0.704816,-0.071157,0.744911,0.000000,0.744911,0.000000,0.750000,0.500000,0.750000,0.500000,-0.750000,0.500000,-0.750000,
$1*%
%AMFreePoly1*
4,1,19,0.000000,0.744911,0.071157,0.744911,0.207708,0.704816,0.327430,0.627875,0.420627,0.520320,0.479746,0.390866,0.500000,0.250000,0.500000,-0.250000,0.479746,-0.390866,0.420627,-0.520320,0.327430,-0.627875,0.207708,-0.704816,0.071157,-0.744911,0.000000,-0.744911,0.000000,-0.750000,-0.500000,-0.750000,-0.500000,0.750000,0.000000,0.750000,0.000000,0.744911,0.000000,0.744911,
$1*%
G04 Aperture macros list end*
%TA.AperFunction,ComponentPad*%
%ADD10C,1.200000*%
%TD*%
%TA.AperFunction,ComponentPad*%
%ADD11C,1.300000*%
%TD*%
%TA.AperFunction,ComponentPad*%
%ADD12C,2.000000*%
%TD*%
%TA.AperFunction,ComponentPad*%
%ADD13RoundRect,0.200100X-0.949900X-0.949900X0.949900X-0.949900X0.949900X0.949900X-0.949900X0.949900X0*%
%TD*%
%TA.AperFunction,ComponentPad*%
%ADD14C,2.500000*%
%TD*%
%TA.AperFunction,ComponentPad*%
%ADD15C,6.000000*%
%TD*%
%TA.AperFunction,ComponentPad*%
%ADD16O,1.200000X2.900000*%
%TD*%
%TA.AperFunction,ComponentPad*%
%ADD17R,1.700000X1.700000*%
%TD*%
%TA.AperFunction,ComponentPad*%
%ADD18O,1.700000X1.700000*%
%TD*%
%TA.AperFunction,SMDPad,CuDef*%
%ADD19FreePoly0,270.000000*%
%TD*%
%TA.AperFunction,SMDPad,CuDef*%
%ADD20FreePoly1,270.000000*%
%TD*%
%TA.AperFunction,SMDPad,CuDef*%
%ADD21FreePoly0,0.000000*%
%TD*%
%TA.AperFunction,SMDPad,CuDef*%
%ADD22FreePoly1,0.000000*%
%TD*%
%TA.AperFunction,ViaPad*%
%ADD23C,0.500000*%
%TD*%
%TA.AperFunction,ViaPad*%
%ADD24C,1.000000*%
%TD*%
%TA.AperFunction,Conductor*%
%ADD25C,0.150000*%
%TD*%
G04 APERTURE END LIST*
%TA.AperFunction,EtchedComponent*%
%TO.C,JP3*%
G36*
X136700000Y-136750000D02*
G01*
X136300000Y-136750000D01*
X136300000Y-136250000D01*
X136700000Y-136250000D01*
X136700000Y-136750000D01*
G37*
%TD.AperFunction*%
%TA.AperFunction,EtchedComponent*%
G36*
X135900000Y-136750000D02*
G01*
X135500000Y-136750000D01*
X135500000Y-136250000D01*
X135900000Y-136250000D01*
X135900000Y-136750000D01*
G37*
%TD.AperFunction*%
%TA.AperFunction,EtchedComponent*%
%TO.C,JP2*%
G36*
X139550000Y-136000000D02*
G01*
X139050000Y-136000000D01*
X139050000Y-135600000D01*
X139550000Y-135600000D01*
X139550000Y-136000000D01*
G37*
%TD.AperFunction*%
%TA.AperFunction,EtchedComponent*%
G36*
X139550000Y-136800000D02*
G01*
X139050000Y-136800000D01*
X139050000Y-136400000D01*
X139550000Y-136400000D01*
X139550000Y-136800000D01*
G37*
%TD.AperFunction*%
%TD*%
D10*
%TO.P,J8,1*%
%TO.N,/Ethernet/TD_P*%
X175445000Y-109550000D03*
%TO.P,J8,2*%
%TO.N,/Ethernet/TD_N*%
X174175000Y-112090000D03*
%TO.P,J8,3*%
%TO.N,/Ethernet/RD_P*%
X172905000Y-109550000D03*
%TO.P,J8,4*%
%TO.N,Net-(C13-Pad1)*%
X171635000Y-112090000D03*
%TO.P,J8,5*%
%TO.N,Net-(C18-Pad1)*%
X170365000Y-109550000D03*
%TO.P,J8,6*%
%TO.N,/Ethernet/RD_N*%
X169095000Y-112090000D03*
%TO.P,J8,7*%
%TO.N,N/C*%
X167825000Y-109550000D03*
%TO.P,J8,8*%
%TO.N,GND*%
X166555000Y-112090000D03*
D11*
%TO.P,J8,9*%
%TO.N,+3V3*%
X177625000Y-98300000D03*
%TO.P,J8,10*%
%TO.N,Net-(J8-Pad10)*%
X175085000Y-98300000D03*
%TO.P,J8,11*%
%TO.N,Net-(J8-Pad11)*%
X166915000Y-98300000D03*
%TO.P,J8,12*%
%TO.N,+3V3*%
X164375000Y-98300000D03*
D12*
%TO.P,J8,13,SHIELD*%
%TO.N,GND*%
X178745000Y-106250000D03*
%TO.P,J8,14,SHIELD*%
X163255000Y-106250000D03*
%TD*%
D13*
%TO.P,J6,1,In*%
%TO.N,Net-(J6-In)*%
X143900000Y-96500000D03*
D14*
%TO.P,J6,2,Ext*%
%TO.N,GND*%
X141360000Y-93960000D03*
X141360000Y-99040000D03*
X146440000Y-93960000D03*
X146440000Y-99040000D03*
%TD*%
D15*
%TO.P,H1,1*%
%TO.N,N/C*%
X139712500Y-105700000D03*
%TD*%
D16*
%TO.P,J3,5,Shield*%
%TO.N,GND*%
X129400000Y-101000000D03*
X116600000Y-101000000D03*
%TD*%
D17*
%TO.P,J5,1,Pin_1*%
%TO.N,+3V3*%
X153899999Y-141599999D03*
D18*
%TO.P,J5,2,Pin_2*%
%TO.N,/SWC*%
X156439999Y-141599999D03*
%TO.P,J5,3,Pin_3*%
%TO.N,GND*%
X158979999Y-141599999D03*
%TO.P,J5,4,Pin_4*%
%TO.N,/SIO*%
X161519999Y-141599999D03*
%TO.P,J5,5,Pin_5*%
%TO.N,/UART_TXD*%
X164059999Y-141599999D03*
%TO.P,J5,6,Pin_6*%
%TO.N,/UART_RXD*%
X166599999Y-141599999D03*
%TO.P,J5,7,Pin_7*%
%TO.N,/C1*%
X169139999Y-141599999D03*
%TO.P,J5,8,Pin_8*%
%TO.N,/C0*%
X171679999Y-141599999D03*
%TO.P,J5,9,Pin_9*%
%TO.N,/1W*%
X174219999Y-141599999D03*
%TO.P,J5,10,Pin_10*%
%TO.N,GND*%
X176759999Y-141599999D03*
%TD*%
D19*
%TO.P,JP3,1,A*%
%TO.N,Net-(J1-PB9)*%
X136100000Y-135850000D03*
D20*
%TO.P,JP3,2,B*%
%TO.N,/UART_TXD*%
X136100000Y-137150000D03*
%TD*%
D17*
%TO.P,J4,1,Pin_1*%
%TO.N,+5V*%
X118319999Y-141599999D03*
D18*
%TO.P,J4,2,Pin_2*%
%TO.N,/A7*%
X120859999Y-141599999D03*
%TO.P,J4,3,Pin_3*%
%TO.N,/A6*%
X123399999Y-141599999D03*
%TO.P,J4,4,Pin_4*%
%TO.N,/A4*%
X125939999Y-141599999D03*
%TO.P,J4,5,Pin_5*%
%TO.N,/B3*%
X128479999Y-141599999D03*
%TO.P,J4,6,Pin_6*%
%TO.N,/B2*%
X131019999Y-141599999D03*
%TO.P,J4,7,Pin_7*%
%TO.N,/C3*%
X133559999Y-141599999D03*
%TO.P,J4,8,Pin_8*%
%TO.N,GND*%
X136099999Y-141599999D03*
%TD*%
D21*
%TO.P,JP2,1,A*%
%TO.N,Net-(J1-PB8)*%
X138650000Y-136200000D03*
D22*
%TO.P,JP2,2,B*%
%TO.N,/UART_RXD*%
X139950000Y-136200000D03*
%TD*%
D23*
%TO.N,+3V3*%
X138738000Y-116900000D03*
%TO.N,GND*%
X139500000Y-120000000D03*
X167100000Y-133600000D03*
X167200000Y-125100000D03*
X169900000Y-123100000D03*
X170600000Y-123800000D03*
X169400000Y-115400000D03*
X177600000Y-116200000D03*
X174300000Y-129600000D03*
X171300000Y-121800000D03*
X139500000Y-118600000D03*
X171800000Y-133400000D03*
X173400000Y-120200000D03*
X172000000Y-122500000D03*
X172000000Y-121800000D03*
X175200000Y-116200000D03*
X162800000Y-122600000D03*
X173000000Y-133400000D03*
X163800000Y-122600000D03*
X174400000Y-133400000D03*
X169900000Y-123800000D03*
X173200000Y-115400000D03*
%TO.N,+3V3*%
X159600000Y-104000000D03*
X167000000Y-124400000D03*
X173000000Y-131000000D03*
X174900000Y-128400000D03*
X169700000Y-119200000D03*
X175700000Y-122200000D03*
X165600000Y-119200000D03*
D24*
%TO.N,+5V*%
X123000000Y-106800000D03*
X160500000Y-128200000D03*
D23*
%TO.N,Net-(J1-PB8)*%
X138650000Y-135763868D03*
%TO.N,Net-(J1-PB9)*%
X136100000Y-135763868D03*
%TO.N,/PG8_AP_UART1_RTS*%
X156300000Y-124800000D03*
X156600000Y-110100000D03*
%TO.N,/PG9_AP_UART1_CTS*%
X155825500Y-124000000D03*
X154500000Y-112800000D03*
%TO.N,/PG7_AP_UART1_RX*%
X156900000Y-114700000D03*
X155600000Y-132300000D03*
%TO.N,Net-(R19-Pad2)*%
X159500000Y-123775500D03*
X138700000Y-101300000D03*
%TO.N,/PG17_BT_WAKE_AP*%
X148900000Y-109900000D03*
X151675500Y-127800000D03*
%TO.N,/PG6_AP_UART1_TX*%
X156900000Y-111400000D03*
X156425500Y-130800000D03*
%TO.N,/PG16_AP_WAKE_BT*%
X151300000Y-124900000D03*
X149800000Y-110000000D03*
%TO.N,/PG12_WL_REG_ON*%
X154300000Y-127700000D03*
X147630955Y-111485933D03*
%TO.N,+3.3VA*%
X139737500Y-116000000D03*
X141600000Y-112800000D03*
X157900000Y-122500000D03*
X142300000Y-118200000D03*
X147950000Y-107200000D03*
X149025000Y-123600000D03*
X141600000Y-117000000D03*
%TO.N,/PG10_WL_WAKE_AP*%
X155297999Y-124900000D03*
X147200000Y-111000000D03*
%TO.N,/PG4_SDIO1_D2*%
X146808679Y-111961887D03*
X154475574Y-132101001D03*
%TO.N,/PG5_SDIO1_D3*%
X152576000Y-132266907D03*
X146900000Y-112900000D03*
%TO.N,/PG1_SDIO1_CMD*%
X147900000Y-113700000D03*
X153525500Y-132240733D03*
%TO.N,/PG0_SDIO1_CLK*%
X153048001Y-132800000D03*
X147425500Y-114700000D03*
%TO.N,/PG2_SDIO1_D0*%
X148600000Y-115525000D03*
X154000000Y-132700000D03*
%TO.N,/PG3_SDIO1_D1*%
X150400000Y-116700000D03*
X154983828Y-132505391D03*
%TO.N,Net-(C13-Pad1)*%
X175325500Y-115400000D03*
%TO.N,/Ethernet/RMII_RXER*%
X170275500Y-127100000D03*
X175100000Y-124674500D03*
%TO.N,/Ethernet/LED1*%
X159600000Y-100700000D03*
X173200000Y-125200000D03*
%TO.N,/Ethernet/LED2*%
X161200000Y-100700000D03*
X173900000Y-125000000D03*
%TO.N,/Ethernet/RMII_CRS_DV*%
X173898776Y-125701224D03*
X168361965Y-128038035D03*
%TD*%
D25*
%TO.N,/UART_RXD*%
X139950000Y-136200000D02*
X165099999Y-136200000D01*
X165099999Y-136200000D02*
X166599999Y-137700000D01*
X166599999Y-137700000D02*
X166599999Y-141599999D01*
%TO.N,/UART_TXD*%
X161875000Y-137175000D02*
X164059999Y-139359999D01*
X136125000Y-137175000D02*
X161875000Y-137175000D01*
X136100000Y-137150000D02*
X136125000Y-137175000D01*
X164059999Y-139359999D02*
X164059999Y-141599999D01*
%TD*%
%TA.AperFunction,Conductor*%
%TO.N,GND*%
G36*
X179101057Y-92025591D02*
G01*
X179156437Y-92030435D01*
X179264959Y-92039930D01*
X179273357Y-92041411D01*
X179429156Y-92083157D01*
X179437179Y-92086077D01*
X179583364Y-92154244D01*
X179590754Y-92158510D01*
X179708950Y-92241271D01*
X179722887Y-92251030D01*
X179729430Y-92256521D01*
X179843480Y-92370570D01*
X179848966Y-92377108D01*
X179941485Y-92509236D01*
X179945754Y-92516630D01*
X180013920Y-92662814D01*
X180016841Y-92670840D01*
X180058586Y-92826632D01*
X180060070Y-92835043D01*
X180074405Y-92998891D01*
X180074498Y-93001028D01*
X180074498Y-105359670D01*
X180060146Y-105394318D01*
X180025498Y-105408670D01*
X179990850Y-105394318D01*
X179983719Y-105385273D01*
X179978101Y-105376106D01*
X179526583Y-105827625D01*
X179491935Y-105841977D01*
X179457287Y-105827625D01*
X179448646Y-105815934D01*
X179431870Y-105784290D01*
X179315698Y-105647522D01*
X179315697Y-105647521D01*
X179315696Y-105647520D01*
X179239174Y-105589350D01*
X179174359Y-105540079D01*
X179155462Y-105507686D01*
X179165004Y-105471418D01*
X179169365Y-105466423D01*
X179618892Y-105016897D01*
X179618892Y-105016896D01*
X179431741Y-104902210D01*
X179431738Y-104902208D01*
X179212437Y-104811371D01*
X178981635Y-104755960D01*
X178745000Y-104737337D01*
X178508364Y-104755960D01*
X178277562Y-104811371D01*
X178058261Y-104902208D01*
X178058258Y-104902210D01*
X177871106Y-105016896D01*
X177871106Y-105016897D01*
X178323818Y-105469608D01*
X178338170Y-105504256D01*
X178323818Y-105538904D01*
X178314432Y-105546242D01*
X178242785Y-105589351D01*
X178112508Y-105712756D01*
X178039128Y-105820983D01*
X178007805Y-105841607D01*
X177971073Y-105834042D01*
X177963923Y-105828133D01*
X177511897Y-105376106D01*
X177511896Y-105376106D01*
X177397210Y-105563258D01*
X177397208Y-105563261D01*
X177306371Y-105782562D01*
X177250960Y-106013364D01*
X177232337Y-106250000D01*
X177250960Y-106486635D01*
X177306371Y-106717437D01*
X177397208Y-106936738D01*
X177397210Y-106936741D01*
X177511897Y-107123892D01*
X177963415Y-106672373D01*
X177998063Y-106658021D01*
X178032711Y-106672373D01*
X178041355Y-106684069D01*
X178058130Y-106715710D01*
X178174302Y-106852478D01*
X178285141Y-106936736D01*
X178315637Y-106959918D01*
X178334535Y-106992312D01*
X178324993Y-107028580D01*
X178320632Y-107033575D01*
X177871106Y-107483101D01*
X177871106Y-107483102D01*
X178058258Y-107597789D01*
X178058261Y-107597791D01*
X178277562Y-107688628D01*
X178508364Y-107744039D01*
X178745000Y-107762662D01*
X178981635Y-107744039D01*
X179212437Y-107688628D01*
X179431736Y-107597791D01*
X179618892Y-107483101D01*
X179166181Y-107030391D01*
X179151829Y-106995743D01*
X179166181Y-106961095D01*
X179175562Y-106953760D01*
X179247213Y-106910650D01*
X179377492Y-106787243D01*
X179450872Y-106679014D01*
X179482194Y-106658392D01*
X179518926Y-106665957D01*
X179526076Y-106671866D01*
X179978101Y-107123892D01*
X179983718Y-107114726D01*
X180014059Y-107092682D01*
X180051100Y-107098548D01*
X180073144Y-107128889D01*
X180074498Y-107140328D01*
X180074498Y-134410193D01*
X180074502Y-134410230D01*
X180074502Y-134489717D01*
X180105661Y-134666432D01*
X180167031Y-134835046D01*
X180167035Y-134835055D01*
X180256747Y-134990442D01*
X180256749Y-134990444D01*
X180256751Y-134990447D01*
X180372092Y-135127905D01*
X180509550Y-135243246D01*
X180509554Y-135243249D01*
X180635092Y-135315728D01*
X180664949Y-135332966D01*
X180833566Y-135394338D01*
X181010279Y-135425498D01*
X181094926Y-135425498D01*
X190091713Y-135425498D01*
X190098922Y-135425498D01*
X190101058Y-135425591D01*
X190146395Y-135429557D01*
X190264959Y-135439930D01*
X190273357Y-135441411D01*
X190429156Y-135483157D01*
X190437179Y-135486077D01*
X190583364Y-135554244D01*
X190590754Y-135558510D01*
X190719292Y-135648513D01*
X190722887Y-135651030D01*
X190729430Y-135656521D01*
X190843480Y-135770570D01*
X190848970Y-135777113D01*
X190941483Y-135909234D01*
X190945752Y-135916627D01*
X190995409Y-136023118D01*
X191000000Y-136043823D01*
X191000000Y-141756164D01*
X190995409Y-141776872D01*
X190945753Y-141883359D01*
X190941483Y-141890756D01*
X190848966Y-142022885D01*
X190843475Y-142029428D01*
X190729428Y-142143475D01*
X190722885Y-142148966D01*
X190590756Y-142241483D01*
X190583359Y-142245753D01*
X190437181Y-142313917D01*
X190429155Y-142316838D01*
X190273363Y-142358582D01*
X190264952Y-142360066D01*
X190101059Y-142374405D01*
X190098922Y-142374498D01*
X190091712Y-142374498D01*
X179294927Y-142374499D01*
X179210278Y-142374499D01*
X179104532Y-142393145D01*
X179033566Y-142405659D01*
X179033565Y-142405659D01*
X179033561Y-142405660D01*
X178864950Y-142467030D01*
X178864941Y-142467034D01*
X178709554Y-142556746D01*
X178572091Y-142672091D01*
X178456746Y-142809554D01*
X178367034Y-142964941D01*
X178367030Y-142964950D01*
X178305660Y-143133561D01*
X178274499Y-143310278D01*
X178274499Y-143394927D01*
X178274498Y-144391712D01*
X178274498Y-144391717D01*
X178274497Y-144398927D01*
X178274404Y-144401059D01*
X178260066Y-144564951D01*
X178258582Y-144573363D01*
X178216838Y-144729155D01*
X178213917Y-144737181D01*
X178145753Y-144883359D01*
X178141483Y-144890756D01*
X178048966Y-145022885D01*
X178043475Y-145029428D01*
X177929428Y-145143475D01*
X177922885Y-145148966D01*
X177790756Y-145241483D01*
X177783359Y-145245753D01*
X177637181Y-145313917D01*
X177629155Y-145316838D01*
X177473363Y-145358582D01*
X177464952Y-145360066D01*
X177301059Y-145374405D01*
X177298922Y-145374498D01*
X153408180Y-145374498D01*
X153406044Y-145374405D01*
X153242151Y-145360068D01*
X153233739Y-145358584D01*
X153077947Y-145316840D01*
X153069921Y-145313919D01*
X152923741Y-145245755D01*
X152916344Y-145241485D01*
X152784215Y-145148968D01*
X152777672Y-145143477D01*
X152663622Y-145029427D01*
X152658137Y-145022891D01*
X152565611Y-144890752D01*
X152561352Y-144883374D01*
X152493181Y-144737181D01*
X152490261Y-144729157D01*
X152448514Y-144573357D01*
X152447033Y-144564960D01*
X152432699Y-144401116D01*
X152432606Y-144398980D01*
X152432606Y-144391712D01*
X152430208Y-144384332D01*
X152431332Y-144383966D01*
X152425499Y-144366010D01*
X152425499Y-143420297D01*
X152425501Y-143420292D01*
X152425501Y-143310285D01*
X152425501Y-143310279D01*
X152394341Y-143133566D01*
X152332969Y-142964948D01*
X152302831Y-142912748D01*
X152243252Y-142809553D01*
X152243249Y-142809550D01*
X152243249Y-142809549D01*
X152127908Y-142672091D01*
X151990449Y-142556750D01*
X151990448Y-142556749D01*
X151990444Y-142556746D01*
X151835056Y-142467033D01*
X151835048Y-142467029D01*
X151828984Y-142464822D01*
X152899499Y-142464822D01*
X152908231Y-142508720D01*
X152941494Y-142558503D01*
X152982680Y-142586022D01*
X152991277Y-142591766D01*
X153035179Y-142600499D01*
X154764819Y-142600499D01*
X154808721Y-142591766D01*
X154858503Y-142558503D01*
X154891766Y-142508721D01*
X154900499Y-142464819D01*
X154900499Y-141599999D01*
X155434658Y-141599999D01*
X155453975Y-141796131D01*
X155453975Y-141796132D01*
X155511184Y-141984725D01*
X155542041Y-142042454D01*
X155598973Y-142148966D01*
X155604091Y-142158540D01*
X155604093Y-142158543D01*
X155670309Y-142239226D01*
X155729116Y-142310882D01*
X155789047Y-142360066D01*
X155881454Y-142435904D01*
X155881457Y-142435906D01*
X155881461Y-142435909D01*
X156055272Y-142528813D01*
X156243867Y-142586023D01*
X156439999Y-142605340D01*
X156636131Y-142586023D01*
X156824726Y-142528813D01*
X156998537Y-142435909D01*
X157150882Y-142310882D01*
X157275909Y-142158537D01*
X157368813Y-141984726D01*
X157408469Y-141853999D01*
X157643456Y-141853999D01*
X157691178Y-142042454D01*
X157781579Y-142248548D01*
X157781583Y-142248554D01*
X157904672Y-142436955D01*
X158057101Y-142602538D01*
X158234693Y-142740763D01*
X158234707Y-142740772D01*
X158432619Y-142847877D01*
X158432629Y-142847881D01*
X158645485Y-142920955D01*
X158725999Y-142934390D01*
X158725999Y-142109919D01*
X158740351Y-142075271D01*
X158774999Y-142060919D01*
X158795351Y-142065346D01*
X158837684Y-142084679D01*
X158944236Y-142099999D01*
X158944240Y-142099999D01*
X159015758Y-142099999D01*
X159015762Y-142099999D01*
X159122314Y-142084679D01*
X159164644Y-142065346D01*
X159202122Y-142064008D01*
X159229571Y-142089563D01*
X159233999Y-142109919D01*
X159233999Y-142934390D01*
X159314512Y-142920955D01*
X159527368Y-142847881D01*
X159527378Y-142847877D01*
X159725290Y-142740772D01*
X159725304Y-142740763D01*
X159902896Y-142602538D01*
X160055325Y-142436955D01*
X160178414Y-142248554D01*
X160178418Y-142248548D01*
X160268819Y-142042454D01*
X160316542Y-141853999D01*
X159491983Y-141853999D01*
X159457335Y-141839647D01*
X159442983Y-141804999D01*
X159444968Y-141791194D01*
X159479998Y-141671892D01*
X159479999Y-141671887D01*
X159479999Y-141599999D01*
X160514658Y-141599999D01*
X160533975Y-141796131D01*
X160533975Y-141796132D01*
X160591184Y-141984725D01*
X160622041Y-142042454D01*
X160678973Y-142148966D01*
X160684091Y-142158540D01*
X160684093Y-142158543D01*
X160750309Y-142239226D01*
X160809116Y-142310882D01*
X160869047Y-142360066D01*
X160961454Y-142435904D01*
X160961457Y-142435906D01*
X160961461Y-142435909D01*
X161135272Y-142528813D01*
X161323867Y-142586023D01*
X161519999Y-142605340D01*
X161716131Y-142586023D01*
X161904726Y-142528813D01*
X162078537Y-142435909D01*
X162230882Y-142310882D01*
X162355909Y-142158537D01*
X162448813Y-141984726D01*
X162506023Y-141796131D01*
X162525340Y-141599999D01*
X162506023Y-141403867D01*
X162448813Y-141215272D01*
X162355909Y-141041461D01*
X162355906Y-141041457D01*
X162355904Y-141041454D01*
X162302536Y-140976426D01*
X162230882Y-140889116D01*
X162159226Y-140830309D01*
X162078543Y-140764093D01*
X162078540Y-140764091D01*
X162078538Y-140764090D01*
X162078537Y-140764089D01*
X161998591Y-140721357D01*
X161904725Y-140671184D01*
X161716131Y-140613975D01*
X161519999Y-140594658D01*
X161323866Y-140613975D01*
X161323865Y-140613975D01*
X161135272Y-140671184D01*
X160961457Y-140764091D01*
X160961454Y-140764093D01*
X160809116Y-140889116D01*
X160684093Y-141041454D01*
X160684091Y-141041457D01*
X160591184Y-141215272D01*
X160533975Y-141403865D01*
X160533975Y-141403866D01*
X160514658Y-141599998D01*
X160514658Y-141599999D01*
X159479999Y-141599999D01*
X159479999Y-141528110D01*
X159479998Y-141528105D01*
X159444968Y-141408804D01*
X159448977Y-141371516D01*
X159478178Y-141347984D01*
X159491983Y-141345999D01*
X160316542Y-141345999D01*
X160268819Y-141157543D01*
X160178418Y-140951449D01*
X160178414Y-140951443D01*
X160055325Y-140763042D01*
X159902896Y-140597459D01*
X159725304Y-140459234D01*
X159725290Y-140459225D01*
X159527378Y-140352120D01*
X159527368Y-140352116D01*
X159314514Y-140279043D01*
X159233999Y-140265606D01*
X159233999Y-141090078D01*
X159219647Y-141124726D01*
X159184999Y-141139078D01*
X159164644Y-141134650D01*
X159122318Y-141115320D01*
X159122314Y-141115319D01*
X159015764Y-141099999D01*
X159015762Y-141099999D01*
X158944236Y-141099999D01*
X158944233Y-141099999D01*
X158837683Y-141115319D01*
X158837679Y-141115320D01*
X158795354Y-141134650D01*
X158757875Y-141135989D01*
X158730427Y-141110433D01*
X158725999Y-141090078D01*
X158725998Y-140265606D01*
X158645483Y-140279043D01*
X158432629Y-140352116D01*
X158432619Y-140352120D01*
X158234707Y-140459225D01*
X158234693Y-140459234D01*
X158057101Y-140597459D01*
X157904672Y-140763042D01*
X157781583Y-140951443D01*
X157781579Y-140951449D01*
X157691178Y-141157543D01*
X157643456Y-141345999D01*
X158468015Y-141345999D01*
X158502663Y-141360351D01*
X158517015Y-141394999D01*
X158515030Y-141408804D01*
X158479999Y-141528105D01*
X158479999Y-141671892D01*
X158515030Y-141791194D01*
X158511021Y-141828482D01*
X158481820Y-141852014D01*
X158468015Y-141853999D01*
X157643456Y-141853999D01*
X157408469Y-141853999D01*
X157426023Y-141796131D01*
X157445340Y-141599999D01*
X157426023Y-141403867D01*
X157368813Y-141215272D01*
X157275909Y-141041461D01*
X157275906Y-141041457D01*
X157275904Y-141041454D01*
X157222536Y-140976426D01*
X157150882Y-140889116D01*
X157079226Y-140830309D01*
X156998543Y-140764093D01*
X156998540Y-140764091D01*
X156998538Y-140764090D01*
X156998537Y-140764089D01*
X156918591Y-140721357D01*
X156824725Y-140671184D01*
X156636131Y-140613975D01*
X156439999Y-140594658D01*
X156243866Y-140613975D01*
X156243865Y-140613975D01*
X156055272Y-140671184D01*
X155881457Y-140764091D01*
X155881454Y-140764093D01*
X155729116Y-140889116D01*
X155604093Y-141041454D01*
X155604091Y-141041457D01*
X155511184Y-141215272D01*
X155453975Y-141403865D01*
X155453975Y-141403866D01*
X155434658Y-141599998D01*
X155434658Y-141599999D01*
X154900499Y-141599999D01*
X154900499Y-140735179D01*
X154891766Y-140691277D01*
X154891766Y-140691276D01*
X154858503Y-140641494D01*
X154808720Y-140608231D01*
X154764822Y-140599499D01*
X154764819Y-140599499D01*
X153035179Y-140599499D01*
X153035175Y-140599499D01*
X152991277Y-140608231D01*
X152941494Y-140641494D01*
X152908231Y-140691277D01*
X152899499Y-140735175D01*
X152899499Y-142464822D01*
X151828984Y-142464822D01*
X151666436Y-142405659D01*
X151666433Y-142405658D01*
X151666432Y-142405658D01*
X151489719Y-142374499D01*
X138613195Y-142374499D01*
X138613178Y-142374492D01*
X138503175Y-142374492D01*
X138390620Y-142394340D01*
X138326459Y-142405654D01*
X138326458Y-142405654D01*
X138326454Y-142405655D01*
X138157842Y-142467025D01*
X138157834Y-142467029D01*
X138002442Y-142556746D01*
X138002442Y-142556747D01*
X137864988Y-142672084D01*
X137864984Y-142672088D01*
X137749639Y-142809552D01*
X137659926Y-142964940D01*
X137659922Y-142964949D01*
X137598552Y-143133563D01*
X137567392Y-143310278D01*
X137567392Y-144398922D01*
X137567299Y-144401059D01*
X137552960Y-144564953D01*
X137551476Y-144573364D01*
X137509732Y-144729155D01*
X137506811Y-144737181D01*
X137438645Y-144883363D01*
X137434374Y-144890760D01*
X137341861Y-145022881D01*
X137336371Y-145029424D01*
X137222322Y-145143472D01*
X137215779Y-145148963D01*
X137083651Y-145241479D01*
X137076254Y-145245749D01*
X136930074Y-145313913D01*
X136922048Y-145316834D01*
X136766257Y-145358577D01*
X136757846Y-145360061D01*
X136641427Y-145370245D01*
X136593874Y-145374406D01*
X136591740Y-145374499D01*
X117801075Y-145374499D01*
X117798938Y-145374406D01*
X117635044Y-145360067D01*
X117626633Y-145358583D01*
X117470843Y-145316838D01*
X117462817Y-145313917D01*
X117316638Y-145245753D01*
X117309241Y-145241483D01*
X117177112Y-145148966D01*
X117170569Y-145143475D01*
X117056520Y-145029425D01*
X117051030Y-145022882D01*
X117028321Y-144990450D01*
X116958514Y-144890755D01*
X116954251Y-144883372D01*
X116886080Y-144737179D01*
X116883160Y-144729155D01*
X116866354Y-144666433D01*
X116841414Y-144573357D01*
X116839933Y-144564961D01*
X116825592Y-144401038D01*
X116825499Y-144398902D01*
X116825499Y-143420297D01*
X116825501Y-143420292D01*
X116825501Y-143310285D01*
X116825501Y-143310279D01*
X116794341Y-143133566D01*
X116732969Y-142964948D01*
X116702831Y-142912748D01*
X116643252Y-142809553D01*
X116643249Y-142809550D01*
X116643249Y-142809549D01*
X116527908Y-142672091D01*
X116390449Y-142556750D01*
X116390448Y-142556749D01*
X116390444Y-142556746D01*
X116235056Y-142467033D01*
X116235048Y-142467029D01*
X116228984Y-142464822D01*
X117319499Y-142464822D01*
X117328231Y-142508720D01*
X117361494Y-142558503D01*
X117402680Y-142586022D01*
X117411277Y-142591766D01*
X117455179Y-142600499D01*
X119184819Y-142600499D01*
X119228721Y-142591766D01*
X119278503Y-142558503D01*
X119311766Y-142508721D01*
X119320499Y-142464819D01*
X119320499Y-141599999D01*
X119854658Y-141599999D01*
X119873975Y-141796131D01*
X119873975Y-141796132D01*
X119931184Y-141984725D01*
X119962041Y-142042454D01*
X120018973Y-142148966D01*
X120024091Y-142158540D01*
X120024093Y-142158543D01*
X120090309Y-142239226D01*
X120149116Y-142310882D01*
X120209047Y-142360066D01*
X120301454Y-142435904D01*
X120301457Y-142435906D01*
X120301461Y-142435909D01*
X120475272Y-142528813D01*
X120663867Y-142586023D01*
X120859999Y-142605340D01*
X121056131Y-142586023D01*
X121244726Y-142528813D01*
X121418537Y-142435909D01*
X121570882Y-142310882D01*
X121695909Y-142158537D01*
X121788813Y-141984726D01*
X121846023Y-141796131D01*
X121865340Y-141599999D01*
X122394658Y-141599999D01*
X122413975Y-141796131D01*
X122413975Y-141796132D01*
X122471184Y-141984725D01*
X122502041Y-142042454D01*
X122558973Y-142148966D01*
X122564091Y-142158540D01*
X122564093Y-142158543D01*
X122630309Y-142239226D01*
X122689116Y-142310882D01*
X122749047Y-142360066D01*
X122841454Y-142435904D01*
X122841457Y-142435906D01*
X122841461Y-142435909D01*
X123015272Y-142528813D01*
X123203867Y-142586023D01*
X123399999Y-142605340D01*
X123596131Y-142586023D01*
X123784726Y-142528813D01*
X123958537Y-142435909D01*
X124110882Y-142310882D01*
X124235909Y-142158537D01*
X124328813Y-141984726D01*
X124386023Y-141796131D01*
X124405340Y-141599999D01*
X124934658Y-141599999D01*
X124953975Y-141796131D01*
X124953975Y-141796132D01*
X125011184Y-141984725D01*
X125042041Y-142042454D01*
X125098973Y-142148966D01*
X125104091Y-142158540D01*
X125104093Y-142158543D01*
X125170309Y-142239226D01*
X125229116Y-142310882D01*
X125289047Y-142360066D01*
X125381454Y-142435904D01*
X125381457Y-142435906D01*
X125381461Y-142435909D01*
X125555272Y-142528813D01*
X125743867Y-142586023D01*
X125939999Y-142605340D01*
X126136131Y-142586023D01*
X126324726Y-142528813D01*
X126498537Y-142435909D01*
X126650882Y-142310882D01*
X126775909Y-142158537D01*
X126868813Y-141984726D01*
X126926023Y-141796131D01*
X126945340Y-141599999D01*
X127474658Y-141599999D01*
X127493975Y-141796131D01*
X127493975Y-141796132D01*
X127551184Y-141984725D01*
X127582041Y-142042454D01*
X127638973Y-142148966D01*
X127644091Y-142158540D01*
X127644093Y-142158543D01*
X127710309Y-142239226D01*
X127769116Y-142310882D01*
X127829047Y-142360066D01*
X127921454Y-142435904D01*
X127921457Y-142435906D01*
X127921461Y-142435909D01*
X128095272Y-142528813D01*
X128283867Y-142586023D01*
X128460680Y-142603437D01*
X128479998Y-142605340D01*
X128479998Y-142605339D01*
X128479999Y-142605340D01*
X128676131Y-142586023D01*
X128864726Y-142528813D01*
X129038537Y-142435909D01*
X129190882Y-142310882D01*
X129315909Y-142158537D01*
X129408813Y-141984726D01*
X129466023Y-141796131D01*
X129485340Y-141599999D01*
X130014658Y-141599999D01*
X130033975Y-141796131D01*
X130033975Y-141796132D01*
X130091184Y-141984725D01*
X130122041Y-142042454D01*
X130178973Y-142148966D01*
X130184091Y-142158540D01*
X130184093Y-142158543D01*
X130250309Y-142239226D01*
X130309116Y-142310882D01*
X130369047Y-142360066D01*
X130461454Y-142435904D01*
X130461457Y-142435906D01*
X130461461Y-142435909D01*
X130635272Y-142528813D01*
X130823867Y-142586023D01*
X131000681Y-142603437D01*
X131019998Y-142605340D01*
X131019998Y-142605339D01*
X131019999Y-142605340D01*
X131216131Y-142586023D01*
X131404726Y-142528813D01*
X131578537Y-142435909D01*
X131730882Y-142310882D01*
X131855909Y-142158537D01*
X131948813Y-141984726D01*
X132006023Y-141796131D01*
X132025340Y-141599999D01*
X132554658Y-141599999D01*
X132573975Y-141796131D01*
X132573975Y-141796132D01*
X132631184Y-141984725D01*
X132662041Y-142042454D01*
X132718973Y-142148966D01*
X132724091Y-142158540D01*
X132724093Y-142158543D01*
X132790309Y-142239226D01*
X132849116Y-142310882D01*
X132909047Y-142360066D01*
X133001454Y-142435904D01*
X133001457Y-142435906D01*
X133001461Y-142435909D01*
X133175272Y-142528813D01*
X133363867Y-142586023D01*
X133540680Y-142603437D01*
X133559998Y-142605340D01*
X133559998Y-142605339D01*
X133559999Y-142605340D01*
X133756131Y-142586023D01*
X133944726Y-142528813D01*
X134118537Y-142435909D01*
X134270882Y-142310882D01*
X134395909Y-142158537D01*
X134488813Y-141984726D01*
X134528469Y-141853999D01*
X134763456Y-141853999D01*
X134811178Y-142042454D01*
X134901579Y-142248548D01*
X134901583Y-142248554D01*
X135024672Y-142436955D01*
X135177101Y-142602538D01*
X135354693Y-142740763D01*
X135354707Y-142740772D01*
X135552619Y-142847877D01*
X135552629Y-142847881D01*
X135765485Y-142920955D01*
X135845998Y-142934390D01*
X135845999Y-142934390D01*
X135845999Y-142109919D01*
X135860351Y-142075271D01*
X135894999Y-142060919D01*
X135915351Y-142065346D01*
X135957684Y-142084679D01*
X136064236Y-142099999D01*
X136064240Y-142099999D01*
X136135758Y-142099999D01*
X136135762Y-142099999D01*
X136242314Y-142084679D01*
X136284644Y-142065346D01*
X136322122Y-142064008D01*
X136349571Y-142089563D01*
X136353999Y-142109919D01*
X136353999Y-142934390D01*
X136434512Y-142920955D01*
X136647368Y-142847881D01*
X136647378Y-142847877D01*
X136845290Y-142740772D01*
X136845304Y-142740763D01*
X137022896Y-142602538D01*
X137175325Y-142436955D01*
X137298414Y-142248554D01*
X137298418Y-142248548D01*
X137388819Y-142042454D01*
X137436542Y-141853999D01*
X136611983Y-141853999D01*
X136577335Y-141839647D01*
X136562983Y-141804999D01*
X136564968Y-141791194D01*
X136599998Y-141671892D01*
X136599999Y-141671887D01*
X136599999Y-141528110D01*
X136599998Y-141528105D01*
X136564968Y-141408804D01*
X136568977Y-141371516D01*
X136598178Y-141347984D01*
X136611983Y-141345999D01*
X137436542Y-141345999D01*
X137388819Y-141157543D01*
X137298418Y-140951449D01*
X137298414Y-140951443D01*
X137175325Y-140763042D01*
X137022896Y-140597459D01*
X136845304Y-140459234D01*
X136845290Y-140459225D01*
X136647378Y-140352120D01*
X136647368Y-140352116D01*
X136434514Y-140279043D01*
X136353999Y-140265606D01*
X136353999Y-141090078D01*
X136339647Y-141124726D01*
X136304999Y-141139078D01*
X136284644Y-141134650D01*
X136242318Y-141115320D01*
X136242314Y-141115319D01*
X136135764Y-141099999D01*
X136135762Y-141099999D01*
X136064236Y-141099999D01*
X136064233Y-141099999D01*
X135957683Y-141115319D01*
X135957679Y-141115320D01*
X135915354Y-141134650D01*
X135877875Y-141135989D01*
X135850427Y-141110433D01*
X135845999Y-141090078D01*
X135845999Y-140265606D01*
X135765483Y-140279043D01*
X135552629Y-140352116D01*
X135552619Y-140352120D01*
X135354707Y-140459225D01*
X135354693Y-140459234D01*
X135177101Y-140597459D01*
X135024672Y-140763042D01*
X134901583Y-140951443D01*
X134901579Y-140951449D01*
X134811178Y-141157543D01*
X134763456Y-141345999D01*
X135588015Y-141345999D01*
X135622663Y-141360351D01*
X135637015Y-141394999D01*
X135635030Y-141408804D01*
X135599999Y-141528105D01*
X135599999Y-141671892D01*
X135635030Y-141791194D01*
X135631021Y-141828482D01*
X135601820Y-141852014D01*
X135588015Y-141853999D01*
X134763456Y-141853999D01*
X134528469Y-141853999D01*
X134546023Y-141796131D01*
X134565340Y-141599999D01*
X134546023Y-141403867D01*
X134488813Y-141215272D01*
X134395909Y-141041461D01*
X134395906Y-141041457D01*
X134395904Y-141041454D01*
X134342536Y-140976426D01*
X134270882Y-140889116D01*
X134199226Y-140830309D01*
X134118543Y-140764093D01*
X134118540Y-140764091D01*
X134118538Y-140764090D01*
X134118537Y-140764089D01*
X134038591Y-140721357D01*
X133944725Y-140671184D01*
X133756131Y-140613975D01*
X133559999Y-140594658D01*
X133363866Y-140613975D01*
X133363865Y-140613975D01*
X133175272Y-140671184D01*
X133001457Y-140764091D01*
X133001454Y-140764093D01*
X132849116Y-140889116D01*
X132724093Y-141041454D01*
X132724091Y-141041457D01*
X132631184Y-141215272D01*
X132573975Y-141403865D01*
X132573975Y-141403866D01*
X132554658Y-141599998D01*
X132554658Y-141599999D01*
X132025340Y-141599999D01*
X132006023Y-141403867D01*
X131948813Y-141215272D01*
X131855909Y-141041461D01*
X131855906Y-141041457D01*
X131855904Y-141041454D01*
X131802536Y-140976426D01*
X131730882Y-140889116D01*
X131659226Y-140830309D01*
X131578543Y-140764093D01*
X131578540Y-140764091D01*
X131578538Y-140764090D01*
X131578537Y-140764089D01*
X131498591Y-140721357D01*
X131404725Y-140671184D01*
X131216131Y-140613975D01*
X131019999Y-140594658D01*
X130823866Y-140613975D01*
X130823865Y-140613975D01*
X130635272Y-140671184D01*
X130461457Y-140764091D01*
X130461454Y-140764093D01*
X130309116Y-140889116D01*
X130184093Y-141041454D01*
X130184091Y-141041457D01*
X130091184Y-141215272D01*
X130033975Y-141403865D01*
X130033975Y-141403866D01*
X130014658Y-141599998D01*
X130014658Y-141599999D01*
X129485340Y-141599999D01*
X129466023Y-141403867D01*
X129408813Y-141215272D01*
X129315909Y-141041461D01*
X129315906Y-141041457D01*
X129315904Y-141041454D01*
X129262536Y-140976426D01*
X129190882Y-140889116D01*
X129119226Y-140830309D01*
X129038543Y-140764093D01*
X129038540Y-140764091D01*
X129038538Y-140764090D01*
X129038537Y-140764089D01*
X128958591Y-140721357D01*
X128864725Y-140671184D01*
X128676131Y-140613975D01*
X128479999Y-140594658D01*
X128283866Y-140613975D01*
X128283865Y-140613975D01*
X128095272Y-140671184D01*
X127921457Y-140764091D01*
X127921454Y-140764093D01*
X127769116Y-140889116D01*
X127644093Y-141041454D01*
X127644091Y-141041457D01*
X127551184Y-141215272D01*
X127493975Y-141403865D01*
X127493975Y-141403866D01*
X127474658Y-141599998D01*
X127474658Y-141599999D01*
X126945340Y-141599999D01*
X126926023Y-141403867D01*
X126868813Y-141215272D01*
X126775909Y-141041461D01*
X126775906Y-141041457D01*
X126775904Y-141041454D01*
X126722536Y-140976426D01*
X126650882Y-140889116D01*
X126579226Y-140830309D01*
X126498543Y-140764093D01*
X126498540Y-140764091D01*
X126498538Y-140764090D01*
X126498537Y-140764089D01*
X126418591Y-140721357D01*
X126324725Y-140671184D01*
X126136131Y-140613975D01*
X125939999Y-140594658D01*
X125743866Y-140613975D01*
X125743865Y-140613975D01*
X125555272Y-140671184D01*
X125381457Y-140764091D01*
X125381454Y-140764093D01*
X125229116Y-140889116D01*
X125104093Y-141041454D01*
X125104091Y-141041457D01*
X125011184Y-141215272D01*
X124953975Y-141403865D01*
X124953975Y-141403866D01*
X124934658Y-141599998D01*
X124934658Y-141599999D01*
X124405340Y-141599999D01*
X124386023Y-141403867D01*
X124328813Y-141215272D01*
X124235909Y-141041461D01*
X124235906Y-141041457D01*
X124235904Y-141041454D01*
X124182536Y-140976426D01*
X124110882Y-140889116D01*
X124039226Y-140830309D01*
X123958543Y-140764093D01*
X123958540Y-140764091D01*
X123958538Y-140764090D01*
X123958537Y-140764089D01*
X123878591Y-140721357D01*
X123784725Y-140671184D01*
X123596131Y-140613975D01*
X123399999Y-140594658D01*
X123203866Y-140613975D01*
X123203865Y-140613975D01*
X123015272Y-140671184D01*
X122841457Y-140764091D01*
X122841454Y-140764093D01*
X122689116Y-140889116D01*
X122564093Y-141041454D01*
X122564091Y-141041457D01*
X122471184Y-141215272D01*
X122413975Y-141403865D01*
X122413975Y-141403866D01*
X122394658Y-141599998D01*
X122394658Y-141599999D01*
X121865340Y-141599999D01*
X121846023Y-141403867D01*
X121788813Y-141215272D01*
X121695909Y-141041461D01*
X121695906Y-141041457D01*
X121695904Y-141041454D01*
X121642536Y-140976426D01*
X121570882Y-140889116D01*
X121499226Y-140830309D01*
X121418543Y-140764093D01*
X121418540Y-140764091D01*
X121418538Y-140764090D01*
X121418537Y-140764089D01*
X121338591Y-140721357D01*
X121244725Y-140671184D01*
X121056131Y-140613975D01*
X120859999Y-140594658D01*
X120663866Y-140613975D01*
X120663865Y-140613975D01*
X120475272Y-140671184D01*
X120301457Y-140764091D01*
X120301454Y-140764093D01*
X120149116Y-140889116D01*
X120024093Y-141041454D01*
X120024091Y-141041457D01*
X119931184Y-141215272D01*
X119873975Y-141403865D01*
X119873975Y-141403866D01*
X119854658Y-141599998D01*
X119854658Y-141599999D01*
X119320499Y-141599999D01*
X119320499Y-140735179D01*
X119311766Y-140691277D01*
X119311765Y-140691276D01*
X119278503Y-140641494D01*
X119228720Y-140608231D01*
X119184822Y-140599499D01*
X119184819Y-140599499D01*
X117455179Y-140599499D01*
X117455175Y-140599499D01*
X117411277Y-140608231D01*
X117361494Y-140641494D01*
X117328231Y-140691277D01*
X117319499Y-140735175D01*
X117319499Y-142464822D01*
X116228984Y-142464822D01*
X116066436Y-142405659D01*
X116066433Y-142405658D01*
X116066432Y-142405658D01*
X115889719Y-142374499D01*
X105001074Y-142374499D01*
X104998938Y-142374406D01*
X104835046Y-142360068D01*
X104826634Y-142358584D01*
X104670842Y-142316839D01*
X104662816Y-142313918D01*
X104583146Y-142276768D01*
X104516629Y-142245751D01*
X104509238Y-142241483D01*
X104377111Y-142148966D01*
X104370572Y-142143479D01*
X104256520Y-142029427D01*
X104251030Y-142022884D01*
X104228318Y-141990448D01*
X104158513Y-141890756D01*
X104154250Y-141883373D01*
X104086080Y-141737181D01*
X104083160Y-141729157D01*
X104067815Y-141671888D01*
X104041413Y-141573357D01*
X104039932Y-141564960D01*
X104030443Y-141456500D01*
X104025593Y-141401059D01*
X104025500Y-141398923D01*
X104025500Y-137221891D01*
X135196552Y-137221891D01*
X135202767Y-137265119D01*
X135202768Y-137265120D01*
X135243272Y-137403066D01*
X135243278Y-137403083D01*
X135261419Y-137442806D01*
X135261422Y-137442812D01*
X135339146Y-137563754D01*
X135339151Y-137563760D01*
X135367755Y-137596769D01*
X135476415Y-137690922D01*
X135498735Y-137705266D01*
X135513155Y-137714533D01*
X135643940Y-137774261D01*
X135685847Y-137786566D01*
X135828162Y-137807028D01*
X135828166Y-137807028D01*
X135871834Y-137807028D01*
X135871838Y-137807028D01*
X135893267Y-137803946D01*
X135900240Y-137803448D01*
X136299760Y-137803448D01*
X136306732Y-137803946D01*
X136328162Y-137807028D01*
X136328166Y-137807028D01*
X136371834Y-137807028D01*
X136371838Y-137807028D01*
X136514153Y-137786566D01*
X136556060Y-137774261D01*
X136686845Y-137714533D01*
X136723586Y-137690921D01*
X136832247Y-137596767D01*
X136860850Y-137563758D01*
X136867702Y-137553097D01*
X136938577Y-137442812D01*
X136938578Y-137442811D01*
X136938579Y-137442808D01*
X136938582Y-137442804D01*
X136944820Y-137429143D01*
X136972269Y-137403589D01*
X136989392Y-137400500D01*
X161761298Y-137400500D01*
X161795946Y-137414852D01*
X163820147Y-139439052D01*
X163834499Y-139473700D01*
X163834499Y-140586542D01*
X163820147Y-140621190D01*
X163799723Y-140633432D01*
X163675274Y-140671184D01*
X163675267Y-140671187D01*
X163501457Y-140764091D01*
X163501454Y-140764093D01*
X163349116Y-140889116D01*
X163224093Y-141041454D01*
X163224091Y-141041457D01*
X163131184Y-141215272D01*
X163073975Y-141403865D01*
X163073975Y-141403866D01*
X163054658Y-141599998D01*
X163054658Y-141599999D01*
X163073975Y-141796131D01*
X163073975Y-141796132D01*
X163131184Y-141984725D01*
X163162041Y-142042454D01*
X163218973Y-142148966D01*
X163224091Y-142158540D01*
X163224093Y-142158543D01*
X163290309Y-142239226D01*
X163349116Y-142310882D01*
X163409047Y-142360066D01*
X163501454Y-142435904D01*
X163501457Y-142435906D01*
X163501461Y-142435909D01*
X163675272Y-142528813D01*
X163863867Y-142586023D01*
X164059999Y-142605340D01*
X164256131Y-142586023D01*
X164444726Y-142528813D01*
X164618537Y-142435909D01*
X164770882Y-142310882D01*
X164895909Y-142158537D01*
X164988813Y-141984726D01*
X165046023Y-141796131D01*
X165065340Y-141599999D01*
X165046023Y-141403867D01*
X164988813Y-141215272D01*
X164895909Y-141041461D01*
X164895906Y-141041457D01*
X164895904Y-141041454D01*
X164842536Y-140976426D01*
X164770882Y-140889116D01*
X164699226Y-140830309D01*
X164618543Y-140764093D01*
X164618540Y-140764091D01*
X164618538Y-140764090D01*
X164618537Y-140764089D01*
X164444726Y-140671185D01*
X164444723Y-140671184D01*
X164320275Y-140633432D01*
X164291285Y-140609640D01*
X164285499Y-140586542D01*
X164285499Y-139366558D01*
X164285533Y-139365276D01*
X164286288Y-139350846D01*
X164287699Y-139323935D01*
X164278258Y-139299343D01*
X164276081Y-139291992D01*
X164270606Y-139266231D01*
X164263674Y-139256690D01*
X164257570Y-139245451D01*
X164253344Y-139234439D01*
X164234728Y-139215823D01*
X164229734Y-139209976D01*
X164214258Y-139188675D01*
X164204043Y-139182777D01*
X164193895Y-139174990D01*
X164193894Y-139174990D01*
X162039067Y-137020162D01*
X162038212Y-137019261D01*
X162010507Y-136988491D01*
X162010506Y-136988490D01*
X161986456Y-136977782D01*
X161979700Y-136974114D01*
X161957618Y-136959774D01*
X161957612Y-136959772D01*
X161945965Y-136957927D01*
X161933705Y-136954296D01*
X161922932Y-136949500D01*
X161896606Y-136949500D01*
X161888942Y-136948897D01*
X161862935Y-136944778D01*
X161862932Y-136944778D01*
X161851545Y-136947830D01*
X161838863Y-136949500D01*
X140489112Y-136949500D01*
X140454464Y-136935148D01*
X140440112Y-136900500D01*
X140452080Y-136868412D01*
X140466162Y-136852158D01*
X140490921Y-136823586D01*
X140514533Y-136786845D01*
X140574261Y-136656060D01*
X140586566Y-136614153D01*
X140607028Y-136471838D01*
X140607028Y-136471831D01*
X140607089Y-136470994D01*
X140607173Y-136470825D01*
X140607277Y-136470106D01*
X140607516Y-136470140D01*
X140623883Y-136437462D01*
X140655963Y-136425500D01*
X164986297Y-136425500D01*
X165020945Y-136439852D01*
X166360147Y-137779053D01*
X166374499Y-137813701D01*
X166374499Y-140586542D01*
X166360147Y-140621190D01*
X166339723Y-140633432D01*
X166215274Y-140671184D01*
X166215267Y-140671187D01*
X166041457Y-140764091D01*
X166041454Y-140764093D01*
X165889116Y-140889116D01*
X165764093Y-141041454D01*
X165764091Y-141041457D01*
X165671184Y-141215272D01*
X165613975Y-141403865D01*
X165613975Y-141403866D01*
X165594658Y-141599998D01*
X165594658Y-141599999D01*
X165613975Y-141796131D01*
X165613975Y-141796132D01*
X165671184Y-141984725D01*
X165702041Y-142042454D01*
X165758973Y-142148966D01*
X165764091Y-142158540D01*
X165764093Y-142158543D01*
X165830309Y-142239226D01*
X165889116Y-142310882D01*
X165949047Y-142360066D01*
X166041454Y-142435904D01*
X166041457Y-142435906D01*
X166041461Y-142435909D01*
X166215272Y-142528813D01*
X166403867Y-142586023D01*
X166599999Y-142605340D01*
X166796131Y-142586023D01*
X166984726Y-142528813D01*
X167158537Y-142435909D01*
X167310882Y-142310882D01*
X167435909Y-142158537D01*
X167528813Y-141984726D01*
X167586023Y-141796131D01*
X167605340Y-141599999D01*
X168134658Y-141599999D01*
X168153975Y-141796131D01*
X168153975Y-141796132D01*
X168211184Y-141984725D01*
X168242041Y-142042454D01*
X168298973Y-142148966D01*
X168304091Y-142158540D01*
X168304093Y-142158543D01*
X168370309Y-142239226D01*
X168429116Y-142310882D01*
X168489047Y-142360066D01*
X168581454Y-142435904D01*
X168581457Y-142435906D01*
X168581461Y-142435909D01*
X168755272Y-142528813D01*
X168943867Y-142586023D01*
X169139999Y-142605340D01*
X169336131Y-142586023D01*
X169524726Y-142528813D01*
X169698537Y-142435909D01*
X169850882Y-142310882D01*
X169975909Y-142158537D01*
X170068813Y-141984726D01*
X170126023Y-141796131D01*
X170145340Y-141599999D01*
X170674658Y-141599999D01*
X170693975Y-141796131D01*
X170693975Y-141796132D01*
X170751184Y-141984725D01*
X170782041Y-142042454D01*
X170838973Y-142148966D01*
X170844091Y-142158540D01*
X170844093Y-142158543D01*
X170910309Y-142239226D01*
X170969116Y-142310882D01*
X171029047Y-142360066D01*
X171121454Y-142435904D01*
X171121457Y-142435906D01*
X171121461Y-142435909D01*
X171295272Y-142528813D01*
X171483867Y-142586023D01*
X171679999Y-142605340D01*
X171876131Y-142586023D01*
X172064726Y-142528813D01*
X172238537Y-142435909D01*
X172390882Y-142310882D01*
X172515909Y-142158537D01*
X172608813Y-141984726D01*
X172666023Y-141796131D01*
X172685340Y-141599999D01*
X173214658Y-141599999D01*
X173233975Y-141796131D01*
X173233975Y-141796132D01*
X173291184Y-141984725D01*
X173322041Y-142042454D01*
X173378973Y-142148966D01*
X173384091Y-142158540D01*
X173384093Y-142158543D01*
X173450309Y-142239226D01*
X173509116Y-142310882D01*
X173569047Y-142360066D01*
X173661454Y-142435904D01*
X173661457Y-142435906D01*
X173661461Y-142435909D01*
X173835272Y-142528813D01*
X174023867Y-142586023D01*
X174200681Y-142603437D01*
X174219998Y-142605340D01*
X174219998Y-142605339D01*
X174219999Y-142605340D01*
X174416131Y-142586023D01*
X174604726Y-142528813D01*
X174778537Y-142435909D01*
X174930882Y-142310882D01*
X175055909Y-142158537D01*
X175148813Y-141984726D01*
X175188469Y-141853999D01*
X175423456Y-141853999D01*
X175471178Y-142042454D01*
X175561579Y-142248548D01*
X175561583Y-142248554D01*
X175684672Y-142436955D01*
X175837101Y-142602538D01*
X176014693Y-142740763D01*
X176014707Y-142740772D01*
X176212619Y-142847877D01*
X176212629Y-142847881D01*
X176425485Y-142920955D01*
X176505998Y-142934390D01*
X176505999Y-142934390D01*
X176505999Y-142109919D01*
X176520351Y-142075271D01*
X176554999Y-142060919D01*
X176575351Y-142065346D01*
X176617684Y-142084679D01*
X176724236Y-142099999D01*
X176724240Y-142099999D01*
X176795758Y-142099999D01*
X176795762Y-142099999D01*
X176902314Y-142084679D01*
X176944644Y-142065346D01*
X176982122Y-142064008D01*
X177009571Y-142089563D01*
X177013999Y-142109919D01*
X177013999Y-142934390D01*
X177094512Y-142920955D01*
X177307368Y-142847881D01*
X177307378Y-142847877D01*
X177505290Y-142740772D01*
X177505304Y-142740763D01*
X177682896Y-142602538D01*
X177835325Y-142436955D01*
X177958414Y-142248554D01*
X177958418Y-142248548D01*
X178048819Y-142042454D01*
X178096542Y-141853999D01*
X177271983Y-141853999D01*
X177237335Y-141839647D01*
X177222983Y-141804999D01*
X177224968Y-141791194D01*
X177259998Y-141671892D01*
X177259999Y-141671887D01*
X177259999Y-141528110D01*
X177259998Y-141528105D01*
X177224968Y-141408804D01*
X177228977Y-141371516D01*
X177258178Y-141347984D01*
X177271983Y-141345999D01*
X178096542Y-141345999D01*
X178048819Y-141157543D01*
X177958418Y-140951449D01*
X177958414Y-140951443D01*
X177835325Y-140763042D01*
X177682896Y-140597459D01*
X177505304Y-140459234D01*
X177505290Y-140459225D01*
X177307378Y-140352120D01*
X177307368Y-140352116D01*
X177094514Y-140279043D01*
X177013998Y-140265606D01*
X177013999Y-141090078D01*
X176999647Y-141124726D01*
X176964999Y-141139078D01*
X176944644Y-141134650D01*
X176902318Y-141115320D01*
X176902314Y-141115319D01*
X176795764Y-141099999D01*
X176795762Y-141099999D01*
X176724236Y-141099999D01*
X176724233Y-141099999D01*
X176617683Y-141115319D01*
X176617679Y-141115320D01*
X176575354Y-141134650D01*
X176537875Y-141135989D01*
X176510427Y-141110433D01*
X176505999Y-141090078D01*
X176505999Y-140265606D01*
X176425483Y-140279043D01*
X176212629Y-140352116D01*
X176212619Y-140352120D01*
X176014707Y-140459225D01*
X176014693Y-140459234D01*
X175837101Y-140597459D01*
X175684672Y-140763042D01*
X175561583Y-140951443D01*
X175561579Y-140951449D01*
X175471178Y-141157543D01*
X175423456Y-141345999D01*
X176248015Y-141345999D01*
X176282663Y-141360351D01*
X176297015Y-141394999D01*
X176295030Y-141408804D01*
X176259999Y-141528105D01*
X176259999Y-141671892D01*
X176295030Y-141791194D01*
X176291021Y-141828482D01*
X176261820Y-141852014D01*
X176248015Y-141853999D01*
X175423456Y-141853999D01*
X175188469Y-141853999D01*
X175206023Y-141796131D01*
X175225340Y-141599999D01*
X175206023Y-141403867D01*
X175148813Y-141215272D01*
X175055909Y-141041461D01*
X175055906Y-141041457D01*
X175055904Y-141041454D01*
X175002536Y-140976426D01*
X174930882Y-140889116D01*
X174859226Y-140830309D01*
X174778543Y-140764093D01*
X174778540Y-140764091D01*
X174778538Y-140764090D01*
X174778537Y-140764089D01*
X174698591Y-140721357D01*
X174604725Y-140671184D01*
X174416131Y-140613975D01*
X174219999Y-140594658D01*
X174023866Y-140613975D01*
X174023865Y-140613975D01*
X173835272Y-140671184D01*
X173661457Y-140764091D01*
X173661454Y-140764093D01*
X173509116Y-140889116D01*
X173384093Y-141041454D01*
X173384091Y-141041457D01*
X173291184Y-141215272D01*
X173233975Y-141403865D01*
X173233975Y-141403866D01*
X173214658Y-141599998D01*
X173214658Y-141599999D01*
X172685340Y-141599999D01*
X172666023Y-141403867D01*
X172608813Y-141215272D01*
X172515909Y-141041461D01*
X172515906Y-141041457D01*
X172515904Y-141041454D01*
X172462536Y-140976426D01*
X172390882Y-140889116D01*
X172319226Y-140830309D01*
X172238543Y-140764093D01*
X172238540Y-140764091D01*
X172238538Y-140764090D01*
X172238537Y-140764089D01*
X172158591Y-140721357D01*
X172064725Y-140671184D01*
X171876131Y-140613975D01*
X171679999Y-140594658D01*
X171483866Y-140613975D01*
X171483865Y-140613975D01*
X171295272Y-140671184D01*
X171121457Y-140764091D01*
X171121454Y-140764093D01*
X170969116Y-140889116D01*
X170844093Y-141041454D01*
X170844091Y-141041457D01*
X170751184Y-141215272D01*
X170693975Y-141403865D01*
X170693975Y-141403866D01*
X170674658Y-141599998D01*
X170674658Y-141599999D01*
X170145340Y-141599999D01*
X170126023Y-141403867D01*
X170068813Y-141215272D01*
X169975909Y-141041461D01*
X169975906Y-141041457D01*
X169975904Y-141041454D01*
X169922536Y-140976426D01*
X169850882Y-140889116D01*
X169779226Y-140830309D01*
X169698543Y-140764093D01*
X169698540Y-140764091D01*
X169698538Y-140764090D01*
X169698537Y-140764089D01*
X169618591Y-140721357D01*
X169524725Y-140671184D01*
X169336131Y-140613975D01*
X169139999Y-140594658D01*
X168943866Y-140613975D01*
X168943865Y-140613975D01*
X168755272Y-140671184D01*
X168581457Y-140764091D01*
X168581454Y-140764093D01*
X168429116Y-140889116D01*
X168304093Y-141041454D01*
X168304091Y-141041457D01*
X168211184Y-141215272D01*
X168153975Y-141403865D01*
X168153975Y-141403866D01*
X168134658Y-141599998D01*
X168134658Y-141599999D01*
X167605340Y-141599999D01*
X167586023Y-141403867D01*
X167528813Y-141215272D01*
X167435909Y-141041461D01*
X167435906Y-141041457D01*
X167435904Y-141041454D01*
X167382536Y-140976426D01*
X167310882Y-140889116D01*
X167239226Y-140830309D01*
X167158543Y-140764093D01*
X167158540Y-140764091D01*
X167158538Y-140764090D01*
X167158537Y-140764089D01*
X166984726Y-140671185D01*
X166984723Y-140671184D01*
X166860275Y-140633432D01*
X166831285Y-140609640D01*
X166825499Y-140586542D01*
X166825499Y-137706548D01*
X166825533Y-137705266D01*
X166826293Y-137690733D01*
X166827698Y-137663936D01*
X166818261Y-137639353D01*
X166816082Y-137631996D01*
X166810606Y-137606232D01*
X166803674Y-137596691D01*
X166797570Y-137585452D01*
X166793344Y-137574440D01*
X166774728Y-137555824D01*
X166769734Y-137549977D01*
X166754258Y-137528676D01*
X166744043Y-137522778D01*
X166733895Y-137514991D01*
X166005749Y-136786845D01*
X165264066Y-136045162D01*
X165263211Y-136044261D01*
X165235506Y-136013491D01*
X165235505Y-136013490D01*
X165211455Y-136002782D01*
X165204699Y-135999114D01*
X165182617Y-135984774D01*
X165182611Y-135984772D01*
X165170964Y-135982927D01*
X165158704Y-135979296D01*
X165147931Y-135974500D01*
X165121605Y-135974500D01*
X165113941Y-135973897D01*
X165087934Y-135969778D01*
X165087931Y-135969778D01*
X165076544Y-135972830D01*
X165063862Y-135974500D01*
X140655963Y-135974500D01*
X140621315Y-135960148D01*
X140607481Y-135929864D01*
X140607277Y-135929894D01*
X140607177Y-135929198D01*
X140607089Y-135929006D01*
X140607028Y-135928168D01*
X140607028Y-135928162D01*
X140586566Y-135785847D01*
X140574261Y-135743940D01*
X140514533Y-135613155D01*
X140490921Y-135576414D01*
X140396769Y-135467755D01*
X140363760Y-135439151D01*
X140363754Y-135439146D01*
X140242812Y-135361422D01*
X140242806Y-135361419D01*
X140203083Y-135343278D01*
X140203066Y-135343272D01*
X140065120Y-135302768D01*
X140065119Y-135302767D01*
X140021891Y-135296552D01*
X140021889Y-135296552D01*
X139450000Y-135296552D01*
X139449996Y-135296552D01*
X139391278Y-135308232D01*
X139341495Y-135341495D01*
X139340740Y-135342626D01*
X139339610Y-135343380D01*
X139338083Y-135344908D01*
X139337779Y-135344604D01*
X139309556Y-135363459D01*
X139272774Y-135356140D01*
X139259260Y-135342626D01*
X139258504Y-135341495D01*
X139208721Y-135308232D01*
X139150003Y-135296552D01*
X139150000Y-135296552D01*
X138578111Y-135296552D01*
X138578108Y-135296552D01*
X138534880Y-135302767D01*
X138534879Y-135302768D01*
X138396933Y-135343272D01*
X138396916Y-135343278D01*
X138357193Y-135361419D01*
X138357187Y-135361422D01*
X138236245Y-135439146D01*
X138236239Y-135439151D01*
X138203230Y-135467755D01*
X138109077Y-135576415D01*
X138085469Y-135613150D01*
X138025738Y-135743940D01*
X138013434Y-135785846D01*
X138013433Y-135785849D01*
X137992972Y-135928157D01*
X137992972Y-135971842D01*
X137996053Y-135993267D01*
X137996552Y-136000240D01*
X137996552Y-136399759D01*
X137996053Y-136406732D01*
X137992972Y-136428157D01*
X137992972Y-136471842D01*
X138013433Y-136614150D01*
X138013434Y-136614153D01*
X138025738Y-136656059D01*
X138085469Y-136786849D01*
X138109077Y-136823584D01*
X138147920Y-136868412D01*
X138159763Y-136903996D01*
X138142976Y-136937532D01*
X138110888Y-136949500D01*
X137052448Y-136949500D01*
X137017800Y-136935148D01*
X137003448Y-136900500D01*
X137003448Y-136650000D01*
X137003447Y-136649996D01*
X136991767Y-136591278D01*
X136958504Y-136541495D01*
X136957377Y-136540742D01*
X136956623Y-136539614D01*
X136955092Y-136538083D01*
X136955396Y-136537778D01*
X136936541Y-136509560D01*
X136943857Y-136472778D01*
X136957377Y-136459258D01*
X136958504Y-136458504D01*
X136970967Y-136439852D01*
X136991767Y-136408722D01*
X137003448Y-136350000D01*
X137003448Y-135778111D01*
X136997232Y-135734880D01*
X136956725Y-135596925D01*
X136938582Y-135557196D01*
X136938579Y-135557192D01*
X136938577Y-135557187D01*
X136860853Y-135436245D01*
X136860848Y-135436239D01*
X136832244Y-135403230D01*
X136723584Y-135309077D01*
X136686849Y-135285469D01*
X136556059Y-135225738D01*
X136514153Y-135213434D01*
X136514150Y-135213433D01*
X136371842Y-135192972D01*
X136371838Y-135192972D01*
X136328162Y-135192972D01*
X136328157Y-135192972D01*
X136306733Y-135196053D01*
X136299760Y-135196552D01*
X135900240Y-135196552D01*
X135893267Y-135196053D01*
X135871842Y-135192972D01*
X135871838Y-135192972D01*
X135828162Y-135192972D01*
X135828157Y-135192972D01*
X135685849Y-135213433D01*
X135685846Y-135213434D01*
X135643940Y-135225738D01*
X135513150Y-135285469D01*
X135476415Y-135309077D01*
X135367755Y-135403230D01*
X135339151Y-135436239D01*
X135339146Y-135436245D01*
X135261422Y-135557187D01*
X135261419Y-135557193D01*
X135243278Y-135596916D01*
X135243272Y-135596933D01*
X135202768Y-135734879D01*
X135202767Y-135734880D01*
X135196552Y-135778108D01*
X135196552Y-136350003D01*
X135208232Y-136408721D01*
X135241495Y-136458504D01*
X135242626Y-136459260D01*
X135243380Y-136460389D01*
X135244908Y-136461917D01*
X135244604Y-136462220D01*
X135263459Y-136490444D01*
X135256140Y-136527226D01*
X135242626Y-136540740D01*
X135241495Y-136541495D01*
X135208232Y-136591278D01*
X135196552Y-136649996D01*
X135196552Y-137221891D01*
X104025500Y-137221891D01*
X104025500Y-136401074D01*
X104025593Y-136398938D01*
X104033349Y-136310280D01*
X104039932Y-136235037D01*
X104041413Y-136226644D01*
X104083161Y-136070837D01*
X104086078Y-136062821D01*
X104154252Y-135916620D01*
X104158509Y-135909248D01*
X104251035Y-135777108D01*
X104256514Y-135770578D01*
X104370578Y-135656514D01*
X104377108Y-135651035D01*
X104509248Y-135558509D01*
X104516620Y-135554252D01*
X104662821Y-135486078D01*
X104670837Y-135483161D01*
X104826644Y-135441413D01*
X104835037Y-135439932D01*
X104957418Y-135429225D01*
X104998940Y-135425593D01*
X105001076Y-135425500D01*
X114089714Y-135425500D01*
X114089720Y-135425500D01*
X114266433Y-135394340D01*
X114435050Y-135332969D01*
X114590449Y-135243249D01*
X114727908Y-135127908D01*
X114843249Y-134990449D01*
X114932969Y-134835050D01*
X114994340Y-134666433D01*
X115025500Y-134489720D01*
X115025500Y-134400000D01*
X115025500Y-134391715D01*
X115025500Y-132266907D01*
X152170508Y-132266907D01*
X152190354Y-132392211D01*
X152190354Y-132392212D01*
X152190355Y-132392214D01*
X152190355Y-132392216D01*
X152247945Y-132505242D01*
X152247950Y-132505249D01*
X152337657Y-132594956D01*
X152337664Y-132594961D01*
X152450691Y-132652551D01*
X152450692Y-132652551D01*
X152450696Y-132652553D01*
X152576000Y-132672399D01*
X152576000Y-132672398D01*
X152576002Y-132672399D01*
X152576003Y-132672399D01*
X152588736Y-132670381D01*
X152598335Y-132668861D01*
X152634802Y-132677614D01*
X152654398Y-132709590D01*
X152654399Y-132724921D01*
X152642509Y-132799999D01*
X152642509Y-132800000D01*
X152662355Y-132925304D01*
X152662355Y-132925305D01*
X152662356Y-132925307D01*
X152662356Y-132925309D01*
X152719946Y-133038335D01*
X152719951Y-133038342D01*
X152809658Y-133128049D01*
X152809665Y-133128054D01*
X152922692Y-133185644D01*
X152922693Y-133185644D01*
X152922697Y-133185646D01*
X153048001Y-133205492D01*
X153173305Y-133185646D01*
X153173309Y-133185644D01*
X153173310Y-133185644D01*
X153286336Y-133128054D01*
X153286338Y-133128052D01*
X153286343Y-133128050D01*
X153376051Y-133038342D01*
X153381293Y-133028054D01*
X153433645Y-132925309D01*
X153433645Y-132925307D01*
X153433647Y-132925304D01*
X153453493Y-132800000D01*
X153437207Y-132697178D01*
X153445962Y-132660715D01*
X153477938Y-132641119D01*
X153493263Y-132641119D01*
X153525500Y-132646225D01*
X153538405Y-132644181D01*
X153574872Y-132652934D01*
X153594468Y-132684910D01*
X153594470Y-132696144D01*
X153594508Y-132696144D01*
X153594508Y-132699998D01*
X153594508Y-132700000D01*
X153614354Y-132825304D01*
X153614354Y-132825305D01*
X153614355Y-132825307D01*
X153614355Y-132825309D01*
X153671945Y-132938335D01*
X153671950Y-132938342D01*
X153761657Y-133028049D01*
X153761664Y-133028054D01*
X153874691Y-133085644D01*
X153874692Y-133085644D01*
X153874696Y-133085646D01*
X154000000Y-133105492D01*
X154125304Y-133085646D01*
X154125308Y-133085644D01*
X154125309Y-133085644D01*
X154238335Y-133028054D01*
X154238337Y-133028052D01*
X154238342Y-133028050D01*
X154328050Y-132938342D01*
X154334692Y-132925307D01*
X154385644Y-132825309D01*
X154385644Y-132825307D01*
X154385646Y-132825304D01*
X154405492Y-132700000D01*
X154385646Y-132574696D01*
X154383609Y-132570698D01*
X154380666Y-132533311D01*
X154405022Y-132504793D01*
X154434929Y-132500055D01*
X154475574Y-132506493D01*
X154527595Y-132498253D01*
X154564061Y-132507008D01*
X154583656Y-132538983D01*
X154598182Y-132630695D01*
X154598182Y-132630696D01*
X154598183Y-132630698D01*
X154598183Y-132630700D01*
X154655773Y-132743726D01*
X154655778Y-132743733D01*
X154745485Y-132833440D01*
X154745492Y-132833445D01*
X154858519Y-132891035D01*
X154858520Y-132891035D01*
X154858524Y-132891037D01*
X154983828Y-132910883D01*
X155109132Y-132891037D01*
X155109136Y-132891035D01*
X155109137Y-132891035D01*
X155222163Y-132833445D01*
X155222165Y-132833443D01*
X155222170Y-132833441D01*
X155311878Y-132743733D01*
X155346687Y-132675413D01*
X155375202Y-132651060D01*
X155412590Y-132654001D01*
X155412591Y-132654002D01*
X155441144Y-132668550D01*
X155474696Y-132685646D01*
X155600000Y-132705492D01*
X155725304Y-132685646D01*
X155725308Y-132685644D01*
X155725309Y-132685644D01*
X155838335Y-132628054D01*
X155838337Y-132628052D01*
X155838342Y-132628050D01*
X155928050Y-132538342D01*
X155928054Y-132538335D01*
X155985644Y-132425309D01*
X155985644Y-132425307D01*
X155985646Y-132425304D01*
X156005492Y-132300000D01*
X155985646Y-132174696D01*
X155985644Y-132174692D01*
X155985644Y-132174690D01*
X155928054Y-132061664D01*
X155928049Y-132061657D01*
X155838342Y-131971950D01*
X155838335Y-131971945D01*
X155725308Y-131914355D01*
X155725305Y-131914354D01*
X155725304Y-131914354D01*
X155600000Y-131894508D01*
X155599999Y-131894508D01*
X155562185Y-131900497D01*
X155474696Y-131914354D01*
X155474694Y-131914354D01*
X155474692Y-131914355D01*
X155474690Y-131914355D01*
X155361664Y-131971945D01*
X155361657Y-131971950D01*
X155271950Y-132061657D01*
X155271946Y-132061662D01*
X155237140Y-132129975D01*
X155208623Y-132154331D01*
X155171236Y-132151388D01*
X155109134Y-132119746D01*
X155109133Y-132119745D01*
X155109132Y-132119745D01*
X154983828Y-132099899D01*
X154983827Y-132099899D01*
X154931806Y-132108138D01*
X154895339Y-132099382D01*
X154875745Y-132067408D01*
X154861220Y-131975697D01*
X154861218Y-131975693D01*
X154861218Y-131975691D01*
X154803628Y-131862665D01*
X154803623Y-131862658D01*
X154713916Y-131772951D01*
X154713909Y-131772946D01*
X154600882Y-131715356D01*
X154600879Y-131715355D01*
X154600878Y-131715355D01*
X154475574Y-131695509D01*
X154350270Y-131715355D01*
X154350268Y-131715355D01*
X154350266Y-131715356D01*
X154350264Y-131715356D01*
X154237238Y-131772946D01*
X154237231Y-131772951D01*
X154147524Y-131862658D01*
X154147519Y-131862665D01*
X154089929Y-131975691D01*
X154089929Y-131975693D01*
X154089928Y-131975695D01*
X154089928Y-131975697D01*
X154085700Y-132002391D01*
X154070257Y-132099899D01*
X154070082Y-132101001D01*
X154089928Y-132226305D01*
X154089928Y-132226306D01*
X154089929Y-132226307D01*
X154091966Y-132230306D01*
X154094905Y-132267694D01*
X154070547Y-132296209D01*
X154040641Y-132300944D01*
X154000000Y-132294508D01*
X153999998Y-132294508D01*
X153987090Y-132296552D01*
X153950624Y-132287796D01*
X153931030Y-132255818D01*
X153931031Y-132244590D01*
X153930992Y-132244590D01*
X153930992Y-132240734D01*
X153930992Y-132240733D01*
X153911146Y-132115429D01*
X153911144Y-132115425D01*
X153911144Y-132115423D01*
X153853554Y-132002397D01*
X153853549Y-132002390D01*
X153763842Y-131912683D01*
X153763835Y-131912678D01*
X153650808Y-131855088D01*
X153650805Y-131855087D01*
X153650804Y-131855087D01*
X153525500Y-131835241D01*
X153400196Y-131855087D01*
X153400194Y-131855087D01*
X153400192Y-131855088D01*
X153400190Y-131855088D01*
X153287164Y-131912678D01*
X153287157Y-131912683D01*
X153197450Y-132002390D01*
X153197445Y-132002397D01*
X153139855Y-132115423D01*
X153139855Y-132115425D01*
X153139854Y-132115427D01*
X153139854Y-132115429D01*
X153120008Y-132240733D01*
X153136292Y-132343551D01*
X153127538Y-132380016D01*
X153095561Y-132399612D01*
X153080232Y-132399612D01*
X153048001Y-132394508D01*
X153025662Y-132398046D01*
X152989195Y-132389290D01*
X152969600Y-132357314D01*
X152969600Y-132341990D01*
X152981492Y-132266907D01*
X152961646Y-132141603D01*
X152961644Y-132141599D01*
X152961644Y-132141597D01*
X152904054Y-132028571D01*
X152904049Y-132028564D01*
X152814342Y-131938857D01*
X152814335Y-131938852D01*
X152701308Y-131881262D01*
X152701305Y-131881261D01*
X152701304Y-131881261D01*
X152576000Y-131861415D01*
X152450696Y-131881261D01*
X152450694Y-131881261D01*
X152450692Y-131881262D01*
X152450690Y-131881262D01*
X152337664Y-131938852D01*
X152337657Y-131938857D01*
X152247950Y-132028564D01*
X152247945Y-132028571D01*
X152190355Y-132141597D01*
X152190355Y-132141599D01*
X152190354Y-132141601D01*
X152190354Y-132141603D01*
X152188338Y-132154331D01*
X152174654Y-132240733D01*
X152170508Y-132266907D01*
X115025500Y-132266907D01*
X115025500Y-130800000D01*
X156020008Y-130800000D01*
X156039854Y-130925304D01*
X156039854Y-130925305D01*
X156039855Y-130925307D01*
X156039855Y-130925309D01*
X156097445Y-131038335D01*
X156097450Y-131038342D01*
X156187157Y-131128049D01*
X156187164Y-131128054D01*
X156300191Y-131185644D01*
X156300192Y-131185644D01*
X156300196Y-131185646D01*
X156425500Y-131205492D01*
X156550804Y-131185646D01*
X156550808Y-131185644D01*
X156550809Y-131185644D01*
X156663835Y-131128054D01*
X156663837Y-131128052D01*
X156663842Y-131128050D01*
X156753550Y-131038342D01*
X156753554Y-131038335D01*
X156773087Y-131000000D01*
X172594508Y-131000000D01*
X172614354Y-131125304D01*
X172614354Y-131125305D01*
X172614355Y-131125307D01*
X172614355Y-131125309D01*
X172671945Y-131238335D01*
X172671950Y-131238342D01*
X172761657Y-131328049D01*
X172761664Y-131328054D01*
X172874691Y-131385644D01*
X172874692Y-131385644D01*
X172874696Y-131385646D01*
X173000000Y-131405492D01*
X173125304Y-131385646D01*
X173125308Y-131385644D01*
X173125309Y-131385644D01*
X173238335Y-131328054D01*
X173238337Y-131328052D01*
X173238342Y-131328050D01*
X173328050Y-131238342D01*
X173344788Y-131205492D01*
X173385644Y-131125309D01*
X173385644Y-131125307D01*
X173385646Y-131125304D01*
X173405492Y-131000000D01*
X173385646Y-130874696D01*
X173385644Y-130874692D01*
X173385644Y-130874690D01*
X173328054Y-130761664D01*
X173328049Y-130761657D01*
X173238342Y-130671950D01*
X173238335Y-130671945D01*
X173125308Y-130614355D01*
X173125305Y-130614354D01*
X173125304Y-130614354D01*
X173000000Y-130594508D01*
X172874696Y-130614354D01*
X172874694Y-130614354D01*
X172874692Y-130614355D01*
X172874690Y-130614355D01*
X172761664Y-130671945D01*
X172761657Y-130671950D01*
X172671950Y-130761657D01*
X172671945Y-130761664D01*
X172614355Y-130874690D01*
X172614355Y-130874692D01*
X172614354Y-130874694D01*
X172614354Y-130874696D01*
X172594508Y-131000000D01*
X156773087Y-131000000D01*
X156811144Y-130925309D01*
X156811144Y-130925307D01*
X156811146Y-130925304D01*
X156830992Y-130800000D01*
X156811146Y-130674696D01*
X156811144Y-130674692D01*
X156811144Y-130674690D01*
X156753554Y-130561664D01*
X156753549Y-130561657D01*
X156663842Y-130471950D01*
X156663835Y-130471945D01*
X156550808Y-130414355D01*
X156550805Y-130414354D01*
X156550804Y-130414354D01*
X156425500Y-130394508D01*
X156300196Y-130414354D01*
X156300194Y-130414354D01*
X156300192Y-130414355D01*
X156300190Y-130414355D01*
X156187164Y-130471945D01*
X156187157Y-130471950D01*
X156097450Y-130561657D01*
X156097445Y-130561664D01*
X156039855Y-130674690D01*
X156039855Y-130674692D01*
X156039854Y-130674694D01*
X156039854Y-130674696D01*
X156020008Y-130800000D01*
X115025500Y-130800000D01*
X115025500Y-128672101D01*
X115533330Y-128672101D01*
X115543103Y-128877251D01*
X115543104Y-128877257D01*
X115591529Y-129076866D01*
X115660445Y-129227769D01*
X115676852Y-129263696D01*
X115795993Y-129431006D01*
X115825079Y-129458739D01*
X115944641Y-129572742D01*
X115944643Y-129572743D01*
X115944645Y-129572745D01*
X116037445Y-129632384D01*
X116117433Y-129683790D01*
X116308113Y-129760128D01*
X116308115Y-129760128D01*
X116308117Y-129760129D01*
X116509801Y-129799000D01*
X116509805Y-129799000D01*
X116663721Y-129799000D01*
X116663731Y-129799000D01*
X116816965Y-129784368D01*
X117014040Y-129726501D01*
X117196603Y-129632384D01*
X117358055Y-129505416D01*
X117492560Y-129350189D01*
X117595258Y-129172311D01*
X117662436Y-128978212D01*
X117691667Y-128774907D01*
X117691311Y-128767435D01*
X135858168Y-128767435D01*
X135888634Y-128940211D01*
X135924248Y-129022774D01*
X135958123Y-129101306D01*
X136062888Y-129242030D01*
X136062889Y-129242030D01*
X136197285Y-129354802D01*
X136354066Y-129433540D01*
X136524778Y-129474000D01*
X136524779Y-129474000D01*
X136656204Y-129474000D01*
X136656208Y-129474000D01*
X136786754Y-129458741D01*
X136951616Y-129398737D01*
X137098195Y-129302330D01*
X137134643Y-129263698D01*
X137218586Y-129174723D01*
X137218591Y-129174718D01*
X137306311Y-129022781D01*
X137356629Y-128854710D01*
X137366830Y-128679565D01*
X137365514Y-128672101D01*
X140693330Y-128672101D01*
X140703103Y-128877251D01*
X140703104Y-128877257D01*
X140751529Y-129076866D01*
X140820445Y-129227769D01*
X140836852Y-129263696D01*
X140955993Y-129431006D01*
X140985079Y-129458739D01*
X141104641Y-129572742D01*
X141104643Y-129572743D01*
X141104645Y-129572745D01*
X141197445Y-129632384D01*
X141277433Y-129683790D01*
X141468113Y-129760128D01*
X141468115Y-129760128D01*
X141468117Y-129760129D01*
X141669801Y-129799000D01*
X141669805Y-129799000D01*
X141823721Y-129799000D01*
X141823731Y-129799000D01*
X141976965Y-129784368D01*
X142174040Y-129726501D01*
X142356603Y-129632384D01*
X142518055Y-129505416D01*
X142652560Y-129350189D01*
X142755258Y-129172311D01*
X142822436Y-128978212D01*
X142851667Y-128774907D01*
X142847125Y-128679568D01*
X142841894Y-128569748D01*
X142841894Y-128569744D01*
X142793470Y-128370138D01*
X142787387Y-128356819D01*
X142750651Y-128276377D01*
X142708146Y-128183304D01*
X142589005Y-128015994D01*
X142480706Y-127912731D01*
X142440356Y-127874257D01*
X142324811Y-127800000D01*
X151270008Y-127800000D01*
X151289854Y-127925304D01*
X151289854Y-127925305D01*
X151289855Y-127925307D01*
X151289855Y-127925309D01*
X151347445Y-128038335D01*
X151347450Y-128038342D01*
X151437157Y-128128049D01*
X151437164Y-128128054D01*
X151550191Y-128185644D01*
X151550192Y-128185644D01*
X151550196Y-128185646D01*
X151675500Y-128205492D01*
X151710175Y-128200000D01*
X159844722Y-128200000D01*
X159863763Y-128356819D01*
X159919780Y-128504524D01*
X159977627Y-128588330D01*
X160009517Y-128634530D01*
X160009519Y-128634531D01*
X160009520Y-128634533D01*
X160065153Y-128683819D01*
X160127760Y-128739283D01*
X160267635Y-128812696D01*
X160421015Y-128850500D01*
X160421016Y-128850500D01*
X160578983Y-128850500D01*
X160578985Y-128850500D01*
X160732365Y-128812696D01*
X160872240Y-128739283D01*
X160939569Y-128679634D01*
X160975021Y-128667401D01*
X161008739Y-128683819D01*
X161020979Y-128719161D01*
X161018168Y-128767431D01*
X161018168Y-128767435D01*
X161048634Y-128940211D01*
X161084248Y-129022774D01*
X161118123Y-129101306D01*
X161222888Y-129242030D01*
X161222889Y-129242030D01*
X161357285Y-129354802D01*
X161514066Y-129433540D01*
X161684778Y-129474000D01*
X161684779Y-129474000D01*
X161816204Y-129474000D01*
X161816208Y-129474000D01*
X161946754Y-129458741D01*
X162111616Y-129398737D01*
X162258195Y-129302330D01*
X162294643Y-129263698D01*
X162378586Y-129174723D01*
X162378591Y-129174718D01*
X162466311Y-129022781D01*
X162516629Y-128854710D01*
X162526830Y-128679565D01*
X162496364Y-128506789D01*
X162426876Y-128345696D01*
X162322109Y-128204970D01*
X162281365Y-128170782D01*
X162187713Y-128092198D01*
X162079866Y-128038035D01*
X167956473Y-128038035D01*
X167976319Y-128163339D01*
X167976319Y-128163340D01*
X167976320Y-128163342D01*
X167976320Y-128163344D01*
X168033910Y-128276370D01*
X168033915Y-128276377D01*
X168123622Y-128366084D01*
X168123629Y-128366089D01*
X168236656Y-128423679D01*
X168236657Y-128423679D01*
X168236661Y-128423681D01*
X168361965Y-128443527D01*
X168487269Y-128423681D01*
X168487273Y-128423679D01*
X168487274Y-128423679D01*
X168533746Y-128400000D01*
X174494508Y-128400000D01*
X174514354Y-128525304D01*
X174514354Y-128525305D01*
X174514355Y-128525307D01*
X174514355Y-128525309D01*
X174571945Y-128638335D01*
X174571950Y-128638342D01*
X174661657Y-128728049D01*
X174661664Y-128728054D01*
X174774691Y-128785644D01*
X174774692Y-128785644D01*
X174774696Y-128785646D01*
X174900000Y-128805492D01*
X175025304Y-128785646D01*
X175025308Y-128785644D01*
X175025309Y-128785644D01*
X175138335Y-128728054D01*
X175138337Y-128728052D01*
X175138342Y-128728050D01*
X175228050Y-128638342D01*
X175229991Y-128634533D01*
X175285644Y-128525309D01*
X175285644Y-128525307D01*
X175285646Y-128525304D01*
X175305492Y-128400000D01*
X175285646Y-128274696D01*
X175285644Y-128274692D01*
X175285644Y-128274690D01*
X175228054Y-128161664D01*
X175228049Y-128161657D01*
X175138342Y-128071950D01*
X175138335Y-128071945D01*
X175025308Y-128014355D01*
X175025305Y-128014354D01*
X175025304Y-128014354D01*
X174900000Y-127994508D01*
X174899999Y-127994508D01*
X174862185Y-128000497D01*
X174774696Y-128014354D01*
X174774694Y-128014354D01*
X174774692Y-128014355D01*
X174774690Y-128014355D01*
X174661664Y-128071945D01*
X174661657Y-128071950D01*
X174571950Y-128161657D01*
X174571945Y-128161664D01*
X174514355Y-128274690D01*
X174514355Y-128274692D01*
X174514354Y-128274694D01*
X174514354Y-128274696D01*
X174494508Y-128400000D01*
X168533746Y-128400000D01*
X168600300Y-128366089D01*
X168600302Y-128366087D01*
X168600307Y-128366085D01*
X168690015Y-128276377D01*
X168690875Y-128274690D01*
X168747609Y-128163344D01*
X168747609Y-128163342D01*
X168747611Y-128163339D01*
X168767457Y-128038035D01*
X168747611Y-127912731D01*
X168747609Y-127912727D01*
X168747609Y-127912725D01*
X168690019Y-127799699D01*
X168690014Y-127799692D01*
X168600307Y-127709985D01*
X168600300Y-127709980D01*
X168487273Y-127652390D01*
X168487270Y-127652389D01*
X168487269Y-127652389D01*
X168361965Y-127632543D01*
X168361964Y-127632543D01*
X168324150Y-127638532D01*
X168236661Y-127652389D01*
X168236659Y-127652389D01*
X168236657Y-127652390D01*
X168236655Y-127652390D01*
X168123629Y-127709980D01*
X168123622Y-127709985D01*
X168033915Y-127799692D01*
X168033910Y-127799699D01*
X167976320Y-127912725D01*
X167976320Y-127912727D01*
X167976319Y-127912729D01*
X167976319Y-127912731D01*
X167956473Y-128038035D01*
X162079866Y-128038035D01*
X162030933Y-128013460D01*
X162030931Y-128013459D01*
X161900679Y-127982589D01*
X161860220Y-127973000D01*
X161728790Y-127973000D01*
X161641759Y-127983172D01*
X161598242Y-127988259D01*
X161598241Y-127988260D01*
X161433382Y-128048262D01*
X161286804Y-128144669D01*
X161286798Y-128144673D01*
X161236014Y-128198502D01*
X161201798Y-128213855D01*
X161166747Y-128200517D01*
X161151730Y-128170782D01*
X161150827Y-128163342D01*
X161136237Y-128043182D01*
X161080220Y-127895477D01*
X160990483Y-127765470D01*
X160990480Y-127765467D01*
X160990479Y-127765466D01*
X160872239Y-127660716D01*
X160732364Y-127587303D01*
X160616788Y-127558817D01*
X160578985Y-127549500D01*
X160421015Y-127549500D01*
X160390687Y-127556975D01*
X160267635Y-127587303D01*
X160127760Y-127660716D01*
X160009520Y-127765466D01*
X160009516Y-127765471D01*
X159919780Y-127895475D01*
X159863763Y-128043180D01*
X159844722Y-128200000D01*
X151710175Y-128200000D01*
X151800804Y-128185646D01*
X151800808Y-128185644D01*
X151800809Y-128185644D01*
X151913835Y-128128054D01*
X151913837Y-128128052D01*
X151913842Y-128128050D01*
X152003550Y-128038342D01*
X152003554Y-128038335D01*
X152061144Y-127925309D01*
X152061144Y-127925307D01*
X152061146Y-127925304D01*
X152080992Y-127800000D01*
X152065154Y-127700000D01*
X153894508Y-127700000D01*
X153914354Y-127825304D01*
X153914354Y-127825305D01*
X153914355Y-127825307D01*
X153914355Y-127825309D01*
X153971945Y-127938335D01*
X153971950Y-127938342D01*
X154061657Y-128028049D01*
X154061664Y-128028054D01*
X154174691Y-128085644D01*
X154174692Y-128085644D01*
X154174696Y-128085646D01*
X154300000Y-128105492D01*
X154425304Y-128085646D01*
X154425308Y-128085644D01*
X154425309Y-128085644D01*
X154538335Y-128028054D01*
X154538337Y-128028052D01*
X154538342Y-128028050D01*
X154628050Y-127938342D01*
X154634692Y-127925307D01*
X154685644Y-127825309D01*
X154685644Y-127825307D01*
X154685646Y-127825304D01*
X154705492Y-127700000D01*
X154685646Y-127574696D01*
X154685644Y-127574692D01*
X154685644Y-127574690D01*
X154628054Y-127461664D01*
X154628049Y-127461657D01*
X154538342Y-127371950D01*
X154538335Y-127371945D01*
X154425308Y-127314355D01*
X154425305Y-127314354D01*
X154425304Y-127314354D01*
X154300000Y-127294508D01*
X154174696Y-127314354D01*
X154174694Y-127314354D01*
X154174692Y-127314355D01*
X154174690Y-127314355D01*
X154061664Y-127371945D01*
X154061657Y-127371950D01*
X153971950Y-127461657D01*
X153971945Y-127461664D01*
X153914355Y-127574690D01*
X153914355Y-127574692D01*
X153914354Y-127574694D01*
X153914354Y-127574696D01*
X153894508Y-127700000D01*
X152065154Y-127700000D01*
X152061146Y-127674696D01*
X152061144Y-127674692D01*
X152061144Y-127674690D01*
X152003554Y-127561664D01*
X152003549Y-127561657D01*
X151913842Y-127471950D01*
X151913835Y-127471945D01*
X151800808Y-127414355D01*
X151800805Y-127414354D01*
X151800804Y-127414354D01*
X151675500Y-127394508D01*
X151550196Y-127414354D01*
X151550194Y-127414354D01*
X151550192Y-127414355D01*
X151550190Y-127414355D01*
X151437164Y-127471945D01*
X151437157Y-127471950D01*
X151347450Y-127561657D01*
X151347445Y-127561664D01*
X151289855Y-127674690D01*
X151289855Y-127674692D01*
X151289854Y-127674694D01*
X151289854Y-127674696D01*
X151270008Y-127800000D01*
X142324811Y-127800000D01*
X142267564Y-127763209D01*
X142076884Y-127686871D01*
X141990445Y-127670212D01*
X141875197Y-127648000D01*
X141721267Y-127648000D01*
X141721258Y-127648000D01*
X141721254Y-127648001D01*
X141568030Y-127662632D01*
X141370960Y-127720497D01*
X141188397Y-127814614D01*
X141026944Y-127941582D01*
X140892439Y-128096810D01*
X140892436Y-128096814D01*
X140789739Y-128274690D01*
X140722562Y-128468786D01*
X140722560Y-128468794D01*
X140693331Y-128672093D01*
X140693330Y-128672101D01*
X137365514Y-128672101D01*
X137336364Y-128506789D01*
X137266876Y-128345696D01*
X137162109Y-128204970D01*
X137121365Y-128170782D01*
X137027713Y-128092198D01*
X136870933Y-128013460D01*
X136870931Y-128013459D01*
X136740679Y-127982589D01*
X136700220Y-127973000D01*
X136568790Y-127973000D01*
X136481759Y-127983172D01*
X136438242Y-127988259D01*
X136438241Y-127988260D01*
X136273382Y-128048262D01*
X136126804Y-128144669D01*
X136126798Y-128144673D01*
X136006411Y-128272276D01*
X136006406Y-128272283D01*
X135918688Y-128424216D01*
X135918684Y-128424225D01*
X135868370Y-128592285D01*
X135868368Y-128592292D01*
X135858168Y-128767431D01*
X135858168Y-128767435D01*
X117691311Y-128767435D01*
X117687125Y-128679568D01*
X117681894Y-128569748D01*
X117681894Y-128569744D01*
X117633470Y-128370138D01*
X117627387Y-128356819D01*
X117590651Y-128276377D01*
X117548146Y-128183304D01*
X117429005Y-128015994D01*
X117320706Y-127912731D01*
X117280356Y-127874257D01*
X117107564Y-127763209D01*
X116916884Y-127686871D01*
X116830444Y-127670211D01*
X116715197Y-127648000D01*
X116561267Y-127648000D01*
X116561258Y-127648000D01*
X116561254Y-127648001D01*
X116408030Y-127662632D01*
X116210960Y-127720497D01*
X116028397Y-127814614D01*
X115866944Y-127941582D01*
X115732439Y-128096810D01*
X115732436Y-128096814D01*
X115629739Y-128274690D01*
X115562562Y-128468786D01*
X115562560Y-128468794D01*
X115533331Y-128672093D01*
X115533330Y-128672101D01*
X115025500Y-128672101D01*
X115025500Y-127100000D01*
X169870008Y-127100000D01*
X169889854Y-127225304D01*
X169889854Y-127225305D01*
X169889855Y-127225307D01*
X169889855Y-127225309D01*
X169947445Y-127338335D01*
X169947450Y-127338342D01*
X170037157Y-127428049D01*
X170037164Y-127428054D01*
X170150191Y-127485644D01*
X170150192Y-127485644D01*
X170150196Y-127485646D01*
X170275500Y-127505492D01*
X170400804Y-127485646D01*
X170400808Y-127485644D01*
X170400809Y-127485644D01*
X170513835Y-127428054D01*
X170513837Y-127428052D01*
X170513842Y-127428050D01*
X170603550Y-127338342D01*
X170603554Y-127338335D01*
X170661144Y-127225309D01*
X170661144Y-127225307D01*
X170661146Y-127225304D01*
X170680992Y-127100000D01*
X170661146Y-126974696D01*
X170661144Y-126974692D01*
X170661144Y-126974690D01*
X170603554Y-126861664D01*
X170603549Y-126861657D01*
X170513842Y-126771950D01*
X170513835Y-126771945D01*
X170400808Y-126714355D01*
X170400805Y-126714354D01*
X170400804Y-126714354D01*
X170275500Y-126694508D01*
X170150196Y-126714354D01*
X170150194Y-126714354D01*
X170150192Y-126714355D01*
X170150190Y-126714355D01*
X170037164Y-126771945D01*
X170037157Y-126771950D01*
X169947450Y-126861657D01*
X169947445Y-126861664D01*
X169889855Y-126974690D01*
X169889855Y-126974692D01*
X169889854Y-126974694D01*
X169889854Y-126974696D01*
X169870008Y-127100000D01*
X115025500Y-127100000D01*
X115025500Y-124900000D01*
X150894508Y-124900000D01*
X150914354Y-125025304D01*
X150914354Y-125025305D01*
X150914355Y-125025307D01*
X150914355Y-125025309D01*
X150971945Y-125138335D01*
X150971950Y-125138342D01*
X151061657Y-125228049D01*
X151061664Y-125228054D01*
X151174691Y-125285644D01*
X151174692Y-125285644D01*
X151174696Y-125285646D01*
X151300000Y-125305492D01*
X151425304Y-125285646D01*
X151425308Y-125285644D01*
X151425309Y-125285644D01*
X151538335Y-125228054D01*
X151538337Y-125228052D01*
X151538342Y-125228050D01*
X151628050Y-125138342D01*
X151633292Y-125128054D01*
X151685644Y-125025309D01*
X151685644Y-125025307D01*
X151685646Y-125025304D01*
X151705492Y-124900000D01*
X154892507Y-124900000D01*
X154912353Y-125025304D01*
X154912353Y-125025305D01*
X154912354Y-125025307D01*
X154912354Y-125025309D01*
X154969944Y-125138335D01*
X154969949Y-125138342D01*
X155059656Y-125228049D01*
X155059663Y-125228054D01*
X155172690Y-125285644D01*
X155172691Y-125285644D01*
X155172695Y-125285646D01*
X155297999Y-125305492D01*
X155423303Y-125285646D01*
X155423307Y-125285644D01*
X155423308Y-125285644D01*
X155536334Y-125228054D01*
X155536336Y-125228052D01*
X155536341Y-125228050D01*
X155626049Y-125138342D01*
X155631291Y-125128054D01*
X155683643Y-125025309D01*
X155683643Y-125025307D01*
X155683645Y-125025304D01*
X155703491Y-124900000D01*
X155687653Y-124800000D01*
X155894508Y-124800000D01*
X155914354Y-124925304D01*
X155914354Y-124925305D01*
X155914355Y-124925307D01*
X155914355Y-124925309D01*
X155971945Y-125038335D01*
X155971950Y-125038342D01*
X156061657Y-125128049D01*
X156061664Y-125128054D01*
X156174691Y-125185644D01*
X156174692Y-125185644D01*
X156174696Y-125185646D01*
X156300000Y-125205492D01*
X156334675Y-125200000D01*
X172794508Y-125200000D01*
X172814354Y-125325304D01*
X172814354Y-125325305D01*
X172814355Y-125325307D01*
X172814355Y-125325309D01*
X172871945Y-125438335D01*
X172871950Y-125438342D01*
X172961657Y-125528049D01*
X172961664Y-125528054D01*
X173074691Y-125585644D01*
X173074692Y-125585644D01*
X173074696Y-125585646D01*
X173200000Y-125605492D01*
X173325304Y-125585646D01*
X173325308Y-125585644D01*
X173325309Y-125585644D01*
X173441779Y-125526300D01*
X173442784Y-125528273D01*
X173472128Y-125521191D01*
X173504128Y-125540748D01*
X173512926Y-125577203D01*
X173493284Y-125701224D01*
X173513130Y-125826528D01*
X173513130Y-125826529D01*
X173513131Y-125826531D01*
X173513131Y-125826533D01*
X173570721Y-125939559D01*
X173570726Y-125939566D01*
X173660433Y-126029273D01*
X173660440Y-126029278D01*
X173773467Y-126086868D01*
X173773468Y-126086868D01*
X173773472Y-126086870D01*
X173898776Y-126106716D01*
X174024080Y-126086870D01*
X174024084Y-126086868D01*
X174024085Y-126086868D01*
X174137111Y-126029278D01*
X174137113Y-126029276D01*
X174137118Y-126029274D01*
X174226826Y-125939566D01*
X174226830Y-125939559D01*
X174284420Y-125826533D01*
X174284420Y-125826531D01*
X174284422Y-125826528D01*
X174304268Y-125701224D01*
X174284422Y-125575920D01*
X174284420Y-125575916D01*
X174284420Y-125575914D01*
X174226830Y-125462888D01*
X174226825Y-125462881D01*
X174149816Y-125385872D01*
X174135464Y-125351224D01*
X174149816Y-125316576D01*
X174180748Y-125285644D01*
X174228050Y-125238342D01*
X174233292Y-125228054D01*
X174285644Y-125125309D01*
X174285644Y-125125307D01*
X174285646Y-125125304D01*
X174305492Y-125000000D01*
X174285646Y-124874696D01*
X174285644Y-124874692D01*
X174285644Y-124874690D01*
X174228054Y-124761664D01*
X174228049Y-124761657D01*
X174140892Y-124674500D01*
X174694508Y-124674500D01*
X174714354Y-124799804D01*
X174714354Y-124799805D01*
X174714355Y-124799807D01*
X174714355Y-124799809D01*
X174771945Y-124912835D01*
X174771950Y-124912842D01*
X174861657Y-125002549D01*
X174861664Y-125002554D01*
X174974691Y-125060144D01*
X174974692Y-125060144D01*
X174974696Y-125060146D01*
X175100000Y-125079992D01*
X175225304Y-125060146D01*
X175225308Y-125060144D01*
X175225309Y-125060144D01*
X175338335Y-125002554D01*
X175338337Y-125002552D01*
X175338342Y-125002550D01*
X175428050Y-124912842D01*
X175428054Y-124912835D01*
X175485644Y-124799809D01*
X175485644Y-124799807D01*
X175485646Y-124799804D01*
X175505492Y-124674500D01*
X175485646Y-124549196D01*
X175485644Y-124549192D01*
X175485644Y-124549190D01*
X175428054Y-124436164D01*
X175428049Y-124436157D01*
X175338342Y-124346450D01*
X175338335Y-124346445D01*
X175225308Y-124288855D01*
X175225305Y-124288854D01*
X175225304Y-124288854D01*
X175100000Y-124269008D01*
X175099999Y-124269008D01*
X175064125Y-124274690D01*
X174974696Y-124288854D01*
X174974694Y-124288854D01*
X174974692Y-124288855D01*
X174974690Y-124288855D01*
X174861664Y-124346445D01*
X174861657Y-124346450D01*
X174771950Y-124436157D01*
X174771945Y-124436164D01*
X174714355Y-124549190D01*
X174714355Y-124549192D01*
X174714354Y-124549194D01*
X174714354Y-124549196D01*
X174694508Y-124674500D01*
X174140892Y-124674500D01*
X174138342Y-124671950D01*
X174138335Y-124671945D01*
X174025308Y-124614355D01*
X174025305Y-124614354D01*
X174025304Y-124614354D01*
X173900000Y-124594508D01*
X173774696Y-124614354D01*
X173774694Y-124614354D01*
X173774692Y-124614355D01*
X173774690Y-124614355D01*
X173661664Y-124671945D01*
X173661657Y-124671950D01*
X173571950Y-124761657D01*
X173571946Y-124761662D01*
X173520241Y-124863140D01*
X173491724Y-124887496D01*
X173454336Y-124884553D01*
X173441934Y-124875542D01*
X173438342Y-124871950D01*
X173438335Y-124871945D01*
X173325308Y-124814355D01*
X173325305Y-124814354D01*
X173325304Y-124814354D01*
X173200000Y-124794508D01*
X173074696Y-124814354D01*
X173074694Y-124814354D01*
X173074692Y-124814355D01*
X173074690Y-124814355D01*
X172961664Y-124871945D01*
X172961657Y-124871950D01*
X172871950Y-124961657D01*
X172871945Y-124961664D01*
X172814355Y-125074690D01*
X172814355Y-125074692D01*
X172814354Y-125074694D01*
X172814354Y-125074696D01*
X172794508Y-125200000D01*
X156334675Y-125200000D01*
X156425304Y-125185646D01*
X156425308Y-125185644D01*
X156425309Y-125185644D01*
X156538335Y-125128054D01*
X156538337Y-125128052D01*
X156538342Y-125128050D01*
X156628050Y-125038342D01*
X156634692Y-125025307D01*
X156685644Y-124925309D01*
X156685644Y-124925307D01*
X156685646Y-124925304D01*
X156705492Y-124800000D01*
X156685646Y-124674696D01*
X156685644Y-124674692D01*
X156685644Y-124674690D01*
X156628054Y-124561664D01*
X156628049Y-124561657D01*
X156538342Y-124471950D01*
X156538335Y-124471945D01*
X156425308Y-124414355D01*
X156425305Y-124414354D01*
X156425304Y-124414354D01*
X156334675Y-124400000D01*
X166594508Y-124400000D01*
X166614354Y-124525304D01*
X166614354Y-124525305D01*
X166614355Y-124525307D01*
X166614355Y-124525309D01*
X166671945Y-124638335D01*
X166671950Y-124638342D01*
X166761657Y-124728049D01*
X166761664Y-124728054D01*
X166874691Y-124785644D01*
X166874692Y-124785644D01*
X166874696Y-124785646D01*
X167000000Y-124805492D01*
X167125304Y-124785646D01*
X167125308Y-124785644D01*
X167125309Y-124785644D01*
X167238335Y-124728054D01*
X167238337Y-124728052D01*
X167238342Y-124728050D01*
X167328050Y-124638342D01*
X167328054Y-124638335D01*
X167385644Y-124525309D01*
X167385644Y-124525307D01*
X167385646Y-124525304D01*
X167405492Y-124400000D01*
X167385646Y-124274696D01*
X167385644Y-124274692D01*
X167385644Y-124274690D01*
X167328054Y-124161664D01*
X167328049Y-124161657D01*
X167238342Y-124071950D01*
X167238335Y-124071945D01*
X167125308Y-124014355D01*
X167125305Y-124014354D01*
X167125304Y-124014354D01*
X167000000Y-123994508D01*
X166874696Y-124014354D01*
X166874694Y-124014354D01*
X166874692Y-124014355D01*
X166874690Y-124014355D01*
X166761664Y-124071945D01*
X166761657Y-124071950D01*
X166671950Y-124161657D01*
X166671945Y-124161664D01*
X166614355Y-124274690D01*
X166614355Y-124274692D01*
X166614354Y-124274694D01*
X166614354Y-124274696D01*
X166594508Y-124400000D01*
X156334675Y-124400000D01*
X156300000Y-124394508D01*
X156299999Y-124394508D01*
X156262185Y-124400497D01*
X156174696Y-124414354D01*
X156174694Y-124414354D01*
X156174692Y-124414355D01*
X156174690Y-124414355D01*
X156061664Y-124471945D01*
X156061657Y-124471950D01*
X155971950Y-124561657D01*
X155971945Y-124561664D01*
X155914355Y-124674690D01*
X155914355Y-124674692D01*
X155914354Y-124674694D01*
X155914354Y-124674696D01*
X155894508Y-124800000D01*
X155687653Y-124800000D01*
X155683645Y-124774696D01*
X155683643Y-124774692D01*
X155683643Y-124774690D01*
X155626053Y-124661664D01*
X155626048Y-124661657D01*
X155536341Y-124571950D01*
X155536334Y-124571945D01*
X155423307Y-124514355D01*
X155423304Y-124514354D01*
X155423303Y-124514354D01*
X155297999Y-124494508D01*
X155297998Y-124494508D01*
X155260184Y-124500497D01*
X155172695Y-124514354D01*
X155172693Y-124514354D01*
X155172691Y-124514355D01*
X155172689Y-124514355D01*
X155059663Y-124571945D01*
X155059656Y-124571950D01*
X154969949Y-124661657D01*
X154969944Y-124661664D01*
X154912354Y-124774690D01*
X154912354Y-124774692D01*
X154912353Y-124774694D01*
X154912353Y-124774696D01*
X154906072Y-124814354D01*
X154894954Y-124884553D01*
X154892507Y-124900000D01*
X151705492Y-124900000D01*
X151685646Y-124774696D01*
X151685644Y-124774692D01*
X151685644Y-124774690D01*
X151628054Y-124661664D01*
X151628049Y-124661657D01*
X151538342Y-124571950D01*
X151538335Y-124571945D01*
X151425308Y-124514355D01*
X151425305Y-124514354D01*
X151425304Y-124514354D01*
X151300000Y-124494508D01*
X151299999Y-124494508D01*
X151262185Y-124500497D01*
X151174696Y-124514354D01*
X151174694Y-124514354D01*
X151174692Y-124514355D01*
X151174690Y-124514355D01*
X151061664Y-124571945D01*
X151061657Y-124571950D01*
X150971950Y-124661657D01*
X150971945Y-124661664D01*
X150914355Y-124774690D01*
X150914355Y-124774692D01*
X150914354Y-124774694D01*
X150914354Y-124774696D01*
X150908073Y-124814354D01*
X150896955Y-124884553D01*
X150894508Y-124900000D01*
X115025500Y-124900000D01*
X115025500Y-123600000D01*
X148619508Y-123600000D01*
X148639354Y-123725304D01*
X148639354Y-123725305D01*
X148639355Y-123725307D01*
X148639355Y-123725309D01*
X148696945Y-123838335D01*
X148696950Y-123838342D01*
X148786657Y-123928049D01*
X148786664Y-123928054D01*
X148899691Y-123985644D01*
X148899692Y-123985644D01*
X148899696Y-123985646D01*
X149025000Y-124005492D01*
X149059675Y-124000000D01*
X155420008Y-124000000D01*
X155439854Y-124125304D01*
X155439854Y-124125305D01*
X155439855Y-124125307D01*
X155439855Y-124125309D01*
X155497445Y-124238335D01*
X155497450Y-124238342D01*
X155587157Y-124328049D01*
X155587164Y-124328054D01*
X155700191Y-124385644D01*
X155700192Y-124385644D01*
X155700196Y-124385646D01*
X155825500Y-124405492D01*
X155950804Y-124385646D01*
X155950808Y-124385644D01*
X155950809Y-124385644D01*
X156063835Y-124328054D01*
X156063837Y-124328052D01*
X156063842Y-124328050D01*
X156153550Y-124238342D01*
X156153554Y-124238335D01*
X156211144Y-124125309D01*
X156211144Y-124125307D01*
X156211146Y-124125304D01*
X156230992Y-124000000D01*
X156211146Y-123874696D01*
X156211144Y-123874692D01*
X156211144Y-123874690D01*
X156160604Y-123775500D01*
X159094508Y-123775500D01*
X159114354Y-123900804D01*
X159114354Y-123900805D01*
X159114355Y-123900807D01*
X159114355Y-123900809D01*
X159171945Y-124013835D01*
X159171950Y-124013842D01*
X159261657Y-124103549D01*
X159261664Y-124103554D01*
X159374691Y-124161144D01*
X159374692Y-124161144D01*
X159374696Y-124161146D01*
X159500000Y-124180992D01*
X159625304Y-124161146D01*
X159625308Y-124161144D01*
X159625309Y-124161144D01*
X159738335Y-124103554D01*
X159738337Y-124103552D01*
X159738342Y-124103550D01*
X159828050Y-124013842D01*
X159832305Y-124005492D01*
X159885644Y-123900809D01*
X159885644Y-123900807D01*
X159885646Y-123900804D01*
X159905492Y-123775500D01*
X159885646Y-123650196D01*
X159885644Y-123650192D01*
X159885644Y-123650190D01*
X159828054Y-123537164D01*
X159828049Y-123537157D01*
X159738342Y-123447450D01*
X159738335Y-123447445D01*
X159625308Y-123389855D01*
X159625305Y-123389854D01*
X159625304Y-123389854D01*
X159500000Y-123370008D01*
X159374696Y-123389854D01*
X159374694Y-123389854D01*
X159374692Y-123389855D01*
X159374690Y-123389855D01*
X159261664Y-123447445D01*
X159261657Y-123447450D01*
X159171950Y-123537157D01*
X159171945Y-123537164D01*
X159114355Y-123650190D01*
X159114355Y-123650192D01*
X159114354Y-123650194D01*
X159114354Y-123650196D01*
X159094508Y-123775500D01*
X156160604Y-123775500D01*
X156153554Y-123761664D01*
X156153549Y-123761657D01*
X156063842Y-123671950D01*
X156063835Y-123671945D01*
X155950808Y-123614355D01*
X155950805Y-123614354D01*
X155950804Y-123614354D01*
X155825500Y-123594508D01*
X155700196Y-123614354D01*
X155700194Y-123614354D01*
X155700192Y-123614355D01*
X155700190Y-123614355D01*
X155587164Y-123671945D01*
X155587157Y-123671950D01*
X155497450Y-123761657D01*
X155497445Y-123761664D01*
X155439855Y-123874690D01*
X155439855Y-123874692D01*
X155439854Y-123874694D01*
X155439854Y-123874696D01*
X155420008Y-124000000D01*
X149059675Y-124000000D01*
X149150304Y-123985646D01*
X149150308Y-123985644D01*
X149150309Y-123985644D01*
X149263335Y-123928054D01*
X149263337Y-123928052D01*
X149263342Y-123928050D01*
X149353050Y-123838342D01*
X149385070Y-123775500D01*
X149410644Y-123725309D01*
X149410644Y-123725307D01*
X149410646Y-123725304D01*
X149430492Y-123600000D01*
X149410646Y-123474696D01*
X149410644Y-123474692D01*
X149410644Y-123474690D01*
X149353054Y-123361664D01*
X149353049Y-123361657D01*
X149263342Y-123271950D01*
X149263335Y-123271945D01*
X149150308Y-123214355D01*
X149150305Y-123214354D01*
X149150304Y-123214354D01*
X149025000Y-123194508D01*
X149024999Y-123194508D01*
X148987185Y-123200497D01*
X148899696Y-123214354D01*
X148899694Y-123214354D01*
X148899692Y-123214355D01*
X148899690Y-123214355D01*
X148786664Y-123271945D01*
X148786657Y-123271950D01*
X148696950Y-123361657D01*
X148696945Y-123361664D01*
X148639355Y-123474690D01*
X148639355Y-123474692D01*
X148639354Y-123474694D01*
X148639354Y-123474696D01*
X148619508Y-123600000D01*
X115025500Y-123600000D01*
X115025500Y-122500000D01*
X157494508Y-122500000D01*
X157514354Y-122625304D01*
X157514354Y-122625305D01*
X157514355Y-122625307D01*
X157514355Y-122625309D01*
X157571945Y-122738335D01*
X157571950Y-122738342D01*
X157661657Y-122828049D01*
X157661664Y-122828054D01*
X157774691Y-122885644D01*
X157774692Y-122885644D01*
X157774696Y-122885646D01*
X157900000Y-122905492D01*
X158025304Y-122885646D01*
X158025308Y-122885644D01*
X158025309Y-122885644D01*
X158138335Y-122828054D01*
X158138337Y-122828052D01*
X158138342Y-122828050D01*
X158228050Y-122738342D01*
X158228054Y-122738335D01*
X158285644Y-122625309D01*
X158285644Y-122625307D01*
X158285646Y-122625304D01*
X158305492Y-122500000D01*
X158285646Y-122374696D01*
X158285644Y-122374692D01*
X158285644Y-122374690D01*
X158228054Y-122261664D01*
X158228049Y-122261657D01*
X158166392Y-122200000D01*
X175294508Y-122200000D01*
X175314354Y-122325304D01*
X175314354Y-122325305D01*
X175314355Y-122325307D01*
X175314355Y-122325309D01*
X175371945Y-122438335D01*
X175371950Y-122438342D01*
X175461657Y-122528049D01*
X175461664Y-122528054D01*
X175574691Y-122585644D01*
X175574692Y-122585644D01*
X175574696Y-122585646D01*
X175700000Y-122605492D01*
X175825304Y-122585646D01*
X175825308Y-122585644D01*
X175825309Y-122585644D01*
X175938335Y-122528054D01*
X175938337Y-122528052D01*
X175938342Y-122528050D01*
X176028050Y-122438342D01*
X176028054Y-122438335D01*
X176085644Y-122325309D01*
X176085644Y-122325307D01*
X176085646Y-122325304D01*
X176105492Y-122200000D01*
X176085646Y-122074696D01*
X176085644Y-122074692D01*
X176085644Y-122074690D01*
X176028054Y-121961664D01*
X176028049Y-121961657D01*
X175938342Y-121871950D01*
X175938335Y-121871945D01*
X175825308Y-121814355D01*
X175825305Y-121814354D01*
X175825304Y-121814354D01*
X175700000Y-121794508D01*
X175574696Y-121814354D01*
X175574694Y-121814354D01*
X175574692Y-121814355D01*
X175574690Y-121814355D01*
X175461664Y-121871945D01*
X175461657Y-121871950D01*
X175371950Y-121961657D01*
X175371945Y-121961664D01*
X175314355Y-122074690D01*
X175314355Y-122074692D01*
X175314354Y-122074694D01*
X175314354Y-122074696D01*
X175294508Y-122200000D01*
X158166392Y-122200000D01*
X158138342Y-122171950D01*
X158138335Y-122171945D01*
X158025308Y-122114355D01*
X158025305Y-122114354D01*
X158025304Y-122114354D01*
X157900000Y-122094508D01*
X157899999Y-122094508D01*
X157862185Y-122100497D01*
X157774696Y-122114354D01*
X157774694Y-122114354D01*
X157774692Y-122114355D01*
X157774690Y-122114355D01*
X157661664Y-122171945D01*
X157661657Y-122171950D01*
X157571950Y-122261657D01*
X157571945Y-122261664D01*
X157514355Y-122374690D01*
X157514355Y-122374692D01*
X157514354Y-122374694D01*
X157514354Y-122374696D01*
X157494508Y-122500000D01*
X115025500Y-122500000D01*
X115025500Y-119200000D01*
X165194508Y-119200000D01*
X165214354Y-119325304D01*
X165214354Y-119325305D01*
X165214355Y-119325307D01*
X165214355Y-119325309D01*
X165271945Y-119438335D01*
X165271950Y-119438342D01*
X165361657Y-119528049D01*
X165361664Y-119528054D01*
X165474691Y-119585644D01*
X165474692Y-119585644D01*
X165474696Y-119585646D01*
X165600000Y-119605492D01*
X165725304Y-119585646D01*
X165725308Y-119585644D01*
X165725309Y-119585644D01*
X165838335Y-119528054D01*
X165838337Y-119528052D01*
X165838342Y-119528050D01*
X165928050Y-119438342D01*
X165928054Y-119438335D01*
X165985644Y-119325309D01*
X165985644Y-119325307D01*
X165985646Y-119325304D01*
X166005492Y-119200000D01*
X169294508Y-119200000D01*
X169314354Y-119325304D01*
X169314354Y-119325305D01*
X169314355Y-119325307D01*
X169314355Y-119325309D01*
X169371945Y-119438335D01*
X169371950Y-119438342D01*
X169461657Y-119528049D01*
X169461664Y-119528054D01*
X169574691Y-119585644D01*
X169574692Y-119585644D01*
X169574696Y-119585646D01*
X169700000Y-119605492D01*
X169825304Y-119585646D01*
X169825308Y-119585644D01*
X169825309Y-119585644D01*
X169938335Y-119528054D01*
X169938337Y-119528052D01*
X169938342Y-119528050D01*
X170028050Y-119438342D01*
X170028054Y-119438335D01*
X170085644Y-119325309D01*
X170085644Y-119325307D01*
X170085646Y-119325304D01*
X170105492Y-119200000D01*
X170085646Y-119074696D01*
X170085644Y-119074692D01*
X170085644Y-119074690D01*
X170028054Y-118961664D01*
X170028049Y-118961657D01*
X169938342Y-118871950D01*
X169938335Y-118871945D01*
X169825308Y-118814355D01*
X169825305Y-118814354D01*
X169825304Y-118814354D01*
X169700000Y-118794508D01*
X169574696Y-118814354D01*
X169574694Y-118814354D01*
X169574692Y-118814355D01*
X169574690Y-118814355D01*
X169461664Y-118871945D01*
X169461657Y-118871950D01*
X169371950Y-118961657D01*
X169371945Y-118961664D01*
X169314355Y-119074690D01*
X169314355Y-119074692D01*
X169314354Y-119074694D01*
X169314354Y-119074696D01*
X169294508Y-119200000D01*
X166005492Y-119200000D01*
X165985646Y-119074696D01*
X165985644Y-119074692D01*
X165985644Y-119074690D01*
X165928054Y-118961664D01*
X165928049Y-118961657D01*
X165838342Y-118871950D01*
X165838335Y-118871945D01*
X165725308Y-118814355D01*
X165725305Y-118814354D01*
X165725304Y-118814354D01*
X165600000Y-118794508D01*
X165474696Y-118814354D01*
X165474694Y-118814354D01*
X165474692Y-118814355D01*
X165474690Y-118814355D01*
X165361664Y-118871945D01*
X165361657Y-118871950D01*
X165271950Y-118961657D01*
X165271945Y-118961664D01*
X165214355Y-119074690D01*
X165214355Y-119074692D01*
X165214354Y-119074694D01*
X165214354Y-119074696D01*
X165194508Y-119200000D01*
X115025500Y-119200000D01*
X115025500Y-118200000D01*
X141894508Y-118200000D01*
X141914354Y-118325304D01*
X141914354Y-118325305D01*
X141914355Y-118325307D01*
X141914355Y-118325309D01*
X141971945Y-118438335D01*
X141971950Y-118438342D01*
X142061657Y-118528049D01*
X142061664Y-118528054D01*
X142174691Y-118585644D01*
X142174692Y-118585644D01*
X142174696Y-118585646D01*
X142300000Y-118605492D01*
X142425304Y-118585646D01*
X142425308Y-118585644D01*
X142425309Y-118585644D01*
X142538335Y-118528054D01*
X142538337Y-118528052D01*
X142538342Y-118528050D01*
X142628050Y-118438342D01*
X142628054Y-118438335D01*
X142685644Y-118325309D01*
X142685644Y-118325307D01*
X142685646Y-118325304D01*
X142705492Y-118200000D01*
X142685646Y-118074696D01*
X142685644Y-118074692D01*
X142685644Y-118074690D01*
X142628054Y-117961664D01*
X142628049Y-117961657D01*
X142538342Y-117871950D01*
X142538335Y-117871945D01*
X142425308Y-117814355D01*
X142425305Y-117814354D01*
X142425304Y-117814354D01*
X142300000Y-117794508D01*
X142299999Y-117794508D01*
X142262185Y-117800497D01*
X142174696Y-117814354D01*
X142174694Y-117814354D01*
X142174692Y-117814355D01*
X142174690Y-117814355D01*
X142061664Y-117871945D01*
X142061657Y-117871950D01*
X141971950Y-117961657D01*
X141971945Y-117961664D01*
X141914355Y-118074690D01*
X141914355Y-118074692D01*
X141914354Y-118074694D01*
X141914354Y-118074696D01*
X141894508Y-118200000D01*
X115025500Y-118200000D01*
X115025500Y-116900000D01*
X138332508Y-116900000D01*
X138352354Y-117025304D01*
X138352354Y-117025305D01*
X138352355Y-117025307D01*
X138352355Y-117025309D01*
X138409945Y-117138335D01*
X138409950Y-117138342D01*
X138499657Y-117228049D01*
X138499664Y-117228054D01*
X138612691Y-117285644D01*
X138612692Y-117285644D01*
X138612696Y-117285646D01*
X138738000Y-117305492D01*
X138863304Y-117285646D01*
X138863308Y-117285644D01*
X138863309Y-117285644D01*
X138976335Y-117228054D01*
X138976337Y-117228052D01*
X138976342Y-117228050D01*
X139066050Y-117138342D01*
X139072692Y-117125307D01*
X139123644Y-117025309D01*
X139123644Y-117025307D01*
X139123646Y-117025304D01*
X139127654Y-117000000D01*
X141194508Y-117000000D01*
X141214354Y-117125304D01*
X141214354Y-117125305D01*
X141214355Y-117125307D01*
X141214355Y-117125309D01*
X141271945Y-117238335D01*
X141271950Y-117238342D01*
X141361657Y-117328049D01*
X141361664Y-117328054D01*
X141474691Y-117385644D01*
X141474692Y-117385644D01*
X141474696Y-117385646D01*
X141600000Y-117405492D01*
X141725304Y-117385646D01*
X141725308Y-117385644D01*
X141725309Y-117385644D01*
X141838335Y-117328054D01*
X141838337Y-117328052D01*
X141838342Y-117328050D01*
X141928050Y-117238342D01*
X141933292Y-117228054D01*
X141985644Y-117125309D01*
X141985644Y-117125307D01*
X141985646Y-117125304D01*
X142005492Y-117000000D01*
X141985646Y-116874696D01*
X141985644Y-116874692D01*
X141985644Y-116874690D01*
X141928054Y-116761664D01*
X141928049Y-116761657D01*
X141866392Y-116700000D01*
X149994508Y-116700000D01*
X150014354Y-116825304D01*
X150014354Y-116825305D01*
X150014355Y-116825307D01*
X150014355Y-116825309D01*
X150071945Y-116938335D01*
X150071950Y-116938342D01*
X150161657Y-117028049D01*
X150161664Y-117028054D01*
X150274691Y-117085644D01*
X150274692Y-117085644D01*
X150274696Y-117085646D01*
X150400000Y-117105492D01*
X150525304Y-117085646D01*
X150525308Y-117085644D01*
X150525309Y-117085644D01*
X150638335Y-117028054D01*
X150638337Y-117028052D01*
X150638342Y-117028050D01*
X150728050Y-116938342D01*
X150728054Y-116938335D01*
X150785644Y-116825309D01*
X150785644Y-116825307D01*
X150785646Y-116825304D01*
X150805492Y-116700000D01*
X150785646Y-116574696D01*
X150785644Y-116574692D01*
X150785644Y-116574690D01*
X150728054Y-116461664D01*
X150728049Y-116461657D01*
X150638342Y-116371950D01*
X150638335Y-116371945D01*
X150525308Y-116314355D01*
X150525305Y-116314354D01*
X150525304Y-116314354D01*
X150400000Y-116294508D01*
X150274696Y-116314354D01*
X150274694Y-116314354D01*
X150274692Y-116314355D01*
X150274690Y-116314355D01*
X150161664Y-116371945D01*
X150161657Y-116371950D01*
X150071950Y-116461657D01*
X150071945Y-116461664D01*
X150014355Y-116574690D01*
X150014355Y-116574692D01*
X150014354Y-116574694D01*
X150014354Y-116574696D01*
X149994508Y-116700000D01*
X141866392Y-116700000D01*
X141838342Y-116671950D01*
X141838335Y-116671945D01*
X141725308Y-116614355D01*
X141725305Y-116614354D01*
X141725304Y-116614354D01*
X141600000Y-116594508D01*
X141474696Y-116614354D01*
X141474694Y-116614354D01*
X141474692Y-116614355D01*
X141474690Y-116614355D01*
X141361664Y-116671945D01*
X141361657Y-116671950D01*
X141271950Y-116761657D01*
X141271945Y-116761664D01*
X141214355Y-116874690D01*
X141214355Y-116874692D01*
X141214354Y-116874694D01*
X141214354Y-116874696D01*
X141194508Y-117000000D01*
X139127654Y-117000000D01*
X139143492Y-116900000D01*
X139123646Y-116774696D01*
X139123644Y-116774692D01*
X139123644Y-116774690D01*
X139066054Y-116661664D01*
X139066049Y-116661657D01*
X138976342Y-116571950D01*
X138976335Y-116571945D01*
X138863308Y-116514355D01*
X138863305Y-116514354D01*
X138863304Y-116514354D01*
X138738000Y-116494508D01*
X138612696Y-116514354D01*
X138612694Y-116514354D01*
X138612692Y-116514355D01*
X138612690Y-116514355D01*
X138499664Y-116571945D01*
X138499657Y-116571950D01*
X138409950Y-116661657D01*
X138409945Y-116661664D01*
X138352355Y-116774690D01*
X138352355Y-116774692D01*
X138352354Y-116774694D01*
X138352354Y-116774696D01*
X138332508Y-116900000D01*
X115025500Y-116900000D01*
X115025500Y-116000000D01*
X139332008Y-116000000D01*
X139351854Y-116125304D01*
X139351854Y-116125305D01*
X139351855Y-116125307D01*
X139351855Y-116125309D01*
X139409445Y-116238335D01*
X139409450Y-116238342D01*
X139499157Y-116328049D01*
X139499164Y-116328054D01*
X139612191Y-116385644D01*
X139612192Y-116385644D01*
X139612196Y-116385646D01*
X139737500Y-116405492D01*
X139862804Y-116385646D01*
X139862808Y-116385644D01*
X139862809Y-116385644D01*
X139975835Y-116328054D01*
X139975837Y-116328052D01*
X139975842Y-116328050D01*
X140065550Y-116238342D01*
X140065554Y-116238335D01*
X140123144Y-116125309D01*
X140123144Y-116125307D01*
X140123146Y-116125304D01*
X140142992Y-116000000D01*
X140123146Y-115874696D01*
X140123144Y-115874692D01*
X140123144Y-115874690D01*
X140065554Y-115761664D01*
X140065549Y-115761657D01*
X139975842Y-115671950D01*
X139975835Y-115671945D01*
X139862808Y-115614355D01*
X139862805Y-115614354D01*
X139862804Y-115614354D01*
X139737500Y-115594508D01*
X139612196Y-115614354D01*
X139612194Y-115614354D01*
X139612192Y-115614355D01*
X139612190Y-115614355D01*
X139499164Y-115671945D01*
X139499157Y-115671950D01*
X139409450Y-115761657D01*
X139409445Y-115761664D01*
X139351855Y-115874690D01*
X139351855Y-115874692D01*
X139351854Y-115874694D01*
X139351854Y-115874696D01*
X139332008Y-116000000D01*
X115025500Y-116000000D01*
X115025500Y-115525000D01*
X148194508Y-115525000D01*
X148214354Y-115650304D01*
X148214354Y-115650305D01*
X148214355Y-115650307D01*
X148214355Y-115650309D01*
X148271945Y-115763335D01*
X148271950Y-115763342D01*
X148361657Y-115853049D01*
X148361664Y-115853054D01*
X148474691Y-115910644D01*
X148474692Y-115910644D01*
X148474696Y-115910646D01*
X148600000Y-115930492D01*
X148725304Y-115910646D01*
X148725308Y-115910644D01*
X148725309Y-115910644D01*
X148838335Y-115853054D01*
X148838337Y-115853052D01*
X148838342Y-115853050D01*
X148928050Y-115763342D01*
X148928909Y-115761657D01*
X148985644Y-115650309D01*
X148985644Y-115650307D01*
X148985646Y-115650304D01*
X149005492Y-115525000D01*
X148985694Y-115400000D01*
X174920008Y-115400000D01*
X174939854Y-115525304D01*
X174939854Y-115525305D01*
X174939855Y-115525307D01*
X174939855Y-115525309D01*
X174997445Y-115638335D01*
X174997450Y-115638342D01*
X175087157Y-115728049D01*
X175087164Y-115728054D01*
X175200191Y-115785644D01*
X175200192Y-115785644D01*
X175200196Y-115785646D01*
X175325500Y-115805492D01*
X175450804Y-115785646D01*
X175450808Y-115785644D01*
X175450809Y-115785644D01*
X175563835Y-115728054D01*
X175563837Y-115728052D01*
X175563842Y-115728050D01*
X175653550Y-115638342D01*
X175653554Y-115638335D01*
X175711144Y-115525309D01*
X175711144Y-115525307D01*
X175711146Y-115525304D01*
X175730992Y-115400000D01*
X175711146Y-115274696D01*
X175711144Y-115274692D01*
X175711144Y-115274690D01*
X175653554Y-115161664D01*
X175653549Y-115161657D01*
X175563842Y-115071950D01*
X175563835Y-115071945D01*
X175450808Y-115014355D01*
X175450805Y-115014354D01*
X175450804Y-115014354D01*
X175325500Y-114994508D01*
X175325499Y-114994508D01*
X175287685Y-115000497D01*
X175200196Y-115014354D01*
X175200194Y-115014354D01*
X175200192Y-115014355D01*
X175200190Y-115014355D01*
X175087164Y-115071945D01*
X175087157Y-115071950D01*
X174997450Y-115161657D01*
X174997445Y-115161664D01*
X174939855Y-115274690D01*
X174939855Y-115274692D01*
X174939854Y-115274694D01*
X174939854Y-115274696D01*
X174920008Y-115400000D01*
X148985694Y-115400000D01*
X148985646Y-115399696D01*
X148985644Y-115399692D01*
X148985644Y-115399690D01*
X148928054Y-115286664D01*
X148928049Y-115286657D01*
X148838342Y-115196950D01*
X148838335Y-115196945D01*
X148725308Y-115139355D01*
X148725305Y-115139354D01*
X148725304Y-115139354D01*
X148600000Y-115119508D01*
X148474696Y-115139354D01*
X148474694Y-115139354D01*
X148474692Y-115139355D01*
X148474690Y-115139355D01*
X148361664Y-115196945D01*
X148361657Y-115196950D01*
X148271950Y-115286657D01*
X148271945Y-115286664D01*
X148214355Y-115399690D01*
X148214355Y-115399692D01*
X148214354Y-115399694D01*
X148214354Y-115399696D01*
X148194508Y-115525000D01*
X115025500Y-115525000D01*
X115025500Y-114700000D01*
X147020008Y-114700000D01*
X147039854Y-114825304D01*
X147039854Y-114825305D01*
X147039855Y-114825307D01*
X147039855Y-114825309D01*
X147097445Y-114938335D01*
X147097450Y-114938342D01*
X147187157Y-115028049D01*
X147187164Y-115028054D01*
X147300191Y-115085644D01*
X147300192Y-115085644D01*
X147300196Y-115085646D01*
X147425500Y-115105492D01*
X147550804Y-115085646D01*
X147550808Y-115085644D01*
X147550809Y-115085644D01*
X147663835Y-115028054D01*
X147663837Y-115028052D01*
X147663842Y-115028050D01*
X147753550Y-114938342D01*
X147753554Y-114938335D01*
X147811144Y-114825309D01*
X147811144Y-114825307D01*
X147811146Y-114825304D01*
X147830992Y-114700000D01*
X156494508Y-114700000D01*
X156514354Y-114825304D01*
X156514354Y-114825305D01*
X156514355Y-114825307D01*
X156514355Y-114825309D01*
X156571945Y-114938335D01*
X156571950Y-114938342D01*
X156661657Y-115028049D01*
X156661664Y-115028054D01*
X156774691Y-115085644D01*
X156774692Y-115085644D01*
X156774696Y-115085646D01*
X156900000Y-115105492D01*
X157025304Y-115085646D01*
X157025308Y-115085644D01*
X157025309Y-115085644D01*
X157138335Y-115028054D01*
X157138337Y-115028052D01*
X157138342Y-115028050D01*
X157228050Y-114938342D01*
X157228054Y-114938335D01*
X157285644Y-114825309D01*
X157285644Y-114825307D01*
X157285646Y-114825304D01*
X157305492Y-114700000D01*
X157285646Y-114574696D01*
X157285644Y-114574692D01*
X157285644Y-114574690D01*
X157228054Y-114461664D01*
X157228049Y-114461657D01*
X157138342Y-114371950D01*
X157138335Y-114371945D01*
X157025308Y-114314355D01*
X157025305Y-114314354D01*
X157025304Y-114314354D01*
X156900000Y-114294508D01*
X156774696Y-114314354D01*
X156774694Y-114314354D01*
X156774692Y-114314355D01*
X156774690Y-114314355D01*
X156661664Y-114371945D01*
X156661657Y-114371950D01*
X156571950Y-114461657D01*
X156571945Y-114461664D01*
X156514355Y-114574690D01*
X156514355Y-114574692D01*
X156514354Y-114574694D01*
X156514354Y-114574696D01*
X156494508Y-114700000D01*
X147830992Y-114700000D01*
X147811146Y-114574696D01*
X147811144Y-114574692D01*
X147811144Y-114574690D01*
X147753554Y-114461664D01*
X147753549Y-114461657D01*
X147663842Y-114371950D01*
X147663835Y-114371945D01*
X147550808Y-114314355D01*
X147550805Y-114314354D01*
X147550804Y-114314354D01*
X147425500Y-114294508D01*
X147300196Y-114314354D01*
X147300194Y-114314354D01*
X147300192Y-114314355D01*
X147300190Y-114314355D01*
X147187164Y-114371945D01*
X147187157Y-114371950D01*
X147097450Y-114461657D01*
X147097445Y-114461664D01*
X147039855Y-114574690D01*
X147039855Y-114574692D01*
X147039854Y-114574694D01*
X147039854Y-114574696D01*
X147020008Y-114700000D01*
X115025500Y-114700000D01*
X115025500Y-113700000D01*
X147494508Y-113700000D01*
X147514354Y-113825304D01*
X147514354Y-113825305D01*
X147514355Y-113825307D01*
X147514355Y-113825309D01*
X147571945Y-113938335D01*
X147571950Y-113938342D01*
X147661657Y-114028049D01*
X147661664Y-114028054D01*
X147774691Y-114085644D01*
X147774692Y-114085644D01*
X147774696Y-114085646D01*
X147900000Y-114105492D01*
X148025304Y-114085646D01*
X148025308Y-114085644D01*
X148025309Y-114085644D01*
X148138335Y-114028054D01*
X148138337Y-114028052D01*
X148138342Y-114028050D01*
X148228050Y-113938342D01*
X148228054Y-113938335D01*
X148285644Y-113825309D01*
X148285644Y-113825307D01*
X148285646Y-113825304D01*
X148305492Y-113700000D01*
X148285646Y-113574696D01*
X148285644Y-113574692D01*
X148285644Y-113574690D01*
X148228054Y-113461664D01*
X148228049Y-113461657D01*
X148138342Y-113371950D01*
X148138335Y-113371945D01*
X148025308Y-113314355D01*
X148025305Y-113314354D01*
X148025304Y-113314354D01*
X147900000Y-113294508D01*
X147774696Y-113314354D01*
X147774694Y-113314354D01*
X147774692Y-113314355D01*
X147774690Y-113314355D01*
X147661664Y-113371945D01*
X147661657Y-113371950D01*
X147571950Y-113461657D01*
X147571945Y-113461664D01*
X147514355Y-113574690D01*
X147514355Y-113574692D01*
X147514354Y-113574694D01*
X147514354Y-113574696D01*
X147494508Y-113700000D01*
X115025500Y-113700000D01*
X115025500Y-112800000D01*
X141194508Y-112800000D01*
X141214354Y-112925304D01*
X141214354Y-112925305D01*
X141214355Y-112925307D01*
X141214355Y-112925309D01*
X141271945Y-113038335D01*
X141271950Y-113038342D01*
X141361657Y-113128049D01*
X141361664Y-113128054D01*
X141474691Y-113185644D01*
X141474692Y-113185644D01*
X141474696Y-113185646D01*
X141600000Y-113205492D01*
X141725304Y-113185646D01*
X141725308Y-113185644D01*
X141725309Y-113185644D01*
X141838335Y-113128054D01*
X141838337Y-113128052D01*
X141838342Y-113128050D01*
X141928050Y-113038342D01*
X141931172Y-113032215D01*
X141985644Y-112925309D01*
X141985644Y-112925307D01*
X141985646Y-112925304D01*
X141989654Y-112900000D01*
X146494508Y-112900000D01*
X146514354Y-113025304D01*
X146514354Y-113025305D01*
X146514355Y-113025307D01*
X146514355Y-113025309D01*
X146571945Y-113138335D01*
X146571950Y-113138342D01*
X146661657Y-113228049D01*
X146661664Y-113228054D01*
X146774691Y-113285644D01*
X146774692Y-113285644D01*
X146774696Y-113285646D01*
X146900000Y-113305492D01*
X147025304Y-113285646D01*
X147025308Y-113285644D01*
X147025309Y-113285644D01*
X147138335Y-113228054D01*
X147138337Y-113228052D01*
X147138342Y-113228050D01*
X147228050Y-113138342D01*
X147233292Y-113128054D01*
X147285644Y-113025309D01*
X147285644Y-113025307D01*
X147285646Y-113025304D01*
X147305492Y-112900000D01*
X147289654Y-112800000D01*
X154094508Y-112800000D01*
X154114354Y-112925304D01*
X154114354Y-112925305D01*
X154114355Y-112925307D01*
X154114355Y-112925309D01*
X154171945Y-113038335D01*
X154171950Y-113038342D01*
X154261657Y-113128049D01*
X154261664Y-113128054D01*
X154374691Y-113185644D01*
X154374692Y-113185644D01*
X154374696Y-113185646D01*
X154500000Y-113205492D01*
X154625304Y-113185646D01*
X154625308Y-113185644D01*
X154625309Y-113185644D01*
X154738335Y-113128054D01*
X154738337Y-113128052D01*
X154738342Y-113128050D01*
X154828050Y-113038342D01*
X154831172Y-113032215D01*
X154885644Y-112925309D01*
X154885644Y-112925307D01*
X154885646Y-112925304D01*
X154905492Y-112800000D01*
X154885646Y-112674696D01*
X154885644Y-112674692D01*
X154885644Y-112674690D01*
X154828054Y-112561664D01*
X154828049Y-112561657D01*
X154738342Y-112471950D01*
X154738335Y-112471945D01*
X154625308Y-112414355D01*
X154625305Y-112414354D01*
X154625304Y-112414354D01*
X154500000Y-112394508D01*
X154374696Y-112414354D01*
X154374694Y-112414354D01*
X154374692Y-112414355D01*
X154374690Y-112414355D01*
X154261664Y-112471945D01*
X154261657Y-112471950D01*
X154171950Y-112561657D01*
X154171945Y-112561664D01*
X154114355Y-112674690D01*
X154114355Y-112674692D01*
X154114354Y-112674694D01*
X154114354Y-112674696D01*
X154094508Y-112800000D01*
X147289654Y-112800000D01*
X147285646Y-112774696D01*
X147285644Y-112774692D01*
X147285644Y-112774690D01*
X147228054Y-112661664D01*
X147228049Y-112661657D01*
X147138342Y-112571950D01*
X147138335Y-112571945D01*
X147025308Y-112514355D01*
X147025305Y-112514354D01*
X147025304Y-112514354D01*
X146900000Y-112494508D01*
X146774696Y-112514354D01*
X146774694Y-112514354D01*
X146774692Y-112514355D01*
X146774690Y-112514355D01*
X146661664Y-112571945D01*
X146661657Y-112571950D01*
X146571950Y-112661657D01*
X146571945Y-112661664D01*
X146514355Y-112774690D01*
X146514355Y-112774692D01*
X146514354Y-112774694D01*
X146514354Y-112774696D01*
X146494508Y-112900000D01*
X141989654Y-112900000D01*
X142005492Y-112800000D01*
X141985646Y-112674696D01*
X141985644Y-112674692D01*
X141985644Y-112674690D01*
X141928054Y-112561664D01*
X141928049Y-112561657D01*
X141838342Y-112471950D01*
X141838335Y-112471945D01*
X141725308Y-112414355D01*
X141725305Y-112414354D01*
X141725304Y-112414354D01*
X141600000Y-112394508D01*
X141474696Y-112414354D01*
X141474694Y-112414354D01*
X141474692Y-112414355D01*
X141474690Y-112414355D01*
X141361664Y-112471945D01*
X141361657Y-112471950D01*
X141271950Y-112561657D01*
X141271945Y-112561664D01*
X141214355Y-112674690D01*
X141214355Y-112674692D01*
X141214354Y-112674694D01*
X141214354Y-112674696D01*
X141194508Y-112800000D01*
X115025500Y-112800000D01*
X115025500Y-111961887D01*
X146403187Y-111961887D01*
X146423033Y-112087191D01*
X146423033Y-112087192D01*
X146423034Y-112087194D01*
X146423034Y-112087196D01*
X146480624Y-112200222D01*
X146480629Y-112200229D01*
X146570336Y-112289936D01*
X146570343Y-112289941D01*
X146683370Y-112347531D01*
X146683371Y-112347531D01*
X146683375Y-112347533D01*
X146808679Y-112367379D01*
X146933983Y-112347533D01*
X146933987Y-112347531D01*
X146933988Y-112347531D01*
X147047014Y-112289941D01*
X147047016Y-112289939D01*
X147047021Y-112289937D01*
X147136729Y-112200229D01*
X147136733Y-112200222D01*
X147192895Y-112089999D01*
X165442253Y-112089999D01*
X165461199Y-112294458D01*
X165461200Y-112294464D01*
X165517394Y-112491972D01*
X165608920Y-112675782D01*
X165608923Y-112675786D01*
X165609387Y-112676400D01*
X166053671Y-112232116D01*
X166088319Y-112217764D01*
X166122967Y-112232116D01*
X166133932Y-112248862D01*
X166137542Y-112258059D01*
X166160887Y-112317541D01*
X166245465Y-112423599D01*
X166357547Y-112500016D01*
X166357549Y-112500016D01*
X166357550Y-112500017D01*
X166391914Y-112510617D01*
X166420793Y-112534543D01*
X166424295Y-112571882D01*
X166412120Y-112592088D01*
X165971995Y-113032214D01*
X165971995Y-113032215D01*
X166059009Y-113086091D01*
X166250480Y-113160267D01*
X166452331Y-113198000D01*
X166657669Y-113198000D01*
X166859519Y-113160267D01*
X167050990Y-113086091D01*
X167138003Y-113032215D01*
X167138003Y-113032214D01*
X166698495Y-112592706D01*
X166684143Y-112558058D01*
X166698495Y-112523410D01*
X166711876Y-112513914D01*
X166811357Y-112466007D01*
X166910798Y-112373740D01*
X166978625Y-112256260D01*
X166978626Y-112256253D01*
X166979965Y-112252843D01*
X166982231Y-112253732D01*
X166999149Y-112229427D01*
X167036064Y-112222811D01*
X167060241Y-112236031D01*
X167500612Y-112676401D01*
X167501077Y-112675785D01*
X167592605Y-112491972D01*
X167648799Y-112294464D01*
X167648800Y-112294458D01*
X167667746Y-112090000D01*
X168339751Y-112090000D01*
X168357650Y-112248862D01*
X168358687Y-112258059D01*
X168414544Y-112417690D01*
X168444904Y-112466007D01*
X168502743Y-112558058D01*
X168504523Y-112560890D01*
X168624110Y-112680477D01*
X168767310Y-112770456D01*
X168926941Y-112826313D01*
X169095000Y-112845249D01*
X169263059Y-112826313D01*
X169422690Y-112770456D01*
X169565890Y-112680477D01*
X169685477Y-112560890D01*
X169775456Y-112417690D01*
X169831313Y-112258059D01*
X169850249Y-112090000D01*
X170879751Y-112090000D01*
X170897650Y-112248862D01*
X170898687Y-112258059D01*
X170954544Y-112417690D01*
X170984904Y-112466007D01*
X171042743Y-112558058D01*
X171044523Y-112560890D01*
X171164110Y-112680477D01*
X171307310Y-112770456D01*
X171466941Y-112826313D01*
X171635000Y-112845249D01*
X171803059Y-112826313D01*
X171962690Y-112770456D01*
X172105890Y-112680477D01*
X172225477Y-112560890D01*
X172315456Y-112417690D01*
X172371313Y-112258059D01*
X172390249Y-112090000D01*
X173419751Y-112090000D01*
X173437650Y-112248862D01*
X173438687Y-112258059D01*
X173494544Y-112417690D01*
X173524904Y-112466007D01*
X173582743Y-112558058D01*
X173584523Y-112560890D01*
X173704110Y-112680477D01*
X173847310Y-112770456D01*
X174006941Y-112826313D01*
X174175000Y-112845249D01*
X174343059Y-112826313D01*
X174502690Y-112770456D01*
X174645890Y-112680477D01*
X174765477Y-112560890D01*
X174855456Y-112417690D01*
X174911313Y-112258059D01*
X174930249Y-112090000D01*
X174911313Y-111921941D01*
X174855456Y-111762310D01*
X174765477Y-111619110D01*
X174645890Y-111499523D01*
X174502690Y-111409544D01*
X174343059Y-111353687D01*
X174343055Y-111353686D01*
X174343053Y-111353686D01*
X174175000Y-111334751D01*
X174006946Y-111353686D01*
X174006937Y-111353688D01*
X173847310Y-111409544D01*
X173847308Y-111409545D01*
X173704112Y-111499521D01*
X173704108Y-111499524D01*
X173584524Y-111619108D01*
X173584521Y-111619112D01*
X173494545Y-111762308D01*
X173494544Y-111762310D01*
X173438688Y-111921937D01*
X173438686Y-111921946D01*
X173419751Y-112090000D01*
X172390249Y-112090000D01*
X172371313Y-111921941D01*
X172315456Y-111762310D01*
X172225477Y-111619110D01*
X172105890Y-111499523D01*
X171962690Y-111409544D01*
X171803059Y-111353687D01*
X171803055Y-111353686D01*
X171803053Y-111353686D01*
X171635000Y-111334751D01*
X171466946Y-111353686D01*
X171466937Y-111353688D01*
X171307310Y-111409544D01*
X171307308Y-111409545D01*
X171164112Y-111499521D01*
X171164108Y-111499524D01*
X171044524Y-111619108D01*
X171044521Y-111619112D01*
X170954545Y-111762308D01*
X170954544Y-111762310D01*
X170898688Y-111921937D01*
X170898686Y-111921946D01*
X170879751Y-112090000D01*
X169850249Y-112090000D01*
X169831313Y-111921941D01*
X169775456Y-111762310D01*
X169685477Y-111619110D01*
X169565890Y-111499523D01*
X169422690Y-111409544D01*
X169263059Y-111353687D01*
X169263055Y-111353686D01*
X169263053Y-111353686D01*
X169095000Y-111334751D01*
X168926946Y-111353686D01*
X168926937Y-111353688D01*
X168767310Y-111409544D01*
X168767308Y-111409545D01*
X168624112Y-111499521D01*
X168624108Y-111499524D01*
X168504524Y-111619108D01*
X168504521Y-111619112D01*
X168414545Y-111762308D01*
X168414544Y-111762310D01*
X168358688Y-111921937D01*
X168358686Y-111921946D01*
X168339751Y-112090000D01*
X167667746Y-112090000D01*
X167667746Y-112089999D01*
X167648800Y-111885541D01*
X167648799Y-111885535D01*
X167592605Y-111688028D01*
X167501075Y-111504210D01*
X167500611Y-111503597D01*
X167056327Y-111947882D01*
X167021679Y-111962234D01*
X166987031Y-111947882D01*
X166976068Y-111931139D01*
X166949113Y-111862459D01*
X166864535Y-111756401D01*
X166752453Y-111679984D01*
X166752452Y-111679983D01*
X166752450Y-111679982D01*
X166718082Y-111669382D01*
X166689204Y-111645456D01*
X166685702Y-111608116D01*
X166697877Y-111587911D01*
X167138003Y-111147784D01*
X167138003Y-111147783D01*
X167050990Y-111093908D01*
X166859519Y-111019732D01*
X166657669Y-110982000D01*
X166452331Y-110982000D01*
X166250480Y-111019732D01*
X166059008Y-111093908D01*
X165971994Y-111147784D01*
X166411504Y-111587293D01*
X166425856Y-111621941D01*
X166411504Y-111656589D01*
X166398117Y-111666088D01*
X166298642Y-111713992D01*
X166199203Y-111806258D01*
X166199200Y-111806262D01*
X166131376Y-111923737D01*
X166130034Y-111927158D01*
X166127925Y-111926330D01*
X166110234Y-111950961D01*
X166073225Y-111957027D01*
X166049758Y-111943968D01*
X165609387Y-111503598D01*
X165608921Y-111504216D01*
X165517394Y-111688027D01*
X165461200Y-111885535D01*
X165461199Y-111885541D01*
X165442253Y-112089999D01*
X147192895Y-112089999D01*
X147194323Y-112087196D01*
X147194323Y-112087194D01*
X147194325Y-112087191D01*
X147214171Y-111961887D01*
X147194325Y-111836583D01*
X147194323Y-111836579D01*
X147194323Y-111836577D01*
X147136733Y-111723551D01*
X147136728Y-111723544D01*
X147047021Y-111633837D01*
X147047014Y-111633832D01*
X146933987Y-111576242D01*
X146933984Y-111576241D01*
X146933983Y-111576241D01*
X146808679Y-111556395D01*
X146683375Y-111576241D01*
X146683373Y-111576241D01*
X146683371Y-111576242D01*
X146683369Y-111576242D01*
X146570343Y-111633832D01*
X146570336Y-111633837D01*
X146480629Y-111723544D01*
X146480624Y-111723551D01*
X146423034Y-111836577D01*
X146423034Y-111836579D01*
X146423033Y-111836581D01*
X146423033Y-111836583D01*
X146403187Y-111961887D01*
X115025500Y-111961887D01*
X115025500Y-111000000D01*
X146794508Y-111000000D01*
X146814354Y-111125304D01*
X146814354Y-111125305D01*
X146814355Y-111125307D01*
X146814355Y-111125309D01*
X146871945Y-111238335D01*
X146871950Y-111238342D01*
X146961657Y-111328049D01*
X146961664Y-111328054D01*
X147074691Y-111385644D01*
X147074692Y-111385644D01*
X147074696Y-111385646D01*
X147188871Y-111403729D01*
X147220848Y-111423325D01*
X147229603Y-111459790D01*
X147225463Y-111485933D01*
X147245309Y-111611237D01*
X147245309Y-111611238D01*
X147245310Y-111611240D01*
X147245310Y-111611242D01*
X147302900Y-111724268D01*
X147302905Y-111724275D01*
X147392612Y-111813982D01*
X147392619Y-111813987D01*
X147505646Y-111871577D01*
X147505647Y-111871577D01*
X147505651Y-111871579D01*
X147630955Y-111891425D01*
X147756259Y-111871579D01*
X147756263Y-111871577D01*
X147756264Y-111871577D01*
X147869290Y-111813987D01*
X147869292Y-111813985D01*
X147869297Y-111813983D01*
X147959005Y-111724275D01*
X147959377Y-111723545D01*
X148016599Y-111611242D01*
X148016599Y-111611240D01*
X148016601Y-111611237D01*
X148036447Y-111485933D01*
X148022837Y-111400000D01*
X156494508Y-111400000D01*
X156514354Y-111525304D01*
X156514354Y-111525305D01*
X156514355Y-111525307D01*
X156514355Y-111525309D01*
X156571945Y-111638335D01*
X156571950Y-111638342D01*
X156661657Y-111728049D01*
X156661664Y-111728054D01*
X156774691Y-111785644D01*
X156774692Y-111785644D01*
X156774696Y-111785646D01*
X156900000Y-111805492D01*
X157025304Y-111785646D01*
X157025308Y-111785644D01*
X157025309Y-111785644D01*
X157138335Y-111728054D01*
X157138337Y-111728052D01*
X157138342Y-111728050D01*
X157228050Y-111638342D01*
X157228054Y-111638335D01*
X157285644Y-111525309D01*
X157285644Y-111525307D01*
X157285646Y-111525304D01*
X157305492Y-111400000D01*
X157285646Y-111274696D01*
X157285644Y-111274692D01*
X157285644Y-111274690D01*
X157228054Y-111161664D01*
X157228049Y-111161657D01*
X157138342Y-111071950D01*
X157138335Y-111071945D01*
X157025308Y-111014355D01*
X157025305Y-111014354D01*
X157025304Y-111014354D01*
X156900000Y-110994508D01*
X156899999Y-110994508D01*
X156862185Y-111000497D01*
X156774696Y-111014354D01*
X156774694Y-111014354D01*
X156774692Y-111014355D01*
X156774690Y-111014355D01*
X156661664Y-111071945D01*
X156661657Y-111071950D01*
X156571950Y-111161657D01*
X156571945Y-111161664D01*
X156514355Y-111274690D01*
X156514355Y-111274692D01*
X156514354Y-111274694D01*
X156514354Y-111274696D01*
X156494508Y-111400000D01*
X148022837Y-111400000D01*
X148016601Y-111360629D01*
X148016599Y-111360625D01*
X148016599Y-111360623D01*
X147959009Y-111247597D01*
X147959004Y-111247590D01*
X147869297Y-111157883D01*
X147869290Y-111157878D01*
X147756263Y-111100288D01*
X147756260Y-111100287D01*
X147756259Y-111100287D01*
X147695797Y-111090710D01*
X147642082Y-111082203D01*
X147610106Y-111062607D01*
X147601351Y-111026141D01*
X147605492Y-111000000D01*
X147585646Y-110874696D01*
X147585644Y-110874692D01*
X147585644Y-110874690D01*
X147528054Y-110761664D01*
X147528049Y-110761657D01*
X147438342Y-110671950D01*
X147438335Y-110671945D01*
X147325308Y-110614355D01*
X147325305Y-110614354D01*
X147325304Y-110614354D01*
X147200000Y-110594508D01*
X147074696Y-110614354D01*
X147074694Y-110614354D01*
X147074692Y-110614355D01*
X147074690Y-110614355D01*
X146961664Y-110671945D01*
X146961657Y-110671950D01*
X146871950Y-110761657D01*
X146871945Y-110761664D01*
X146814355Y-110874690D01*
X146814355Y-110874692D01*
X146814354Y-110874694D01*
X146814354Y-110874696D01*
X146794508Y-111000000D01*
X115025500Y-111000000D01*
X115025500Y-109900000D01*
X148494508Y-109900000D01*
X148514354Y-110025304D01*
X148514354Y-110025305D01*
X148514355Y-110025307D01*
X148514355Y-110025309D01*
X148571945Y-110138335D01*
X148571950Y-110138342D01*
X148661657Y-110228049D01*
X148661664Y-110228054D01*
X148774691Y-110285644D01*
X148774692Y-110285644D01*
X148774696Y-110285646D01*
X148900000Y-110305492D01*
X149025304Y-110285646D01*
X149025308Y-110285644D01*
X149025309Y-110285644D01*
X149138335Y-110228054D01*
X149138337Y-110228052D01*
X149138342Y-110228050D01*
X149228050Y-110138342D01*
X149234692Y-110125307D01*
X149285644Y-110025309D01*
X149285644Y-110025307D01*
X149285646Y-110025304D01*
X149289654Y-110000000D01*
X149394508Y-110000000D01*
X149414354Y-110125304D01*
X149414354Y-110125305D01*
X149414355Y-110125307D01*
X149414355Y-110125309D01*
X149471945Y-110238335D01*
X149471950Y-110238342D01*
X149561657Y-110328049D01*
X149561664Y-110328054D01*
X149674691Y-110385644D01*
X149674692Y-110385644D01*
X149674696Y-110385646D01*
X149800000Y-110405492D01*
X149925304Y-110385646D01*
X149925308Y-110385644D01*
X149925309Y-110385644D01*
X150038335Y-110328054D01*
X150038337Y-110328052D01*
X150038342Y-110328050D01*
X150128050Y-110238342D01*
X150128054Y-110238335D01*
X150185644Y-110125309D01*
X150185644Y-110125307D01*
X150185646Y-110125304D01*
X150189654Y-110100000D01*
X156194508Y-110100000D01*
X156214354Y-110225304D01*
X156214354Y-110225305D01*
X156214355Y-110225307D01*
X156214355Y-110225309D01*
X156271945Y-110338335D01*
X156271950Y-110338342D01*
X156361657Y-110428049D01*
X156361664Y-110428054D01*
X156474691Y-110485644D01*
X156474692Y-110485644D01*
X156474696Y-110485646D01*
X156600000Y-110505492D01*
X156725304Y-110485646D01*
X156725308Y-110485644D01*
X156725309Y-110485644D01*
X156838335Y-110428054D01*
X156838337Y-110428052D01*
X156838342Y-110428050D01*
X156928050Y-110338342D01*
X156933292Y-110328054D01*
X156985644Y-110225309D01*
X156985644Y-110225307D01*
X156985646Y-110225304D01*
X157005492Y-110100000D01*
X156985646Y-109974696D01*
X156985644Y-109974692D01*
X156985644Y-109974690D01*
X156928054Y-109861664D01*
X156928049Y-109861657D01*
X156838342Y-109771950D01*
X156838335Y-109771945D01*
X156725308Y-109714355D01*
X156725305Y-109714354D01*
X156725304Y-109714354D01*
X156600000Y-109694508D01*
X156474696Y-109714354D01*
X156474694Y-109714354D01*
X156474692Y-109714355D01*
X156474690Y-109714355D01*
X156361664Y-109771945D01*
X156361657Y-109771950D01*
X156271950Y-109861657D01*
X156271945Y-109861664D01*
X156214355Y-109974690D01*
X156214355Y-109974692D01*
X156214354Y-109974694D01*
X156214354Y-109974696D01*
X156194508Y-110100000D01*
X150189654Y-110100000D01*
X150205492Y-110000000D01*
X150185646Y-109874696D01*
X150185644Y-109874692D01*
X150185644Y-109874690D01*
X150128054Y-109761664D01*
X150128049Y-109761657D01*
X150038342Y-109671950D01*
X150038335Y-109671945D01*
X149925308Y-109614355D01*
X149925305Y-109614354D01*
X149925304Y-109614354D01*
X149800000Y-109594508D01*
X149799999Y-109594508D01*
X149762185Y-109600497D01*
X149674696Y-109614354D01*
X149674694Y-109614354D01*
X149674692Y-109614355D01*
X149674690Y-109614355D01*
X149561664Y-109671945D01*
X149561657Y-109671950D01*
X149471950Y-109761657D01*
X149471945Y-109761664D01*
X149414355Y-109874690D01*
X149414355Y-109874692D01*
X149414354Y-109874694D01*
X149414354Y-109874696D01*
X149394508Y-110000000D01*
X149289654Y-110000000D01*
X149305492Y-109900000D01*
X149285646Y-109774696D01*
X149285644Y-109774692D01*
X149285644Y-109774690D01*
X149228054Y-109661664D01*
X149228049Y-109661657D01*
X149138342Y-109571950D01*
X149138335Y-109571945D01*
X149095265Y-109550000D01*
X167069751Y-109550000D01*
X167088269Y-109714355D01*
X167088687Y-109718059D01*
X167144544Y-109877690D01*
X167234523Y-110020890D01*
X167354110Y-110140477D01*
X167497310Y-110230456D01*
X167656941Y-110286313D01*
X167825000Y-110305249D01*
X167993059Y-110286313D01*
X168152690Y-110230456D01*
X168295890Y-110140477D01*
X168415477Y-110020890D01*
X168505456Y-109877690D01*
X168561313Y-109718059D01*
X168580249Y-109550000D01*
X169609751Y-109550000D01*
X169628269Y-109714355D01*
X169628687Y-109718059D01*
X169684544Y-109877690D01*
X169774523Y-110020890D01*
X169894110Y-110140477D01*
X170037310Y-110230456D01*
X170196941Y-110286313D01*
X170365000Y-110305249D01*
X170533059Y-110286313D01*
X170692690Y-110230456D01*
X170835890Y-110140477D01*
X170955477Y-110020890D01*
X171045456Y-109877690D01*
X171101313Y-109718059D01*
X171120249Y-109550000D01*
X172149751Y-109550000D01*
X172168269Y-109714355D01*
X172168687Y-109718059D01*
X172224544Y-109877690D01*
X172314523Y-110020890D01*
X172434110Y-110140477D01*
X172577310Y-110230456D01*
X172736941Y-110286313D01*
X172905000Y-110305249D01*
X173073059Y-110286313D01*
X173232690Y-110230456D01*
X173375890Y-110140477D01*
X173495477Y-110020890D01*
X173585456Y-109877690D01*
X173641313Y-109718059D01*
X173660249Y-109550000D01*
X174689751Y-109550000D01*
X174708269Y-109714355D01*
X174708687Y-109718059D01*
X174764544Y-109877690D01*
X174854523Y-110020890D01*
X174974110Y-110140477D01*
X175117310Y-110230456D01*
X175276941Y-110286313D01*
X175445000Y-110305249D01*
X175613059Y-110286313D01*
X175772690Y-110230456D01*
X175915890Y-110140477D01*
X176035477Y-110020890D01*
X176125456Y-109877690D01*
X176181313Y-109718059D01*
X176200249Y-109550000D01*
X176181313Y-109381941D01*
X176125456Y-109222310D01*
X176035477Y-109079110D01*
X175915890Y-108959523D01*
X175772690Y-108869544D01*
X175613059Y-108813687D01*
X175613055Y-108813686D01*
X175613053Y-108813686D01*
X175445000Y-108794751D01*
X175276946Y-108813686D01*
X175276937Y-108813688D01*
X175117310Y-108869544D01*
X175117308Y-108869545D01*
X174974112Y-108959521D01*
X174974108Y-108959524D01*
X174854524Y-109079108D01*
X174854521Y-109079112D01*
X174764545Y-109222308D01*
X174764544Y-109222310D01*
X174708688Y-109381937D01*
X174708686Y-109381946D01*
X174689751Y-109550000D01*
X173660249Y-109550000D01*
X173641313Y-109381941D01*
X173585456Y-109222310D01*
X173495477Y-109079110D01*
X173375890Y-108959523D01*
X173232690Y-108869544D01*
X173073059Y-108813687D01*
X173073055Y-108813686D01*
X173073053Y-108813686D01*
X172905000Y-108794751D01*
X172736946Y-108813686D01*
X172736937Y-108813688D01*
X172577310Y-108869544D01*
X172577308Y-108869545D01*
X172434112Y-108959521D01*
X172434108Y-108959524D01*
X172314524Y-109079108D01*
X172314521Y-109079112D01*
X172224545Y-109222308D01*
X172224544Y-109222310D01*
X172168688Y-109381937D01*
X172168686Y-109381946D01*
X172149751Y-109550000D01*
X171120249Y-109550000D01*
X171101313Y-109381941D01*
X171045456Y-109222310D01*
X170955477Y-109079110D01*
X170835890Y-108959523D01*
X170692690Y-108869544D01*
X170533059Y-108813687D01*
X170533055Y-108813686D01*
X170533053Y-108813686D01*
X170365000Y-108794751D01*
X170196946Y-108813686D01*
X170196937Y-108813688D01*
X170037310Y-108869544D01*
X170037308Y-108869545D01*
X169894112Y-108959521D01*
X169894108Y-108959524D01*
X169774524Y-109079108D01*
X169774521Y-109079112D01*
X169684545Y-109222308D01*
X169684544Y-109222310D01*
X169628688Y-109381937D01*
X169628686Y-109381946D01*
X169609751Y-109550000D01*
X168580249Y-109550000D01*
X168561313Y-109381941D01*
X168505456Y-109222310D01*
X168415477Y-109079110D01*
X168295890Y-108959523D01*
X168152690Y-108869544D01*
X167993059Y-108813687D01*
X167993055Y-108813686D01*
X167993053Y-108813686D01*
X167825000Y-108794751D01*
X167656946Y-108813686D01*
X167656937Y-108813688D01*
X167497310Y-108869544D01*
X167497308Y-108869545D01*
X167354112Y-108959521D01*
X167354108Y-108959524D01*
X167234524Y-109079108D01*
X167234521Y-109079112D01*
X167144545Y-109222308D01*
X167144544Y-109222310D01*
X167088688Y-109381937D01*
X167088686Y-109381946D01*
X167069751Y-109550000D01*
X149095265Y-109550000D01*
X149025308Y-109514355D01*
X149025305Y-109514354D01*
X149025304Y-109514354D01*
X148900000Y-109494508D01*
X148774696Y-109514354D01*
X148774694Y-109514354D01*
X148774692Y-109514355D01*
X148774690Y-109514355D01*
X148661664Y-109571945D01*
X148661657Y-109571950D01*
X148571950Y-109661657D01*
X148571945Y-109661664D01*
X148514355Y-109774690D01*
X148514355Y-109774692D01*
X148498042Y-109877690D01*
X148494508Y-109900000D01*
X115025500Y-109900000D01*
X115025500Y-106800000D01*
X122344722Y-106800000D01*
X122363763Y-106956819D01*
X122419780Y-107104524D01*
X122444494Y-107140328D01*
X122509517Y-107234530D01*
X122627760Y-107339283D01*
X122767635Y-107412696D01*
X122921015Y-107450500D01*
X122921016Y-107450500D01*
X123078983Y-107450500D01*
X123078985Y-107450500D01*
X123232365Y-107412696D01*
X123372240Y-107339283D01*
X123490483Y-107234530D01*
X123580220Y-107104523D01*
X123636237Y-106956818D01*
X123655278Y-106800000D01*
X123636237Y-106643182D01*
X123580220Y-106495477D01*
X123564023Y-106472012D01*
X123515806Y-106402157D01*
X123490483Y-106365470D01*
X123490480Y-106365467D01*
X123490479Y-106365466D01*
X123372239Y-106260716D01*
X123232364Y-106187303D01*
X123116787Y-106158817D01*
X123078985Y-106149500D01*
X122921015Y-106149500D01*
X122890687Y-106156975D01*
X122767635Y-106187303D01*
X122627760Y-106260716D01*
X122509520Y-106365466D01*
X122509516Y-106365471D01*
X122419780Y-106495475D01*
X122363763Y-106643180D01*
X122344722Y-106800000D01*
X115025500Y-106800000D01*
X115025500Y-105699999D01*
X136557036Y-105699999D01*
X136576876Y-106053292D01*
X136576876Y-106053298D01*
X136576877Y-106053300D01*
X136612118Y-106260717D01*
X136636152Y-106402167D01*
X136680807Y-106557165D01*
X136726482Y-106715708D01*
X136734111Y-106742186D01*
X136869520Y-107069094D01*
X136869527Y-107069109D01*
X137040690Y-107378805D01*
X137040694Y-107378812D01*
X137245453Y-107667393D01*
X137245469Y-107667412D01*
X137481249Y-107931249D01*
X137481250Y-107931250D01*
X137745087Y-108167030D01*
X137745106Y-108167046D01*
X138033687Y-108371805D01*
X138033690Y-108371807D01*
X138033692Y-108371808D01*
X138343395Y-108542975D01*
X138670316Y-108678390D01*
X138966279Y-108763655D01*
X139010332Y-108776347D01*
X139010333Y-108776347D01*
X139010343Y-108776350D01*
X139359200Y-108835623D01*
X139712500Y-108855464D01*
X140065800Y-108835623D01*
X140414657Y-108776350D01*
X140754684Y-108678390D01*
X141081605Y-108542975D01*
X141391308Y-108371808D01*
X141679900Y-108167041D01*
X141943750Y-107931250D01*
X142179541Y-107667400D01*
X142384308Y-107378808D01*
X142483132Y-107200000D01*
X147544508Y-107200000D01*
X147564354Y-107325304D01*
X147564354Y-107325305D01*
X147564355Y-107325307D01*
X147564355Y-107325309D01*
X147621945Y-107438335D01*
X147621950Y-107438342D01*
X147711657Y-107528049D01*
X147711664Y-107528054D01*
X147824691Y-107585644D01*
X147824692Y-107585644D01*
X147824696Y-107585646D01*
X147950000Y-107605492D01*
X148075304Y-107585646D01*
X148075308Y-107585644D01*
X148075309Y-107585644D01*
X148188335Y-107528054D01*
X148188337Y-107528052D01*
X148188342Y-107528050D01*
X148278050Y-107438342D01*
X148278054Y-107438335D01*
X148335644Y-107325309D01*
X148335644Y-107325307D01*
X148335646Y-107325304D01*
X148355492Y-107200000D01*
X148335646Y-107074696D01*
X148335644Y-107074692D01*
X148335644Y-107074690D01*
X148278054Y-106961664D01*
X148278049Y-106961657D01*
X148188342Y-106871950D01*
X148188335Y-106871945D01*
X148075308Y-106814355D01*
X148075305Y-106814354D01*
X148075304Y-106814354D01*
X147950000Y-106794508D01*
X147824696Y-106814354D01*
X147824694Y-106814354D01*
X147824692Y-106814355D01*
X147824690Y-106814355D01*
X147711664Y-106871945D01*
X147711657Y-106871950D01*
X147621950Y-106961657D01*
X147621945Y-106961664D01*
X147564355Y-107074690D01*
X147564355Y-107074692D01*
X147564354Y-107074694D01*
X147564354Y-107074696D01*
X147544508Y-107200000D01*
X142483132Y-107200000D01*
X142555475Y-107069105D01*
X142690890Y-106742184D01*
X142788850Y-106402157D01*
X142814703Y-106249999D01*
X161742337Y-106249999D01*
X161760960Y-106486635D01*
X161816371Y-106717437D01*
X161907208Y-106936738D01*
X161907210Y-106936741D01*
X162021897Y-107123892D01*
X162473415Y-106672373D01*
X162508063Y-106658021D01*
X162542711Y-106672373D01*
X162551355Y-106684069D01*
X162568130Y-106715710D01*
X162684302Y-106852478D01*
X162795141Y-106936736D01*
X162825637Y-106959918D01*
X162844535Y-106992312D01*
X162834993Y-107028580D01*
X162830632Y-107033575D01*
X162381106Y-107483101D01*
X162381106Y-107483102D01*
X162568258Y-107597789D01*
X162568261Y-107597791D01*
X162787562Y-107688628D01*
X163018364Y-107744039D01*
X163254999Y-107762662D01*
X163491635Y-107744039D01*
X163722437Y-107688628D01*
X163941736Y-107597791D01*
X164128892Y-107483101D01*
X163676181Y-107030391D01*
X163661829Y-106995743D01*
X163676181Y-106961095D01*
X163685562Y-106953760D01*
X163757213Y-106910650D01*
X163887492Y-106787243D01*
X163960872Y-106679014D01*
X163992194Y-106658392D01*
X164028926Y-106665957D01*
X164036076Y-106671866D01*
X164488101Y-107123892D01*
X164602791Y-106936736D01*
X164693628Y-106717437D01*
X164749039Y-106486635D01*
X164767662Y-106249999D01*
X164749039Y-106013364D01*
X164693628Y-105782562D01*
X164602791Y-105563261D01*
X164602789Y-105563258D01*
X164488101Y-105376106D01*
X164036583Y-105827625D01*
X164001935Y-105841977D01*
X163967287Y-105827625D01*
X163958646Y-105815934D01*
X163941870Y-105784290D01*
X163825698Y-105647522D01*
X163825697Y-105647521D01*
X163825696Y-105647520D01*
X163749174Y-105589350D01*
X163684359Y-105540079D01*
X163665462Y-105507686D01*
X163675004Y-105471418D01*
X163679365Y-105466423D01*
X164128892Y-105016897D01*
X164128892Y-105016896D01*
X163941741Y-104902210D01*
X163941738Y-104902208D01*
X163722437Y-104811371D01*
X163491635Y-104755960D01*
X163255000Y-104737337D01*
X163018364Y-104755960D01*
X162787562Y-104811371D01*
X162568261Y-104902208D01*
X162568258Y-104902210D01*
X162381106Y-105016896D01*
X162381106Y-105016897D01*
X162833818Y-105469608D01*
X162848170Y-105504256D01*
X162833818Y-105538904D01*
X162824432Y-105546242D01*
X162752785Y-105589351D01*
X162622508Y-105712756D01*
X162549128Y-105820983D01*
X162517805Y-105841607D01*
X162481073Y-105834042D01*
X162473923Y-105828133D01*
X162021897Y-105376106D01*
X162021896Y-105376106D01*
X161907210Y-105563258D01*
X161907208Y-105563261D01*
X161816371Y-105782562D01*
X161760960Y-106013364D01*
X161742337Y-106249999D01*
X142814703Y-106249999D01*
X142848123Y-106053300D01*
X142867964Y-105700000D01*
X142848123Y-105346700D01*
X142788850Y-104997843D01*
X142690890Y-104657816D01*
X142555475Y-104330895D01*
X142384308Y-104021192D01*
X142384307Y-104021190D01*
X142384305Y-104021187D01*
X142369272Y-104000000D01*
X159194508Y-104000000D01*
X159214354Y-104125304D01*
X159214354Y-104125305D01*
X159214355Y-104125307D01*
X159214355Y-104125309D01*
X159271945Y-104238335D01*
X159271950Y-104238342D01*
X159361657Y-104328049D01*
X159361664Y-104328054D01*
X159474691Y-104385644D01*
X159474692Y-104385644D01*
X159474696Y-104385646D01*
X159600000Y-104405492D01*
X159725304Y-104385646D01*
X159725308Y-104385644D01*
X159725309Y-104385644D01*
X159838335Y-104328054D01*
X159838337Y-104328052D01*
X159838342Y-104328050D01*
X159928050Y-104238342D01*
X159928054Y-104238335D01*
X159985644Y-104125309D01*
X159985644Y-104125307D01*
X159985646Y-104125304D01*
X160005492Y-104000000D01*
X159985646Y-103874696D01*
X159985644Y-103874692D01*
X159985644Y-103874690D01*
X159928054Y-103761664D01*
X159928049Y-103761657D01*
X159838342Y-103671950D01*
X159838335Y-103671945D01*
X159725308Y-103614355D01*
X159725305Y-103614354D01*
X159725304Y-103614354D01*
X159600000Y-103594508D01*
X159474696Y-103614354D01*
X159474694Y-103614354D01*
X159474692Y-103614355D01*
X159474690Y-103614355D01*
X159361664Y-103671945D01*
X159361657Y-103671950D01*
X159271950Y-103761657D01*
X159271945Y-103761664D01*
X159214355Y-103874690D01*
X159214355Y-103874692D01*
X159214354Y-103874694D01*
X159214354Y-103874696D01*
X159194508Y-104000000D01*
X142369272Y-104000000D01*
X142179546Y-103732606D01*
X142179530Y-103732587D01*
X141943750Y-103468750D01*
X141943749Y-103468749D01*
X141719868Y-103268676D01*
X163405737Y-103268676D01*
X163435764Y-103541571D01*
X163505203Y-103807181D01*
X163612575Y-104059849D01*
X163612577Y-104059852D01*
X163755595Y-104294196D01*
X163931209Y-104505218D01*
X164135677Y-104688423D01*
X164364641Y-104839904D01*
X164364644Y-104839905D01*
X164364645Y-104839906D01*
X164613221Y-104956433D01*
X164613231Y-104956437D01*
X164814195Y-105016897D01*
X164876119Y-105035527D01*
X165147731Y-105075500D01*
X165147732Y-105075500D01*
X165353552Y-105075500D01*
X165558793Y-105060478D01*
X165558795Y-105060477D01*
X165558805Y-105060477D01*
X165826775Y-105000784D01*
X166083198Y-104902711D01*
X166322609Y-104768347D01*
X166539904Y-104600557D01*
X166730454Y-104402916D01*
X166890196Y-104179637D01*
X167015727Y-103935479D01*
X167104370Y-103675646D01*
X167154236Y-103405674D01*
X167159242Y-103268676D01*
X174835737Y-103268676D01*
X174865764Y-103541571D01*
X174935203Y-103807181D01*
X175042575Y-104059849D01*
X175042577Y-104059852D01*
X175185595Y-104294196D01*
X175361209Y-104505218D01*
X175565677Y-104688423D01*
X175794641Y-104839904D01*
X175794644Y-104839905D01*
X175794645Y-104839906D01*
X176043221Y-104956433D01*
X176043231Y-104956437D01*
X176244195Y-105016897D01*
X176306119Y-105035527D01*
X176577731Y-105075500D01*
X176577732Y-105075500D01*
X176783552Y-105075500D01*
X176988793Y-105060478D01*
X176988795Y-105060477D01*
X176988805Y-105060477D01*
X177256775Y-105000784D01*
X177513198Y-104902711D01*
X177752609Y-104768347D01*
X177969904Y-104600557D01*
X178160454Y-104402916D01*
X178320196Y-104179637D01*
X178445727Y-103935479D01*
X178534370Y-103675646D01*
X178584236Y-103405674D01*
X178594262Y-103131320D01*
X178564236Y-102858429D01*
X178494796Y-102592818D01*
X178434851Y-102451755D01*
X178387424Y-102340150D01*
X178273754Y-102153895D01*
X178244405Y-102105804D01*
X178068791Y-101894782D01*
X177864323Y-101711577D01*
X177635359Y-101560096D01*
X177635357Y-101560095D01*
X177635354Y-101560093D01*
X177386778Y-101443566D01*
X177386768Y-101443562D01*
X177123883Y-101364473D01*
X176852272Y-101324500D01*
X176852269Y-101324500D01*
X176646453Y-101324500D01*
X176646448Y-101324500D01*
X176441206Y-101339521D01*
X176441198Y-101339522D01*
X176329191Y-101364473D01*
X176173225Y-101399216D01*
X176173223Y-101399216D01*
X176173217Y-101399218D01*
X175916799Y-101497290D01*
X175677391Y-101631652D01*
X175677390Y-101631653D01*
X175460097Y-101799441D01*
X175269545Y-101997085D01*
X175109804Y-102220361D01*
X174984275Y-102464516D01*
X174984273Y-102464519D01*
X174984273Y-102464521D01*
X174929986Y-102623650D01*
X174895629Y-102724357D01*
X174845764Y-102994323D01*
X174845763Y-102994337D01*
X174835737Y-103268676D01*
X167159242Y-103268676D01*
X167164262Y-103131320D01*
X167134236Y-102858429D01*
X167064796Y-102592818D01*
X167004851Y-102451755D01*
X166957424Y-102340150D01*
X166843754Y-102153895D01*
X166814405Y-102105804D01*
X166638791Y-101894782D01*
X166434323Y-101711577D01*
X166205359Y-101560096D01*
X166205357Y-101560095D01*
X166205354Y-101560093D01*
X165956778Y-101443566D01*
X165956768Y-101443562D01*
X165693883Y-101364473D01*
X165422272Y-101324500D01*
X165422269Y-101324500D01*
X165216453Y-101324500D01*
X165216448Y-101324500D01*
X165011206Y-101339521D01*
X165011198Y-101339522D01*
X164899191Y-101364473D01*
X164743225Y-101399216D01*
X164743223Y-101399216D01*
X164743217Y-101399218D01*
X164486799Y-101497290D01*
X164247391Y-101631652D01*
X164247390Y-101631653D01*
X164030097Y-101799441D01*
X163839545Y-101997085D01*
X163679804Y-102220361D01*
X163554275Y-102464516D01*
X163554273Y-102464519D01*
X163554273Y-102464521D01*
X163499986Y-102623650D01*
X163465629Y-102724357D01*
X163415764Y-102994323D01*
X163415763Y-102994337D01*
X163405737Y-103268676D01*
X141719868Y-103268676D01*
X141679912Y-103232969D01*
X141679893Y-103232953D01*
X141391312Y-103028194D01*
X141391305Y-103028190D01*
X141081609Y-102857027D01*
X141081594Y-102857020D01*
X140839288Y-102756654D01*
X140754684Y-102721610D01*
X140644241Y-102689792D01*
X140414667Y-102623652D01*
X140414659Y-102623650D01*
X140414657Y-102623650D01*
X140065800Y-102564377D01*
X140065798Y-102564376D01*
X140065792Y-102564376D01*
X139712500Y-102544536D01*
X139359207Y-102564376D01*
X139359200Y-102564377D01*
X139010343Y-102623650D01*
X139010341Y-102623650D01*
X139010332Y-102623652D01*
X138670313Y-102721611D01*
X138343405Y-102857020D01*
X138343390Y-102857027D01*
X138033694Y-103028190D01*
X138033687Y-103028194D01*
X137745106Y-103232953D01*
X137745087Y-103232969D01*
X137481250Y-103468749D01*
X137481249Y-103468750D01*
X137245469Y-103732587D01*
X137245453Y-103732606D01*
X137040694Y-104021187D01*
X137040690Y-104021194D01*
X136869527Y-104330890D01*
X136869520Y-104330905D01*
X136734111Y-104657813D01*
X136636152Y-104997832D01*
X136636150Y-104997841D01*
X136636150Y-104997843D01*
X136629747Y-105035527D01*
X136576877Y-105346700D01*
X136576876Y-105346707D01*
X136557036Y-105699999D01*
X115025500Y-105699999D01*
X115025500Y-101748788D01*
X115492000Y-101748788D01*
X116216352Y-101024438D01*
X116251000Y-101010086D01*
X116285648Y-101024438D01*
X116300000Y-101059086D01*
X116300000Y-101638912D01*
X116285648Y-101673560D01*
X115610518Y-102348689D01*
X115610517Y-102348691D01*
X115663651Y-102451755D01*
X115794453Y-102618084D01*
X115954372Y-102756654D01*
X115954376Y-102756657D01*
X116137627Y-102862457D01*
X116337594Y-102931665D01*
X116547044Y-102961779D01*
X116758397Y-102951711D01*
X116758403Y-102951710D01*
X116964044Y-102901822D01*
X117156513Y-102813923D01*
X117156522Y-102813918D01*
X117328884Y-102691180D01*
X117328885Y-102691179D01*
X117474908Y-102538037D01*
X117589308Y-102360024D01*
X117592597Y-102351808D01*
X117592597Y-102351807D01*
X116914351Y-101673561D01*
X116900000Y-101638915D01*
X116900000Y-101059084D01*
X116914352Y-101024437D01*
X116949000Y-101010085D01*
X116983648Y-101024437D01*
X117708000Y-101748789D01*
X117708000Y-101748788D01*
X128292000Y-101748788D01*
X129016352Y-101024438D01*
X129051000Y-101010086D01*
X129085648Y-101024438D01*
X129100000Y-101059086D01*
X129100000Y-101638913D01*
X129085648Y-101673561D01*
X128410518Y-102348689D01*
X128410517Y-102348691D01*
X128463651Y-102451755D01*
X128594453Y-102618084D01*
X128754372Y-102756654D01*
X128754376Y-102756657D01*
X128937627Y-102862457D01*
X129137594Y-102931665D01*
X129347044Y-102961779D01*
X129558397Y-102951711D01*
X129558403Y-102951710D01*
X129764044Y-102901822D01*
X129956513Y-102813923D01*
X129956522Y-102813918D01*
X130128884Y-102691180D01*
X130128885Y-102691179D01*
X130274908Y-102538037D01*
X130389308Y-102360024D01*
X130392597Y-102351808D01*
X130392597Y-102351807D01*
X129714352Y-101673562D01*
X129700000Y-101638914D01*
X129700000Y-101059085D01*
X129714352Y-101024437D01*
X129749000Y-101010085D01*
X129783648Y-101024437D01*
X130508000Y-101748789D01*
X130508000Y-101300000D01*
X138294508Y-101300000D01*
X138314354Y-101425304D01*
X138314354Y-101425305D01*
X138314355Y-101425307D01*
X138314355Y-101425309D01*
X138371945Y-101538335D01*
X138371950Y-101538342D01*
X138461657Y-101628049D01*
X138461664Y-101628054D01*
X138574691Y-101685644D01*
X138574692Y-101685644D01*
X138574696Y-101685646D01*
X138700000Y-101705492D01*
X138825304Y-101685646D01*
X138825308Y-101685644D01*
X138825309Y-101685644D01*
X138938335Y-101628054D01*
X138938337Y-101628052D01*
X138938342Y-101628050D01*
X139028050Y-101538342D01*
X139028054Y-101538335D01*
X139085644Y-101425309D01*
X139085644Y-101425307D01*
X139085646Y-101425304D01*
X139105492Y-101300000D01*
X139085646Y-101174696D01*
X139085644Y-101174692D01*
X139085644Y-101174690D01*
X139028054Y-101061664D01*
X139028049Y-101061657D01*
X138938342Y-100971950D01*
X138938335Y-100971945D01*
X138825308Y-100914355D01*
X138825305Y-100914354D01*
X138825304Y-100914354D01*
X138700000Y-100894508D01*
X138574696Y-100914354D01*
X138574694Y-100914354D01*
X138574692Y-100914355D01*
X138574690Y-100914355D01*
X138461664Y-100971945D01*
X138461657Y-100971950D01*
X138371950Y-101061657D01*
X138371945Y-101061664D01*
X138314355Y-101174690D01*
X138314355Y-101174692D01*
X138314354Y-101174694D01*
X138314354Y-101174696D01*
X138294508Y-101300000D01*
X130508000Y-101300000D01*
X130507999Y-100251209D01*
X129783648Y-100975561D01*
X129749000Y-100989913D01*
X129714352Y-100975561D01*
X129700000Y-100940913D01*
X129700000Y-100361086D01*
X129714352Y-100326438D01*
X130389480Y-99651309D01*
X130389481Y-99651308D01*
X130336348Y-99548244D01*
X130205546Y-99381915D01*
X130045627Y-99243345D01*
X130045623Y-99243342D01*
X129862372Y-99137542D01*
X129662405Y-99068334D01*
X129465335Y-99040000D01*
X139597070Y-99040000D01*
X139616759Y-99302745D01*
X139616760Y-99302754D01*
X139675392Y-99559634D01*
X139771656Y-99804910D01*
X139903394Y-100033087D01*
X139949671Y-100091117D01*
X140559923Y-99480865D01*
X140594571Y-99466513D01*
X140629219Y-99480865D01*
X140637863Y-99492561D01*
X140652316Y-99519822D01*
X140772009Y-99660735D01*
X140905185Y-99761973D01*
X140912797Y-99767759D01*
X140931695Y-99800153D01*
X140922153Y-99836421D01*
X140917792Y-99841416D01*
X140308438Y-100450769D01*
X140478542Y-100566746D01*
X140715922Y-100681062D01*
X140715935Y-100681067D01*
X140967708Y-100758728D01*
X141228258Y-100798000D01*
X141491742Y-100798000D01*
X141752291Y-100758728D01*
X142004064Y-100681067D01*
X142004077Y-100681062D01*
X142241457Y-100566746D01*
X142411560Y-100450770D01*
X142411560Y-100450769D01*
X141799397Y-99838607D01*
X141785045Y-99803959D01*
X141799397Y-99769311D01*
X141808783Y-99761973D01*
X141877431Y-99720669D01*
X142011658Y-99593523D01*
X142083871Y-99487015D01*
X142115194Y-99466392D01*
X142151926Y-99473957D01*
X142159076Y-99479866D01*
X142770328Y-100091118D01*
X142816599Y-100033096D01*
X142816600Y-100033095D01*
X142948343Y-99804910D01*
X143044607Y-99559634D01*
X143103239Y-99302754D01*
X143103240Y-99302745D01*
X143122929Y-99040000D01*
X144677070Y-99040000D01*
X144696759Y-99302745D01*
X144696760Y-99302754D01*
X144755392Y-99559634D01*
X144851656Y-99804910D01*
X144983394Y-100033087D01*
X145029671Y-100091117D01*
X145639923Y-99480865D01*
X145674571Y-99466513D01*
X145709219Y-99480865D01*
X145717863Y-99492561D01*
X145732316Y-99519822D01*
X145852009Y-99660735D01*
X145985185Y-99761973D01*
X145992797Y-99767759D01*
X146011695Y-99800153D01*
X146002153Y-99836421D01*
X145997792Y-99841416D01*
X145388438Y-100450769D01*
X145558542Y-100566746D01*
X145795922Y-100681062D01*
X145795935Y-100681067D01*
X146047708Y-100758728D01*
X146308258Y-100798000D01*
X146571742Y-100798000D01*
X146832291Y-100758728D01*
X147022684Y-100700000D01*
X159194508Y-100700000D01*
X159214354Y-100825304D01*
X159214354Y-100825305D01*
X159214355Y-100825307D01*
X159214355Y-100825309D01*
X159271945Y-100938335D01*
X159271950Y-100938342D01*
X159361657Y-101028049D01*
X159361664Y-101028054D01*
X159474691Y-101085644D01*
X159474692Y-101085644D01*
X159474696Y-101085646D01*
X159600000Y-101105492D01*
X159725304Y-101085646D01*
X159725308Y-101085644D01*
X159725309Y-101085644D01*
X159838335Y-101028054D01*
X159838337Y-101028052D01*
X159838342Y-101028050D01*
X159928050Y-100938342D01*
X159928054Y-100938335D01*
X159985644Y-100825309D01*
X159985644Y-100825307D01*
X159985646Y-100825304D01*
X160005492Y-100700000D01*
X160794508Y-100700000D01*
X160814354Y-100825304D01*
X160814354Y-100825305D01*
X160814355Y-100825307D01*
X160814355Y-100825309D01*
X160871945Y-100938335D01*
X160871950Y-100938342D01*
X160961657Y-101028049D01*
X160961664Y-101028054D01*
X161074691Y-101085644D01*
X161074692Y-101085644D01*
X161074696Y-101085646D01*
X161200000Y-101105492D01*
X161325304Y-101085646D01*
X161325308Y-101085644D01*
X161325309Y-101085644D01*
X161438335Y-101028054D01*
X161438337Y-101028052D01*
X161438342Y-101028050D01*
X161528050Y-100938342D01*
X161528054Y-100938335D01*
X161585644Y-100825309D01*
X161585644Y-100825307D01*
X161585646Y-100825304D01*
X161605492Y-100700000D01*
X161585646Y-100574696D01*
X161585644Y-100574692D01*
X161585644Y-100574690D01*
X161528054Y-100461664D01*
X161528049Y-100461657D01*
X161438342Y-100371950D01*
X161438335Y-100371945D01*
X161325308Y-100314355D01*
X161325305Y-100314354D01*
X161325304Y-100314354D01*
X161200000Y-100294508D01*
X161074696Y-100314354D01*
X161074694Y-100314354D01*
X161074692Y-100314355D01*
X161074690Y-100314355D01*
X160961664Y-100371945D01*
X160961657Y-100371950D01*
X160871950Y-100461657D01*
X160871945Y-100461664D01*
X160814355Y-100574690D01*
X160814355Y-100574692D01*
X160814354Y-100574694D01*
X160814354Y-100574696D01*
X160794508Y-100700000D01*
X160005492Y-100700000D01*
X159985646Y-100574696D01*
X159985644Y-100574692D01*
X159985644Y-100574690D01*
X159928054Y-100461664D01*
X159928049Y-100461657D01*
X159838342Y-100371950D01*
X159838335Y-100371945D01*
X159725308Y-100314355D01*
X159725305Y-100314354D01*
X159725304Y-100314354D01*
X159600000Y-100294508D01*
X159474696Y-100314354D01*
X159474694Y-100314354D01*
X159474692Y-100314355D01*
X159474690Y-100314355D01*
X159361664Y-100371945D01*
X159361657Y-100371950D01*
X159271950Y-100461657D01*
X159271945Y-100461664D01*
X159214355Y-100574690D01*
X159214355Y-100574692D01*
X159214354Y-100574694D01*
X159214354Y-100574696D01*
X159194508Y-100700000D01*
X147022684Y-100700000D01*
X147084064Y-100681067D01*
X147084077Y-100681062D01*
X147321457Y-100566746D01*
X147491560Y-100450770D01*
X147491560Y-100450769D01*
X146879397Y-99838607D01*
X146865045Y-99803959D01*
X146879397Y-99769311D01*
X146888783Y-99761973D01*
X146957431Y-99720669D01*
X147091658Y-99593523D01*
X147163871Y-99487015D01*
X147195194Y-99466392D01*
X147231926Y-99473957D01*
X147239076Y-99479866D01*
X147850328Y-100091118D01*
X147896599Y-100033096D01*
X147896600Y-100033095D01*
X148028343Y-99804910D01*
X148124607Y-99559634D01*
X148183239Y-99302754D01*
X148183240Y-99302745D01*
X148202929Y-99040000D01*
X148183240Y-98777254D01*
X148183239Y-98777245D01*
X148124607Y-98520365D01*
X148038120Y-98300000D01*
X163569435Y-98300000D01*
X163589631Y-98479249D01*
X163589633Y-98479258D01*
X163649212Y-98649526D01*
X163729470Y-98777254D01*
X163745184Y-98802262D01*
X163872738Y-98929816D01*
X163872740Y-98929817D01*
X164025473Y-99025787D01*
X164025477Y-99025788D01*
X164025478Y-99025789D01*
X164195745Y-99085368D01*
X164375000Y-99105565D01*
X164554255Y-99085368D01*
X164724522Y-99025789D01*
X164724524Y-99025787D01*
X164724526Y-99025787D01*
X164780596Y-98990555D01*
X164877262Y-98929816D01*
X165004816Y-98802262D01*
X165065555Y-98705596D01*
X165100787Y-98649526D01*
X165100787Y-98649524D01*
X165100789Y-98649522D01*
X165160368Y-98479255D01*
X165180565Y-98300000D01*
X166109435Y-98300000D01*
X166129631Y-98479249D01*
X166129633Y-98479258D01*
X166189212Y-98649526D01*
X166269470Y-98777254D01*
X166285184Y-98802262D01*
X166412738Y-98929816D01*
X166412740Y-98929817D01*
X166565473Y-99025787D01*
X166565477Y-99025788D01*
X166565478Y-99025789D01*
X166735745Y-99085368D01*
X166915000Y-99105565D01*
X167094255Y-99085368D01*
X167264522Y-99025789D01*
X167264524Y-99025787D01*
X167264526Y-99025787D01*
X167320596Y-98990555D01*
X167417262Y-98929816D01*
X167544816Y-98802262D01*
X167605555Y-98705596D01*
X167640787Y-98649526D01*
X167640787Y-98649524D01*
X167640789Y-98649522D01*
X167700368Y-98479255D01*
X167720565Y-98300000D01*
X167720565Y-98299999D01*
X174279435Y-98299999D01*
X174299631Y-98479249D01*
X174299633Y-98479258D01*
X174359212Y-98649526D01*
X174439470Y-98777254D01*
X174455184Y-98802262D01*
X174582738Y-98929816D01*
X174582740Y-98929817D01*
X174735473Y-99025787D01*
X174735477Y-99025788D01*
X174735478Y-99025789D01*
X174905745Y-99085368D01*
X175085000Y-99105565D01*
X175264255Y-99085368D01*
X175434522Y-99025789D01*
X175434524Y-99025787D01*
X175434526Y-99025787D01*
X175490596Y-98990555D01*
X175587262Y-98929816D01*
X175714816Y-98802262D01*
X175775555Y-98705596D01*
X175810787Y-98649526D01*
X175810787Y-98649524D01*
X175810789Y-98649522D01*
X175870368Y-98479255D01*
X175890565Y-98300000D01*
X176819435Y-98300000D01*
X176839631Y-98479249D01*
X176839633Y-98479258D01*
X176899212Y-98649526D01*
X176979470Y-98777254D01*
X176995184Y-98802262D01*
X177122738Y-98929816D01*
X177122740Y-98929817D01*
X177275473Y-99025787D01*
X177275477Y-99025788D01*
X177275478Y-99025789D01*
X177445745Y-99085368D01*
X177625000Y-99105565D01*
X177804255Y-99085368D01*
X177974522Y-99025789D01*
X177974524Y-99025787D01*
X177974526Y-99025787D01*
X178030596Y-98990555D01*
X178127262Y-98929816D01*
X178254816Y-98802262D01*
X178315555Y-98705596D01*
X178350787Y-98649526D01*
X178350787Y-98649524D01*
X178350789Y-98649522D01*
X178410368Y-98479255D01*
X178430565Y-98300000D01*
X178410368Y-98120745D01*
X178350789Y-97950478D01*
X178350788Y-97950477D01*
X178350787Y-97950473D01*
X178254817Y-97797740D01*
X178254816Y-97797738D01*
X178127262Y-97670184D01*
X178105395Y-97656444D01*
X177974526Y-97574212D01*
X177804258Y-97514633D01*
X177804257Y-97514632D01*
X177804255Y-97514632D01*
X177804251Y-97514631D01*
X177804249Y-97514631D01*
X177625000Y-97494435D01*
X177445750Y-97514631D01*
X177445741Y-97514633D01*
X177275473Y-97574212D01*
X177122740Y-97670182D01*
X177122736Y-97670185D01*
X176995185Y-97797736D01*
X176995182Y-97797740D01*
X176899212Y-97950473D01*
X176839633Y-98120741D01*
X176839631Y-98120750D01*
X176819435Y-98300000D01*
X175890565Y-98300000D01*
X175870368Y-98120745D01*
X175810789Y-97950478D01*
X175810788Y-97950477D01*
X175810787Y-97950473D01*
X175714817Y-97797740D01*
X175714816Y-97797738D01*
X175587262Y-97670184D01*
X175565395Y-97656444D01*
X175434526Y-97574212D01*
X175264258Y-97514633D01*
X175264257Y-97514632D01*
X175264255Y-97514632D01*
X175264251Y-97514631D01*
X175264249Y-97514631D01*
X175085000Y-97494435D01*
X174905750Y-97514631D01*
X174905741Y-97514633D01*
X174735473Y-97574212D01*
X174582740Y-97670182D01*
X174582736Y-97670185D01*
X174455185Y-97797736D01*
X174455182Y-97797740D01*
X174359212Y-97950473D01*
X174299633Y-98120741D01*
X174299631Y-98120750D01*
X174279435Y-98299999D01*
X167720565Y-98299999D01*
X167700368Y-98120745D01*
X167640789Y-97950478D01*
X167640788Y-97950477D01*
X167640787Y-97950473D01*
X167544817Y-97797740D01*
X167544816Y-97797738D01*
X167417262Y-97670184D01*
X167395395Y-97656444D01*
X167264526Y-97574212D01*
X167094258Y-97514633D01*
X167094257Y-97514632D01*
X167094255Y-97514632D01*
X167094251Y-97514631D01*
X167094249Y-97514631D01*
X166915000Y-97494435D01*
X166735750Y-97514631D01*
X166735741Y-97514633D01*
X166565473Y-97574212D01*
X166412740Y-97670182D01*
X166412736Y-97670185D01*
X166285185Y-97797736D01*
X166285182Y-97797740D01*
X166189212Y-97950473D01*
X166129633Y-98120741D01*
X166129631Y-98120750D01*
X166109435Y-98300000D01*
X165180565Y-98300000D01*
X165160368Y-98120745D01*
X165100789Y-97950478D01*
X165100788Y-97950477D01*
X165100787Y-97950473D01*
X165004817Y-97797740D01*
X165004816Y-97797738D01*
X164877262Y-97670184D01*
X164855395Y-97656444D01*
X164724526Y-97574212D01*
X164554258Y-97514633D01*
X164554257Y-97514632D01*
X164554255Y-97514632D01*
X164554251Y-97514631D01*
X164554249Y-97514631D01*
X164375000Y-97494435D01*
X164195750Y-97514631D01*
X164195741Y-97514633D01*
X164025473Y-97574212D01*
X163872740Y-97670182D01*
X163872736Y-97670185D01*
X163745185Y-97797736D01*
X163745182Y-97797740D01*
X163649212Y-97950473D01*
X163589633Y-98120741D01*
X163589631Y-98120750D01*
X163569435Y-98300000D01*
X148038120Y-98300000D01*
X148028343Y-98275089D01*
X147896605Y-98046912D01*
X147850327Y-97988881D01*
X147240075Y-98599133D01*
X147205427Y-98613485D01*
X147170779Y-98599133D01*
X147162138Y-98587441D01*
X147147684Y-98560178D01*
X147027991Y-98419265D01*
X147027990Y-98419264D01*
X147027989Y-98419263D01*
X146887201Y-98312239D01*
X146868303Y-98279845D01*
X146877845Y-98243577D01*
X146882206Y-98238582D01*
X147491560Y-97629229D01*
X147321457Y-97513253D01*
X147084077Y-97398937D01*
X147084064Y-97398932D01*
X146832291Y-97321271D01*
X146571742Y-97282000D01*
X146308258Y-97282000D01*
X146047708Y-97321271D01*
X145795935Y-97398932D01*
X145795922Y-97398937D01*
X145558537Y-97513256D01*
X145388438Y-97629229D01*
X146000602Y-98241392D01*
X146014954Y-98276040D01*
X146000602Y-98310688D01*
X145991217Y-98318026D01*
X145922565Y-98359333D01*
X145788342Y-98486476D01*
X145765365Y-98520365D01*
X145719891Y-98587436D01*
X145716129Y-98592984D01*
X145684806Y-98613608D01*
X145648074Y-98606043D01*
X145640924Y-98600134D01*
X145029671Y-97988881D01*
X145029669Y-97988881D01*
X144983399Y-98046905D01*
X144983394Y-98046911D01*
X144851656Y-98275089D01*
X144755392Y-98520365D01*
X144696760Y-98777245D01*
X144696759Y-98777254D01*
X144677070Y-99040000D01*
X143122929Y-99040000D01*
X143103240Y-98777254D01*
X143103239Y-98777245D01*
X143044607Y-98520365D01*
X142948343Y-98275089D01*
X142816605Y-98046912D01*
X142770327Y-97988881D01*
X142160075Y-98599133D01*
X142125427Y-98613485D01*
X142090779Y-98599133D01*
X142082138Y-98587441D01*
X142067684Y-98560178D01*
X141947991Y-98419265D01*
X141947990Y-98419264D01*
X141947989Y-98419263D01*
X141807201Y-98312239D01*
X141788303Y-98279845D01*
X141797845Y-98243577D01*
X141802206Y-98238582D01*
X142411560Y-97629229D01*
X142241457Y-97513253D01*
X142178999Y-97483175D01*
X142599500Y-97483175D01*
X142609429Y-97551323D01*
X142609430Y-97551325D01*
X142620619Y-97574212D01*
X142660819Y-97656443D01*
X142743557Y-97739181D01*
X142848678Y-97790571D01*
X142896966Y-97797606D01*
X142916824Y-97800500D01*
X142916826Y-97800500D01*
X144883176Y-97800500D01*
X144902145Y-97797736D01*
X144951322Y-97790571D01*
X145056443Y-97739181D01*
X145139181Y-97656443D01*
X145190571Y-97551322D01*
X145200500Y-97483174D01*
X145200500Y-95516826D01*
X145190571Y-95448678D01*
X145139181Y-95343557D01*
X145056443Y-95260819D01*
X145003882Y-95235124D01*
X144951325Y-95209430D01*
X144951323Y-95209429D01*
X144883176Y-95199500D01*
X144883174Y-95199500D01*
X142916826Y-95199500D01*
X142916824Y-95199500D01*
X142848676Y-95209429D01*
X142848674Y-95209430D01*
X142743559Y-95260818D01*
X142743555Y-95260820D01*
X142660820Y-95343555D01*
X142660818Y-95343559D01*
X142609430Y-95448674D01*
X142609429Y-95448676D01*
X142599500Y-95516824D01*
X142599500Y-97483175D01*
X142178999Y-97483175D01*
X142004077Y-97398937D01*
X142004064Y-97398932D01*
X141752291Y-97321271D01*
X141491742Y-97282000D01*
X141228258Y-97282000D01*
X140967708Y-97321271D01*
X140715935Y-97398932D01*
X140715922Y-97398937D01*
X140478537Y-97513256D01*
X140308438Y-97629229D01*
X140920602Y-98241392D01*
X140934954Y-98276040D01*
X140920602Y-98310688D01*
X140911217Y-98318026D01*
X140842565Y-98359333D01*
X140708342Y-98486476D01*
X140685365Y-98520365D01*
X140639891Y-98587436D01*
X140636129Y-98592984D01*
X140604806Y-98613608D01*
X140568074Y-98606043D01*
X140560924Y-98600134D01*
X139949671Y-97988881D01*
X139949669Y-97988881D01*
X139903399Y-98046905D01*
X139903394Y-98046911D01*
X139771656Y-98275089D01*
X139675392Y-98520365D01*
X139616760Y-98777245D01*
X139616759Y-98777254D01*
X139597070Y-99040000D01*
X129465335Y-99040000D01*
X129452955Y-99038220D01*
X129241602Y-99048288D01*
X129241596Y-99048289D01*
X129035955Y-99098177D01*
X128843486Y-99186076D01*
X128843477Y-99186081D01*
X128671115Y-99308819D01*
X128671114Y-99308820D01*
X128525091Y-99461962D01*
X128410689Y-99639978D01*
X128407400Y-99648190D01*
X129085648Y-100326438D01*
X129100000Y-100361086D01*
X129100000Y-100940913D01*
X129085648Y-100975561D01*
X129051000Y-100989913D01*
X129016352Y-100975561D01*
X128292000Y-100251209D01*
X128292000Y-101748788D01*
X117708000Y-101748788D01*
X117708000Y-100251209D01*
X116983648Y-100975562D01*
X116949000Y-100989914D01*
X116914352Y-100975562D01*
X116900000Y-100940914D01*
X116900000Y-100361085D01*
X116914352Y-100326437D01*
X117589481Y-99651308D01*
X117536348Y-99548244D01*
X117405546Y-99381915D01*
X117245627Y-99243345D01*
X117245623Y-99243342D01*
X117062372Y-99137542D01*
X116862405Y-99068334D01*
X116652955Y-99038220D01*
X116441602Y-99048288D01*
X116441596Y-99048289D01*
X116235955Y-99098177D01*
X116043486Y-99186076D01*
X116043477Y-99186081D01*
X115871115Y-99308819D01*
X115871114Y-99308820D01*
X115725091Y-99461962D01*
X115610689Y-99639978D01*
X115607400Y-99648190D01*
X116285648Y-100326438D01*
X116300000Y-100361086D01*
X116300000Y-100940913D01*
X116285648Y-100975561D01*
X116251000Y-100989913D01*
X116216352Y-100975561D01*
X115492000Y-100251209D01*
X115492000Y-101748788D01*
X115025500Y-101748788D01*
X115025500Y-93960000D01*
X139597070Y-93960000D01*
X139616759Y-94222745D01*
X139616760Y-94222754D01*
X139675392Y-94479634D01*
X139771656Y-94724910D01*
X139903394Y-94953087D01*
X139949671Y-95011117D01*
X140559923Y-94400865D01*
X140594571Y-94386513D01*
X140629219Y-94400865D01*
X140637863Y-94412561D01*
X140652316Y-94439822D01*
X140772009Y-94580735D01*
X140905185Y-94681973D01*
X140912797Y-94687759D01*
X140931695Y-94720153D01*
X140922153Y-94756421D01*
X140917792Y-94761416D01*
X140308438Y-95370769D01*
X140478542Y-95486746D01*
X140715922Y-95601062D01*
X140715935Y-95601067D01*
X140967708Y-95678728D01*
X141228258Y-95718000D01*
X141491742Y-95718000D01*
X141752291Y-95678728D01*
X142004064Y-95601067D01*
X142004077Y-95601062D01*
X142241457Y-95486746D01*
X142411560Y-95370770D01*
X142411560Y-95370769D01*
X141799397Y-94758607D01*
X141785045Y-94723959D01*
X141799397Y-94689311D01*
X141808783Y-94681973D01*
X141877431Y-94640669D01*
X142011658Y-94513523D01*
X142083871Y-94407015D01*
X142115194Y-94386392D01*
X142151926Y-94393957D01*
X142159076Y-94399866D01*
X142770328Y-95011118D01*
X142816599Y-94953096D01*
X142816600Y-94953095D01*
X142948343Y-94724910D01*
X143044607Y-94479634D01*
X143103239Y-94222754D01*
X143103240Y-94222745D01*
X143122929Y-93960000D01*
X144677070Y-93960000D01*
X144696759Y-94222745D01*
X144696760Y-94222754D01*
X144755392Y-94479634D01*
X144851656Y-94724910D01*
X144983394Y-94953087D01*
X145029671Y-95011117D01*
X145639923Y-94400865D01*
X145674571Y-94386513D01*
X145709219Y-94400865D01*
X145717863Y-94412561D01*
X145732316Y-94439822D01*
X145852009Y-94580735D01*
X145985185Y-94681973D01*
X145992797Y-94687759D01*
X146011695Y-94720153D01*
X146002153Y-94756421D01*
X145997792Y-94761416D01*
X145388438Y-95370769D01*
X145558542Y-95486746D01*
X145795922Y-95601062D01*
X145795935Y-95601067D01*
X146047708Y-95678728D01*
X146308258Y-95718000D01*
X146571742Y-95718000D01*
X146832291Y-95678728D01*
X147084064Y-95601067D01*
X147084077Y-95601062D01*
X147321457Y-95486746D01*
X147491560Y-95370770D01*
X147491560Y-95370769D01*
X146879397Y-94758607D01*
X146865045Y-94723959D01*
X146879397Y-94689311D01*
X146888783Y-94681973D01*
X146957431Y-94640669D01*
X147091658Y-94513523D01*
X147163871Y-94407015D01*
X147195194Y-94386392D01*
X147231926Y-94393957D01*
X147239076Y-94399866D01*
X147850328Y-95011118D01*
X147896599Y-94953096D01*
X147896600Y-94953095D01*
X148028343Y-94724910D01*
X148124607Y-94479634D01*
X148183239Y-94222754D01*
X148183240Y-94222745D01*
X148202929Y-93960000D01*
X148183240Y-93697254D01*
X148183239Y-93697245D01*
X148124607Y-93440365D01*
X148028343Y-93195089D01*
X147896605Y-92966912D01*
X147850327Y-92908881D01*
X147240075Y-93519133D01*
X147205427Y-93533485D01*
X147170779Y-93519133D01*
X147162138Y-93507441D01*
X147147684Y-93480178D01*
X147027991Y-93339265D01*
X147027990Y-93339264D01*
X147027989Y-93339263D01*
X146887201Y-93232239D01*
X146868303Y-93199845D01*
X146877845Y-93163577D01*
X146882206Y-93158582D01*
X147491560Y-92549229D01*
X147321457Y-92433253D01*
X147084077Y-92318937D01*
X147084064Y-92318932D01*
X146832291Y-92241271D01*
X146571742Y-92202000D01*
X146308258Y-92202000D01*
X146047708Y-92241271D01*
X145795935Y-92318932D01*
X145795922Y-92318937D01*
X145558537Y-92433256D01*
X145388438Y-92549229D01*
X146000602Y-93161392D01*
X146014954Y-93196040D01*
X146000602Y-93230688D01*
X145991217Y-93238026D01*
X145922565Y-93279333D01*
X145788342Y-93406476D01*
X145765365Y-93440365D01*
X145719891Y-93507436D01*
X145716129Y-93512984D01*
X145684806Y-93533608D01*
X145648074Y-93526043D01*
X145640924Y-93520134D01*
X145029671Y-92908881D01*
X145029669Y-92908881D01*
X144983399Y-92966905D01*
X144983394Y-92966911D01*
X144851656Y-93195089D01*
X144755392Y-93440365D01*
X144696760Y-93697245D01*
X144696759Y-93697254D01*
X144677070Y-93960000D01*
X143122929Y-93960000D01*
X143103240Y-93697254D01*
X143103239Y-93697245D01*
X143044607Y-93440365D01*
X142948343Y-93195089D01*
X142816605Y-92966912D01*
X142770327Y-92908881D01*
X142160075Y-93519133D01*
X142125427Y-93533485D01*
X142090779Y-93519133D01*
X142082138Y-93507441D01*
X142067684Y-93480178D01*
X141947991Y-93339265D01*
X141947990Y-93339264D01*
X141947989Y-93339263D01*
X141807201Y-93232239D01*
X141788303Y-93199845D01*
X141797845Y-93163577D01*
X141802206Y-93158582D01*
X142411560Y-92549229D01*
X142241457Y-92433253D01*
X142004077Y-92318937D01*
X142004064Y-92318932D01*
X141752291Y-92241271D01*
X141491742Y-92202000D01*
X141228258Y-92202000D01*
X140967708Y-92241271D01*
X140715935Y-92318932D01*
X140715922Y-92318937D01*
X140478537Y-92433256D01*
X140308438Y-92549229D01*
X140920602Y-93161392D01*
X140934954Y-93196040D01*
X140920602Y-93230688D01*
X140911217Y-93238026D01*
X140842565Y-93279333D01*
X140708342Y-93406476D01*
X140685365Y-93440365D01*
X140639891Y-93507436D01*
X140636129Y-93512984D01*
X140604806Y-93533608D01*
X140568074Y-93526043D01*
X140560924Y-93520134D01*
X139949671Y-92908881D01*
X139949669Y-92908881D01*
X139903399Y-92966905D01*
X139903394Y-92966911D01*
X139771656Y-93195089D01*
X139675392Y-93440365D01*
X139616760Y-93697245D01*
X139616759Y-93697254D01*
X139597070Y-93960000D01*
X115025500Y-93960000D01*
X115025500Y-93001074D01*
X115025593Y-92998938D01*
X115033349Y-92910280D01*
X115039932Y-92835037D01*
X115041413Y-92826644D01*
X115083161Y-92670837D01*
X115086078Y-92662821D01*
X115154252Y-92516620D01*
X115158509Y-92509248D01*
X115251035Y-92377108D01*
X115256514Y-92370578D01*
X115370578Y-92256514D01*
X115377108Y-92251035D01*
X115509248Y-92158509D01*
X115516620Y-92154252D01*
X115662821Y-92086078D01*
X115670837Y-92083161D01*
X115826644Y-92041413D01*
X115835037Y-92039932D01*
X115957418Y-92029225D01*
X115998940Y-92025593D01*
X116001076Y-92025500D01*
X148225357Y-92025500D01*
X148225363Y-92025498D01*
X179098921Y-92025498D01*
X179101057Y-92025591D01*
G37*
%TD.AperFunction*%
%TD*%
M02*
